G04 EAGLE Gerber RS-274X export*
G75*
%MOMM*%
%FSLAX34Y34*%
%LPD*%
%INSilkscreen Top*%
%IPPOS*%
%AMOC8*
5,1,8,0,0,1.08239X$1,22.5*%
G01*
%ADD10R,1.524000X2.032000*%
%ADD11R,1.016000X4.572000*%
%ADD12C,0.279400*%
%ADD13C,0.203200*%
%ADD14C,0.254000*%
%ADD15C,0.127000*%
%ADD16C,0.254000*%
%ADD17C,0.200000*%

G36*
X146197Y169131D02*
X146197Y169131D01*
X146202Y169130D01*
X146729Y169183D01*
X146732Y169184D01*
X146735Y169184D01*
X147252Y169285D01*
X147255Y169287D01*
X147259Y169287D01*
X147765Y169444D01*
X147767Y169447D01*
X147772Y169447D01*
X148252Y169667D01*
X148253Y169669D01*
X148255Y169669D01*
X148721Y169922D01*
X148723Y169926D01*
X148730Y169928D01*
X149145Y170256D01*
X149145Y170257D01*
X149147Y170257D01*
X149546Y170604D01*
X149548Y170608D01*
X149554Y170611D01*
X149891Y171020D01*
X149891Y171022D01*
X149894Y171023D01*
X150200Y171453D01*
X150200Y171456D01*
X150204Y171459D01*
X150456Y171925D01*
X150456Y171926D01*
X150458Y171927D01*
X150457Y171929D01*
X150460Y171931D01*
X150656Y172421D01*
X150655Y172423D01*
X150657Y172426D01*
X150814Y172931D01*
X150813Y172936D01*
X150817Y172941D01*
X150892Y173464D01*
X150891Y173465D01*
X150892Y173466D01*
X150945Y173993D01*
X150944Y173996D01*
X150946Y173999D01*
X150949Y175059D01*
X150948Y175061D01*
X150949Y175065D01*
X150902Y175548D01*
X150890Y175563D01*
X150887Y175583D01*
X150867Y175592D01*
X150860Y175601D01*
X150851Y175599D01*
X150839Y175604D01*
X148191Y175604D01*
X148182Y175598D01*
X148171Y175601D01*
X148155Y175581D01*
X148134Y175567D01*
X148135Y175556D01*
X148128Y175548D01*
X148143Y175505D01*
X148144Y175500D01*
X148145Y175500D01*
X148145Y175499D01*
X148454Y175167D01*
X148719Y174728D01*
X148857Y174235D01*
X148870Y173721D01*
X148796Y173210D01*
X148621Y172727D01*
X148343Y172296D01*
X147976Y171938D01*
X147539Y171665D01*
X147057Y171479D01*
X146549Y171373D01*
X146030Y171336D01*
X145511Y171376D01*
X145004Y171490D01*
X144527Y171687D01*
X144099Y171973D01*
X143744Y172345D01*
X143483Y172788D01*
X143327Y173279D01*
X143275Y173794D01*
X143316Y174307D01*
X143476Y174794D01*
X143935Y175507D01*
X143935Y175513D01*
X143939Y175515D01*
X143935Y175545D01*
X143935Y175575D01*
X143930Y175578D01*
X143930Y175583D01*
X143882Y175604D01*
X143405Y175604D01*
X143332Y175994D01*
X143332Y177031D01*
X143454Y177246D01*
X143453Y177257D01*
X143454Y177259D01*
X143457Y177261D01*
X143457Y177263D01*
X143461Y177271D01*
X143467Y177333D01*
X143473Y177333D01*
X143495Y177323D01*
X150876Y177323D01*
X150895Y177336D01*
X150918Y177339D01*
X150925Y177355D01*
X150933Y177360D01*
X150932Y177370D01*
X150939Y177386D01*
X150948Y194327D01*
X150946Y194330D01*
X150947Y194334D01*
X150823Y195385D01*
X150820Y195389D01*
X150821Y195396D01*
X150664Y195902D01*
X150662Y195903D01*
X150663Y195906D01*
X150471Y196397D01*
X150468Y196399D01*
X150467Y196404D01*
X150215Y196870D01*
X150212Y196871D01*
X150211Y196876D01*
X149908Y197308D01*
X149906Y197309D01*
X149905Y197312D01*
X149568Y197720D01*
X149567Y197721D01*
X149567Y197722D01*
X149563Y197724D01*
X149561Y197727D01*
X149165Y198077D01*
X149164Y198077D01*
X149163Y198079D01*
X148750Y198410D01*
X148745Y198411D01*
X148741Y198416D01*
X148275Y198669D01*
X148274Y198669D01*
X148272Y198671D01*
X147795Y198895D01*
X147791Y198895D01*
X147787Y198898D01*
X147281Y199055D01*
X147278Y199055D01*
X147275Y199057D01*
X146759Y199163D01*
X146756Y199162D01*
X146752Y199164D01*
X146225Y199217D01*
X146222Y199216D01*
X146217Y199218D01*
X145690Y199204D01*
X145688Y199203D01*
X145686Y199204D01*
X145159Y199150D01*
X145155Y199148D01*
X145149Y199149D01*
X144638Y199016D01*
X144637Y199015D01*
X144635Y199015D01*
X144130Y198858D01*
X144126Y198854D01*
X144119Y198853D01*
X143652Y198604D01*
X143651Y198603D01*
X143649Y198602D01*
X143195Y198334D01*
X143193Y198330D01*
X143187Y198328D01*
X142778Y197991D01*
X142777Y197989D01*
X142774Y197987D01*
X142396Y197620D01*
X142396Y197617D01*
X142392Y197615D01*
X142055Y197206D01*
X142054Y197202D01*
X142050Y197199D01*
X141769Y196753D01*
X141769Y196751D01*
X141767Y196749D01*
X141514Y196284D01*
X141515Y196278D01*
X141510Y196273D01*
X141195Y195263D01*
X141196Y195258D01*
X141192Y195251D01*
X141139Y194724D01*
X141098Y194318D01*
X141100Y194315D01*
X141098Y194312D01*
X141098Y174182D01*
X141099Y174180D01*
X141098Y174177D01*
X141190Y173122D01*
X141193Y173118D01*
X141192Y173109D01*
X141499Y172097D01*
X141503Y172094D01*
X141503Y172086D01*
X141756Y171620D01*
X141758Y171619D01*
X141758Y171617D01*
X142035Y171168D01*
X142039Y171166D01*
X142040Y171161D01*
X142377Y170752D01*
X142380Y170751D01*
X142381Y170748D01*
X142756Y170377D01*
X142759Y170376D01*
X142760Y170373D01*
X143169Y170036D01*
X143173Y170035D01*
X143177Y170030D01*
X143629Y169758D01*
X143630Y169758D01*
X143631Y169757D01*
X144097Y169504D01*
X144103Y169504D01*
X144109Y169499D01*
X145125Y169203D01*
X145129Y169205D01*
X145136Y169201D01*
X145663Y169148D01*
X145665Y169149D01*
X145667Y169148D01*
X146194Y169129D01*
X146197Y169131D01*
G37*
G36*
X187098Y33405D02*
X187098Y33405D01*
X187111Y33402D01*
X187611Y33802D01*
X187615Y33817D01*
X187620Y33821D01*
X187617Y33825D01*
X187618Y33832D01*
X187629Y33840D01*
X187629Y34640D01*
X187626Y34644D01*
X187629Y34647D01*
X187529Y35347D01*
X187507Y35369D01*
X187505Y35382D01*
X187005Y35682D01*
X186987Y35680D01*
X186980Y35689D01*
X182299Y35689D01*
X182312Y35703D01*
X184710Y37501D01*
X184712Y37509D01*
X184718Y37509D01*
X185118Y38009D01*
X185119Y38028D01*
X185129Y38033D01*
X185229Y38733D01*
X185217Y38755D01*
X185221Y38767D01*
X184821Y39367D01*
X184810Y39371D01*
X184810Y39379D01*
X184410Y39679D01*
X184409Y39679D01*
X184409Y39680D01*
X182229Y41291D01*
X186880Y41291D01*
X186895Y41302D01*
X186905Y41298D01*
X187405Y41598D01*
X187414Y41620D01*
X187427Y41624D01*
X187627Y42224D01*
X187623Y42235D01*
X187629Y42240D01*
X187629Y42940D01*
X187618Y42955D01*
X187622Y42965D01*
X187322Y43465D01*
X187298Y43475D01*
X187294Y43487D01*
X186594Y43687D01*
X186585Y43684D01*
X186584Y43684D01*
X186580Y43689D01*
X179080Y43689D01*
X179073Y43684D01*
X179068Y43684D01*
X179064Y43687D01*
X178464Y43487D01*
X178453Y43470D01*
X178441Y43470D01*
X178141Y43070D01*
X178141Y43061D01*
X178135Y43057D01*
X178140Y43051D01*
X178131Y43046D01*
X178031Y42246D01*
X178038Y42234D01*
X178033Y42226D01*
X178233Y41526D01*
X178250Y41513D01*
X178250Y41501D01*
X181839Y38809D01*
X182020Y38357D01*
X178850Y35979D01*
X178849Y35974D01*
X178845Y35975D01*
X178345Y35475D01*
X178344Y35463D01*
X178336Y35462D01*
X178036Y34862D01*
X178039Y34846D01*
X178031Y34840D01*
X178031Y34040D01*
X178042Y34025D01*
X178038Y34015D01*
X178338Y33515D01*
X178366Y33504D01*
X178372Y33491D01*
X178972Y33391D01*
X178977Y33394D01*
X178980Y33391D01*
X187080Y33391D01*
X187098Y33405D01*
G37*
G36*
X24025Y4594D02*
X24025Y4594D01*
X24028Y4591D01*
X24628Y4691D01*
X24643Y4707D01*
X24655Y4705D01*
X25055Y5105D01*
X25056Y5117D01*
X25060Y5119D01*
X25057Y5123D01*
X25059Y5132D01*
X25069Y5140D01*
X25069Y11440D01*
X25061Y11451D01*
X25066Y11458D01*
X24866Y11958D01*
X24838Y11975D01*
X24834Y11987D01*
X24134Y12187D01*
X24120Y12182D01*
X24114Y12189D01*
X23314Y12089D01*
X23303Y12079D01*
X23295Y12082D01*
X22795Y11782D01*
X22784Y11754D01*
X22780Y11752D01*
X22771Y11747D01*
X22671Y11047D01*
X22674Y11042D01*
X22671Y11040D01*
X22671Y6989D01*
X22124Y6989D01*
X21569Y7082D01*
X21569Y9040D01*
X21566Y9044D01*
X21569Y9046D01*
X21469Y9846D01*
X21462Y9853D01*
X21466Y9858D01*
X21266Y10358D01*
X21247Y10370D01*
X21245Y10382D01*
X20745Y10682D01*
X20727Y10680D01*
X20720Y10689D01*
X19820Y10689D01*
X19805Y10678D01*
X19795Y10682D01*
X19295Y10382D01*
X19286Y10362D01*
X19274Y10358D01*
X19074Y9858D01*
X19078Y9845D01*
X19071Y9840D01*
X19071Y7080D01*
X18615Y6989D01*
X17962Y6989D01*
X17869Y7544D01*
X17869Y10940D01*
X17866Y10944D01*
X17869Y10947D01*
X17769Y11647D01*
X17756Y11659D01*
X17759Y11670D01*
X17459Y12070D01*
X17432Y12077D01*
X17425Y12089D01*
X16525Y12189D01*
X16514Y12182D01*
X16506Y12187D01*
X15806Y11987D01*
X15791Y11967D01*
X15778Y11965D01*
X15478Y11465D01*
X15479Y11455D01*
X15473Y11450D01*
X15477Y11444D01*
X15471Y11440D01*
X15471Y5340D01*
X15482Y5325D01*
X15478Y5315D01*
X15778Y4815D01*
X15802Y4805D01*
X15806Y4793D01*
X16506Y4593D01*
X16516Y4596D01*
X16520Y4591D01*
X24020Y4591D01*
X24025Y4594D01*
G37*
G36*
X186284Y5334D02*
X186284Y5334D01*
X186287Y5331D01*
X186987Y5431D01*
X186995Y5439D01*
X187002Y5436D01*
X187402Y5636D01*
X187413Y5658D01*
X187418Y5662D01*
X187418Y5663D01*
X187427Y5666D01*
X187627Y6366D01*
X187624Y6376D01*
X187629Y6380D01*
X187629Y7180D01*
X187613Y7201D01*
X187615Y7215D01*
X187215Y7615D01*
X187194Y7618D01*
X187188Y7629D01*
X186588Y7729D01*
X186583Y7726D01*
X186580Y7729D01*
X185213Y7729D01*
X185029Y8189D01*
X185029Y9480D01*
X185026Y9484D01*
X185029Y9487D01*
X184929Y10187D01*
X184924Y10192D01*
X184927Y10196D01*
X184727Y10796D01*
X184719Y10801D01*
X184721Y10807D01*
X184321Y11407D01*
X184318Y11408D01*
X184318Y11411D01*
X183918Y11911D01*
X183911Y11913D01*
X183911Y11918D01*
X183411Y12318D01*
X183401Y12319D01*
X183399Y12325D01*
X182699Y12625D01*
X182696Y12625D01*
X182696Y12627D01*
X182096Y12827D01*
X182085Y12823D01*
X182080Y12829D01*
X180680Y12829D01*
X180667Y12820D01*
X180658Y12824D01*
X179858Y12424D01*
X179855Y12417D01*
X179849Y12418D01*
X179349Y12018D01*
X179348Y12014D01*
X179345Y12015D01*
X178845Y11515D01*
X178844Y11508D01*
X178839Y11507D01*
X178439Y10907D01*
X178439Y10903D01*
X178436Y10902D01*
X178136Y10302D01*
X178138Y10292D01*
X178131Y10288D01*
X178031Y9688D01*
X178034Y9683D01*
X178031Y9680D01*
X178031Y6280D01*
X178038Y6271D01*
X178033Y6264D01*
X178233Y5664D01*
X178253Y5651D01*
X178255Y5638D01*
X178755Y5338D01*
X178773Y5340D01*
X178780Y5331D01*
X186280Y5331D01*
X186284Y5334D01*
G37*
G36*
X24433Y23100D02*
X24433Y23100D01*
X24442Y23096D01*
X24842Y23296D01*
X24852Y23317D01*
X24861Y23324D01*
X24867Y23326D01*
X25067Y24026D01*
X25064Y24036D01*
X25069Y24040D01*
X25069Y24840D01*
X25055Y24858D01*
X25058Y24871D01*
X24658Y25371D01*
X24634Y25377D01*
X24628Y25389D01*
X24028Y25489D01*
X24023Y25486D01*
X24020Y25489D01*
X22650Y25489D01*
X22469Y25852D01*
X22469Y27240D01*
X22466Y27245D01*
X22469Y27248D01*
X22369Y27848D01*
X22364Y27852D01*
X22367Y27856D01*
X22167Y28456D01*
X22159Y28461D01*
X22161Y28467D01*
X21361Y29667D01*
X21351Y29671D01*
X21351Y29678D01*
X20851Y30078D01*
X20841Y30079D01*
X20839Y30085D01*
X20139Y30385D01*
X20131Y30383D01*
X20128Y30389D01*
X19528Y30489D01*
X19523Y30486D01*
X19520Y30489D01*
X18120Y30489D01*
X18107Y30480D01*
X18098Y30484D01*
X17298Y30084D01*
X17297Y30081D01*
X17295Y30082D01*
X16795Y29782D01*
X16791Y29774D01*
X16785Y29775D01*
X16285Y29275D01*
X16284Y29268D01*
X16279Y29267D01*
X15879Y28667D01*
X15879Y28661D01*
X15875Y28659D01*
X15575Y27959D01*
X15577Y27951D01*
X15571Y27948D01*
X15471Y27348D01*
X15474Y27343D01*
X15471Y27340D01*
X15471Y23940D01*
X15478Y23931D01*
X15473Y23924D01*
X15673Y23324D01*
X15698Y23307D01*
X15702Y23294D01*
X16202Y23094D01*
X16215Y23098D01*
X16220Y23091D01*
X24420Y23091D01*
X24433Y23100D01*
G37*
G36*
X19023Y41497D02*
X19023Y41497D01*
X19028Y41491D01*
X19628Y41591D01*
X19645Y41610D01*
X19658Y41609D01*
X20058Y42109D01*
X20059Y42117D01*
X20060Y42118D01*
X20059Y42120D01*
X20059Y42132D01*
X20069Y42140D01*
X20069Y42940D01*
X20063Y42948D01*
X20067Y42954D01*
X19867Y43654D01*
X19842Y43673D01*
X19838Y43686D01*
X19338Y43886D01*
X19331Y43884D01*
X19328Y43889D01*
X18732Y43988D01*
X18152Y44181D01*
X17769Y44755D01*
X17769Y45423D01*
X18152Y45901D01*
X18728Y46189D01*
X19302Y46093D01*
X19886Y45703D01*
X20282Y45209D01*
X20680Y44712D01*
X21778Y42914D01*
X21782Y42913D01*
X21782Y42909D01*
X22182Y42409D01*
X22189Y42407D01*
X22189Y42402D01*
X22689Y42002D01*
X22693Y42001D01*
X22693Y41999D01*
X23293Y41599D01*
X23307Y41600D01*
X23312Y41591D01*
X23912Y41491D01*
X23931Y41501D01*
X23942Y41496D01*
X24542Y41796D01*
X24547Y41806D01*
X24555Y41805D01*
X25055Y42305D01*
X25059Y42332D01*
X25069Y42340D01*
X25069Y48340D01*
X25055Y48358D01*
X25058Y48371D01*
X24658Y48871D01*
X24634Y48877D01*
X24628Y48889D01*
X24028Y48989D01*
X24023Y48986D01*
X24020Y48989D01*
X23320Y48989D01*
X23302Y48975D01*
X23289Y48978D01*
X22789Y48578D01*
X22784Y48556D01*
X22774Y48548D01*
X22771Y48547D01*
X22671Y47847D01*
X22674Y47842D01*
X22671Y47840D01*
X22671Y45852D01*
X22620Y45750D01*
X22364Y46262D01*
X22361Y46263D01*
X22362Y46265D01*
X22062Y46765D01*
X22057Y46767D01*
X22058Y46772D01*
X21558Y47372D01*
X21554Y47372D01*
X21555Y47375D01*
X21055Y47875D01*
X21051Y47875D01*
X21051Y47878D01*
X20551Y48278D01*
X20537Y48279D01*
X20534Y48287D01*
X19834Y48487D01*
X19830Y48486D01*
X19828Y48489D01*
X19228Y48589D01*
X19223Y48586D01*
X19220Y48589D01*
X18520Y48589D01*
X18516Y48586D01*
X18513Y48589D01*
X17813Y48489D01*
X17805Y48481D01*
X17798Y48484D01*
X17198Y48184D01*
X17197Y48181D01*
X17195Y48182D01*
X16695Y47882D01*
X16691Y47874D01*
X16685Y47875D01*
X16185Y47375D01*
X16185Y47371D01*
X16182Y47371D01*
X15782Y46871D01*
X15781Y46863D01*
X15776Y46862D01*
X15476Y46262D01*
X15478Y46251D01*
X15471Y46247D01*
X15371Y45547D01*
X15373Y45543D01*
X15373Y45542D01*
X15371Y45540D01*
X15371Y44840D01*
X15374Y44836D01*
X15371Y44833D01*
X15471Y44133D01*
X15476Y44128D01*
X15473Y44124D01*
X15673Y43524D01*
X15678Y43521D01*
X15676Y43518D01*
X15976Y42918D01*
X15986Y42913D01*
X15985Y42905D01*
X16485Y42405D01*
X16492Y42404D01*
X16493Y42399D01*
X17093Y41999D01*
X17102Y42000D01*
X17104Y41993D01*
X18304Y41593D01*
X18311Y41595D01*
X18313Y41591D01*
X19013Y41491D01*
X19023Y41497D01*
G37*
G36*
X22633Y32300D02*
X22633Y32300D01*
X22642Y32296D01*
X23242Y32596D01*
X23244Y32600D01*
X23247Y32599D01*
X23847Y32999D01*
X23848Y33002D01*
X23851Y33002D01*
X24351Y33402D01*
X24354Y33414D01*
X24362Y33415D01*
X24662Y33915D01*
X24662Y33918D01*
X24664Y33918D01*
X24964Y34518D01*
X24962Y34529D01*
X24969Y34533D01*
X25069Y35233D01*
X25066Y35238D01*
X25069Y35240D01*
X25069Y36740D01*
X25062Y36749D01*
X25067Y36756D01*
X24867Y37356D01*
X24862Y37359D01*
X24864Y37362D01*
X24564Y37962D01*
X24561Y37963D01*
X24562Y37965D01*
X24262Y38465D01*
X24254Y38469D01*
X24255Y38475D01*
X23755Y38975D01*
X23748Y38976D01*
X23747Y38981D01*
X23147Y39381D01*
X23138Y39380D01*
X23136Y39387D01*
X22536Y39587D01*
X22525Y39583D01*
X22520Y39589D01*
X21820Y39589D01*
X21815Y39586D01*
X21812Y39589D01*
X21212Y39489D01*
X21205Y39481D01*
X21204Y39481D01*
X21198Y39484D01*
X20598Y39184D01*
X20592Y39171D01*
X20582Y39172D01*
X20097Y38589D01*
X19744Y38589D01*
X19358Y39071D01*
X19344Y39074D01*
X19342Y39084D01*
X18742Y39384D01*
X18733Y39382D01*
X18733Y39383D01*
X18725Y39383D01*
X18720Y39389D01*
X18020Y39389D01*
X18016Y39386D01*
X18013Y39389D01*
X17313Y39289D01*
X17305Y39281D01*
X17298Y39284D01*
X16698Y38984D01*
X16693Y38974D01*
X16685Y38975D01*
X16186Y38476D01*
X15187Y37577D01*
X15182Y37548D01*
X15171Y37540D01*
X15171Y35440D01*
X15178Y35431D01*
X15173Y35424D01*
X15373Y34825D01*
X15573Y34126D01*
X15584Y34118D01*
X15582Y34109D01*
X15982Y33609D01*
X15986Y33608D01*
X15985Y33605D01*
X16485Y33105D01*
X16498Y33103D01*
X16501Y33095D01*
X17201Y32795D01*
X17208Y32797D01*
X17210Y32792D01*
X17710Y32692D01*
X17733Y32703D01*
X17745Y32698D01*
X18245Y32998D01*
X18251Y33012D01*
X18261Y33013D01*
X18661Y33613D01*
X18660Y33627D01*
X18669Y33632D01*
X18769Y34232D01*
X18755Y34258D01*
X18758Y34271D01*
X18358Y34771D01*
X18351Y34773D01*
X18351Y34778D01*
X17859Y35172D01*
X17569Y35752D01*
X17569Y36423D01*
X17944Y36891D01*
X18487Y36891D01*
X18672Y36428D01*
X18771Y35535D01*
X18780Y35526D01*
X18776Y35518D01*
X18976Y35118D01*
X19000Y35106D01*
X19004Y35093D01*
X19604Y34893D01*
X19615Y34897D01*
X19620Y34891D01*
X20520Y34891D01*
X20541Y34907D01*
X20555Y34905D01*
X20955Y35305D01*
X20957Y35323D01*
X20968Y35331D01*
X20969Y35332D01*
X21069Y35932D01*
X21068Y35933D01*
X21069Y35933D01*
X21166Y36617D01*
X21644Y37094D01*
X22200Y37187D01*
X22576Y36716D01*
X22770Y36135D01*
X22672Y35455D01*
X22384Y34878D01*
X21701Y34585D01*
X21692Y34570D01*
X21681Y34570D01*
X21381Y34170D01*
X21381Y34152D01*
X21371Y34146D01*
X21271Y33346D01*
X21278Y33334D01*
X21273Y33326D01*
X21473Y32626D01*
X21490Y32613D01*
X21490Y32601D01*
X21890Y32301D01*
X21912Y32301D01*
X21920Y32291D01*
X22620Y32291D01*
X22633Y32300D01*
G37*
G36*
X22633Y68200D02*
X22633Y68200D01*
X22642Y68196D01*
X23242Y68496D01*
X23244Y68500D01*
X23247Y68499D01*
X23847Y68899D01*
X23848Y68902D01*
X23851Y68902D01*
X24351Y69302D01*
X24354Y69314D01*
X24362Y69315D01*
X24662Y69815D01*
X24662Y69818D01*
X24664Y69818D01*
X24964Y70418D01*
X24962Y70429D01*
X24969Y70433D01*
X25069Y71133D01*
X25066Y71138D01*
X25069Y71140D01*
X25069Y72640D01*
X25062Y72649D01*
X25067Y72656D01*
X24867Y73256D01*
X24862Y73259D01*
X24864Y73262D01*
X24564Y73862D01*
X24561Y73863D01*
X24562Y73865D01*
X24262Y74365D01*
X24254Y74369D01*
X24255Y74375D01*
X23755Y74875D01*
X23748Y74876D01*
X23747Y74881D01*
X23147Y75281D01*
X23138Y75280D01*
X23136Y75287D01*
X22536Y75487D01*
X22525Y75483D01*
X22520Y75489D01*
X21820Y75489D01*
X21815Y75486D01*
X21812Y75489D01*
X21212Y75389D01*
X21205Y75381D01*
X21204Y75381D01*
X21198Y75384D01*
X20598Y75084D01*
X20592Y75071D01*
X20582Y75072D01*
X20097Y74489D01*
X19744Y74489D01*
X19358Y74971D01*
X19344Y74974D01*
X19342Y74984D01*
X18742Y75284D01*
X18733Y75282D01*
X18733Y75283D01*
X18725Y75283D01*
X18720Y75289D01*
X18020Y75289D01*
X18016Y75286D01*
X18013Y75289D01*
X17313Y75189D01*
X17305Y75181D01*
X17298Y75184D01*
X16698Y74884D01*
X16693Y74874D01*
X16685Y74875D01*
X16186Y74376D01*
X15187Y73477D01*
X15182Y73448D01*
X15171Y73440D01*
X15171Y71340D01*
X15178Y71331D01*
X15173Y71324D01*
X15373Y70725D01*
X15573Y70026D01*
X15584Y70018D01*
X15582Y70009D01*
X15982Y69509D01*
X15986Y69508D01*
X15985Y69505D01*
X16485Y69005D01*
X16498Y69003D01*
X16501Y68995D01*
X17201Y68695D01*
X17208Y68697D01*
X17210Y68692D01*
X17710Y68592D01*
X17733Y68603D01*
X17745Y68598D01*
X18245Y68898D01*
X18251Y68912D01*
X18261Y68913D01*
X18661Y69513D01*
X18660Y69527D01*
X18669Y69532D01*
X18769Y70132D01*
X18755Y70158D01*
X18758Y70171D01*
X18358Y70671D01*
X18351Y70673D01*
X18351Y70678D01*
X17859Y71072D01*
X17569Y71652D01*
X17569Y72323D01*
X17944Y72791D01*
X18485Y72791D01*
X18672Y72229D01*
X18771Y71434D01*
X18780Y71425D01*
X18776Y71418D01*
X18976Y71018D01*
X19000Y71006D01*
X19004Y70993D01*
X19604Y70793D01*
X19615Y70797D01*
X19620Y70791D01*
X20520Y70791D01*
X20541Y70807D01*
X20555Y70805D01*
X20955Y71205D01*
X20957Y71223D01*
X20968Y71231D01*
X20969Y71232D01*
X21069Y71832D01*
X21068Y71833D01*
X21069Y71833D01*
X21166Y72517D01*
X21644Y72994D01*
X22200Y73087D01*
X22576Y72616D01*
X22770Y72035D01*
X22672Y71354D01*
X22384Y70681D01*
X21706Y70487D01*
X21693Y70470D01*
X21681Y70470D01*
X21381Y70070D01*
X21381Y70052D01*
X21371Y70046D01*
X21271Y69246D01*
X21278Y69234D01*
X21273Y69226D01*
X21473Y68526D01*
X21490Y68513D01*
X21490Y68501D01*
X21890Y68201D01*
X21912Y68201D01*
X21920Y68191D01*
X22620Y68191D01*
X22633Y68200D01*
G37*
G36*
X22932Y13902D02*
X22932Y13902D01*
X22944Y13897D01*
X23644Y14297D01*
X23648Y14306D01*
X23655Y14305D01*
X24055Y14705D01*
X24055Y14709D01*
X24058Y14709D01*
X24458Y15209D01*
X24459Y15213D01*
X24461Y15213D01*
X24861Y15813D01*
X24860Y15824D01*
X24867Y15826D01*
X25067Y16526D01*
X25064Y16535D01*
X25067Y16537D01*
X25067Y16538D01*
X25069Y16540D01*
X25069Y17840D01*
X25066Y17844D01*
X25069Y17847D01*
X24969Y18547D01*
X24961Y18555D01*
X24964Y18562D01*
X24364Y19762D01*
X24357Y19765D01*
X24358Y19771D01*
X23958Y20271D01*
X23944Y20274D01*
X23942Y20284D01*
X23342Y20584D01*
X23337Y20583D01*
X23336Y20587D01*
X22736Y20787D01*
X22731Y20785D01*
X22731Y20786D01*
X22729Y20786D01*
X22727Y20789D01*
X22027Y20889D01*
X22022Y20886D01*
X22020Y20889D01*
X21220Y20889D01*
X21213Y20884D01*
X21208Y20884D01*
X21204Y20887D01*
X20604Y20687D01*
X20597Y20676D01*
X20589Y20678D01*
X20089Y20278D01*
X20087Y20271D01*
X20082Y20271D01*
X19682Y19771D01*
X19681Y19763D01*
X19676Y19762D01*
X19376Y19162D01*
X19377Y19155D01*
X19373Y19154D01*
X19173Y18454D01*
X19173Y18452D01*
X19172Y18451D01*
X18874Y17160D01*
X18491Y16585D01*
X17934Y16492D01*
X17466Y16866D01*
X17370Y17535D01*
X17564Y18116D01*
X18058Y18708D01*
X18059Y18732D01*
X18069Y18740D01*
X18069Y19240D01*
X18060Y19253D01*
X18064Y19262D01*
X17764Y19862D01*
X17746Y19871D01*
X17744Y19883D01*
X17044Y20283D01*
X17027Y20280D01*
X17020Y20289D01*
X16520Y20289D01*
X16499Y20273D01*
X16485Y20275D01*
X15585Y19375D01*
X15583Y19356D01*
X15572Y19352D01*
X15372Y18552D01*
X15373Y18549D01*
X15371Y18548D01*
X15271Y17948D01*
X15272Y17947D01*
X15271Y17947D01*
X15171Y17247D01*
X15176Y17238D01*
X15171Y17233D01*
X15271Y16533D01*
X15275Y16529D01*
X15273Y16526D01*
X15473Y15826D01*
X15478Y15822D01*
X15476Y15818D01*
X15776Y15218D01*
X15786Y15213D01*
X15785Y15205D01*
X16185Y14805D01*
X16192Y14804D01*
X16193Y14799D01*
X16793Y14399D01*
X16797Y14399D01*
X16798Y14396D01*
X17398Y14096D01*
X17409Y14098D01*
X17412Y14091D01*
X18012Y13991D01*
X18022Y13997D01*
X18027Y13991D01*
X18727Y14091D01*
X18731Y14095D01*
X18734Y14093D01*
X19434Y14293D01*
X19442Y14304D01*
X19451Y14302D01*
X19951Y14702D01*
X19953Y14709D01*
X19958Y14709D01*
X20358Y15209D01*
X20359Y15217D01*
X20364Y15218D01*
X20964Y16418D01*
X20963Y16425D01*
X20967Y16426D01*
X21167Y17126D01*
X21167Y17127D01*
X21168Y17128D01*
X21166Y17130D01*
X21166Y17131D01*
X21169Y17133D01*
X21267Y17823D01*
X21553Y18299D01*
X22114Y18486D01*
X22582Y18205D01*
X22869Y17632D01*
X22773Y16958D01*
X22381Y16370D01*
X21882Y15772D01*
X21882Y15760D01*
X21874Y15758D01*
X21674Y15258D01*
X21679Y15240D01*
X21671Y15232D01*
X21771Y14632D01*
X21787Y14617D01*
X21785Y14605D01*
X22385Y14005D01*
X22405Y14002D01*
X22410Y13992D01*
X22910Y13892D01*
X22932Y13902D01*
G37*
G36*
X21127Y57991D02*
X21127Y57991D01*
X21132Y57996D01*
X21136Y57993D01*
X21736Y58193D01*
X21737Y58196D01*
X21739Y58195D01*
X22439Y58495D01*
X22442Y58499D01*
X22445Y58498D01*
X22945Y58798D01*
X22947Y58802D01*
X22951Y58802D01*
X23451Y59202D01*
X23452Y59206D01*
X23455Y59205D01*
X23955Y59705D01*
X23956Y59712D01*
X23961Y59713D01*
X24361Y60313D01*
X24361Y60317D01*
X24364Y60318D01*
X24664Y60918D01*
X24663Y60923D01*
X24667Y60924D01*
X24867Y61524D01*
X24866Y61526D01*
X24867Y61526D01*
X25067Y62226D01*
X25064Y62236D01*
X25069Y62240D01*
X25069Y63540D01*
X25062Y63549D01*
X25067Y63556D01*
X24867Y64154D01*
X24668Y64952D01*
X24660Y64959D01*
X24662Y64965D01*
X24362Y65465D01*
X24358Y65467D01*
X24358Y65471D01*
X23958Y65971D01*
X23939Y65976D01*
X23936Y65987D01*
X23336Y66187D01*
X23308Y66177D01*
X23296Y66183D01*
X22596Y65783D01*
X22592Y65774D01*
X22585Y65775D01*
X22085Y65275D01*
X22083Y65256D01*
X22072Y65252D01*
X21972Y64852D01*
X21983Y64828D01*
X21977Y64816D01*
X22376Y64117D01*
X22671Y63528D01*
X22671Y62252D01*
X22377Y61665D01*
X21983Y61074D01*
X21493Y60682D01*
X20905Y60388D01*
X20220Y60290D01*
X19531Y60388D01*
X18942Y60585D01*
X18358Y60974D01*
X18064Y61562D01*
X17768Y62155D01*
X17670Y62840D01*
X17768Y63529D01*
X17965Y64118D01*
X18361Y64713D01*
X18361Y64720D01*
X18365Y64723D01*
X18360Y64730D01*
X18360Y64733D01*
X18369Y64740D01*
X18369Y65240D01*
X18353Y65261D01*
X18355Y65275D01*
X17855Y65775D01*
X17848Y65776D01*
X17847Y65781D01*
X17247Y66181D01*
X17222Y66179D01*
X17212Y66189D01*
X16612Y66089D01*
X16597Y66073D01*
X16585Y66075D01*
X16085Y65575D01*
X16084Y65566D01*
X16078Y65565D01*
X15778Y65065D01*
X15778Y65062D01*
X15776Y65062D01*
X15476Y64462D01*
X15477Y64457D01*
X15473Y64454D01*
X15477Y64449D01*
X15471Y64446D01*
X15371Y63647D01*
X15271Y63048D01*
X15274Y63043D01*
X15271Y63040D01*
X15271Y62340D01*
X15274Y62335D01*
X15271Y62332D01*
X15371Y61732D01*
X15375Y61729D01*
X15373Y61726D01*
X15573Y61026D01*
X15578Y61022D01*
X15576Y61018D01*
X15876Y60418D01*
X15880Y60416D01*
X15879Y60413D01*
X16279Y59813D01*
X16282Y59812D01*
X16282Y59809D01*
X16682Y59309D01*
X16689Y59307D01*
X16689Y59302D01*
X17189Y58902D01*
X17193Y58901D01*
X17193Y58899D01*
X17793Y58499D01*
X17797Y58499D01*
X17798Y58496D01*
X18398Y58196D01*
X18403Y58197D01*
X18404Y58193D01*
X19004Y57993D01*
X19015Y57997D01*
X19020Y57991D01*
X19717Y57991D01*
X20413Y57891D01*
X20422Y57896D01*
X20427Y57891D01*
X21127Y57991D01*
G37*
G36*
X56480Y255632D02*
X56480Y255632D01*
X56486Y255639D01*
X56492Y255636D01*
X56892Y255836D01*
X56895Y255842D01*
X56900Y255841D01*
X57700Y256441D01*
X57701Y256446D01*
X57705Y256445D01*
X58105Y256845D01*
X58106Y256854D01*
X58112Y256855D01*
X58412Y257355D01*
X58412Y257358D01*
X58414Y257358D01*
X58614Y257758D01*
X58612Y257767D01*
X58618Y257770D01*
X58818Y258770D01*
X58815Y258777D01*
X58819Y258780D01*
X58819Y259780D01*
X58815Y259786D01*
X58818Y259790D01*
X58718Y260290D01*
X58713Y260294D01*
X58716Y260298D01*
X58516Y260798D01*
X58513Y260800D01*
X58514Y260802D01*
X58314Y261202D01*
X58308Y261205D01*
X58309Y261210D01*
X58009Y261610D01*
X58004Y261611D01*
X58005Y261615D01*
X57605Y262015D01*
X57600Y262016D01*
X57600Y262019D01*
X57200Y262319D01*
X57190Y262319D01*
X57188Y262326D01*
X56690Y262525D01*
X56292Y262724D01*
X56283Y262722D01*
X56280Y262728D01*
X55280Y262928D01*
X55266Y262922D01*
X55258Y262928D01*
X54864Y262829D01*
X54370Y262829D01*
X54357Y262820D01*
X54348Y262824D01*
X53950Y262625D01*
X53452Y262426D01*
X53447Y262418D01*
X53440Y262419D01*
X52640Y261819D01*
X52638Y261810D01*
X52631Y261810D01*
X52331Y261410D01*
X52331Y261404D01*
X52330Y261403D01*
X52331Y261403D01*
X52331Y261400D01*
X52324Y261398D01*
X52125Y260900D01*
X51926Y260502D01*
X51927Y260499D01*
X51924Y260498D01*
X51724Y259998D01*
X51728Y259985D01*
X51721Y259980D01*
X51721Y258380D01*
X51730Y258367D01*
X51726Y258358D01*
X51925Y257960D01*
X52124Y257462D01*
X52127Y257460D01*
X52126Y257458D01*
X52326Y257058D01*
X52332Y257055D01*
X52331Y257050D01*
X52631Y256650D01*
X52636Y256649D01*
X52635Y256645D01*
X53035Y256245D01*
X53040Y256244D01*
X53040Y256241D01*
X53440Y255941D01*
X53450Y255941D01*
X53452Y255934D01*
X54452Y255534D01*
X54465Y255538D01*
X54470Y255531D01*
X54965Y255531D01*
X55460Y255432D01*
X55473Y255438D01*
X55480Y255432D01*
X56480Y255632D01*
G37*
G36*
X53315Y285409D02*
X53315Y285409D01*
X53322Y285404D01*
X53822Y285504D01*
X53823Y285505D01*
X53824Y285504D01*
X54224Y285604D01*
X54227Y285608D01*
X54230Y285606D01*
X54730Y285806D01*
X54735Y285814D01*
X54742Y285813D01*
X55542Y286413D01*
X55544Y286422D01*
X55551Y286422D01*
X55851Y286822D01*
X55851Y286826D01*
X55854Y286827D01*
X56154Y287327D01*
X56154Y287330D01*
X56156Y287330D01*
X56356Y287730D01*
X56355Y287733D01*
X56358Y287734D01*
X56558Y288234D01*
X56556Y288240D01*
X56560Y288242D01*
X56660Y288742D01*
X56657Y288749D01*
X56661Y288752D01*
X56661Y289752D01*
X56657Y289758D01*
X56660Y289762D01*
X56560Y290262D01*
X56555Y290266D01*
X56558Y290270D01*
X56358Y290770D01*
X56350Y290775D01*
X56351Y290782D01*
X55451Y291982D01*
X55438Y291985D01*
X55437Y291994D01*
X54937Y292294D01*
X54934Y292294D01*
X54934Y292296D01*
X54534Y292496D01*
X54531Y292495D01*
X54530Y292498D01*
X54030Y292698D01*
X54025Y292696D01*
X54024Y292700D01*
X53624Y292800D01*
X53621Y292799D01*
X53620Y292801D01*
X53020Y292901D01*
X53005Y292893D01*
X52996Y292899D01*
X52704Y292801D01*
X52212Y292801D01*
X52201Y292793D01*
X52194Y292798D01*
X51694Y292598D01*
X51692Y292595D01*
X51690Y292596D01*
X51290Y292396D01*
X51287Y292390D01*
X51282Y292391D01*
X50482Y291791D01*
X50480Y291782D01*
X50473Y291782D01*
X50173Y291382D01*
X50173Y291378D01*
X50170Y291377D01*
X49870Y290877D01*
X49870Y290874D01*
X49868Y290874D01*
X49668Y290474D01*
X49670Y290465D01*
X49664Y290462D01*
X49564Y289962D01*
X49567Y289955D01*
X49563Y289952D01*
X49563Y289456D01*
X49463Y288860D01*
X49469Y288849D01*
X49464Y288842D01*
X49564Y288342D01*
X49565Y288341D01*
X49564Y288340D01*
X49664Y287940D01*
X49668Y287937D01*
X49666Y287934D01*
X49866Y287434D01*
X49874Y287429D01*
X49873Y287422D01*
X50473Y286622D01*
X50478Y286621D01*
X50477Y286617D01*
X50877Y286217D01*
X50882Y286216D01*
X50882Y286213D01*
X51282Y285913D01*
X51292Y285913D01*
X51294Y285906D01*
X51792Y285707D01*
X52190Y285508D01*
X52206Y285511D01*
X52212Y285503D01*
X52708Y285503D01*
X53304Y285403D01*
X53315Y285409D01*
G37*
G36*
X47880Y255632D02*
X47880Y255632D01*
X47886Y255639D01*
X47892Y255636D01*
X48292Y255836D01*
X48293Y255839D01*
X48295Y255838D01*
X48795Y256138D01*
X48799Y256146D01*
X48805Y256145D01*
X49505Y256845D01*
X49506Y256854D01*
X49512Y256855D01*
X49812Y257355D01*
X49812Y257358D01*
X49814Y257358D01*
X50014Y257758D01*
X50012Y257767D01*
X50018Y257770D01*
X50218Y258770D01*
X50215Y258777D01*
X50219Y258780D01*
X50219Y259780D01*
X50215Y259786D01*
X50218Y259790D01*
X50118Y260290D01*
X50113Y260294D01*
X50116Y260298D01*
X49916Y260798D01*
X49913Y260800D01*
X49914Y260802D01*
X49714Y261202D01*
X49708Y261205D01*
X49709Y261210D01*
X49409Y261610D01*
X49404Y261611D01*
X49405Y261615D01*
X49005Y262015D01*
X49000Y262016D01*
X49000Y262019D01*
X48600Y262319D01*
X48590Y262319D01*
X48588Y262326D01*
X48090Y262525D01*
X47692Y262724D01*
X47683Y262722D01*
X47680Y262728D01*
X46680Y262928D01*
X46664Y262920D01*
X46654Y262927D01*
X46362Y262829D01*
X45870Y262829D01*
X45859Y262821D01*
X45852Y262826D01*
X44852Y262426D01*
X44847Y262418D01*
X44840Y262419D01*
X44040Y261819D01*
X44038Y261810D01*
X44031Y261810D01*
X43731Y261410D01*
X43731Y261404D01*
X43730Y261403D01*
X43731Y261403D01*
X43731Y261400D01*
X43724Y261398D01*
X43525Y260900D01*
X43326Y260502D01*
X43328Y260493D01*
X43322Y260490D01*
X43122Y259490D01*
X43124Y259484D01*
X43123Y259483D01*
X43123Y259482D01*
X43121Y259480D01*
X43121Y258380D01*
X43130Y258367D01*
X43126Y258358D01*
X43325Y257960D01*
X43524Y257462D01*
X43527Y257460D01*
X43526Y257458D01*
X43726Y257058D01*
X43736Y257053D01*
X43735Y257045D01*
X44133Y256648D01*
X44431Y256250D01*
X44444Y256247D01*
X44445Y256238D01*
X44945Y255938D01*
X44948Y255938D01*
X44948Y255936D01*
X45348Y255736D01*
X45351Y255737D01*
X45352Y255734D01*
X45852Y255534D01*
X45865Y255538D01*
X45870Y255531D01*
X46365Y255531D01*
X46860Y255432D01*
X46873Y255438D01*
X46880Y255432D01*
X47880Y255632D01*
G37*
G36*
X184588Y64997D02*
X184588Y64997D01*
X184594Y64993D01*
X185294Y65193D01*
X185298Y65198D01*
X185302Y65196D01*
X185902Y65496D01*
X185904Y65500D01*
X185907Y65499D01*
X186507Y65899D01*
X186511Y65909D01*
X186518Y65909D01*
X186918Y66409D01*
X186919Y66413D01*
X186921Y66413D01*
X187321Y67013D01*
X187320Y67022D01*
X187327Y67024D01*
X187527Y67624D01*
X187525Y67631D01*
X187529Y67633D01*
X187629Y68333D01*
X187626Y68338D01*
X187629Y68340D01*
X187629Y69040D01*
X187626Y69045D01*
X187629Y69048D01*
X187529Y69648D01*
X187522Y69654D01*
X187525Y69659D01*
X187225Y70359D01*
X187217Y70364D01*
X187218Y70371D01*
X186418Y71371D01*
X186408Y71373D01*
X186407Y71381D01*
X185807Y71781D01*
X185798Y71780D01*
X185796Y71787D01*
X185196Y71987D01*
X185194Y71986D01*
X185194Y71987D01*
X184494Y72187D01*
X184484Y72184D01*
X184480Y72189D01*
X183780Y72189D01*
X183776Y72186D01*
X183773Y72189D01*
X183073Y72089D01*
X183068Y72084D01*
X183064Y72087D01*
X182464Y71887D01*
X182459Y71879D01*
X182453Y71881D01*
X181853Y71481D01*
X181850Y71474D01*
X181845Y71475D01*
X181345Y70975D01*
X181345Y70971D01*
X181342Y70971D01*
X180942Y70471D01*
X180941Y70463D01*
X180936Y70462D01*
X180636Y69862D01*
X180638Y69851D01*
X180631Y69847D01*
X180431Y68447D01*
X180437Y68437D01*
X180431Y68432D01*
X180531Y67832D01*
X180535Y67829D01*
X180533Y67826D01*
X180733Y67126D01*
X180738Y67122D01*
X180736Y67118D01*
X181036Y66518D01*
X181046Y66513D01*
X181045Y66505D01*
X181544Y66006D01*
X182443Y65007D01*
X182472Y65002D01*
X182480Y64991D01*
X184580Y64991D01*
X184588Y64997D01*
G37*
G36*
X184588Y21837D02*
X184588Y21837D01*
X184594Y21833D01*
X185294Y22033D01*
X185298Y22038D01*
X185302Y22036D01*
X185902Y22336D01*
X185904Y22340D01*
X185907Y22339D01*
X186507Y22739D01*
X186511Y22749D01*
X186518Y22749D01*
X186918Y23249D01*
X186919Y23253D01*
X186921Y23253D01*
X187321Y23853D01*
X187320Y23864D01*
X187327Y23866D01*
X187527Y24566D01*
X187526Y24570D01*
X187529Y24572D01*
X187629Y25172D01*
X187626Y25177D01*
X187629Y25180D01*
X187629Y25880D01*
X187626Y25885D01*
X187629Y25888D01*
X187529Y26488D01*
X187522Y26494D01*
X187525Y26499D01*
X187225Y27199D01*
X187217Y27204D01*
X187218Y27211D01*
X186418Y28211D01*
X186408Y28213D01*
X186407Y28221D01*
X185807Y28621D01*
X185798Y28620D01*
X185796Y28627D01*
X185196Y28827D01*
X185194Y28826D01*
X185194Y28827D01*
X184494Y29027D01*
X184484Y29024D01*
X184480Y29029D01*
X183780Y29029D01*
X183776Y29026D01*
X183773Y29029D01*
X183073Y28929D01*
X183068Y28924D01*
X183064Y28927D01*
X182464Y28727D01*
X182459Y28719D01*
X182453Y28721D01*
X181853Y28321D01*
X181852Y28318D01*
X181849Y28318D01*
X181349Y27918D01*
X181347Y27908D01*
X181339Y27907D01*
X180939Y27307D01*
X180939Y27303D01*
X180936Y27302D01*
X180636Y26702D01*
X180638Y26691D01*
X180631Y26687D01*
X180431Y25287D01*
X180437Y25277D01*
X180431Y25272D01*
X180531Y24672D01*
X180535Y24669D01*
X180533Y24666D01*
X180733Y23966D01*
X180740Y23961D01*
X180738Y23955D01*
X181038Y23455D01*
X181043Y23453D01*
X181042Y23448D01*
X181542Y22848D01*
X181544Y22848D01*
X181543Y22847D01*
X182443Y21847D01*
X182472Y21842D01*
X182480Y21831D01*
X184580Y21831D01*
X184588Y21837D01*
G37*
G36*
X30176Y305418D02*
X30176Y305418D01*
X30186Y305434D01*
X30197Y305434D01*
X30497Y305834D01*
X30497Y305841D01*
X30499Y305842D01*
X30497Y305843D01*
X30497Y305845D01*
X30504Y305848D01*
X31104Y307547D01*
X31654Y309012D01*
X32511Y306249D01*
X32513Y306248D01*
X32512Y306246D01*
X32712Y305746D01*
X32724Y305738D01*
X32723Y305729D01*
X33123Y305329D01*
X33150Y305326D01*
X33158Y305315D01*
X33658Y305315D01*
X33671Y305324D01*
X33680Y305320D01*
X34080Y305520D01*
X34087Y305534D01*
X34097Y305534D01*
X34397Y305934D01*
X34397Y305940D01*
X34398Y305940D01*
X34397Y305940D01*
X34397Y305945D01*
X34404Y305947D01*
X36304Y311247D01*
X36303Y311253D01*
X36306Y311254D01*
X36406Y311754D01*
X36396Y311775D01*
X36402Y311786D01*
X36202Y312186D01*
X36185Y312195D01*
X36183Y312206D01*
X35683Y312506D01*
X35671Y312505D01*
X35668Y312512D01*
X35168Y312612D01*
X35147Y312602D01*
X35143Y312602D01*
X35140Y312600D01*
X35128Y312603D01*
X34728Y312303D01*
X34723Y312284D01*
X34712Y312280D01*
X33515Y308891D01*
X33479Y308855D01*
X32505Y311680D01*
X32503Y311681D01*
X32504Y311682D01*
X32304Y312182D01*
X32288Y312192D01*
X32288Y312203D01*
X31888Y312503D01*
X31871Y312503D01*
X31871Y312504D01*
X31858Y312504D01*
X31848Y312512D01*
X31348Y312412D01*
X31342Y312405D01*
X31336Y312408D01*
X30936Y312208D01*
X30925Y312186D01*
X30912Y312182D01*
X30712Y311682D01*
X30713Y311681D01*
X30712Y311680D01*
X30711Y311680D01*
X29737Y308855D01*
X29601Y308990D01*
X28705Y311879D01*
X28703Y311880D01*
X28704Y311882D01*
X28504Y312382D01*
X28480Y312397D01*
X28476Y312410D01*
X27976Y312610D01*
X27951Y312603D01*
X27940Y312610D01*
X27440Y312410D01*
X27437Y312405D01*
X27433Y312406D01*
X26933Y312106D01*
X26924Y312085D01*
X26922Y312083D01*
X26911Y312080D01*
X26811Y311780D01*
X26812Y311779D01*
X26811Y311778D01*
X26812Y311776D01*
X26818Y311759D01*
X26811Y311748D01*
X27011Y311148D01*
X28811Y305848D01*
X28821Y305842D01*
X28819Y305834D01*
X29119Y305434D01*
X29137Y305429D01*
X29140Y305418D01*
X29640Y305218D01*
X29665Y305225D01*
X29676Y305218D01*
X30176Y305418D01*
G37*
G36*
X39676Y255435D02*
X39676Y255435D01*
X39680Y255432D01*
X40180Y255532D01*
X40186Y255539D01*
X40192Y255536D01*
X40592Y255736D01*
X40593Y255739D01*
X40595Y255738D01*
X41095Y256038D01*
X41100Y256050D01*
X41109Y256050D01*
X41409Y256450D01*
X41409Y256457D01*
X41414Y256458D01*
X41614Y256858D01*
X41613Y256861D01*
X41616Y256862D01*
X41816Y257362D01*
X41812Y257375D01*
X41819Y257380D01*
X41819Y257980D01*
X41815Y257986D01*
X41818Y257990D01*
X41718Y258490D01*
X41711Y258496D01*
X41714Y258502D01*
X41314Y259302D01*
X41276Y259321D01*
X41302Y259342D01*
X41303Y259346D01*
X41305Y259345D01*
X41405Y259445D01*
X41406Y259456D01*
X41407Y259456D01*
X41406Y259456D01*
X41408Y259465D01*
X41418Y259470D01*
X41618Y260470D01*
X41615Y260477D01*
X41619Y260480D01*
X41619Y260980D01*
X41611Y260991D01*
X41616Y260998D01*
X41416Y261498D01*
X41408Y261503D01*
X41409Y261510D01*
X40809Y262310D01*
X40791Y262315D01*
X40788Y262326D01*
X39788Y262726D01*
X39775Y262722D01*
X39770Y262729D01*
X36670Y262729D01*
X36657Y262720D01*
X36648Y262724D01*
X36248Y262524D01*
X36235Y262497D01*
X36222Y262492D01*
X36122Y262092D01*
X36126Y262084D01*
X36121Y262080D01*
X36121Y255880D01*
X36137Y255859D01*
X36135Y255845D01*
X36435Y255545D01*
X36456Y255542D01*
X36462Y255531D01*
X37062Y255431D01*
X37067Y255434D01*
X37070Y255431D01*
X39670Y255431D01*
X39676Y255435D01*
G37*
G36*
X146610Y255532D02*
X146610Y255532D01*
X146621Y255544D01*
X146631Y255542D01*
X147131Y255942D01*
X147133Y255952D01*
X147141Y255953D01*
X147341Y256253D01*
X147339Y256280D01*
X147348Y256290D01*
X147248Y256790D01*
X147245Y256793D01*
X147247Y256796D01*
X147147Y257096D01*
X147142Y257099D01*
X147144Y257102D01*
X146649Y258092D01*
X146649Y258364D01*
X146939Y258750D01*
X146939Y258760D01*
X146946Y258762D01*
X147146Y259262D01*
X147144Y259267D01*
X147148Y259268D01*
X147248Y259668D01*
X147247Y259671D01*
X147249Y259672D01*
X147349Y260272D01*
X147343Y260283D01*
X147348Y260290D01*
X147248Y260790D01*
X147243Y260794D01*
X147246Y260798D01*
X147046Y261298D01*
X147038Y261303D01*
X147039Y261310D01*
X146439Y262110D01*
X146430Y262112D01*
X146430Y262119D01*
X146030Y262419D01*
X146020Y262419D01*
X146018Y262426D01*
X145518Y262626D01*
X145512Y262624D01*
X145510Y262628D01*
X144510Y262828D01*
X144503Y262825D01*
X144500Y262829D01*
X142400Y262829D01*
X142389Y262821D01*
X142382Y262826D01*
X141882Y262626D01*
X141869Y262604D01*
X141856Y262602D01*
X141656Y262202D01*
X141657Y262195D01*
X141653Y262191D01*
X141657Y262185D01*
X141651Y262180D01*
X141651Y256580D01*
X141655Y256574D01*
X141652Y256570D01*
X141752Y256070D01*
X141753Y256069D01*
X141752Y256068D01*
X141852Y255668D01*
X141886Y255641D01*
X141890Y255632D01*
X142390Y255532D01*
X142401Y255537D01*
X142407Y255531D01*
X143107Y255631D01*
X143118Y255642D01*
X143127Y255639D01*
X143427Y255839D01*
X143434Y255857D01*
X143438Y255861D01*
X143436Y255864D01*
X143448Y255870D01*
X143548Y256370D01*
X143545Y256377D01*
X143549Y256380D01*
X143549Y257354D01*
X143815Y257531D01*
X144870Y257531D01*
X145155Y256959D01*
X145655Y255761D01*
X145670Y255752D01*
X145670Y255741D01*
X146070Y255441D01*
X146099Y255441D01*
X146110Y255432D01*
X146610Y255532D01*
G37*
G36*
X39090Y265692D02*
X39090Y265692D01*
X39101Y265704D01*
X39111Y265702D01*
X39611Y266102D01*
X39613Y266112D01*
X39621Y266113D01*
X39821Y266413D01*
X39819Y266447D01*
X39826Y266458D01*
X39626Y266957D01*
X39527Y267256D01*
X39525Y267257D01*
X39526Y267258D01*
X39129Y268249D01*
X39129Y268524D01*
X39419Y268910D01*
X39419Y268920D01*
X39426Y268922D01*
X39626Y269422D01*
X39624Y269427D01*
X39628Y269428D01*
X39728Y269828D01*
X39724Y269836D01*
X39729Y269840D01*
X39729Y270940D01*
X39721Y270951D01*
X39726Y270958D01*
X39526Y271458D01*
X39518Y271463D01*
X39519Y271470D01*
X38919Y272270D01*
X38906Y272273D01*
X38905Y272282D01*
X38405Y272582D01*
X38402Y272582D01*
X38402Y272584D01*
X38002Y272784D01*
X37993Y272782D01*
X37990Y272788D01*
X36990Y272988D01*
X36983Y272985D01*
X36980Y272989D01*
X34880Y272989D01*
X34869Y272981D01*
X34862Y272986D01*
X34362Y272786D01*
X34349Y272764D01*
X34336Y272762D01*
X34136Y272362D01*
X34137Y272355D01*
X34133Y272351D01*
X34137Y272345D01*
X34131Y272340D01*
X34131Y266240D01*
X34140Y266227D01*
X34136Y266218D01*
X34336Y265818D01*
X34364Y265804D01*
X34370Y265792D01*
X34870Y265692D01*
X34882Y265697D01*
X34888Y265691D01*
X35488Y265791D01*
X35495Y265799D01*
X35502Y265796D01*
X35902Y265996D01*
X35914Y266019D01*
X35915Y266021D01*
X35915Y266022D01*
X35921Y266033D01*
X35929Y266040D01*
X35929Y267510D01*
X36292Y267691D01*
X37254Y267691D01*
X37636Y267117D01*
X38135Y265921D01*
X38150Y265912D01*
X38150Y265901D01*
X38550Y265601D01*
X38579Y265601D01*
X38590Y265592D01*
X39090Y265692D01*
G37*
G36*
X42970Y305316D02*
X42970Y305316D01*
X42978Y305326D01*
X42985Y305323D01*
X43585Y305723D01*
X43590Y305736D01*
X43599Y305737D01*
X43799Y306037D01*
X43797Y306071D01*
X43804Y306082D01*
X43604Y306581D01*
X43505Y306880D01*
X43503Y306881D01*
X43504Y306882D01*
X43104Y307881D01*
X43013Y308155D01*
X43297Y308534D01*
X43297Y308538D01*
X43300Y308539D01*
X43600Y309039D01*
X43600Y309042D01*
X43601Y309043D01*
X43600Y309044D01*
X43599Y309049D01*
X43606Y309052D01*
X43706Y309452D01*
X43702Y309460D01*
X43707Y309464D01*
X43707Y310064D01*
X43703Y310070D01*
X43706Y310074D01*
X43506Y311074D01*
X43495Y311084D01*
X43497Y311094D01*
X43197Y311494D01*
X43192Y311495D01*
X43193Y311499D01*
X42793Y311899D01*
X42788Y311900D01*
X42788Y311903D01*
X42388Y312203D01*
X42378Y312203D01*
X42376Y312210D01*
X41876Y312410D01*
X41871Y312408D01*
X41870Y312412D01*
X41470Y312512D01*
X41468Y312511D01*
X41468Y312512D01*
X40968Y312612D01*
X40961Y312609D01*
X40958Y312613D01*
X38858Y312613D01*
X38847Y312605D01*
X38840Y312610D01*
X38340Y312410D01*
X38327Y312388D01*
X38314Y312386D01*
X38114Y311986D01*
X38115Y311979D01*
X38111Y311975D01*
X38115Y311969D01*
X38109Y311964D01*
X38109Y305864D01*
X38118Y305851D01*
X38114Y305842D01*
X38314Y305442D01*
X38342Y305428D01*
X38348Y305416D01*
X38848Y305316D01*
X38860Y305321D01*
X38866Y305315D01*
X39466Y305415D01*
X39476Y305426D01*
X39485Y305423D01*
X39785Y305623D01*
X39792Y305641D01*
X39796Y305645D01*
X39794Y305648D01*
X39806Y305654D01*
X39906Y306154D01*
X39903Y306161D01*
X39907Y306164D01*
X39907Y307134D01*
X40270Y307315D01*
X41232Y307315D01*
X41614Y306741D01*
X42113Y305545D01*
X42128Y305536D01*
X42128Y305525D01*
X42528Y305225D01*
X42559Y305225D01*
X42570Y305216D01*
X42970Y305316D01*
G37*
G36*
X166674Y263151D02*
X166674Y263151D01*
X167270Y263151D01*
X167281Y263159D01*
X167288Y263154D01*
X167788Y263354D01*
X167790Y263357D01*
X167792Y263356D01*
X168592Y263756D01*
X168599Y263770D01*
X168609Y263770D01*
X168909Y264170D01*
X168909Y264184D01*
X168918Y264188D01*
X169018Y264588D01*
X169014Y264596D01*
X169019Y264600D01*
X169019Y267200D01*
X169003Y267221D01*
X169005Y267235D01*
X168705Y267535D01*
X168684Y267538D01*
X168678Y267549D01*
X168078Y267649D01*
X168073Y267646D01*
X168070Y267649D01*
X166570Y267649D01*
X166559Y267641D01*
X166552Y267646D01*
X166052Y267446D01*
X166039Y267424D01*
X166026Y267422D01*
X165826Y267022D01*
X165829Y267007D01*
X165824Y267004D01*
X165829Y266998D01*
X165822Y266990D01*
X165922Y266490D01*
X165937Y266477D01*
X165935Y266465D01*
X166235Y266165D01*
X166258Y266162D01*
X166265Y266151D01*
X167221Y266055D01*
X167221Y265130D01*
X166858Y264949D01*
X165879Y264949D01*
X165398Y265142D01*
X165007Y265532D01*
X164713Y265924D01*
X164519Y266409D01*
X164519Y267391D01*
X164713Y267876D01*
X165005Y268265D01*
X165391Y268554D01*
X165880Y268652D01*
X166370Y268750D01*
X166856Y268653D01*
X167852Y268254D01*
X167875Y268261D01*
X167886Y268253D01*
X168186Y268353D01*
X168195Y268367D01*
X168205Y268365D01*
X168605Y268765D01*
X168607Y268779D01*
X168616Y268782D01*
X168816Y269282D01*
X168813Y269290D01*
X168816Y269292D01*
X168811Y269299D01*
X168810Y269302D01*
X168818Y269312D01*
X168718Y269712D01*
X168697Y269729D01*
X168695Y269742D01*
X168195Y270042D01*
X168189Y270042D01*
X168188Y270046D01*
X167690Y270245D01*
X167292Y270444D01*
X167283Y270442D01*
X167280Y270448D01*
X166780Y270548D01*
X166773Y270545D01*
X166770Y270549D01*
X165770Y270549D01*
X165759Y270541D01*
X165752Y270546D01*
X165256Y270347D01*
X164760Y270248D01*
X164750Y270237D01*
X164740Y270239D01*
X163940Y269639D01*
X163939Y269634D01*
X163935Y269635D01*
X163535Y269235D01*
X163534Y269230D01*
X163531Y269230D01*
X163231Y268830D01*
X163231Y268823D01*
X163226Y268822D01*
X163026Y268422D01*
X163027Y268419D01*
X163024Y268418D01*
X162824Y267918D01*
X162826Y267912D01*
X162822Y267910D01*
X162622Y266910D01*
X162628Y266897D01*
X162622Y266890D01*
X162922Y265390D01*
X162929Y265384D01*
X162926Y265378D01*
X163126Y264978D01*
X163132Y264975D01*
X163131Y264970D01*
X163431Y264570D01*
X163436Y264569D01*
X163435Y264565D01*
X164235Y263765D01*
X164240Y263764D01*
X164240Y263761D01*
X164640Y263461D01*
X164650Y263461D01*
X164652Y263454D01*
X165152Y263254D01*
X165157Y263256D01*
X165158Y263252D01*
X165558Y263152D01*
X165560Y263153D01*
X165560Y263152D01*
X166060Y263052D01*
X166072Y263057D01*
X166078Y263051D01*
X166674Y263151D01*
G37*
G36*
X21465Y305315D02*
X21465Y305315D01*
X21480Y305331D01*
X21493Y305329D01*
X21793Y305629D01*
X21794Y305641D01*
X21799Y305645D01*
X21797Y305648D01*
X21806Y305652D01*
X21906Y306052D01*
X21902Y306060D01*
X21907Y306064D01*
X21907Y307129D01*
X22166Y307215D01*
X23158Y307215D01*
X23164Y307219D01*
X23168Y307216D01*
X23668Y307316D01*
X23674Y307323D01*
X23680Y307320D01*
X24080Y307520D01*
X24102Y307564D01*
X24115Y307541D01*
X24169Y307516D01*
X24172Y307524D01*
X24180Y307520D01*
X24580Y307720D01*
X24585Y307730D01*
X24593Y307729D01*
X24993Y308129D01*
X24994Y308134D01*
X24997Y308134D01*
X25297Y308534D01*
X25297Y308541D01*
X25302Y308542D01*
X25502Y308942D01*
X25502Y308944D01*
X25501Y308946D01*
X25500Y308951D01*
X25506Y308954D01*
X25706Y309954D01*
X25703Y309961D01*
X25707Y309964D01*
X25707Y310464D01*
X25698Y310477D01*
X25702Y310486D01*
X25402Y311086D01*
X25396Y311089D01*
X25397Y311094D01*
X25097Y311494D01*
X25092Y311495D01*
X25093Y311499D01*
X24693Y311899D01*
X24688Y311900D01*
X24688Y311903D01*
X24288Y312203D01*
X24278Y312203D01*
X24276Y312210D01*
X23776Y312410D01*
X23770Y312408D01*
X23768Y312412D01*
X23268Y312512D01*
X23261Y312509D01*
X23258Y312513D01*
X20658Y312513D01*
X20645Y312504D01*
X20636Y312508D01*
X20236Y312308D01*
X20226Y312288D01*
X20214Y312286D01*
X20014Y311886D01*
X20015Y311880D01*
X20011Y311877D01*
X20016Y311870D01*
X20009Y311864D01*
X20009Y306364D01*
X20012Y306359D01*
X20009Y306356D01*
X20109Y305756D01*
X20114Y305752D01*
X20111Y305748D01*
X20211Y305448D01*
X20236Y305431D01*
X20240Y305418D01*
X20740Y305218D01*
X20757Y305223D01*
X20765Y305215D01*
X21465Y305315D01*
G37*
G36*
X47402Y265796D02*
X47402Y265796D01*
X47407Y265806D01*
X47415Y265805D01*
X47815Y266205D01*
X47816Y266216D01*
X47817Y266217D01*
X47824Y266218D01*
X48024Y266618D01*
X48019Y266647D01*
X48026Y266658D01*
X47826Y267158D01*
X47815Y267165D01*
X47816Y267173D01*
X45747Y269440D01*
X47716Y271607D01*
X47717Y271614D01*
X47722Y271615D01*
X48022Y272115D01*
X48021Y272123D01*
X48027Y272128D01*
X48020Y272137D01*
X48018Y272150D01*
X48024Y272162D01*
X47824Y272562D01*
X47814Y272567D01*
X47815Y272575D01*
X47415Y272975D01*
X47403Y272976D01*
X47402Y272984D01*
X47002Y273184D01*
X46970Y273178D01*
X46958Y273184D01*
X46558Y272984D01*
X46553Y272974D01*
X46545Y272975D01*
X46145Y272575D01*
X46145Y272572D01*
X46143Y272572D01*
X44744Y270973D01*
X44483Y270713D01*
X42918Y272572D01*
X42915Y272572D01*
X42915Y272575D01*
X42515Y272975D01*
X42503Y272976D01*
X42502Y272984D01*
X42102Y273184D01*
X42073Y273179D01*
X42062Y273186D01*
X41562Y272986D01*
X41553Y272971D01*
X41542Y272971D01*
X41142Y272471D01*
X41141Y272458D01*
X41133Y272456D01*
X41033Y272156D01*
X41034Y272155D01*
X41033Y272154D01*
X41034Y272152D01*
X41041Y272133D01*
X41034Y272122D01*
X41234Y271622D01*
X41245Y271615D01*
X41243Y271607D01*
X42942Y269709D01*
X43216Y269343D01*
X41543Y267473D01*
X41543Y267470D01*
X41541Y267470D01*
X41241Y267070D01*
X41241Y267063D01*
X41236Y267062D01*
X41036Y266662D01*
X41040Y266641D01*
X41036Y266638D01*
X41038Y266636D01*
X41032Y266628D01*
X41132Y266228D01*
X41150Y266214D01*
X41149Y266202D01*
X41649Y265802D01*
X41657Y265801D01*
X41658Y265796D01*
X42058Y265596D01*
X42099Y265604D01*
X42110Y265601D01*
X42510Y265901D01*
X42511Y265906D01*
X42515Y265905D01*
X42915Y266305D01*
X42915Y266308D01*
X42917Y266308D01*
X44217Y267808D01*
X44217Y267810D01*
X44219Y267810D01*
X44483Y268162D01*
X46543Y265808D01*
X46556Y265805D01*
X46558Y265796D01*
X46958Y265596D01*
X46990Y265602D01*
X47002Y265596D01*
X47402Y265796D01*
G37*
G36*
X184588Y49697D02*
X184588Y49697D01*
X184594Y49693D01*
X185294Y49893D01*
X185295Y49894D01*
X185296Y49893D01*
X185896Y50093D01*
X185903Y50104D01*
X185911Y50102D01*
X186411Y50502D01*
X186413Y50509D01*
X186418Y50508D01*
X186918Y51108D01*
X186918Y51113D01*
X186921Y51113D01*
X187321Y51713D01*
X187320Y51722D01*
X187327Y51724D01*
X187527Y52324D01*
X187525Y52330D01*
X187529Y52332D01*
X187629Y52932D01*
X187626Y52937D01*
X187629Y52940D01*
X187629Y53640D01*
X187626Y53644D01*
X187629Y53647D01*
X187529Y54347D01*
X187521Y54355D01*
X187524Y54362D01*
X187224Y54962D01*
X187217Y54966D01*
X187218Y54972D01*
X186718Y55572D01*
X186701Y55575D01*
X186698Y55586D01*
X186198Y55786D01*
X186175Y55779D01*
X186164Y55787D01*
X185564Y55587D01*
X185555Y55573D01*
X185545Y55575D01*
X184945Y54975D01*
X184943Y54961D01*
X184934Y54958D01*
X184734Y54458D01*
X184742Y54430D01*
X184736Y54418D01*
X185034Y53821D01*
X185230Y53235D01*
X185134Y52563D01*
X184660Y52089D01*
X183988Y52089D01*
X183412Y52281D01*
X183029Y52855D01*
X183029Y53528D01*
X183324Y54118D01*
X183323Y54121D01*
X183326Y54122D01*
X183526Y54622D01*
X183518Y54650D01*
X183524Y54662D01*
X183224Y55262D01*
X183206Y55271D01*
X183204Y55283D01*
X182504Y55683D01*
X182492Y55681D01*
X182488Y55689D01*
X181888Y55789D01*
X181862Y55775D01*
X181849Y55778D01*
X181349Y55378D01*
X181347Y55368D01*
X181339Y55367D01*
X180939Y54767D01*
X180940Y54756D01*
X180933Y54754D01*
X180733Y54054D01*
X180734Y54050D01*
X180731Y54048D01*
X180631Y53448D01*
X180634Y53443D01*
X180631Y53440D01*
X180631Y52740D01*
X180638Y52731D01*
X180633Y52724D01*
X180833Y52125D01*
X181033Y51426D01*
X181042Y51420D01*
X181039Y51413D01*
X181439Y50813D01*
X181449Y50809D01*
X181449Y50802D01*
X181949Y50402D01*
X181953Y50401D01*
X181953Y50399D01*
X182553Y49999D01*
X182562Y50000D01*
X182564Y49993D01*
X183164Y49793D01*
X183171Y49795D01*
X183173Y49791D01*
X183873Y49691D01*
X183878Y49694D01*
X183880Y49691D01*
X184580Y49691D01*
X184588Y49697D01*
G37*
%LPC*%
G36*
X143509Y177849D02*
X143509Y177849D01*
X143488Y177869D01*
X143482Y177880D01*
X143477Y177880D01*
X143471Y177885D01*
X143332Y177932D01*
X143332Y179436D01*
X143727Y179621D01*
X146770Y180520D01*
X146778Y180529D01*
X146803Y180542D01*
X146914Y180691D01*
X146916Y180723D01*
X146921Y180755D01*
X146919Y180757D01*
X146919Y180759D01*
X146912Y180762D01*
X146881Y180789D01*
X143362Y181808D01*
X143332Y182267D01*
X143332Y183298D01*
X143612Y183566D01*
X146647Y184454D01*
X146650Y184456D01*
X146654Y184456D01*
X147011Y184605D01*
X147019Y184617D01*
X147034Y184622D01*
X147037Y184643D01*
X147049Y184661D01*
X147041Y184674D01*
X147044Y184689D01*
X147020Y184709D01*
X147014Y184719D01*
X147009Y184719D01*
X147004Y184723D01*
X143477Y185764D01*
X143332Y186134D01*
X143332Y187169D01*
X143418Y187373D01*
X143416Y187384D01*
X143422Y187406D01*
X143421Y187414D01*
X143424Y187410D01*
X148355Y185635D01*
X148813Y185354D01*
X148813Y183836D01*
X148452Y183622D01*
X145422Y182688D01*
X145411Y182675D01*
X145395Y182671D01*
X145391Y182651D01*
X145378Y182636D01*
X145386Y182620D01*
X145382Y182604D01*
X145402Y182585D01*
X145408Y182574D01*
X145415Y182573D01*
X145420Y182568D01*
X145874Y182411D01*
X145875Y182411D01*
X145876Y182410D01*
X148401Y181624D01*
X148813Y181445D01*
X148813Y179925D01*
X148514Y179653D01*
X143536Y177867D01*
X143531Y177861D01*
X143523Y177861D01*
X143506Y177835D01*
X143509Y177849D01*
G37*
%LPD*%
G36*
X47334Y285608D02*
X47334Y285608D01*
X47337Y285615D01*
X47343Y285614D01*
X47843Y286014D01*
X47847Y286028D01*
X47848Y286030D01*
X47847Y286031D01*
X47848Y286035D01*
X47860Y286040D01*
X47960Y286440D01*
X47951Y286460D01*
X47958Y286470D01*
X47758Y286970D01*
X47747Y286977D01*
X47748Y286985D01*
X45679Y289251D01*
X47748Y291418D01*
X47749Y291431D01*
X47758Y291434D01*
X47958Y291934D01*
X47957Y291938D01*
X47959Y291940D01*
X47954Y291946D01*
X47952Y291954D01*
X47960Y291964D01*
X47860Y292364D01*
X47842Y292378D01*
X47843Y292390D01*
X47343Y292790D01*
X47335Y292791D01*
X47334Y292796D01*
X46934Y292996D01*
X46902Y292990D01*
X46890Y292996D01*
X46490Y292796D01*
X46485Y292786D01*
X46477Y292787D01*
X46077Y292387D01*
X46077Y292383D01*
X46074Y292383D01*
X44775Y290785D01*
X44514Y290524D01*
X42849Y292385D01*
X42847Y292385D01*
X42847Y292387D01*
X42447Y292787D01*
X42435Y292788D01*
X42434Y292796D01*
X42034Y292996D01*
X42002Y292990D01*
X41990Y292996D01*
X41590Y292796D01*
X41585Y292786D01*
X41577Y292787D01*
X41077Y292287D01*
X41075Y292271D01*
X41065Y292268D01*
X40965Y291968D01*
X40966Y291967D01*
X40965Y291966D01*
X40966Y291964D01*
X40975Y291939D01*
X40970Y291927D01*
X41270Y291427D01*
X41276Y291424D01*
X41275Y291419D01*
X42974Y289521D01*
X43248Y289155D01*
X41576Y287285D01*
X41177Y286887D01*
X41176Y286875D01*
X41168Y286874D01*
X40968Y286474D01*
X40972Y286451D01*
X40972Y286450D01*
X40974Y286442D01*
X40968Y286430D01*
X41168Y286030D01*
X41178Y286025D01*
X41177Y286017D01*
X41577Y285617D01*
X41589Y285616D01*
X41590Y285608D01*
X41990Y285408D01*
X42031Y285416D01*
X42042Y285413D01*
X42442Y285713D01*
X42443Y285718D01*
X42447Y285717D01*
X42847Y286117D01*
X42847Y286120D01*
X42849Y286120D01*
X44148Y287619D01*
X44509Y287979D01*
X46474Y285620D01*
X46488Y285617D01*
X46490Y285608D01*
X46890Y285408D01*
X46922Y285414D01*
X46934Y285408D01*
X47334Y285608D01*
G37*
G36*
X168930Y303892D02*
X168930Y303892D01*
X168931Y303893D01*
X168932Y303892D01*
X169332Y303992D01*
X169339Y304001D01*
X169345Y303998D01*
X169845Y304298D01*
X169849Y304306D01*
X169855Y304305D01*
X170155Y304605D01*
X170156Y304614D01*
X170162Y304615D01*
X170462Y305115D01*
X170462Y305118D01*
X170464Y305118D01*
X170664Y305518D01*
X170661Y305534D01*
X170669Y305540D01*
X170669Y306640D01*
X170661Y306651D01*
X170666Y306658D01*
X170466Y307158D01*
X170458Y307163D01*
X170459Y307170D01*
X170159Y307570D01*
X170154Y307571D01*
X170155Y307575D01*
X169855Y307875D01*
X169841Y307877D01*
X169838Y307886D01*
X169338Y308086D01*
X169332Y308084D01*
X169330Y308088D01*
X168832Y308188D01*
X167838Y308486D01*
X167464Y308673D01*
X167373Y309124D01*
X167644Y309395D01*
X168119Y309490D01*
X168501Y309394D01*
X168995Y309098D01*
X169005Y309099D01*
X169008Y309092D01*
X169408Y308992D01*
X169436Y309004D01*
X169450Y309001D01*
X169850Y309301D01*
X169852Y309309D01*
X169858Y309309D01*
X170258Y309809D01*
X170259Y309827D01*
X170267Y309834D01*
X170265Y309837D01*
X170269Y309840D01*
X170269Y310140D01*
X170253Y310161D01*
X170255Y310175D01*
X169855Y310575D01*
X169850Y310576D01*
X169850Y310579D01*
X169450Y310879D01*
X169440Y310879D01*
X169438Y310886D01*
X168938Y311086D01*
X168932Y311084D01*
X168930Y311088D01*
X168430Y311188D01*
X168423Y311185D01*
X168420Y311189D01*
X167320Y311189D01*
X167307Y311180D01*
X167298Y311184D01*
X166900Y310985D01*
X166402Y310786D01*
X166394Y310774D01*
X166385Y310775D01*
X166085Y310475D01*
X166084Y310470D01*
X166081Y310470D01*
X165781Y310070D01*
X165781Y310061D01*
X165778Y310059D01*
X165774Y310058D01*
X165574Y309558D01*
X165576Y309552D01*
X165572Y309550D01*
X165472Y309050D01*
X165478Y309037D01*
X165472Y309030D01*
X165672Y308030D01*
X165683Y308020D01*
X165681Y308010D01*
X165981Y307610D01*
X165990Y307608D01*
X165990Y307601D01*
X166790Y307001D01*
X166806Y307001D01*
X166810Y306992D01*
X167306Y306893D01*
X167802Y306694D01*
X167808Y306696D01*
X167810Y306692D01*
X168306Y306593D01*
X168777Y306404D01*
X168868Y305950D01*
X168688Y305680D01*
X168211Y305489D01*
X167734Y305489D01*
X167251Y305779D01*
X166855Y306175D01*
X166843Y306176D01*
X166842Y306184D01*
X166442Y306384D01*
X166413Y306379D01*
X166402Y306386D01*
X165902Y306186D01*
X165894Y306174D01*
X165885Y306175D01*
X165485Y305775D01*
X165483Y305756D01*
X165472Y305752D01*
X165372Y305352D01*
X165384Y305324D01*
X165381Y305310D01*
X165981Y304510D01*
X165990Y304508D01*
X165990Y304501D01*
X166390Y304201D01*
X166394Y304201D01*
X166395Y304198D01*
X166895Y303898D01*
X166907Y303899D01*
X166910Y303892D01*
X167910Y303692D01*
X167923Y303698D01*
X167930Y303692D01*
X168930Y303892D01*
G37*
G36*
X152610Y255732D02*
X152610Y255732D01*
X152620Y255743D01*
X152630Y255741D01*
X153430Y256341D01*
X153433Y256354D01*
X153442Y256355D01*
X153742Y256855D01*
X153741Y256865D01*
X153748Y256868D01*
X153848Y257268D01*
X153847Y257270D01*
X153848Y257270D01*
X153948Y257770D01*
X153943Y257780D01*
X153945Y257781D01*
X153944Y257783D01*
X153949Y257788D01*
X153849Y258388D01*
X153848Y258389D01*
X153848Y258390D01*
X153748Y258890D01*
X153737Y258900D01*
X153739Y258910D01*
X153439Y259310D01*
X153430Y259312D01*
X153430Y259319D01*
X153030Y259619D01*
X153023Y259619D01*
X153022Y259624D01*
X152622Y259824D01*
X152613Y259822D01*
X152610Y259828D01*
X152112Y259928D01*
X151116Y260227D01*
X150643Y260416D01*
X150553Y260864D01*
X150824Y261134D01*
X151398Y261230D01*
X151778Y261135D01*
X152170Y260841D01*
X152186Y260841D01*
X152190Y260832D01*
X152690Y260732D01*
X152716Y260744D01*
X152730Y260741D01*
X153130Y261041D01*
X153133Y261054D01*
X153142Y261055D01*
X153442Y261555D01*
X153441Y261569D01*
X153447Y261574D01*
X153445Y261577D01*
X153449Y261580D01*
X153449Y261880D01*
X153433Y261901D01*
X153435Y261915D01*
X152735Y262615D01*
X152721Y262617D01*
X152718Y262626D01*
X152218Y262826D01*
X152212Y262824D01*
X152210Y262828D01*
X151710Y262928D01*
X151703Y262925D01*
X151700Y262929D01*
X150600Y262929D01*
X150589Y262921D01*
X150582Y262926D01*
X150082Y262726D01*
X150080Y262723D01*
X150078Y262724D01*
X149678Y262524D01*
X149675Y262518D01*
X149670Y262519D01*
X149270Y262219D01*
X149268Y262210D01*
X149261Y262210D01*
X148961Y261810D01*
X148961Y261801D01*
X148956Y261797D01*
X148959Y261793D01*
X148952Y261790D01*
X148752Y260790D01*
X148755Y260783D01*
X148751Y260780D01*
X148751Y260280D01*
X148759Y260269D01*
X148754Y260262D01*
X148954Y259762D01*
X148962Y259757D01*
X148961Y259750D01*
X149261Y259350D01*
X149270Y259348D01*
X149270Y259341D01*
X150070Y258741D01*
X150086Y258741D01*
X150090Y258732D01*
X150586Y258633D01*
X151082Y258434D01*
X151088Y258436D01*
X151090Y258432D01*
X151584Y258333D01*
X151956Y258147D01*
X152048Y257690D01*
X151868Y257420D01*
X151391Y257229D01*
X150916Y257229D01*
X150530Y257519D01*
X150031Y257918D01*
X150023Y257919D01*
X150022Y257924D01*
X149622Y258124D01*
X149590Y258118D01*
X149578Y258124D01*
X149178Y257924D01*
X149173Y257914D01*
X149165Y257915D01*
X148765Y257515D01*
X148763Y257496D01*
X148752Y257492D01*
X148652Y257092D01*
X148662Y257070D01*
X148656Y257058D01*
X148856Y256658D01*
X148862Y256655D01*
X148861Y256650D01*
X149161Y256250D01*
X149174Y256247D01*
X149175Y256238D01*
X149672Y255939D01*
X150070Y255641D01*
X150086Y255641D01*
X150090Y255632D01*
X151090Y255432D01*
X151103Y255438D01*
X151110Y255432D01*
X152610Y255732D01*
G37*
G36*
X165164Y285250D02*
X165164Y285250D01*
X165174Y285261D01*
X165184Y285259D01*
X165584Y285559D01*
X165588Y285575D01*
X165592Y285578D01*
X165600Y285580D01*
X165799Y286078D01*
X168298Y291076D01*
X168296Y291085D01*
X168302Y291088D01*
X168402Y291588D01*
X168396Y291602D01*
X168402Y291610D01*
X168302Y292010D01*
X168284Y292025D01*
X168284Y292037D01*
X167884Y292337D01*
X167874Y292337D01*
X167872Y292344D01*
X167372Y292544D01*
X167345Y292536D01*
X167344Y292536D01*
X167332Y292542D01*
X166932Y292342D01*
X166922Y292322D01*
X166910Y292319D01*
X164740Y287782D01*
X164695Y287826D01*
X162899Y291818D01*
X162894Y291821D01*
X162895Y291825D01*
X162695Y292125D01*
X162688Y292128D01*
X162689Y292133D01*
X162389Y292433D01*
X162365Y292436D01*
X162364Y292438D01*
X162361Y292438D01*
X162354Y292447D01*
X161854Y292447D01*
X161841Y292438D01*
X161838Y292438D01*
X161837Y292437D01*
X161829Y292440D01*
X161329Y292140D01*
X161324Y292128D01*
X161315Y292128D01*
X161015Y291728D01*
X161015Y291718D01*
X161007Y291712D01*
X161015Y291703D01*
X161015Y291686D01*
X161010Y291676D01*
X161210Y291276D01*
X163809Y285777D01*
X163816Y285774D01*
X163815Y285768D01*
X164115Y285368D01*
X164133Y285363D01*
X164136Y285352D01*
X164636Y285152D01*
X164655Y285158D01*
X164664Y285150D01*
X165164Y285250D01*
G37*
G36*
X186995Y57902D02*
X186995Y57902D01*
X187005Y57898D01*
X187505Y58198D01*
X187513Y58217D01*
X187520Y58222D01*
X187517Y58226D01*
X187529Y58233D01*
X187629Y58933D01*
X187624Y58941D01*
X187629Y58946D01*
X187529Y59746D01*
X187516Y59759D01*
X187519Y59770D01*
X187219Y60170D01*
X187194Y60177D01*
X187187Y60189D01*
X186487Y60289D01*
X186482Y60286D01*
X186480Y60289D01*
X183788Y60289D01*
X183215Y60480D01*
X182931Y61048D01*
X183028Y61729D01*
X183227Y62324D01*
X183215Y62358D01*
X183218Y62371D01*
X182818Y62871D01*
X182802Y62875D01*
X182799Y62885D01*
X182099Y63185D01*
X182086Y63182D01*
X182080Y63189D01*
X181480Y63189D01*
X181467Y63180D01*
X181458Y63184D01*
X180858Y62884D01*
X180843Y62854D01*
X180831Y62848D01*
X180731Y62248D01*
X180732Y62247D01*
X180731Y62247D01*
X180631Y61547D01*
X180640Y61531D01*
X180635Y61521D01*
X180935Y60821D01*
X180943Y60816D01*
X180942Y60809D01*
X181308Y60351D01*
X181053Y60181D01*
X181048Y60166D01*
X181038Y60165D01*
X180738Y59665D01*
X180740Y59647D01*
X180731Y59640D01*
X180731Y58740D01*
X180738Y58731D01*
X180733Y58724D01*
X180933Y58124D01*
X180960Y58106D01*
X180964Y58093D01*
X181564Y57893D01*
X181575Y57897D01*
X181580Y57891D01*
X186980Y57891D01*
X186995Y57902D01*
G37*
G36*
X186995Y14842D02*
X186995Y14842D01*
X187005Y14838D01*
X187505Y15138D01*
X187513Y15157D01*
X187520Y15162D01*
X187517Y15166D01*
X187529Y15172D01*
X187629Y15772D01*
X187624Y15781D01*
X187629Y15786D01*
X187529Y16586D01*
X187516Y16599D01*
X187519Y16610D01*
X187219Y17010D01*
X187194Y17017D01*
X187187Y17029D01*
X186487Y17129D01*
X186482Y17126D01*
X186480Y17129D01*
X183788Y17129D01*
X183215Y17320D01*
X182931Y17888D01*
X183028Y18569D01*
X183227Y19164D01*
X183215Y19198D01*
X183218Y19211D01*
X182818Y19711D01*
X182802Y19715D01*
X182799Y19725D01*
X182099Y20025D01*
X182086Y20022D01*
X182080Y20029D01*
X181480Y20029D01*
X181467Y20020D01*
X181458Y20024D01*
X180858Y19724D01*
X180843Y19694D01*
X180831Y19688D01*
X180731Y19088D01*
X180732Y19087D01*
X180731Y19087D01*
X180631Y18387D01*
X180641Y18369D01*
X180636Y18358D01*
X180936Y17758D01*
X180940Y17756D01*
X180939Y17753D01*
X181312Y17194D01*
X181053Y17021D01*
X181048Y17006D01*
X181038Y17005D01*
X180738Y16505D01*
X180740Y16487D01*
X180731Y16480D01*
X180731Y15580D01*
X180739Y15569D01*
X180734Y15562D01*
X180934Y15062D01*
X180960Y15046D01*
X180964Y15033D01*
X181564Y14833D01*
X181575Y14837D01*
X181580Y14831D01*
X186980Y14831D01*
X186995Y14842D01*
G37*
G36*
X158911Y255441D02*
X158911Y255441D01*
X158922Y255436D01*
X159322Y255636D01*
X159332Y255656D01*
X159344Y255658D01*
X159544Y256058D01*
X159542Y256067D01*
X159548Y256070D01*
X159648Y256570D01*
X159645Y256577D01*
X159649Y256580D01*
X159649Y261142D01*
X160006Y261231D01*
X161600Y261231D01*
X161613Y261240D01*
X161622Y261236D01*
X162022Y261436D01*
X162036Y261464D01*
X162048Y261470D01*
X162148Y261970D01*
X162145Y261977D01*
X162149Y261980D01*
X162149Y262480D01*
X162124Y262513D01*
X162122Y262524D01*
X161722Y262724D01*
X161706Y262721D01*
X161700Y262729D01*
X156000Y262729D01*
X155994Y262725D01*
X155990Y262728D01*
X155490Y262628D01*
X155469Y262605D01*
X155456Y262602D01*
X155256Y262202D01*
X155257Y262195D01*
X155253Y262191D01*
X155257Y262185D01*
X155251Y262180D01*
X155251Y261580D01*
X155267Y261559D01*
X155265Y261545D01*
X155565Y261245D01*
X155592Y261242D01*
X155600Y261231D01*
X157674Y261231D01*
X157851Y260965D01*
X157851Y255880D01*
X157870Y255854D01*
X157870Y255841D01*
X158270Y255541D01*
X158287Y255541D01*
X158292Y255531D01*
X158892Y255431D01*
X158911Y255441D01*
G37*
G36*
X63778Y255440D02*
X63778Y255440D01*
X63788Y255434D01*
X64288Y255634D01*
X64301Y255656D01*
X64314Y255658D01*
X64514Y256058D01*
X64511Y256074D01*
X64519Y256080D01*
X64519Y261140D01*
X64975Y261231D01*
X66570Y261231D01*
X66583Y261240D01*
X66592Y261236D01*
X66992Y261436D01*
X67006Y261464D01*
X67018Y261470D01*
X67118Y261970D01*
X67112Y261983D01*
X67118Y261990D01*
X67018Y262490D01*
X66995Y262511D01*
X66992Y262524D01*
X66592Y262724D01*
X66576Y262721D01*
X66570Y262729D01*
X60970Y262729D01*
X60964Y262725D01*
X60960Y262728D01*
X60460Y262628D01*
X60439Y262605D01*
X60426Y262602D01*
X60226Y262202D01*
X60227Y262195D01*
X60223Y262191D01*
X60227Y262185D01*
X60221Y262180D01*
X60221Y261580D01*
X60237Y261559D01*
X60235Y261545D01*
X60535Y261245D01*
X60562Y261242D01*
X60570Y261231D01*
X62635Y261231D01*
X62721Y260972D01*
X62721Y256280D01*
X62726Y256273D01*
X62722Y256268D01*
X62822Y255868D01*
X62840Y255853D01*
X62840Y255841D01*
X63240Y255541D01*
X63256Y255541D01*
X63260Y255532D01*
X63760Y255432D01*
X63778Y255440D01*
G37*
G36*
X175628Y303700D02*
X175628Y303700D01*
X175638Y303694D01*
X176138Y303894D01*
X176151Y303916D01*
X176164Y303918D01*
X176364Y304318D01*
X176361Y304334D01*
X176369Y304340D01*
X176369Y309400D01*
X176825Y309491D01*
X178320Y309491D01*
X178331Y309499D01*
X178338Y309494D01*
X178838Y309694D01*
X178859Y309729D01*
X178867Y309735D01*
X178866Y309737D01*
X178869Y309740D01*
X178869Y310740D01*
X178844Y310773D01*
X178842Y310784D01*
X178442Y310984D01*
X178426Y310981D01*
X178420Y310989D01*
X172820Y310989D01*
X172814Y310985D01*
X172810Y310988D01*
X172310Y310888D01*
X172294Y310870D01*
X172281Y310870D01*
X171981Y310470D01*
X171981Y310457D01*
X171973Y310451D01*
X171980Y310441D01*
X171971Y310432D01*
X172071Y309832D01*
X172087Y309817D01*
X172085Y309805D01*
X172385Y309505D01*
X172412Y309502D01*
X172420Y309491D01*
X174485Y309491D01*
X174571Y309232D01*
X174571Y304540D01*
X174576Y304533D01*
X174572Y304528D01*
X174672Y304128D01*
X174690Y304113D01*
X174690Y304101D01*
X175090Y303801D01*
X175106Y303801D01*
X175110Y303792D01*
X175610Y303692D01*
X175628Y303700D01*
G37*
G36*
X36323Y285413D02*
X36323Y285413D01*
X36334Y285408D01*
X36734Y285608D01*
X36744Y285628D01*
X36756Y285630D01*
X36956Y286030D01*
X36953Y286046D01*
X36961Y286052D01*
X36961Y291112D01*
X37417Y291203D01*
X39012Y291203D01*
X39025Y291212D01*
X39034Y291208D01*
X39434Y291408D01*
X39448Y291436D01*
X39460Y291442D01*
X39560Y291942D01*
X39554Y291955D01*
X39560Y291962D01*
X39460Y292462D01*
X39437Y292483D01*
X39434Y292496D01*
X39034Y292696D01*
X39018Y292693D01*
X39012Y292701D01*
X33412Y292701D01*
X33406Y292697D01*
X33402Y292700D01*
X32902Y292600D01*
X32881Y292577D01*
X32868Y292574D01*
X32668Y292174D01*
X32669Y292167D01*
X32665Y292163D01*
X32669Y292157D01*
X32663Y292152D01*
X32663Y291552D01*
X32679Y291531D01*
X32677Y291517D01*
X32977Y291217D01*
X33004Y291214D01*
X33012Y291203D01*
X35086Y291203D01*
X35263Y290937D01*
X35263Y285852D01*
X35282Y285826D01*
X35282Y285813D01*
X35682Y285513D01*
X35699Y285513D01*
X35704Y285503D01*
X36304Y285403D01*
X36323Y285413D01*
G37*
G36*
X186484Y45594D02*
X186484Y45594D01*
X186487Y45591D01*
X187187Y45691D01*
X187202Y45707D01*
X187215Y45705D01*
X187615Y46105D01*
X187616Y46117D01*
X187620Y46119D01*
X187617Y46123D01*
X187619Y46132D01*
X187629Y46140D01*
X187629Y46940D01*
X187623Y46948D01*
X187627Y46954D01*
X187427Y47654D01*
X187402Y47673D01*
X187398Y47686D01*
X186898Y47886D01*
X186885Y47882D01*
X186880Y47889D01*
X181380Y47889D01*
X181365Y47878D01*
X181355Y47882D01*
X180855Y47582D01*
X180844Y47554D01*
X180831Y47548D01*
X180731Y46948D01*
X180736Y46939D01*
X180731Y46935D01*
X180831Y46035D01*
X180850Y46014D01*
X180850Y46001D01*
X181250Y45701D01*
X181268Y45701D01*
X181273Y45691D01*
X181973Y45591D01*
X181978Y45594D01*
X181980Y45591D01*
X186480Y45591D01*
X186484Y45594D01*
G37*
G36*
X50887Y265696D02*
X50887Y265696D01*
X50892Y265692D01*
X51292Y265792D01*
X51311Y265815D01*
X51324Y265818D01*
X51524Y266218D01*
X51521Y266234D01*
X51529Y266240D01*
X51529Y272440D01*
X51513Y272461D01*
X51515Y272475D01*
X51215Y272775D01*
X51195Y272778D01*
X51190Y272788D01*
X50690Y272888D01*
X50678Y272883D01*
X50672Y272889D01*
X50072Y272789D01*
X50057Y272773D01*
X50045Y272775D01*
X49745Y272475D01*
X49743Y272459D01*
X49733Y272451D01*
X49737Y272445D01*
X49731Y272440D01*
X49731Y265940D01*
X49756Y265907D01*
X49758Y265896D01*
X50158Y265696D01*
X50174Y265699D01*
X50180Y265691D01*
X50880Y265691D01*
X50887Y265696D01*
G37*
%LPC*%
G36*
X144958Y192408D02*
X144958Y192408D01*
X144523Y192678D01*
X144096Y193016D01*
X144066Y193018D01*
X144038Y193026D01*
X144033Y193022D01*
X144030Y193022D01*
X144025Y193053D01*
X143514Y193817D01*
X143398Y194315D01*
X143308Y194831D01*
X143287Y195295D01*
X143705Y195341D01*
X144698Y195341D01*
X144699Y194975D01*
X144704Y194966D01*
X144704Y194951D01*
X144901Y194473D01*
X144911Y194467D01*
X144920Y194448D01*
X145324Y194123D01*
X145334Y194122D01*
X145346Y194112D01*
X145849Y193971D01*
X145857Y193973D01*
X145868Y193968D01*
X146392Y193980D01*
X146398Y193984D01*
X146410Y193983D01*
X146905Y194148D01*
X146911Y194156D01*
X146928Y194162D01*
X147310Y194512D01*
X147313Y194523D01*
X147327Y194538D01*
X147491Y195028D01*
X147632Y195341D01*
X148627Y195341D01*
X148869Y195119D01*
X148806Y194628D01*
X148718Y194114D01*
X148533Y193642D01*
X148256Y193205D01*
X147905Y192843D01*
X147472Y192561D01*
X147004Y192368D01*
X146492Y192277D01*
X145981Y192228D01*
X144958Y192408D01*
G37*
%LPD*%
%LPC*%
G36*
X46279Y257329D02*
X46279Y257329D01*
X45798Y257522D01*
X45405Y257915D01*
X45400Y257916D01*
X45400Y257919D01*
X45002Y258217D01*
X44905Y258315D01*
X44869Y258320D01*
X44898Y258340D01*
X44906Y258364D01*
X44917Y258372D01*
X44914Y258376D01*
X44919Y258380D01*
X44919Y259375D01*
X45017Y259864D01*
X45211Y260251D01*
X45602Y260643D01*
X45991Y260934D01*
X46475Y261031D01*
X46964Y261031D01*
X47351Y260934D01*
X47836Y260643D01*
X48128Y260254D01*
X48323Y259864D01*
X48421Y259375D01*
X48421Y258785D01*
X48324Y258301D01*
X48035Y257915D01*
X47644Y257622D01*
X47254Y257427D01*
X46765Y257329D01*
X46279Y257329D01*
G37*
%LPD*%
%LPC*%
G36*
X52624Y287301D02*
X52624Y287301D01*
X52241Y287493D01*
X51847Y287887D01*
X51842Y287888D01*
X51842Y287891D01*
X51444Y288189D01*
X51347Y288287D01*
X51310Y288292D01*
X51339Y288311D01*
X51348Y288336D01*
X51359Y288344D01*
X51356Y288348D01*
X51361Y288352D01*
X51361Y289347D01*
X51459Y289836D01*
X51654Y290226D01*
X51946Y290615D01*
X52431Y290906D01*
X52818Y291003D01*
X53307Y291003D01*
X53791Y290906D01*
X54180Y290615D01*
X54571Y290223D01*
X54765Y289836D01*
X54863Y289347D01*
X54863Y288761D01*
X54667Y288272D01*
X54473Y287884D01*
X54088Y287595D01*
X53598Y287399D01*
X53107Y287301D01*
X52624Y287301D01*
G37*
%LPD*%
%LPC*%
G36*
X54879Y257329D02*
X54879Y257329D01*
X54398Y257522D01*
X54005Y257915D01*
X54000Y257916D01*
X54000Y257919D01*
X53602Y258217D01*
X53505Y258315D01*
X53469Y258320D01*
X53498Y258340D01*
X53506Y258364D01*
X53517Y258372D01*
X53514Y258376D01*
X53519Y258380D01*
X53519Y259375D01*
X53617Y259864D01*
X53811Y260251D01*
X54202Y260643D01*
X54591Y260934D01*
X55075Y261031D01*
X55465Y261031D01*
X55949Y260934D01*
X56338Y260643D01*
X56729Y260251D01*
X56923Y259864D01*
X57021Y259375D01*
X57021Y258789D01*
X56825Y258300D01*
X56631Y257912D01*
X56246Y257623D01*
X55755Y257427D01*
X55364Y257329D01*
X54879Y257329D01*
G37*
%LPD*%
G36*
X21050Y51013D02*
X21050Y51013D01*
X21062Y51015D01*
X21362Y51515D01*
X21362Y51518D01*
X21363Y51519D01*
X21362Y51521D01*
X21360Y51533D01*
X21369Y51540D01*
X21369Y55640D01*
X21344Y55673D01*
X21342Y55684D01*
X20742Y55984D01*
X20726Y55981D01*
X20720Y55989D01*
X20020Y55989D01*
X20011Y55982D01*
X20004Y55987D01*
X19404Y55787D01*
X19381Y55752D01*
X19371Y55747D01*
X19271Y55047D01*
X19273Y55043D01*
X19273Y55042D01*
X19271Y55040D01*
X19271Y51640D01*
X19282Y51625D01*
X19278Y51615D01*
X19578Y51115D01*
X19606Y51103D01*
X19613Y51091D01*
X20313Y50991D01*
X20318Y50994D01*
X20320Y50991D01*
X21020Y50991D01*
X21050Y51013D01*
G37*
%LPC*%
G36*
X143347Y187901D02*
X143347Y187901D01*
X143332Y188280D01*
X143332Y189313D01*
X143490Y189472D01*
X143491Y189476D01*
X143496Y189478D01*
X143499Y189496D01*
X143501Y189497D01*
X143500Y189500D01*
X143507Y189529D01*
X143501Y189554D01*
X143508Y189551D01*
X143517Y189543D01*
X143522Y189545D01*
X143528Y189542D01*
X148813Y189542D01*
X148813Y188040D01*
X148564Y187833D01*
X143395Y187833D01*
X143372Y187818D01*
X143360Y187814D01*
X143347Y187901D01*
G37*
%LPD*%
%LPC*%
G36*
X143383Y190112D02*
X143383Y190112D01*
X143332Y190441D01*
X143332Y191477D01*
X143465Y191673D01*
X143465Y191678D01*
X143471Y191684D01*
X143503Y191759D01*
X143504Y191759D01*
X143549Y191739D01*
X148729Y191749D01*
X148813Y191321D01*
X148813Y190290D01*
X148607Y190040D01*
X143435Y190050D01*
X143410Y190034D01*
X143400Y190030D01*
X143383Y190112D01*
G37*
%LPD*%
G36*
X146556Y173134D02*
X146556Y173134D01*
X146563Y173139D01*
X146575Y173139D01*
X147039Y173350D01*
X147044Y173359D01*
X147060Y173365D01*
X147399Y173743D01*
X147400Y173754D01*
X147412Y173769D01*
X147545Y174261D01*
X147542Y174270D01*
X147547Y174287D01*
X147468Y174791D01*
X147460Y174799D01*
X147457Y174817D01*
X147166Y175237D01*
X147156Y175242D01*
X147153Y175245D01*
X147153Y175248D01*
X147150Y175249D01*
X147145Y175256D01*
X146697Y175509D01*
X146688Y175508D01*
X146675Y175516D01*
X146166Y175595D01*
X146159Y175592D01*
X146149Y175595D01*
X145640Y175535D01*
X145633Y175530D01*
X145621Y175530D01*
X145157Y175320D01*
X145151Y175312D01*
X145136Y175305D01*
X144796Y174928D01*
X144795Y174921D01*
X144792Y174919D01*
X144792Y174915D01*
X144782Y174902D01*
X144650Y174410D01*
X144653Y174400D01*
X144649Y174384D01*
X144730Y173879D01*
X144737Y173871D01*
X144741Y173853D01*
X145031Y173432D01*
X145041Y173428D01*
X145052Y173414D01*
X145499Y173160D01*
X145509Y173160D01*
X145521Y173152D01*
X146030Y173074D01*
X146037Y173077D01*
X146047Y173073D01*
X146556Y173134D01*
G37*
%LPC*%
G36*
X180429Y8096D02*
X180429Y8096D01*
X180429Y9472D01*
X180621Y10048D01*
X181195Y10431D01*
X181863Y10431D01*
X182347Y10043D01*
X182631Y9760D01*
X182631Y7827D01*
X180704Y7731D01*
X180429Y8096D01*
G37*
%LPD*%
%LPC*%
G36*
X18140Y25489D02*
X18140Y25489D01*
X17869Y25760D01*
X17869Y27132D01*
X18061Y27708D01*
X18635Y28091D01*
X19306Y28091D01*
X19786Y27803D01*
X20071Y27424D01*
X20071Y25489D01*
X18140Y25489D01*
G37*
%LPD*%
%LPC*%
G36*
X38008Y257329D02*
X38008Y257329D01*
X37919Y257686D01*
X37919Y260754D01*
X38185Y260931D01*
X39264Y260931D01*
X39634Y260838D01*
X39816Y260382D01*
X39637Y260024D01*
X39062Y259929D01*
X39060Y259926D01*
X39058Y259928D01*
X38658Y259828D01*
X38630Y259792D01*
X38621Y259788D01*
X38521Y259188D01*
X38531Y259169D01*
X38526Y259158D01*
X38726Y258758D01*
X38746Y258748D01*
X38748Y258736D01*
X39148Y258536D01*
X39157Y258538D01*
X39160Y258532D01*
X39651Y258434D01*
X39943Y258239D01*
X39958Y258240D01*
X39959Y258238D01*
X39979Y258238D01*
X39983Y258241D01*
X40001Y258243D01*
X40002Y258242D01*
X40826Y258940D01*
X40037Y258216D01*
X40034Y258204D01*
X40032Y258202D01*
X40034Y258200D01*
X40032Y258188D01*
X40021Y258180D01*
X40021Y257889D01*
X39834Y257422D01*
X39464Y257329D01*
X38008Y257329D01*
G37*
%LPD*%
G36*
X179301Y45607D02*
X179301Y45607D01*
X179315Y45605D01*
X179815Y46105D01*
X179816Y46117D01*
X179820Y46119D01*
X179817Y46123D01*
X179818Y46127D01*
X179829Y46133D01*
X179929Y46833D01*
X179924Y46842D01*
X179929Y46847D01*
X179829Y47547D01*
X179813Y47562D01*
X179815Y47575D01*
X179715Y47675D01*
X179699Y47677D01*
X179696Y47687D01*
X179096Y47887D01*
X179085Y47883D01*
X179080Y47889D01*
X178380Y47889D01*
X178371Y47882D01*
X178364Y47887D01*
X177764Y47687D01*
X177746Y47660D01*
X177733Y47656D01*
X177533Y47056D01*
X177538Y47041D01*
X177531Y47035D01*
X177631Y46135D01*
X177644Y46121D01*
X177641Y46110D01*
X177941Y45710D01*
X177966Y45703D01*
X177972Y45691D01*
X178572Y45591D01*
X178577Y45594D01*
X178580Y45591D01*
X179280Y45591D01*
X179301Y45607D01*
G37*
%LPC*%
G36*
X183597Y24327D02*
X183597Y24327D01*
X183119Y24614D01*
X182829Y25290D01*
X182829Y25865D01*
X183212Y26439D01*
X183785Y26630D01*
X184560Y26533D01*
X185038Y26151D01*
X185231Y25572D01*
X185231Y24997D01*
X184848Y24519D01*
X184272Y24231D01*
X183597Y24327D01*
G37*
%LPD*%
%LPC*%
G36*
X183597Y67487D02*
X183597Y67487D01*
X183118Y67775D01*
X182829Y68352D01*
X182829Y69023D01*
X183212Y69501D01*
X183789Y69789D01*
X184560Y69693D01*
X185038Y69311D01*
X185231Y68732D01*
X185231Y68157D01*
X184848Y67679D01*
X184272Y67391D01*
X183597Y67487D01*
G37*
%LPD*%
%LPC*%
G36*
X35929Y269489D02*
X35929Y269489D01*
X35929Y270914D01*
X36195Y271091D01*
X37268Y271091D01*
X37648Y270901D01*
X37931Y270524D01*
X37931Y270056D01*
X37649Y269681D01*
X37171Y269489D01*
X35929Y269489D01*
G37*
%LPD*%
%LPC*%
G36*
X39907Y309113D02*
X39907Y309113D01*
X39907Y310538D01*
X40173Y310715D01*
X41149Y310715D01*
X41622Y310525D01*
X41809Y310152D01*
X41809Y309676D01*
X41622Y309303D01*
X41149Y309113D01*
X39907Y309113D01*
G37*
%LPD*%
%LPC*%
G36*
X21907Y309113D02*
X21907Y309113D01*
X21907Y310544D01*
X22078Y310715D01*
X23146Y310715D01*
X23526Y310525D01*
X23809Y310148D01*
X23809Y309676D01*
X23620Y309298D01*
X23343Y309113D01*
X21907Y309113D01*
G37*
%LPD*%
%LPC*%
G36*
X143549Y259329D02*
X143549Y259329D01*
X143549Y260754D01*
X143815Y260931D01*
X144788Y260931D01*
X145178Y260736D01*
X145235Y260747D01*
X145236Y260747D01*
X145260Y260773D01*
X145260Y260766D01*
X145256Y260758D01*
X145451Y260368D01*
X145451Y259896D01*
X145169Y259521D01*
X144691Y259329D01*
X143549Y259329D01*
G37*
%LPD*%
D10*
X177800Y266700D03*
D11*
X27940Y203200D03*
D12*
X57277Y340487D02*
X57277Y355473D01*
X61440Y355473D01*
X61568Y355471D01*
X61696Y355465D01*
X61824Y355455D01*
X61952Y355441D01*
X62079Y355424D01*
X62205Y355402D01*
X62331Y355377D01*
X62455Y355347D01*
X62579Y355314D01*
X62702Y355277D01*
X62824Y355236D01*
X62944Y355192D01*
X63063Y355144D01*
X63180Y355092D01*
X63296Y355037D01*
X63409Y354978D01*
X63522Y354915D01*
X63632Y354849D01*
X63739Y354780D01*
X63845Y354708D01*
X63949Y354632D01*
X64050Y354553D01*
X64149Y354471D01*
X64245Y354386D01*
X64338Y354299D01*
X64429Y354208D01*
X64516Y354115D01*
X64601Y354019D01*
X64683Y353920D01*
X64762Y353819D01*
X64838Y353715D01*
X64910Y353609D01*
X64979Y353502D01*
X65045Y353392D01*
X65108Y353279D01*
X65167Y353166D01*
X65222Y353050D01*
X65274Y352933D01*
X65322Y352814D01*
X65366Y352694D01*
X65407Y352572D01*
X65444Y352449D01*
X65477Y352325D01*
X65507Y352201D01*
X65532Y352075D01*
X65554Y351949D01*
X65571Y351822D01*
X65585Y351694D01*
X65595Y351566D01*
X65601Y351438D01*
X65603Y351310D01*
X65601Y351182D01*
X65595Y351054D01*
X65585Y350926D01*
X65571Y350798D01*
X65554Y350671D01*
X65532Y350545D01*
X65507Y350419D01*
X65477Y350295D01*
X65444Y350171D01*
X65407Y350048D01*
X65366Y349926D01*
X65322Y349806D01*
X65274Y349687D01*
X65222Y349570D01*
X65167Y349454D01*
X65108Y349341D01*
X65045Y349229D01*
X64979Y349118D01*
X64910Y349011D01*
X64838Y348905D01*
X64762Y348801D01*
X64683Y348700D01*
X64601Y348601D01*
X64516Y348505D01*
X64429Y348412D01*
X64338Y348321D01*
X64245Y348234D01*
X64149Y348149D01*
X64050Y348067D01*
X63949Y347988D01*
X63845Y347912D01*
X63739Y347840D01*
X63632Y347771D01*
X63521Y347705D01*
X63409Y347642D01*
X63296Y347583D01*
X63180Y347528D01*
X63063Y347476D01*
X62944Y347428D01*
X62824Y347384D01*
X62702Y347343D01*
X62579Y347306D01*
X62455Y347273D01*
X62331Y347243D01*
X62205Y347218D01*
X62079Y347196D01*
X61952Y347179D01*
X61824Y347165D01*
X61696Y347155D01*
X61568Y347149D01*
X61440Y347147D01*
X57277Y347147D01*
X62272Y347147D02*
X65603Y340487D01*
X73336Y340487D02*
X79997Y340487D01*
X73336Y340487D02*
X73336Y355473D01*
X79997Y355473D01*
X78331Y348813D02*
X73336Y348813D01*
X87048Y355473D02*
X87048Y340487D01*
X92043Y347147D02*
X87048Y355473D01*
X92043Y347147D02*
X97038Y355473D01*
X97038Y340487D01*
X105075Y344650D02*
X105075Y351310D01*
X105074Y351310D02*
X105076Y351438D01*
X105082Y351566D01*
X105092Y351694D01*
X105106Y351822D01*
X105123Y351949D01*
X105145Y352075D01*
X105170Y352201D01*
X105200Y352325D01*
X105233Y352449D01*
X105270Y352572D01*
X105311Y352694D01*
X105355Y352814D01*
X105403Y352933D01*
X105455Y353050D01*
X105510Y353166D01*
X105569Y353279D01*
X105632Y353392D01*
X105698Y353502D01*
X105767Y353609D01*
X105839Y353715D01*
X105915Y353819D01*
X105994Y353920D01*
X106076Y354019D01*
X106161Y354115D01*
X106248Y354208D01*
X106339Y354299D01*
X106432Y354386D01*
X106528Y354471D01*
X106627Y354553D01*
X106728Y354632D01*
X106832Y354708D01*
X106938Y354780D01*
X107045Y354849D01*
X107156Y354915D01*
X107268Y354978D01*
X107381Y355037D01*
X107497Y355092D01*
X107614Y355144D01*
X107733Y355192D01*
X107853Y355236D01*
X107975Y355277D01*
X108098Y355314D01*
X108222Y355347D01*
X108346Y355377D01*
X108472Y355402D01*
X108598Y355424D01*
X108725Y355441D01*
X108853Y355455D01*
X108981Y355465D01*
X109109Y355471D01*
X109237Y355473D01*
X109365Y355471D01*
X109493Y355465D01*
X109621Y355455D01*
X109749Y355441D01*
X109876Y355424D01*
X110002Y355402D01*
X110128Y355377D01*
X110252Y355347D01*
X110376Y355314D01*
X110499Y355277D01*
X110621Y355236D01*
X110741Y355192D01*
X110860Y355144D01*
X110977Y355092D01*
X111093Y355037D01*
X111206Y354978D01*
X111319Y354915D01*
X111429Y354849D01*
X111536Y354780D01*
X111642Y354708D01*
X111746Y354632D01*
X111847Y354553D01*
X111946Y354471D01*
X112042Y354386D01*
X112135Y354299D01*
X112226Y354208D01*
X112313Y354115D01*
X112398Y354019D01*
X112480Y353920D01*
X112559Y353819D01*
X112635Y353715D01*
X112707Y353609D01*
X112776Y353502D01*
X112842Y353392D01*
X112905Y353279D01*
X112964Y353166D01*
X113019Y353050D01*
X113071Y352933D01*
X113119Y352814D01*
X113163Y352694D01*
X113204Y352572D01*
X113241Y352449D01*
X113274Y352325D01*
X113304Y352201D01*
X113329Y352075D01*
X113351Y351949D01*
X113368Y351822D01*
X113382Y351694D01*
X113392Y351566D01*
X113398Y351438D01*
X113400Y351310D01*
X113400Y344650D01*
X113398Y344522D01*
X113392Y344394D01*
X113382Y344266D01*
X113368Y344138D01*
X113351Y344011D01*
X113329Y343885D01*
X113304Y343759D01*
X113274Y343635D01*
X113241Y343511D01*
X113204Y343388D01*
X113163Y343266D01*
X113119Y343146D01*
X113071Y343027D01*
X113019Y342910D01*
X112964Y342794D01*
X112905Y342681D01*
X112842Y342569D01*
X112776Y342458D01*
X112707Y342351D01*
X112635Y342245D01*
X112559Y342141D01*
X112480Y342040D01*
X112398Y341941D01*
X112313Y341845D01*
X112226Y341752D01*
X112135Y341661D01*
X112042Y341574D01*
X111946Y341489D01*
X111847Y341407D01*
X111746Y341328D01*
X111642Y341252D01*
X111536Y341180D01*
X111429Y341111D01*
X111318Y341045D01*
X111206Y340982D01*
X111093Y340923D01*
X110977Y340868D01*
X110860Y340816D01*
X110741Y340768D01*
X110621Y340724D01*
X110499Y340683D01*
X110376Y340646D01*
X110252Y340613D01*
X110128Y340583D01*
X110002Y340558D01*
X109876Y340536D01*
X109749Y340519D01*
X109621Y340505D01*
X109493Y340495D01*
X109365Y340489D01*
X109237Y340487D01*
X109109Y340489D01*
X108981Y340495D01*
X108853Y340505D01*
X108725Y340519D01*
X108598Y340536D01*
X108472Y340558D01*
X108346Y340583D01*
X108222Y340613D01*
X108098Y340646D01*
X107975Y340683D01*
X107853Y340724D01*
X107733Y340768D01*
X107614Y340816D01*
X107497Y340868D01*
X107381Y340923D01*
X107268Y340982D01*
X107155Y341045D01*
X107045Y341111D01*
X106938Y341180D01*
X106832Y341252D01*
X106728Y341328D01*
X106627Y341407D01*
X106528Y341489D01*
X106432Y341574D01*
X106339Y341661D01*
X106248Y341752D01*
X106161Y341845D01*
X106076Y341941D01*
X105994Y342040D01*
X105915Y342141D01*
X105839Y342245D01*
X105767Y342351D01*
X105698Y342458D01*
X105632Y342569D01*
X105569Y342681D01*
X105510Y342794D01*
X105455Y342910D01*
X105403Y343027D01*
X105355Y343146D01*
X105311Y343266D01*
X105270Y343388D01*
X105233Y343511D01*
X105200Y343635D01*
X105170Y343759D01*
X105145Y343885D01*
X105123Y344011D01*
X105106Y344138D01*
X105092Y344266D01*
X105082Y344394D01*
X105076Y344522D01*
X105074Y344650D01*
X119873Y355473D02*
X124869Y340487D01*
X129864Y355473D01*
X136903Y340487D02*
X143564Y340487D01*
X136903Y340487D02*
X136903Y355473D01*
X143564Y355473D01*
X141898Y348813D02*
X136903Y348813D01*
D13*
X152400Y342900D02*
X177800Y342900D01*
X50800Y342900D02*
X25400Y342900D01*
X144800Y306700D02*
X144800Y288700D01*
X58400Y288700D02*
X58400Y306700D01*
D14*
X117602Y242570D03*
D13*
X88900Y236704D02*
X88900Y228116D01*
X114300Y228116D02*
X114300Y236704D01*
X104284Y225322D02*
X98916Y225322D01*
X48895Y314008D02*
X48895Y323533D01*
D15*
X144350Y228600D02*
X144352Y228798D01*
X144360Y228995D01*
X144372Y229192D01*
X144389Y229389D01*
X144411Y229585D01*
X144437Y229781D01*
X144469Y229976D01*
X144505Y230170D01*
X144546Y230364D01*
X144591Y230556D01*
X144642Y230747D01*
X144697Y230937D01*
X144756Y231125D01*
X144821Y231312D01*
X144889Y231497D01*
X144963Y231681D01*
X145041Y231862D01*
X145123Y232042D01*
X145210Y232219D01*
X145301Y232395D01*
X145396Y232568D01*
X145495Y232739D01*
X145599Y232907D01*
X145707Y233072D01*
X145818Y233235D01*
X145934Y233395D01*
X146054Y233553D01*
X146177Y233707D01*
X146304Y233858D01*
X146435Y234006D01*
X146570Y234151D01*
X146708Y234292D01*
X146849Y234430D01*
X146994Y234565D01*
X147142Y234696D01*
X147293Y234823D01*
X147447Y234946D01*
X147605Y235066D01*
X147765Y235182D01*
X147928Y235293D01*
X148093Y235401D01*
X148261Y235505D01*
X148432Y235604D01*
X148605Y235699D01*
X148781Y235790D01*
X148958Y235877D01*
X149138Y235959D01*
X149319Y236037D01*
X149503Y236111D01*
X149688Y236179D01*
X149875Y236244D01*
X150063Y236303D01*
X150253Y236358D01*
X150444Y236409D01*
X150636Y236454D01*
X150830Y236495D01*
X151024Y236531D01*
X151219Y236563D01*
X151415Y236589D01*
X151611Y236611D01*
X151808Y236628D01*
X152005Y236640D01*
X152202Y236648D01*
X152400Y236650D01*
X152598Y236648D01*
X152795Y236640D01*
X152992Y236628D01*
X153189Y236611D01*
X153385Y236589D01*
X153581Y236563D01*
X153776Y236531D01*
X153970Y236495D01*
X154164Y236454D01*
X154356Y236409D01*
X154547Y236358D01*
X154737Y236303D01*
X154925Y236244D01*
X155112Y236179D01*
X155297Y236111D01*
X155481Y236037D01*
X155662Y235959D01*
X155842Y235877D01*
X156019Y235790D01*
X156195Y235699D01*
X156368Y235604D01*
X156539Y235505D01*
X156707Y235401D01*
X156872Y235293D01*
X157035Y235182D01*
X157195Y235066D01*
X157353Y234946D01*
X157507Y234823D01*
X157658Y234696D01*
X157806Y234565D01*
X157951Y234430D01*
X158092Y234292D01*
X158230Y234151D01*
X158365Y234006D01*
X158496Y233858D01*
X158623Y233707D01*
X158746Y233553D01*
X158866Y233395D01*
X158982Y233235D01*
X159093Y233072D01*
X159201Y232907D01*
X159305Y232739D01*
X159404Y232568D01*
X159499Y232395D01*
X159590Y232219D01*
X159677Y232042D01*
X159759Y231862D01*
X159837Y231681D01*
X159911Y231497D01*
X159979Y231312D01*
X160044Y231125D01*
X160103Y230937D01*
X160158Y230747D01*
X160209Y230556D01*
X160254Y230364D01*
X160295Y230170D01*
X160331Y229976D01*
X160363Y229781D01*
X160389Y229585D01*
X160411Y229389D01*
X160428Y229192D01*
X160440Y228995D01*
X160448Y228798D01*
X160450Y228600D01*
X160448Y228402D01*
X160440Y228205D01*
X160428Y228008D01*
X160411Y227811D01*
X160389Y227615D01*
X160363Y227419D01*
X160331Y227224D01*
X160295Y227030D01*
X160254Y226836D01*
X160209Y226644D01*
X160158Y226453D01*
X160103Y226263D01*
X160044Y226075D01*
X159979Y225888D01*
X159911Y225703D01*
X159837Y225519D01*
X159759Y225338D01*
X159677Y225158D01*
X159590Y224981D01*
X159499Y224805D01*
X159404Y224632D01*
X159305Y224461D01*
X159201Y224293D01*
X159093Y224128D01*
X158982Y223965D01*
X158866Y223805D01*
X158746Y223647D01*
X158623Y223493D01*
X158496Y223342D01*
X158365Y223194D01*
X158230Y223049D01*
X158092Y222908D01*
X157951Y222770D01*
X157806Y222635D01*
X157658Y222504D01*
X157507Y222377D01*
X157353Y222254D01*
X157195Y222134D01*
X157035Y222018D01*
X156872Y221907D01*
X156707Y221799D01*
X156539Y221695D01*
X156368Y221596D01*
X156195Y221501D01*
X156019Y221410D01*
X155842Y221323D01*
X155662Y221241D01*
X155481Y221163D01*
X155297Y221089D01*
X155112Y221021D01*
X154925Y220956D01*
X154737Y220897D01*
X154547Y220842D01*
X154356Y220791D01*
X154164Y220746D01*
X153970Y220705D01*
X153776Y220669D01*
X153581Y220637D01*
X153385Y220611D01*
X153189Y220589D01*
X152992Y220572D01*
X152795Y220560D01*
X152598Y220552D01*
X152400Y220550D01*
X152202Y220552D01*
X152005Y220560D01*
X151808Y220572D01*
X151611Y220589D01*
X151415Y220611D01*
X151219Y220637D01*
X151024Y220669D01*
X150830Y220705D01*
X150636Y220746D01*
X150444Y220791D01*
X150253Y220842D01*
X150063Y220897D01*
X149875Y220956D01*
X149688Y221021D01*
X149503Y221089D01*
X149319Y221163D01*
X149138Y221241D01*
X148958Y221323D01*
X148781Y221410D01*
X148605Y221501D01*
X148432Y221596D01*
X148261Y221695D01*
X148093Y221799D01*
X147928Y221907D01*
X147765Y222018D01*
X147605Y222134D01*
X147447Y222254D01*
X147293Y222377D01*
X147142Y222504D01*
X146994Y222635D01*
X146849Y222770D01*
X146708Y222908D01*
X146570Y223049D01*
X146435Y223194D01*
X146304Y223342D01*
X146177Y223493D01*
X146054Y223647D01*
X145934Y223805D01*
X145818Y223965D01*
X145707Y224128D01*
X145599Y224293D01*
X145495Y224461D01*
X145396Y224632D01*
X145301Y224805D01*
X145210Y224981D01*
X145123Y225158D01*
X145041Y225338D01*
X144963Y225519D01*
X144889Y225703D01*
X144821Y225888D01*
X144756Y226075D01*
X144697Y226263D01*
X144642Y226453D01*
X144591Y226644D01*
X144546Y226836D01*
X144505Y227030D01*
X144469Y227224D01*
X144437Y227419D01*
X144411Y227615D01*
X144389Y227811D01*
X144372Y228008D01*
X144360Y228205D01*
X144352Y228402D01*
X144350Y228600D01*
D13*
X166400Y241980D02*
X166400Y215220D01*
X138400Y215220D02*
X138400Y241980D01*
X151100Y207600D02*
X153700Y207600D01*
X153700Y249600D02*
X151100Y249600D01*
D15*
X42750Y228600D02*
X42752Y228798D01*
X42760Y228995D01*
X42772Y229192D01*
X42789Y229389D01*
X42811Y229585D01*
X42837Y229781D01*
X42869Y229976D01*
X42905Y230170D01*
X42946Y230364D01*
X42991Y230556D01*
X43042Y230747D01*
X43097Y230937D01*
X43156Y231125D01*
X43221Y231312D01*
X43289Y231497D01*
X43363Y231681D01*
X43441Y231862D01*
X43523Y232042D01*
X43610Y232219D01*
X43701Y232395D01*
X43796Y232568D01*
X43895Y232739D01*
X43999Y232907D01*
X44107Y233072D01*
X44218Y233235D01*
X44334Y233395D01*
X44454Y233553D01*
X44577Y233707D01*
X44704Y233858D01*
X44835Y234006D01*
X44970Y234151D01*
X45108Y234292D01*
X45249Y234430D01*
X45394Y234565D01*
X45542Y234696D01*
X45693Y234823D01*
X45847Y234946D01*
X46005Y235066D01*
X46165Y235182D01*
X46328Y235293D01*
X46493Y235401D01*
X46661Y235505D01*
X46832Y235604D01*
X47005Y235699D01*
X47181Y235790D01*
X47358Y235877D01*
X47538Y235959D01*
X47719Y236037D01*
X47903Y236111D01*
X48088Y236179D01*
X48275Y236244D01*
X48463Y236303D01*
X48653Y236358D01*
X48844Y236409D01*
X49036Y236454D01*
X49230Y236495D01*
X49424Y236531D01*
X49619Y236563D01*
X49815Y236589D01*
X50011Y236611D01*
X50208Y236628D01*
X50405Y236640D01*
X50602Y236648D01*
X50800Y236650D01*
X50998Y236648D01*
X51195Y236640D01*
X51392Y236628D01*
X51589Y236611D01*
X51785Y236589D01*
X51981Y236563D01*
X52176Y236531D01*
X52370Y236495D01*
X52564Y236454D01*
X52756Y236409D01*
X52947Y236358D01*
X53137Y236303D01*
X53325Y236244D01*
X53512Y236179D01*
X53697Y236111D01*
X53881Y236037D01*
X54062Y235959D01*
X54242Y235877D01*
X54419Y235790D01*
X54595Y235699D01*
X54768Y235604D01*
X54939Y235505D01*
X55107Y235401D01*
X55272Y235293D01*
X55435Y235182D01*
X55595Y235066D01*
X55753Y234946D01*
X55907Y234823D01*
X56058Y234696D01*
X56206Y234565D01*
X56351Y234430D01*
X56492Y234292D01*
X56630Y234151D01*
X56765Y234006D01*
X56896Y233858D01*
X57023Y233707D01*
X57146Y233553D01*
X57266Y233395D01*
X57382Y233235D01*
X57493Y233072D01*
X57601Y232907D01*
X57705Y232739D01*
X57804Y232568D01*
X57899Y232395D01*
X57990Y232219D01*
X58077Y232042D01*
X58159Y231862D01*
X58237Y231681D01*
X58311Y231497D01*
X58379Y231312D01*
X58444Y231125D01*
X58503Y230937D01*
X58558Y230747D01*
X58609Y230556D01*
X58654Y230364D01*
X58695Y230170D01*
X58731Y229976D01*
X58763Y229781D01*
X58789Y229585D01*
X58811Y229389D01*
X58828Y229192D01*
X58840Y228995D01*
X58848Y228798D01*
X58850Y228600D01*
X58848Y228402D01*
X58840Y228205D01*
X58828Y228008D01*
X58811Y227811D01*
X58789Y227615D01*
X58763Y227419D01*
X58731Y227224D01*
X58695Y227030D01*
X58654Y226836D01*
X58609Y226644D01*
X58558Y226453D01*
X58503Y226263D01*
X58444Y226075D01*
X58379Y225888D01*
X58311Y225703D01*
X58237Y225519D01*
X58159Y225338D01*
X58077Y225158D01*
X57990Y224981D01*
X57899Y224805D01*
X57804Y224632D01*
X57705Y224461D01*
X57601Y224293D01*
X57493Y224128D01*
X57382Y223965D01*
X57266Y223805D01*
X57146Y223647D01*
X57023Y223493D01*
X56896Y223342D01*
X56765Y223194D01*
X56630Y223049D01*
X56492Y222908D01*
X56351Y222770D01*
X56206Y222635D01*
X56058Y222504D01*
X55907Y222377D01*
X55753Y222254D01*
X55595Y222134D01*
X55435Y222018D01*
X55272Y221907D01*
X55107Y221799D01*
X54939Y221695D01*
X54768Y221596D01*
X54595Y221501D01*
X54419Y221410D01*
X54242Y221323D01*
X54062Y221241D01*
X53881Y221163D01*
X53697Y221089D01*
X53512Y221021D01*
X53325Y220956D01*
X53137Y220897D01*
X52947Y220842D01*
X52756Y220791D01*
X52564Y220746D01*
X52370Y220705D01*
X52176Y220669D01*
X51981Y220637D01*
X51785Y220611D01*
X51589Y220589D01*
X51392Y220572D01*
X51195Y220560D01*
X50998Y220552D01*
X50800Y220550D01*
X50602Y220552D01*
X50405Y220560D01*
X50208Y220572D01*
X50011Y220589D01*
X49815Y220611D01*
X49619Y220637D01*
X49424Y220669D01*
X49230Y220705D01*
X49036Y220746D01*
X48844Y220791D01*
X48653Y220842D01*
X48463Y220897D01*
X48275Y220956D01*
X48088Y221021D01*
X47903Y221089D01*
X47719Y221163D01*
X47538Y221241D01*
X47358Y221323D01*
X47181Y221410D01*
X47005Y221501D01*
X46832Y221596D01*
X46661Y221695D01*
X46493Y221799D01*
X46328Y221907D01*
X46165Y222018D01*
X46005Y222134D01*
X45847Y222254D01*
X45693Y222377D01*
X45542Y222504D01*
X45394Y222635D01*
X45249Y222770D01*
X45108Y222908D01*
X44970Y223049D01*
X44835Y223194D01*
X44704Y223342D01*
X44577Y223493D01*
X44454Y223647D01*
X44334Y223805D01*
X44218Y223965D01*
X44107Y224128D01*
X43999Y224293D01*
X43895Y224461D01*
X43796Y224632D01*
X43701Y224805D01*
X43610Y224981D01*
X43523Y225158D01*
X43441Y225338D01*
X43363Y225519D01*
X43289Y225703D01*
X43221Y225888D01*
X43156Y226075D01*
X43097Y226263D01*
X43042Y226453D01*
X42991Y226644D01*
X42946Y226836D01*
X42905Y227030D01*
X42869Y227224D01*
X42837Y227419D01*
X42811Y227615D01*
X42789Y227811D01*
X42772Y228008D01*
X42760Y228205D01*
X42752Y228402D01*
X42750Y228600D01*
D13*
X36800Y215220D02*
X36800Y241980D01*
X64800Y241980D02*
X64800Y215220D01*
X52100Y249600D02*
X49500Y249600D01*
X49500Y207600D02*
X52100Y207600D01*
X157995Y312738D02*
X157995Y322263D01*
D16*
X120650Y171450D02*
X82550Y171450D01*
X133350Y196850D02*
X133350Y204470D01*
X125730Y204470D01*
X69850Y204470D02*
X69850Y196850D01*
X69850Y204470D02*
X77470Y204470D01*
D17*
X161600Y169252D02*
X169600Y169252D01*
X169600Y161252D01*
X41600Y169252D02*
X33600Y169252D01*
X33600Y161252D01*
X169600Y67252D02*
X169600Y57252D01*
X33600Y57252D02*
X33600Y67252D01*
M02*
