G04 EAGLE Gerber RS-274X export*
G75*
%MOMM*%
%FSLAX34Y34*%
%LPD*%
%INInner Layer 15*%
%IPPOS*%
%AMOC8*
5,1,8,0,0,1.08239X$1,22.5*%
G01*
%ADD10C,0.152400*%
%ADD11C,0.552400*%
%ADD12C,1.020000*%
%ADD13C,2.040000*%
%ADD14C,0.558800*%
%ADD15C,0.203200*%

G36*
X186554Y54626D02*
X186554Y54626D01*
X186673Y54633D01*
X186711Y54646D01*
X186752Y54651D01*
X186862Y54694D01*
X186975Y54731D01*
X187010Y54753D01*
X187047Y54768D01*
X187143Y54838D01*
X187244Y54901D01*
X187272Y54931D01*
X187305Y54954D01*
X187381Y55046D01*
X187462Y55133D01*
X187482Y55168D01*
X187507Y55199D01*
X187558Y55307D01*
X187616Y55411D01*
X187626Y55451D01*
X187643Y55487D01*
X187665Y55604D01*
X187695Y55719D01*
X187699Y55780D01*
X187703Y55800D01*
X187701Y55820D01*
X187705Y55880D01*
X187705Y78036D01*
X187702Y78066D01*
X187704Y78095D01*
X187682Y78223D01*
X187665Y78352D01*
X187655Y78379D01*
X187649Y78408D01*
X187596Y78527D01*
X187548Y78648D01*
X187531Y78671D01*
X187519Y78698D01*
X187438Y78800D01*
X187362Y78905D01*
X187339Y78924D01*
X187320Y78947D01*
X187217Y79025D01*
X187117Y79108D01*
X187090Y79120D01*
X187066Y79138D01*
X187014Y79163D01*
X183776Y82402D01*
X183488Y83097D01*
X183463Y83140D01*
X183447Y83187D01*
X183385Y83277D01*
X183330Y83373D01*
X183296Y83409D01*
X183268Y83450D01*
X183186Y83522D01*
X183109Y83601D01*
X183067Y83627D01*
X183030Y83660D01*
X182932Y83710D01*
X182838Y83767D01*
X182790Y83782D01*
X182746Y83805D01*
X182639Y83829D01*
X182534Y83861D01*
X182484Y83863D01*
X182436Y83874D01*
X182326Y83871D01*
X182217Y83876D01*
X182168Y83866D01*
X182118Y83865D01*
X182013Y83834D01*
X181905Y83812D01*
X181860Y83790D01*
X181813Y83776D01*
X181718Y83720D01*
X181619Y83672D01*
X181582Y83640D01*
X181539Y83615D01*
X181418Y83508D01*
X181409Y83499D01*
X179495Y82707D01*
X179435Y82672D01*
X179370Y82646D01*
X179297Y82594D01*
X179219Y82549D01*
X179169Y82500D01*
X179113Y82460D01*
X179055Y82390D01*
X178991Y82328D01*
X178954Y82268D01*
X178910Y82215D01*
X178871Y82133D01*
X178833Y82070D01*
X178821Y82082D01*
X178809Y82099D01*
X178705Y82191D01*
X178604Y82286D01*
X178586Y82296D01*
X178571Y82309D01*
X178447Y82373D01*
X178325Y82440D01*
X178306Y82445D01*
X178288Y82454D01*
X178152Y82484D01*
X178017Y82519D01*
X177989Y82521D01*
X177977Y82524D01*
X177957Y82523D01*
X177857Y82529D01*
X176533Y82529D01*
X174191Y83499D01*
X172399Y85291D01*
X171429Y87633D01*
X171429Y90167D01*
X172399Y92509D01*
X174191Y94301D01*
X176533Y95271D01*
X179067Y95271D01*
X181409Y94301D01*
X181418Y94292D01*
X181457Y94261D01*
X181491Y94224D01*
X181582Y94164D01*
X181669Y94097D01*
X181715Y94077D01*
X181756Y94050D01*
X181860Y94014D01*
X181961Y93970D01*
X182010Y93963D01*
X182057Y93946D01*
X182167Y93938D01*
X182275Y93921D01*
X182325Y93925D01*
X182374Y93921D01*
X182482Y93940D01*
X182592Y93950D01*
X182638Y93967D01*
X182687Y93976D01*
X182788Y94021D01*
X182891Y94058D01*
X182932Y94086D01*
X182977Y94106D01*
X183063Y94175D01*
X183154Y94236D01*
X183187Y94274D01*
X183226Y94305D01*
X183292Y94392D01*
X183365Y94475D01*
X183387Y94519D01*
X183417Y94559D01*
X183488Y94703D01*
X183776Y95398D01*
X187022Y98645D01*
X187085Y98684D01*
X187198Y98749D01*
X187219Y98769D01*
X187244Y98785D01*
X187333Y98880D01*
X187426Y98970D01*
X187442Y98995D01*
X187462Y99017D01*
X187525Y99130D01*
X187593Y99241D01*
X187601Y99269D01*
X187616Y99295D01*
X187648Y99420D01*
X187686Y99545D01*
X187688Y99574D01*
X187695Y99603D01*
X187705Y99764D01*
X187705Y103436D01*
X187702Y103466D01*
X187704Y103495D01*
X187682Y103623D01*
X187665Y103752D01*
X187655Y103779D01*
X187649Y103808D01*
X187596Y103927D01*
X187548Y104048D01*
X187531Y104071D01*
X187519Y104098D01*
X187438Y104200D01*
X187362Y104305D01*
X187339Y104324D01*
X187320Y104347D01*
X187217Y104425D01*
X187117Y104508D01*
X187090Y104520D01*
X187066Y104538D01*
X187014Y104563D01*
X183776Y107802D01*
X183488Y108497D01*
X183463Y108540D01*
X183447Y108587D01*
X183385Y108677D01*
X183330Y108773D01*
X183296Y108809D01*
X183268Y108850D01*
X183186Y108922D01*
X183109Y109001D01*
X183067Y109027D01*
X183030Y109060D01*
X182932Y109110D01*
X182838Y109167D01*
X182790Y109182D01*
X182746Y109205D01*
X182639Y109229D01*
X182534Y109261D01*
X182484Y109263D01*
X182436Y109274D01*
X182326Y109271D01*
X182217Y109276D01*
X182168Y109266D01*
X182118Y109265D01*
X182013Y109234D01*
X181905Y109212D01*
X181860Y109190D01*
X181813Y109176D01*
X181718Y109120D01*
X181619Y109072D01*
X181582Y109040D01*
X181539Y109015D01*
X181418Y108908D01*
X181409Y108899D01*
X179067Y107929D01*
X176533Y107929D01*
X174191Y108899D01*
X172399Y110691D01*
X171429Y113033D01*
X171429Y115567D01*
X172399Y117909D01*
X174191Y119701D01*
X176533Y120671D01*
X179067Y120671D01*
X181409Y119701D01*
X181418Y119692D01*
X181457Y119661D01*
X181491Y119624D01*
X181537Y119594D01*
X181546Y119586D01*
X181569Y119573D01*
X181582Y119564D01*
X181669Y119497D01*
X181715Y119477D01*
X181756Y119450D01*
X181860Y119414D01*
X181961Y119370D01*
X182010Y119363D01*
X182057Y119346D01*
X182167Y119338D01*
X182275Y119321D01*
X182325Y119325D01*
X182374Y119321D01*
X182482Y119340D01*
X182592Y119350D01*
X182638Y119367D01*
X182687Y119376D01*
X182788Y119421D01*
X182891Y119458D01*
X182932Y119486D01*
X182977Y119506D01*
X183063Y119575D01*
X183154Y119636D01*
X183187Y119674D01*
X183226Y119705D01*
X183292Y119792D01*
X183365Y119875D01*
X183387Y119919D01*
X183417Y119959D01*
X183488Y120103D01*
X183776Y120798D01*
X187022Y124045D01*
X187085Y124084D01*
X187198Y124149D01*
X187219Y124169D01*
X187244Y124185D01*
X187333Y124280D01*
X187426Y124370D01*
X187442Y124395D01*
X187462Y124417D01*
X187525Y124530D01*
X187593Y124641D01*
X187601Y124669D01*
X187616Y124695D01*
X187648Y124820D01*
X187686Y124945D01*
X187688Y124974D01*
X187695Y125003D01*
X187705Y125164D01*
X187705Y128836D01*
X187702Y128866D01*
X187704Y128895D01*
X187682Y129023D01*
X187665Y129152D01*
X187655Y129179D01*
X187649Y129208D01*
X187596Y129327D01*
X187548Y129448D01*
X187531Y129471D01*
X187519Y129498D01*
X187438Y129600D01*
X187362Y129705D01*
X187339Y129724D01*
X187320Y129747D01*
X187217Y129825D01*
X187117Y129908D01*
X187090Y129920D01*
X187066Y129938D01*
X187014Y129963D01*
X183776Y133202D01*
X183488Y133897D01*
X183463Y133940D01*
X183447Y133987D01*
X183385Y134077D01*
X183330Y134173D01*
X183296Y134209D01*
X183268Y134250D01*
X183186Y134322D01*
X183109Y134401D01*
X183067Y134427D01*
X183030Y134460D01*
X182932Y134510D01*
X182838Y134567D01*
X182790Y134582D01*
X182746Y134605D01*
X182639Y134629D01*
X182534Y134661D01*
X182484Y134663D01*
X182436Y134674D01*
X182326Y134671D01*
X182217Y134676D01*
X182168Y134666D01*
X182118Y134665D01*
X182013Y134634D01*
X181905Y134612D01*
X181860Y134590D01*
X181813Y134576D01*
X181718Y134520D01*
X181619Y134472D01*
X181582Y134440D01*
X181539Y134415D01*
X181418Y134308D01*
X181409Y134299D01*
X179067Y133329D01*
X176533Y133329D01*
X174191Y134299D01*
X172399Y136091D01*
X171429Y138433D01*
X171429Y140967D01*
X172399Y143309D01*
X174191Y145101D01*
X176533Y146071D01*
X179067Y146071D01*
X181409Y145101D01*
X181418Y145092D01*
X181457Y145061D01*
X181491Y145024D01*
X181534Y144996D01*
X181561Y144971D01*
X181606Y144946D01*
X181669Y144897D01*
X181715Y144877D01*
X181756Y144850D01*
X181820Y144828D01*
X181839Y144817D01*
X181873Y144808D01*
X181961Y144770D01*
X182010Y144763D01*
X182057Y144746D01*
X182138Y144740D01*
X182147Y144738D01*
X182180Y144736D01*
X182275Y144721D01*
X182325Y144725D01*
X182374Y144721D01*
X182482Y144740D01*
X182592Y144750D01*
X182638Y144767D01*
X182687Y144776D01*
X182788Y144821D01*
X182891Y144858D01*
X182932Y144886D01*
X182977Y144906D01*
X183063Y144975D01*
X183154Y145036D01*
X183181Y145066D01*
X183187Y145071D01*
X183194Y145079D01*
X183226Y145105D01*
X183292Y145192D01*
X183365Y145275D01*
X183379Y145303D01*
X183390Y145316D01*
X183398Y145334D01*
X183417Y145359D01*
X183488Y145503D01*
X183776Y146198D01*
X187022Y149445D01*
X187085Y149484D01*
X187198Y149549D01*
X187219Y149569D01*
X187244Y149585D01*
X187333Y149680D01*
X187426Y149770D01*
X187442Y149795D01*
X187462Y149817D01*
X187525Y149930D01*
X187593Y150041D01*
X187601Y150069D01*
X187616Y150095D01*
X187648Y150220D01*
X187686Y150345D01*
X187688Y150374D01*
X187695Y150403D01*
X187705Y150564D01*
X187705Y154236D01*
X187702Y154266D01*
X187704Y154295D01*
X187682Y154423D01*
X187665Y154552D01*
X187655Y154579D01*
X187649Y154608D01*
X187596Y154727D01*
X187548Y154848D01*
X187531Y154871D01*
X187519Y154898D01*
X187438Y155000D01*
X187362Y155105D01*
X187339Y155124D01*
X187320Y155147D01*
X187217Y155225D01*
X187117Y155308D01*
X187090Y155320D01*
X187066Y155338D01*
X187014Y155363D01*
X183776Y158602D01*
X183488Y159297D01*
X183463Y159340D01*
X183447Y159387D01*
X183385Y159477D01*
X183330Y159573D01*
X183296Y159609D01*
X183268Y159650D01*
X183186Y159722D01*
X183109Y159801D01*
X183067Y159827D01*
X183030Y159860D01*
X182932Y159910D01*
X182838Y159967D01*
X182790Y159982D01*
X182746Y160005D01*
X182639Y160029D01*
X182534Y160061D01*
X182484Y160063D01*
X182436Y160074D01*
X182326Y160071D01*
X182217Y160076D01*
X182168Y160066D01*
X182118Y160065D01*
X182013Y160034D01*
X181905Y160012D01*
X181860Y159990D01*
X181813Y159976D01*
X181718Y159920D01*
X181619Y159872D01*
X181582Y159840D01*
X181539Y159815D01*
X181418Y159708D01*
X181409Y159699D01*
X179067Y158729D01*
X176533Y158729D01*
X174191Y159699D01*
X172399Y161491D01*
X171429Y163833D01*
X171429Y166367D01*
X172399Y168709D01*
X174191Y170501D01*
X176105Y171293D01*
X176165Y171328D01*
X176230Y171354D01*
X176303Y171406D01*
X176381Y171451D01*
X176431Y171499D01*
X176488Y171540D01*
X176545Y171610D01*
X176609Y171672D01*
X176646Y171732D01*
X176690Y171785D01*
X176729Y171867D01*
X176776Y171943D01*
X176796Y172010D01*
X176826Y172073D01*
X176843Y172161D01*
X176869Y172247D01*
X176873Y172317D01*
X176886Y172386D01*
X176880Y172475D01*
X176884Y172565D01*
X176870Y172633D01*
X176866Y172703D01*
X176838Y172788D01*
X176820Y172876D01*
X176789Y172939D01*
X176768Y173005D01*
X176720Y173081D01*
X176680Y173162D01*
X176635Y173215D01*
X176598Y173274D01*
X176532Y173336D01*
X176474Y173404D01*
X176417Y173444D01*
X176366Y173492D01*
X176287Y173535D01*
X176214Y173587D01*
X176149Y173612D01*
X176088Y173646D01*
X176001Y173668D01*
X175917Y173700D01*
X175847Y173708D01*
X175780Y173725D01*
X175619Y173735D01*
X174084Y173735D01*
X171703Y176116D01*
X171703Y178385D01*
X171686Y178521D01*
X171673Y178661D01*
X171666Y178680D01*
X171663Y178700D01*
X171612Y178829D01*
X171565Y178960D01*
X171554Y178977D01*
X171546Y178996D01*
X171465Y179108D01*
X171387Y179223D01*
X171371Y179237D01*
X171360Y179253D01*
X171252Y179342D01*
X171148Y179434D01*
X171130Y179443D01*
X171115Y179456D01*
X170989Y179515D01*
X170865Y179578D01*
X170845Y179583D01*
X170827Y179592D01*
X170691Y179618D01*
X170555Y179648D01*
X170534Y179648D01*
X170515Y179651D01*
X170376Y179643D01*
X170237Y179638D01*
X170217Y179633D01*
X170197Y179632D01*
X170065Y179589D01*
X169931Y179550D01*
X169914Y179540D01*
X169895Y179534D01*
X169777Y179459D01*
X169657Y179389D01*
X169636Y179370D01*
X169626Y179363D01*
X169612Y179348D01*
X169537Y179282D01*
X167038Y176783D01*
X163670Y176783D01*
X162264Y178190D01*
X162186Y178250D01*
X162114Y178318D01*
X162061Y178347D01*
X162013Y178384D01*
X161922Y178424D01*
X161835Y178472D01*
X161777Y178487D01*
X161721Y178511D01*
X161623Y178526D01*
X161527Y178551D01*
X161427Y178557D01*
X161407Y178561D01*
X161395Y178559D01*
X161367Y178561D01*
X156413Y178561D01*
X156315Y178549D01*
X156216Y178546D01*
X156157Y178529D01*
X156097Y178521D01*
X156005Y178485D01*
X155910Y178457D01*
X155858Y178427D01*
X155802Y178404D01*
X155722Y178346D01*
X155636Y178296D01*
X155561Y178230D01*
X155544Y178218D01*
X155537Y178208D01*
X155515Y178190D01*
X154804Y177479D01*
X154744Y177400D01*
X154676Y177328D01*
X154647Y177275D01*
X154610Y177227D01*
X154570Y177136D01*
X154522Y177050D01*
X154507Y176991D01*
X154483Y176935D01*
X154468Y176837D01*
X154443Y176742D01*
X154437Y176642D01*
X154433Y176621D01*
X154435Y176609D01*
X154433Y176581D01*
X154433Y107619D01*
X154445Y107521D01*
X154448Y107422D01*
X154465Y107364D01*
X154473Y107304D01*
X154509Y107212D01*
X154537Y107117D01*
X154567Y107065D01*
X154590Y107008D01*
X154648Y106928D01*
X154698Y106843D01*
X154764Y106767D01*
X154776Y106751D01*
X154786Y106743D01*
X154804Y106722D01*
X156211Y105316D01*
X156211Y101948D01*
X153830Y99567D01*
X153085Y99567D01*
X152947Y99550D01*
X152809Y99537D01*
X152790Y99530D01*
X152770Y99527D01*
X152641Y99476D01*
X152510Y99429D01*
X152493Y99418D01*
X152474Y99410D01*
X152362Y99329D01*
X152247Y99251D01*
X152233Y99235D01*
X152217Y99224D01*
X152128Y99116D01*
X152036Y99012D01*
X152027Y98994D01*
X152014Y98979D01*
X151955Y98853D01*
X151892Y98729D01*
X151887Y98709D01*
X151878Y98691D01*
X151852Y98554D01*
X151822Y98419D01*
X151822Y98398D01*
X151819Y98379D01*
X151827Y98240D01*
X151832Y98101D01*
X151837Y98081D01*
X151838Y98061D01*
X151881Y97929D01*
X151920Y97795D01*
X151930Y97778D01*
X151936Y97759D01*
X152011Y97641D01*
X152081Y97521D01*
X152100Y97500D01*
X152107Y97490D01*
X152122Y97476D01*
X152188Y97401D01*
X152655Y96934D01*
X152655Y93566D01*
X150274Y91185D01*
X146906Y91185D01*
X144525Y93566D01*
X144525Y96934D01*
X146906Y99315D01*
X147651Y99315D01*
X147789Y99332D01*
X147927Y99345D01*
X147946Y99352D01*
X147966Y99355D01*
X148095Y99406D01*
X148226Y99453D01*
X148243Y99464D01*
X148262Y99472D01*
X148374Y99553D01*
X148489Y99631D01*
X148503Y99647D01*
X148519Y99658D01*
X148608Y99766D01*
X148700Y99870D01*
X148709Y99888D01*
X148722Y99903D01*
X148781Y100029D01*
X148844Y100153D01*
X148849Y100173D01*
X148858Y100191D01*
X148884Y100328D01*
X148914Y100463D01*
X148914Y100484D01*
X148917Y100503D01*
X148909Y100642D01*
X148904Y100781D01*
X148899Y100801D01*
X148898Y100821D01*
X148855Y100953D01*
X148816Y101087D01*
X148806Y101104D01*
X148800Y101123D01*
X148725Y101241D01*
X148655Y101361D01*
X148636Y101382D01*
X148629Y101392D01*
X148614Y101406D01*
X148548Y101481D01*
X148081Y101948D01*
X148081Y105316D01*
X149488Y106722D01*
X149548Y106800D01*
X149616Y106872D01*
X149645Y106925D01*
X149682Y106973D01*
X149722Y107064D01*
X149770Y107151D01*
X149785Y107209D01*
X149809Y107265D01*
X149824Y107363D01*
X149849Y107459D01*
X149855Y107559D01*
X149859Y107579D01*
X149857Y107591D01*
X149859Y107619D01*
X149859Y116840D01*
X149844Y116958D01*
X149837Y117077D01*
X149824Y117115D01*
X149819Y117156D01*
X149776Y117266D01*
X149739Y117379D01*
X149717Y117414D01*
X149702Y117451D01*
X149633Y117547D01*
X149569Y117648D01*
X149539Y117676D01*
X149516Y117709D01*
X149424Y117785D01*
X149337Y117866D01*
X149302Y117886D01*
X149271Y117911D01*
X149163Y117962D01*
X149059Y118020D01*
X149019Y118030D01*
X148983Y118047D01*
X148866Y118069D01*
X148751Y118099D01*
X148691Y118103D01*
X148671Y118107D01*
X148650Y118105D01*
X148590Y118109D01*
X145382Y118109D01*
X143001Y120490D01*
X143001Y123858D01*
X144408Y125264D01*
X144468Y125342D01*
X144536Y125414D01*
X144565Y125467D01*
X144602Y125515D01*
X144642Y125606D01*
X144690Y125693D01*
X144705Y125751D01*
X144729Y125807D01*
X144744Y125905D01*
X144769Y126001D01*
X144775Y126101D01*
X144779Y126121D01*
X144777Y126133D01*
X144779Y126161D01*
X144779Y188653D01*
X148789Y192663D01*
X148862Y192757D01*
X148941Y192847D01*
X148959Y192883D01*
X148984Y192915D01*
X149032Y193024D01*
X149086Y193130D01*
X149095Y193169D01*
X149111Y193206D01*
X149129Y193324D01*
X149155Y193440D01*
X149154Y193480D01*
X149160Y193520D01*
X149149Y193639D01*
X149146Y193758D01*
X149134Y193797D01*
X149131Y193837D01*
X149090Y193949D01*
X149057Y194063D01*
X149037Y194098D01*
X149023Y194136D01*
X148956Y194235D01*
X148896Y194337D01*
X148856Y194383D01*
X148844Y194400D01*
X148829Y194413D01*
X148789Y194458D01*
X147065Y196182D01*
X147065Y199550D01*
X149446Y201931D01*
X152814Y201931D01*
X155195Y199550D01*
X155195Y196182D01*
X153966Y194953D01*
X153881Y194844D01*
X153792Y194737D01*
X153783Y194718D01*
X153771Y194702D01*
X153715Y194574D01*
X153656Y194449D01*
X153653Y194429D01*
X153645Y194410D01*
X153623Y194272D01*
X153597Y194136D01*
X153598Y194116D01*
X153595Y194096D01*
X153608Y193957D01*
X153616Y193819D01*
X153623Y193800D01*
X153625Y193780D01*
X153672Y193648D01*
X153714Y193517D01*
X153725Y193499D01*
X153732Y193480D01*
X153810Y193365D01*
X153885Y193248D01*
X153899Y193234D01*
X153911Y193217D01*
X154015Y193125D01*
X154116Y193030D01*
X154134Y193020D01*
X154149Y193007D01*
X154273Y192943D01*
X154395Y192876D01*
X154414Y192871D01*
X154432Y192862D01*
X154568Y192832D01*
X154703Y192797D01*
X154731Y192795D01*
X154743Y192792D01*
X154763Y192793D01*
X154863Y192787D01*
X171003Y192787D01*
X171033Y192790D01*
X171062Y192788D01*
X171190Y192810D01*
X171319Y192827D01*
X171346Y192837D01*
X171376Y192842D01*
X171494Y192896D01*
X171615Y192944D01*
X171639Y192961D01*
X171666Y192973D01*
X171767Y193054D01*
X171872Y193130D01*
X171891Y193153D01*
X171914Y193172D01*
X171992Y193275D01*
X172075Y193375D01*
X172087Y193402D01*
X172105Y193426D01*
X172176Y193570D01*
X172399Y194109D01*
X174191Y195901D01*
X176533Y196871D01*
X179067Y196871D01*
X181409Y195901D01*
X181418Y195892D01*
X181457Y195861D01*
X181491Y195824D01*
X181582Y195764D01*
X181669Y195697D01*
X181715Y195677D01*
X181756Y195650D01*
X181860Y195614D01*
X181961Y195570D01*
X182010Y195563D01*
X182057Y195546D01*
X182167Y195538D01*
X182275Y195521D01*
X182325Y195525D01*
X182374Y195521D01*
X182482Y195540D01*
X182592Y195550D01*
X182638Y195567D01*
X182687Y195576D01*
X182788Y195621D01*
X182891Y195658D01*
X182932Y195686D01*
X182977Y195706D01*
X183063Y195775D01*
X183154Y195836D01*
X183187Y195874D01*
X183226Y195905D01*
X183292Y195992D01*
X183365Y196075D01*
X183387Y196119D01*
X183417Y196159D01*
X183488Y196303D01*
X183776Y196998D01*
X187022Y200245D01*
X187085Y200284D01*
X187198Y200349D01*
X187219Y200369D01*
X187244Y200385D01*
X187333Y200480D01*
X187426Y200570D01*
X187442Y200595D01*
X187462Y200617D01*
X187525Y200730D01*
X187593Y200841D01*
X187601Y200869D01*
X187616Y200895D01*
X187648Y201020D01*
X187686Y201145D01*
X187688Y201174D01*
X187695Y201203D01*
X187705Y201364D01*
X187705Y203776D01*
X187688Y203913D01*
X187675Y204051D01*
X187668Y204071D01*
X187665Y204091D01*
X187614Y204220D01*
X187568Y204351D01*
X187556Y204368D01*
X187548Y204387D01*
X187467Y204499D01*
X187389Y204614D01*
X187374Y204627D01*
X187362Y204644D01*
X187255Y204732D01*
X187151Y204824D01*
X187126Y204839D01*
X187117Y204847D01*
X187098Y204856D01*
X187012Y204906D01*
X186822Y205003D01*
X186265Y205408D01*
X185200Y206182D01*
X183782Y207600D01*
X182970Y208718D01*
X182881Y208812D01*
X182798Y208910D01*
X182773Y208928D01*
X182752Y208950D01*
X182643Y209019D01*
X182538Y209093D01*
X182509Y209104D01*
X182483Y209120D01*
X182361Y209160D01*
X182240Y209206D01*
X182210Y209209D01*
X182181Y209219D01*
X182053Y209227D01*
X181924Y209241D01*
X181894Y209237D01*
X181864Y209239D01*
X181737Y209215D01*
X181609Y209197D01*
X181568Y209182D01*
X181551Y209179D01*
X181531Y209170D01*
X181457Y209145D01*
X180029Y208553D01*
X179924Y208532D01*
X179924Y213776D01*
X186436Y213776D01*
X186554Y213791D01*
X186673Y213798D01*
X186711Y213810D01*
X186752Y213816D01*
X186862Y213859D01*
X186975Y213896D01*
X187010Y213918D01*
X187047Y213933D01*
X187143Y214002D01*
X187244Y214066D01*
X187272Y214096D01*
X187305Y214119D01*
X187381Y214211D01*
X187462Y214298D01*
X187482Y214333D01*
X187507Y214364D01*
X187558Y214472D01*
X187616Y214576D01*
X187626Y214616D01*
X187643Y214652D01*
X187665Y214769D01*
X187695Y214884D01*
X187699Y214944D01*
X187703Y214964D01*
X187701Y214985D01*
X187705Y215045D01*
X187705Y216755D01*
X187690Y216873D01*
X187683Y216992D01*
X187670Y217030D01*
X187665Y217071D01*
X187622Y217181D01*
X187585Y217294D01*
X187563Y217329D01*
X187548Y217366D01*
X187479Y217462D01*
X187415Y217563D01*
X187385Y217591D01*
X187362Y217624D01*
X187270Y217700D01*
X187183Y217781D01*
X187148Y217801D01*
X187117Y217826D01*
X187009Y217877D01*
X186905Y217935D01*
X186865Y217945D01*
X186829Y217962D01*
X186712Y217984D01*
X186597Y218014D01*
X186537Y218018D01*
X186517Y218022D01*
X186496Y218020D01*
X186436Y218024D01*
X179924Y218024D01*
X179924Y223268D01*
X180029Y223247D01*
X181457Y222655D01*
X181581Y222621D01*
X181704Y222582D01*
X181734Y222580D01*
X181764Y222572D01*
X181893Y222569D01*
X182021Y222561D01*
X182051Y222567D01*
X182082Y222566D01*
X182207Y222597D01*
X182334Y222621D01*
X182361Y222633D01*
X182391Y222641D01*
X182505Y222701D01*
X182622Y222756D01*
X182645Y222775D01*
X182672Y222789D01*
X182767Y222876D01*
X182867Y222958D01*
X182895Y222992D01*
X182907Y223003D01*
X182919Y223021D01*
X182970Y223082D01*
X183782Y224200D01*
X185200Y225618D01*
X186822Y226797D01*
X187012Y226894D01*
X187127Y226972D01*
X187244Y227046D01*
X187258Y227061D01*
X187275Y227072D01*
X187367Y227176D01*
X187462Y227277D01*
X187472Y227295D01*
X187486Y227311D01*
X187549Y227435D01*
X187616Y227556D01*
X187621Y227576D01*
X187630Y227594D01*
X187660Y227730D01*
X187695Y227864D01*
X187697Y227892D01*
X187700Y227904D01*
X187699Y227925D01*
X187705Y228024D01*
X187705Y230436D01*
X187702Y230466D01*
X187704Y230495D01*
X187682Y230623D01*
X187665Y230752D01*
X187655Y230779D01*
X187649Y230808D01*
X187596Y230927D01*
X187548Y231048D01*
X187531Y231071D01*
X187519Y231098D01*
X187438Y231200D01*
X187362Y231305D01*
X187339Y231324D01*
X187320Y231347D01*
X187217Y231425D01*
X187117Y231508D01*
X187090Y231520D01*
X187066Y231538D01*
X187014Y231563D01*
X183776Y234802D01*
X183488Y235497D01*
X183463Y235540D01*
X183447Y235587D01*
X183385Y235677D01*
X183330Y235773D01*
X183296Y235809D01*
X183268Y235850D01*
X183186Y235922D01*
X183109Y236001D01*
X183067Y236027D01*
X183030Y236060D01*
X182932Y236110D01*
X182838Y236167D01*
X182790Y236182D01*
X182746Y236205D01*
X182639Y236229D01*
X182534Y236261D01*
X182484Y236263D01*
X182436Y236274D01*
X182326Y236271D01*
X182217Y236276D01*
X182168Y236266D01*
X182118Y236265D01*
X182013Y236234D01*
X181905Y236212D01*
X181860Y236190D01*
X181813Y236176D01*
X181718Y236120D01*
X181619Y236072D01*
X181582Y236040D01*
X181539Y236015D01*
X181418Y235908D01*
X181409Y235899D01*
X179067Y234929D01*
X176533Y234929D01*
X174191Y235899D01*
X172399Y237691D01*
X171429Y240033D01*
X171429Y242567D01*
X172399Y244909D01*
X174191Y246701D01*
X176533Y247671D01*
X179067Y247671D01*
X181409Y246701D01*
X181418Y246692D01*
X181457Y246661D01*
X181491Y246624D01*
X181582Y246564D01*
X181669Y246497D01*
X181715Y246477D01*
X181756Y246450D01*
X181860Y246414D01*
X181961Y246370D01*
X182010Y246363D01*
X182057Y246346D01*
X182167Y246338D01*
X182275Y246321D01*
X182325Y246325D01*
X182374Y246321D01*
X182482Y246340D01*
X182592Y246350D01*
X182638Y246367D01*
X182687Y246376D01*
X182788Y246421D01*
X182891Y246458D01*
X182932Y246486D01*
X182977Y246506D01*
X183063Y246575D01*
X183154Y246636D01*
X183187Y246674D01*
X183226Y246705D01*
X183292Y246792D01*
X183365Y246875D01*
X183387Y246919D01*
X183417Y246959D01*
X183488Y247103D01*
X183776Y247798D01*
X187022Y251045D01*
X187085Y251084D01*
X187198Y251149D01*
X187219Y251169D01*
X187244Y251185D01*
X187333Y251280D01*
X187426Y251370D01*
X187442Y251395D01*
X187462Y251417D01*
X187525Y251530D01*
X187593Y251641D01*
X187601Y251669D01*
X187616Y251695D01*
X187648Y251820D01*
X187686Y251945D01*
X187688Y251974D01*
X187695Y252003D01*
X187705Y252164D01*
X187705Y255836D01*
X187702Y255866D01*
X187704Y255895D01*
X187682Y256023D01*
X187665Y256152D01*
X187655Y256179D01*
X187649Y256208D01*
X187596Y256327D01*
X187548Y256448D01*
X187531Y256471D01*
X187519Y256498D01*
X187438Y256600D01*
X187362Y256705D01*
X187339Y256724D01*
X187320Y256747D01*
X187217Y256825D01*
X187117Y256908D01*
X187090Y256920D01*
X187066Y256938D01*
X187014Y256963D01*
X183776Y260202D01*
X183488Y260897D01*
X183463Y260940D01*
X183447Y260987D01*
X183385Y261077D01*
X183330Y261173D01*
X183296Y261209D01*
X183268Y261250D01*
X183186Y261322D01*
X183109Y261401D01*
X183067Y261427D01*
X183030Y261460D01*
X182932Y261510D01*
X182838Y261567D01*
X182790Y261582D01*
X182746Y261605D01*
X182639Y261629D01*
X182534Y261661D01*
X182484Y261663D01*
X182436Y261674D01*
X182326Y261671D01*
X182217Y261676D01*
X182168Y261666D01*
X182118Y261665D01*
X182013Y261634D01*
X181905Y261612D01*
X181860Y261590D01*
X181813Y261576D01*
X181718Y261520D01*
X181619Y261472D01*
X181582Y261440D01*
X181539Y261415D01*
X181418Y261308D01*
X181409Y261299D01*
X179067Y260329D01*
X176533Y260329D01*
X174191Y261299D01*
X172399Y263091D01*
X171429Y265433D01*
X171429Y267967D01*
X172399Y270309D01*
X174191Y272101D01*
X176533Y273071D01*
X179067Y273071D01*
X181409Y272101D01*
X181418Y272092D01*
X181457Y272061D01*
X181491Y272024D01*
X181582Y271964D01*
X181669Y271897D01*
X181715Y271877D01*
X181756Y271850D01*
X181860Y271814D01*
X181961Y271770D01*
X182010Y271763D01*
X182057Y271746D01*
X182167Y271738D01*
X182275Y271721D01*
X182325Y271725D01*
X182374Y271721D01*
X182482Y271740D01*
X182592Y271750D01*
X182638Y271767D01*
X182687Y271776D01*
X182788Y271821D01*
X182891Y271858D01*
X182932Y271886D01*
X182977Y271906D01*
X183063Y271975D01*
X183154Y272036D01*
X183187Y272074D01*
X183226Y272105D01*
X183292Y272192D01*
X183365Y272275D01*
X183387Y272319D01*
X183417Y272359D01*
X183488Y272503D01*
X183776Y273198D01*
X187022Y276445D01*
X187085Y276484D01*
X187198Y276549D01*
X187219Y276569D01*
X187244Y276585D01*
X187333Y276680D01*
X187426Y276770D01*
X187442Y276795D01*
X187462Y276817D01*
X187525Y276930D01*
X187593Y277041D01*
X187601Y277069D01*
X187616Y277095D01*
X187648Y277220D01*
X187686Y277345D01*
X187688Y277374D01*
X187695Y277403D01*
X187705Y277564D01*
X187705Y281236D01*
X187702Y281266D01*
X187704Y281295D01*
X187682Y281423D01*
X187665Y281552D01*
X187655Y281579D01*
X187649Y281608D01*
X187596Y281727D01*
X187548Y281848D01*
X187531Y281871D01*
X187519Y281898D01*
X187438Y282000D01*
X187362Y282105D01*
X187339Y282124D01*
X187320Y282147D01*
X187217Y282225D01*
X187117Y282308D01*
X187090Y282320D01*
X187066Y282338D01*
X187014Y282363D01*
X183776Y285602D01*
X183488Y286297D01*
X183463Y286340D01*
X183447Y286387D01*
X183385Y286477D01*
X183330Y286573D01*
X183296Y286609D01*
X183268Y286650D01*
X183186Y286722D01*
X183109Y286801D01*
X183067Y286827D01*
X183030Y286860D01*
X182932Y286910D01*
X182838Y286967D01*
X182790Y286982D01*
X182746Y287005D01*
X182639Y287029D01*
X182534Y287061D01*
X182484Y287063D01*
X182436Y287074D01*
X182326Y287071D01*
X182217Y287076D01*
X182168Y287066D01*
X182118Y287065D01*
X182013Y287034D01*
X181905Y287012D01*
X181860Y286990D01*
X181813Y286976D01*
X181718Y286920D01*
X181619Y286872D01*
X181582Y286840D01*
X181539Y286815D01*
X181418Y286708D01*
X181409Y286699D01*
X179067Y285729D01*
X176533Y285729D01*
X174191Y286699D01*
X172399Y288491D01*
X171429Y290833D01*
X171429Y293367D01*
X172399Y295709D01*
X174191Y297501D01*
X176533Y298471D01*
X179067Y298471D01*
X181409Y297501D01*
X181418Y297492D01*
X181457Y297461D01*
X181491Y297424D01*
X181582Y297364D01*
X181669Y297297D01*
X181715Y297277D01*
X181756Y297250D01*
X181860Y297214D01*
X181961Y297170D01*
X182010Y297163D01*
X182057Y297146D01*
X182167Y297138D01*
X182275Y297121D01*
X182325Y297125D01*
X182374Y297121D01*
X182482Y297140D01*
X182592Y297150D01*
X182638Y297167D01*
X182687Y297176D01*
X182788Y297221D01*
X182891Y297258D01*
X182932Y297286D01*
X182977Y297306D01*
X183063Y297375D01*
X183154Y297436D01*
X183187Y297474D01*
X183226Y297505D01*
X183292Y297592D01*
X183365Y297675D01*
X183387Y297719D01*
X183417Y297759D01*
X183488Y297903D01*
X183776Y298598D01*
X187022Y301845D01*
X187085Y301884D01*
X187198Y301949D01*
X187219Y301969D01*
X187244Y301985D01*
X187333Y302080D01*
X187426Y302170D01*
X187442Y302195D01*
X187462Y302217D01*
X187525Y302330D01*
X187593Y302441D01*
X187601Y302469D01*
X187616Y302495D01*
X187648Y302620D01*
X187686Y302745D01*
X187688Y302774D01*
X187695Y302803D01*
X187705Y302964D01*
X187705Y304115D01*
X187688Y304253D01*
X187675Y304391D01*
X187668Y304410D01*
X187665Y304430D01*
X187614Y304559D01*
X187567Y304690D01*
X187556Y304707D01*
X187548Y304726D01*
X187467Y304838D01*
X187389Y304953D01*
X187373Y304967D01*
X187362Y304983D01*
X187254Y305072D01*
X187150Y305164D01*
X187132Y305173D01*
X187117Y305186D01*
X186991Y305245D01*
X186867Y305308D01*
X186847Y305313D01*
X186829Y305322D01*
X186692Y305348D01*
X186557Y305378D01*
X186536Y305378D01*
X186517Y305381D01*
X186378Y305373D01*
X186239Y305368D01*
X186219Y305363D01*
X186199Y305362D01*
X186067Y305319D01*
X185933Y305280D01*
X185916Y305270D01*
X185897Y305264D01*
X185779Y305189D01*
X185659Y305119D01*
X185638Y305100D01*
X185628Y305093D01*
X185614Y305078D01*
X185539Y305012D01*
X184564Y304037D01*
X181196Y304037D01*
X178815Y306418D01*
X178815Y309786D01*
X181196Y312167D01*
X184564Y312167D01*
X185539Y311192D01*
X185648Y311107D01*
X185755Y311018D01*
X185774Y311009D01*
X185790Y310997D01*
X185917Y310942D01*
X186043Y310882D01*
X186063Y310879D01*
X186082Y310871D01*
X186220Y310849D01*
X186356Y310823D01*
X186376Y310824D01*
X186396Y310821D01*
X186535Y310834D01*
X186673Y310842D01*
X186692Y310849D01*
X186712Y310851D01*
X186844Y310898D01*
X186975Y310940D01*
X186993Y310951D01*
X187012Y310958D01*
X187127Y311036D01*
X187244Y311111D01*
X187258Y311125D01*
X187275Y311137D01*
X187367Y311241D01*
X187462Y311342D01*
X187472Y311360D01*
X187485Y311375D01*
X187549Y311499D01*
X187616Y311621D01*
X187621Y311640D01*
X187630Y311658D01*
X187660Y311794D01*
X187695Y311929D01*
X187697Y311957D01*
X187700Y311969D01*
X187699Y311989D01*
X187705Y312089D01*
X187705Y326136D01*
X187690Y326254D01*
X187683Y326373D01*
X187670Y326411D01*
X187665Y326452D01*
X187622Y326562D01*
X187585Y326675D01*
X187563Y326710D01*
X187548Y326747D01*
X187479Y326843D01*
X187415Y326944D01*
X187385Y326972D01*
X187362Y327005D01*
X187270Y327081D01*
X187183Y327162D01*
X187148Y327182D01*
X187117Y327207D01*
X187009Y327258D01*
X186905Y327316D01*
X186865Y327326D01*
X186829Y327343D01*
X186712Y327365D01*
X186597Y327395D01*
X186537Y327399D01*
X186517Y327403D01*
X186496Y327401D01*
X186436Y327405D01*
X145976Y327405D01*
X145872Y327392D01*
X145766Y327388D01*
X145714Y327372D01*
X145661Y327365D01*
X145563Y327327D01*
X145462Y327296D01*
X145415Y327268D01*
X145365Y327248D01*
X145280Y327186D01*
X145189Y327132D01*
X145152Y327093D01*
X145108Y327062D01*
X145040Y326980D01*
X144967Y326905D01*
X144939Y326858D01*
X144905Y326817D01*
X144860Y326721D01*
X144807Y326630D01*
X144792Y326578D01*
X144777Y326546D01*
X144765Y326575D01*
X144733Y326675D01*
X144704Y326721D01*
X144683Y326771D01*
X144619Y326855D01*
X144562Y326944D01*
X144523Y326981D01*
X144490Y327024D01*
X144408Y327090D01*
X144331Y327162D01*
X144284Y327188D01*
X144241Y327222D01*
X144145Y327265D01*
X144052Y327316D01*
X144000Y327329D01*
X143951Y327351D01*
X143847Y327369D01*
X143744Y327395D01*
X143659Y327401D01*
X143637Y327404D01*
X143622Y327403D01*
X143584Y327405D01*
X59616Y327405D01*
X59512Y327392D01*
X59406Y327388D01*
X59354Y327372D01*
X59301Y327365D01*
X59203Y327327D01*
X59102Y327296D01*
X59055Y327268D01*
X59005Y327248D01*
X58920Y327186D01*
X58829Y327132D01*
X58792Y327093D01*
X58748Y327062D01*
X58680Y326980D01*
X58607Y326905D01*
X58579Y326858D01*
X58545Y326817D01*
X58500Y326721D01*
X58447Y326630D01*
X58432Y326578D01*
X58417Y326546D01*
X58405Y326575D01*
X58373Y326675D01*
X58344Y326721D01*
X58323Y326771D01*
X58259Y326855D01*
X58202Y326944D01*
X58163Y326981D01*
X58130Y327024D01*
X58048Y327090D01*
X57971Y327162D01*
X57924Y327188D01*
X57881Y327222D01*
X57785Y327265D01*
X57692Y327316D01*
X57640Y327329D01*
X57591Y327351D01*
X57487Y327369D01*
X57384Y327395D01*
X57299Y327401D01*
X57277Y327404D01*
X57262Y327403D01*
X57224Y327405D01*
X16764Y327405D01*
X16646Y327390D01*
X16527Y327383D01*
X16489Y327370D01*
X16448Y327365D01*
X16338Y327322D01*
X16225Y327285D01*
X16190Y327263D01*
X16153Y327248D01*
X16057Y327179D01*
X15956Y327115D01*
X15928Y327085D01*
X15895Y327062D01*
X15819Y326970D01*
X15738Y326883D01*
X15718Y326848D01*
X15693Y326817D01*
X15642Y326709D01*
X15584Y326605D01*
X15574Y326565D01*
X15557Y326529D01*
X15535Y326412D01*
X15505Y326297D01*
X15501Y326237D01*
X15497Y326217D01*
X15499Y326196D01*
X15495Y326136D01*
X15495Y302964D01*
X15498Y302934D01*
X15496Y302905D01*
X15518Y302777D01*
X15535Y302648D01*
X15545Y302621D01*
X15551Y302592D01*
X15604Y302473D01*
X15652Y302352D01*
X15669Y302329D01*
X15681Y302302D01*
X15762Y302200D01*
X15838Y302095D01*
X15861Y302076D01*
X15880Y302053D01*
X15983Y301975D01*
X16083Y301892D01*
X16110Y301880D01*
X16134Y301862D01*
X16186Y301837D01*
X19424Y298598D01*
X19712Y297903D01*
X19737Y297860D01*
X19753Y297813D01*
X19815Y297723D01*
X19870Y297627D01*
X19904Y297591D01*
X19932Y297550D01*
X20014Y297478D01*
X20091Y297399D01*
X20133Y297373D01*
X20170Y297340D01*
X20268Y297290D01*
X20362Y297233D01*
X20410Y297218D01*
X20454Y297195D01*
X20561Y297171D01*
X20666Y297139D01*
X20716Y297137D01*
X20764Y297126D01*
X20874Y297129D01*
X20983Y297124D01*
X21032Y297134D01*
X21082Y297135D01*
X21187Y297166D01*
X21295Y297188D01*
X21340Y297210D01*
X21387Y297224D01*
X21482Y297280D01*
X21581Y297328D01*
X21618Y297360D01*
X21661Y297385D01*
X21782Y297492D01*
X21791Y297501D01*
X24133Y298471D01*
X26667Y298471D01*
X29009Y297501D01*
X30801Y295709D01*
X31771Y293367D01*
X31771Y290833D01*
X31548Y290294D01*
X31540Y290266D01*
X31526Y290240D01*
X31498Y290113D01*
X31464Y289988D01*
X31463Y289958D01*
X31457Y289929D01*
X31461Y289799D01*
X31459Y289670D01*
X31466Y289641D01*
X31466Y289611D01*
X31503Y289487D01*
X31533Y289360D01*
X31547Y289334D01*
X31555Y289306D01*
X31621Y289194D01*
X31682Y289079D01*
X31701Y289057D01*
X31716Y289032D01*
X31823Y288911D01*
X39371Y281363D01*
X39371Y279908D01*
X39386Y279790D01*
X39393Y279671D01*
X39406Y279633D01*
X39411Y279592D01*
X39454Y279482D01*
X39491Y279369D01*
X39513Y279334D01*
X39528Y279297D01*
X39597Y279201D01*
X39661Y279100D01*
X39691Y279072D01*
X39714Y279039D01*
X39806Y278963D01*
X39893Y278882D01*
X39928Y278862D01*
X39959Y278837D01*
X40067Y278786D01*
X40171Y278728D01*
X40211Y278718D01*
X40247Y278701D01*
X40364Y278679D01*
X40479Y278649D01*
X40539Y278645D01*
X40559Y278641D01*
X40580Y278643D01*
X40640Y278639D01*
X43848Y278639D01*
X46229Y276258D01*
X46229Y272890D01*
X44619Y271280D01*
X44546Y271186D01*
X44467Y271097D01*
X44458Y271079D01*
X44445Y271064D01*
X44437Y271046D01*
X44424Y271029D01*
X44377Y270920D01*
X44323Y270814D01*
X44318Y270794D01*
X44310Y270776D01*
X44306Y270757D01*
X44298Y270737D01*
X44279Y270620D01*
X44253Y270504D01*
X44254Y270482D01*
X44250Y270464D01*
X44251Y270445D01*
X44248Y270423D01*
X44259Y270305D01*
X44263Y270186D01*
X44269Y270165D01*
X44270Y270146D01*
X44276Y270129D01*
X44278Y270107D01*
X44318Y269994D01*
X44351Y269880D01*
X44362Y269861D01*
X44368Y269844D01*
X44378Y269828D01*
X44385Y269807D01*
X44452Y269709D01*
X44513Y269606D01*
X44533Y269583D01*
X44538Y269575D01*
X44550Y269564D01*
X44552Y269561D01*
X44564Y269544D01*
X44579Y269531D01*
X44619Y269485D01*
X47245Y266860D01*
X47245Y263492D01*
X45838Y262086D01*
X45778Y262008D01*
X45710Y261936D01*
X45681Y261883D01*
X45644Y261835D01*
X45604Y261744D01*
X45556Y261657D01*
X45541Y261599D01*
X45517Y261543D01*
X45502Y261445D01*
X45477Y261349D01*
X45471Y261249D01*
X45467Y261229D01*
X45469Y261217D01*
X45467Y261189D01*
X45467Y232079D01*
X45484Y231942D01*
X45497Y231803D01*
X45504Y231784D01*
X45507Y231764D01*
X45558Y231635D01*
X45605Y231504D01*
X45616Y231487D01*
X45624Y231468D01*
X45705Y231356D01*
X45783Y231241D01*
X45799Y231227D01*
X45810Y231211D01*
X45918Y231122D01*
X46022Y231030D01*
X46040Y231021D01*
X46055Y231008D01*
X46181Y230949D01*
X46305Y230886D01*
X46325Y230881D01*
X46343Y230872D01*
X46480Y230846D01*
X46615Y230816D01*
X46636Y230816D01*
X46655Y230813D01*
X46794Y230821D01*
X46933Y230826D01*
X46953Y230831D01*
X46973Y230832D01*
X47105Y230875D01*
X47239Y230914D01*
X47256Y230924D01*
X47275Y230930D01*
X47393Y231005D01*
X47513Y231075D01*
X47534Y231094D01*
X47544Y231101D01*
X47558Y231116D01*
X47633Y231182D01*
X49116Y232665D01*
X52484Y232665D01*
X54865Y230284D01*
X54865Y226916D01*
X52484Y224535D01*
X49116Y224535D01*
X47633Y226018D01*
X47524Y226103D01*
X47417Y226192D01*
X47398Y226201D01*
X47382Y226213D01*
X47254Y226269D01*
X47129Y226328D01*
X47109Y226331D01*
X47090Y226339D01*
X46952Y226361D01*
X46816Y226387D01*
X46796Y226386D01*
X46776Y226389D01*
X46637Y226376D01*
X46499Y226368D01*
X46480Y226361D01*
X46460Y226359D01*
X46328Y226312D01*
X46197Y226270D01*
X46179Y226259D01*
X46160Y226252D01*
X46045Y226174D01*
X45928Y226099D01*
X45914Y226085D01*
X45897Y226073D01*
X45805Y225969D01*
X45710Y225868D01*
X45700Y225850D01*
X45687Y225835D01*
X45623Y225711D01*
X45556Y225589D01*
X45551Y225570D01*
X45542Y225552D01*
X45512Y225416D01*
X45477Y225281D01*
X45475Y225253D01*
X45472Y225241D01*
X45473Y225221D01*
X45467Y225121D01*
X45467Y176530D01*
X45482Y176412D01*
X45489Y176293D01*
X45502Y176255D01*
X45507Y176214D01*
X45550Y176104D01*
X45587Y175991D01*
X45609Y175956D01*
X45624Y175919D01*
X45693Y175823D01*
X45757Y175722D01*
X45787Y175694D01*
X45810Y175661D01*
X45902Y175585D01*
X45989Y175504D01*
X46024Y175484D01*
X46055Y175459D01*
X46163Y175408D01*
X46267Y175350D01*
X46307Y175340D01*
X46343Y175323D01*
X46460Y175301D01*
X46575Y175271D01*
X46635Y175267D01*
X46655Y175263D01*
X46676Y175265D01*
X46736Y175261D01*
X49944Y175261D01*
X52189Y173016D01*
X52269Y172953D01*
X52332Y172894D01*
X52347Y172886D01*
X52372Y172864D01*
X52408Y172846D01*
X52440Y172821D01*
X52549Y172774D01*
X52572Y172762D01*
X52611Y172741D01*
X52617Y172739D01*
X52655Y172720D01*
X52695Y172711D01*
X52732Y172695D01*
X52849Y172676D01*
X52965Y172650D01*
X53006Y172651D01*
X53046Y172645D01*
X53165Y172656D01*
X53283Y172660D01*
X53322Y172671D01*
X53362Y172675D01*
X53407Y172691D01*
X53408Y172691D01*
X53416Y172694D01*
X53474Y172715D01*
X53589Y172748D01*
X53624Y172769D01*
X53662Y172782D01*
X53693Y172804D01*
X53704Y172808D01*
X53763Y172851D01*
X53863Y172910D01*
X53908Y172949D01*
X53925Y172961D01*
X53937Y172975D01*
X55244Y172975D01*
X55362Y172990D01*
X55481Y172997D01*
X55519Y173010D01*
X55560Y173015D01*
X55670Y173058D01*
X55783Y173095D01*
X55818Y173117D01*
X55855Y173132D01*
X55951Y173201D01*
X56052Y173265D01*
X56080Y173295D01*
X56113Y173318D01*
X56189Y173410D01*
X56270Y173497D01*
X56290Y173532D01*
X56315Y173563D01*
X56366Y173671D01*
X56424Y173775D01*
X56434Y173815D01*
X56451Y173851D01*
X56473Y173968D01*
X56503Y174083D01*
X56507Y174143D01*
X56511Y174163D01*
X56509Y174184D01*
X56513Y174244D01*
X56513Y214453D01*
X56501Y214551D01*
X56498Y214650D01*
X56481Y214708D01*
X56473Y214768D01*
X56437Y214860D01*
X56409Y214955D01*
X56379Y215007D01*
X56356Y215064D01*
X56298Y215144D01*
X56248Y215229D01*
X56182Y215305D01*
X56170Y215321D01*
X56160Y215329D01*
X56142Y215350D01*
X54735Y216756D01*
X54735Y220124D01*
X57116Y222505D01*
X60484Y222505D01*
X62865Y220124D01*
X62865Y216756D01*
X61458Y215350D01*
X61398Y215272D01*
X61330Y215200D01*
X61301Y215147D01*
X61264Y215099D01*
X61224Y215008D01*
X61176Y214921D01*
X61161Y214863D01*
X61137Y214807D01*
X61122Y214709D01*
X61097Y214613D01*
X61091Y214513D01*
X61087Y214493D01*
X61089Y214481D01*
X61087Y214453D01*
X61087Y171137D01*
X60062Y170113D01*
X60002Y170034D01*
X59934Y169962D01*
X59905Y169909D01*
X59868Y169861D01*
X59828Y169770D01*
X59780Y169684D01*
X59765Y169625D01*
X59741Y169569D01*
X59726Y169471D01*
X59701Y169376D01*
X59695Y169276D01*
X59691Y169255D01*
X59693Y169243D01*
X59691Y169215D01*
X59691Y167226D01*
X57310Y164845D01*
X53942Y164845D01*
X51698Y167090D01*
X51603Y167163D01*
X51514Y167242D01*
X51478Y167260D01*
X51446Y167285D01*
X51337Y167332D01*
X51231Y167386D01*
X51192Y167395D01*
X51154Y167411D01*
X51037Y167430D01*
X50921Y167456D01*
X50880Y167455D01*
X50840Y167461D01*
X50722Y167450D01*
X50603Y167446D01*
X50564Y167435D01*
X50524Y167431D01*
X50411Y167391D01*
X50297Y167358D01*
X50263Y167338D01*
X50224Y167324D01*
X50126Y167257D01*
X50023Y167197D01*
X49978Y167157D01*
X49961Y167145D01*
X49949Y167131D01*
X46736Y167131D01*
X46618Y167116D01*
X46499Y167109D01*
X46461Y167096D01*
X46420Y167091D01*
X46310Y167048D01*
X46197Y167011D01*
X46162Y166989D01*
X46125Y166974D01*
X46029Y166905D01*
X45928Y166841D01*
X45900Y166811D01*
X45867Y166788D01*
X45791Y166696D01*
X45710Y166609D01*
X45690Y166574D01*
X45665Y166543D01*
X45614Y166435D01*
X45556Y166331D01*
X45546Y166291D01*
X45529Y166255D01*
X45507Y166138D01*
X45477Y166023D01*
X45473Y165963D01*
X45469Y165943D01*
X45471Y165922D01*
X45467Y165862D01*
X45467Y146927D01*
X45484Y146790D01*
X45497Y146651D01*
X45504Y146632D01*
X45507Y146612D01*
X45558Y146482D01*
X45605Y146352D01*
X45616Y146335D01*
X45624Y146316D01*
X45705Y146204D01*
X45783Y146089D01*
X45799Y146075D01*
X45810Y146059D01*
X45918Y145970D01*
X46022Y145878D01*
X46040Y145869D01*
X46055Y145856D01*
X46181Y145797D01*
X46305Y145734D01*
X46325Y145729D01*
X46343Y145720D01*
X46480Y145694D01*
X46615Y145664D01*
X46636Y145664D01*
X46655Y145661D01*
X46794Y145669D01*
X46933Y145674D01*
X46953Y145679D01*
X46973Y145680D01*
X47105Y145723D01*
X47239Y145762D01*
X47256Y145772D01*
X47275Y145778D01*
X47393Y145853D01*
X47513Y145923D01*
X47534Y145942D01*
X47544Y145949D01*
X47558Y145964D01*
X47633Y146030D01*
X49178Y147575D01*
X49353Y147575D01*
X49491Y147592D01*
X49629Y147605D01*
X49648Y147612D01*
X49668Y147615D01*
X49797Y147666D01*
X49929Y147713D01*
X49945Y147724D01*
X49964Y147732D01*
X50076Y147813D01*
X50192Y147892D01*
X50205Y147907D01*
X50221Y147918D01*
X50310Y148026D01*
X50402Y148130D01*
X50411Y148148D01*
X50424Y148163D01*
X50483Y148289D01*
X50547Y148413D01*
X50551Y148433D01*
X50560Y148451D01*
X50586Y148587D01*
X50616Y148724D01*
X50616Y148744D01*
X50619Y148763D01*
X50611Y148902D01*
X50606Y149041D01*
X50601Y149061D01*
X50600Y149081D01*
X50557Y149213D01*
X50545Y149253D01*
X50545Y152814D01*
X52926Y155195D01*
X56294Y155195D01*
X57522Y153966D01*
X57607Y153900D01*
X57655Y153855D01*
X57666Y153849D01*
X57706Y153814D01*
X57742Y153796D01*
X57774Y153771D01*
X57883Y153724D01*
X57989Y153670D01*
X58028Y153661D01*
X58066Y153645D01*
X58183Y153626D01*
X58299Y153600D01*
X58340Y153601D01*
X58380Y153595D01*
X58498Y153606D01*
X58617Y153610D01*
X58656Y153621D01*
X58696Y153625D01*
X58809Y153665D01*
X58923Y153698D01*
X58957Y153718D01*
X58996Y153732D01*
X59094Y153799D01*
X59197Y153859D01*
X59242Y153899D01*
X59259Y153911D01*
X59272Y153926D01*
X59304Y153954D01*
X59307Y153956D01*
X59308Y153957D01*
X59317Y153966D01*
X60038Y154687D01*
X63406Y154687D01*
X65787Y152306D01*
X65787Y148938D01*
X64380Y147532D01*
X64320Y147454D01*
X64252Y147382D01*
X64223Y147329D01*
X64186Y147281D01*
X64146Y147190D01*
X64098Y147103D01*
X64083Y147045D01*
X64059Y146989D01*
X64044Y146891D01*
X64019Y146795D01*
X64013Y146695D01*
X64009Y146675D01*
X64011Y146663D01*
X64009Y146635D01*
X64009Y135636D01*
X64024Y135518D01*
X64031Y135399D01*
X64044Y135361D01*
X64049Y135320D01*
X64092Y135210D01*
X64129Y135097D01*
X64151Y135062D01*
X64166Y135025D01*
X64235Y134929D01*
X64299Y134828D01*
X64329Y134800D01*
X64352Y134767D01*
X64444Y134691D01*
X64531Y134610D01*
X64566Y134590D01*
X64597Y134565D01*
X64705Y134514D01*
X64809Y134456D01*
X64849Y134446D01*
X64885Y134429D01*
X65002Y134407D01*
X65117Y134377D01*
X65177Y134373D01*
X65197Y134369D01*
X65218Y134371D01*
X65278Y134367D01*
X68486Y134367D01*
X70867Y131986D01*
X70867Y128618D01*
X68486Y126237D01*
X65278Y126237D01*
X65160Y126222D01*
X65041Y126215D01*
X65003Y126202D01*
X64962Y126197D01*
X64852Y126154D01*
X64739Y126117D01*
X64704Y126095D01*
X64667Y126080D01*
X64571Y126011D01*
X64470Y125947D01*
X64442Y125917D01*
X64409Y125894D01*
X64333Y125802D01*
X64252Y125715D01*
X64232Y125680D01*
X64207Y125649D01*
X64156Y125541D01*
X64098Y125437D01*
X64088Y125397D01*
X64071Y125361D01*
X64049Y125244D01*
X64019Y125129D01*
X64015Y125069D01*
X64011Y125049D01*
X64013Y125028D01*
X64009Y124968D01*
X64009Y98367D01*
X62297Y96656D01*
X60773Y95131D01*
X60688Y95022D01*
X60600Y94915D01*
X60591Y94896D01*
X60578Y94880D01*
X60523Y94753D01*
X60464Y94627D01*
X60460Y94607D01*
X60452Y94588D01*
X60430Y94450D01*
X60404Y94314D01*
X60405Y94294D01*
X60402Y94274D01*
X60415Y94135D01*
X60424Y93997D01*
X60430Y93978D01*
X60432Y93958D01*
X60479Y93826D01*
X60522Y93695D01*
X60533Y93677D01*
X60540Y93658D01*
X60618Y93543D01*
X60692Y93426D01*
X60707Y93412D01*
X60718Y93395D01*
X60823Y93303D01*
X60924Y93208D01*
X60941Y93198D01*
X60957Y93185D01*
X61081Y93121D01*
X61202Y93054D01*
X61222Y93049D01*
X61240Y93040D01*
X61376Y93010D01*
X61510Y92975D01*
X61538Y92973D01*
X61550Y92970D01*
X61571Y92971D01*
X61671Y92965D01*
X65184Y92965D01*
X67565Y90584D01*
X67565Y87216D01*
X65184Y84835D01*
X61816Y84835D01*
X59435Y87216D01*
X59435Y90729D01*
X59418Y90867D01*
X59405Y91005D01*
X59398Y91025D01*
X59395Y91045D01*
X59344Y91174D01*
X59297Y91305D01*
X59286Y91322D01*
X59278Y91340D01*
X59197Y91453D01*
X59119Y91568D01*
X59103Y91581D01*
X59092Y91598D01*
X58984Y91686D01*
X58880Y91778D01*
X58862Y91788D01*
X58847Y91800D01*
X58721Y91860D01*
X58597Y91923D01*
X58577Y91927D01*
X58559Y91936D01*
X58423Y91962D01*
X58287Y91993D01*
X58266Y91992D01*
X58247Y91996D01*
X58108Y91987D01*
X57969Y91983D01*
X57949Y91977D01*
X57929Y91976D01*
X57797Y91933D01*
X57663Y91895D01*
X57646Y91884D01*
X57627Y91878D01*
X57509Y91803D01*
X57389Y91733D01*
X57368Y91714D01*
X57358Y91708D01*
X57344Y91693D01*
X57269Y91627D01*
X52255Y86613D01*
X32197Y86613D01*
X32167Y86610D01*
X32138Y86612D01*
X32010Y86590D01*
X31881Y86573D01*
X31854Y86563D01*
X31824Y86558D01*
X31706Y86504D01*
X31585Y86456D01*
X31561Y86439D01*
X31534Y86427D01*
X31433Y86346D01*
X31328Y86270D01*
X31309Y86247D01*
X31286Y86228D01*
X31208Y86125D01*
X31125Y86025D01*
X31113Y85998D01*
X31095Y85974D01*
X31024Y85830D01*
X30801Y85291D01*
X29009Y83499D01*
X26667Y82529D01*
X24133Y82529D01*
X21791Y83499D01*
X21782Y83508D01*
X21743Y83539D01*
X21709Y83576D01*
X21618Y83636D01*
X21531Y83703D01*
X21485Y83723D01*
X21444Y83750D01*
X21340Y83786D01*
X21239Y83830D01*
X21190Y83837D01*
X21143Y83854D01*
X21033Y83862D01*
X20925Y83879D01*
X20875Y83875D01*
X20826Y83879D01*
X20718Y83860D01*
X20608Y83850D01*
X20562Y83833D01*
X20513Y83824D01*
X20412Y83779D01*
X20309Y83742D01*
X20268Y83714D01*
X20223Y83694D01*
X20137Y83625D01*
X20046Y83564D01*
X20013Y83526D01*
X19974Y83495D01*
X19908Y83408D01*
X19835Y83325D01*
X19813Y83281D01*
X19783Y83241D01*
X19712Y83097D01*
X19424Y82402D01*
X16178Y79155D01*
X16115Y79116D01*
X16002Y79051D01*
X15981Y79031D01*
X15956Y79015D01*
X15867Y78920D01*
X15774Y78830D01*
X15758Y78805D01*
X15738Y78783D01*
X15675Y78670D01*
X15607Y78559D01*
X15599Y78531D01*
X15584Y78505D01*
X15552Y78380D01*
X15514Y78255D01*
X15512Y78226D01*
X15505Y78197D01*
X15495Y78036D01*
X15495Y55880D01*
X15510Y55762D01*
X15517Y55643D01*
X15530Y55605D01*
X15535Y55564D01*
X15578Y55454D01*
X15615Y55341D01*
X15637Y55306D01*
X15652Y55269D01*
X15721Y55173D01*
X15785Y55072D01*
X15815Y55044D01*
X15838Y55011D01*
X15930Y54936D01*
X16017Y54854D01*
X16052Y54834D01*
X16083Y54809D01*
X16191Y54758D01*
X16295Y54700D01*
X16335Y54690D01*
X16371Y54673D01*
X16488Y54651D01*
X16603Y54621D01*
X16663Y54617D01*
X16683Y54613D01*
X16704Y54615D01*
X16764Y54611D01*
X186436Y54611D01*
X186554Y54626D01*
G37*
%LPC*%
G36*
X136238Y131825D02*
X136238Y131825D01*
X133857Y134206D01*
X133857Y137574D01*
X135264Y138980D01*
X135324Y139058D01*
X135392Y139130D01*
X135421Y139183D01*
X135458Y139231D01*
X135498Y139322D01*
X135546Y139409D01*
X135561Y139467D01*
X135585Y139523D01*
X135600Y139621D01*
X135625Y139717D01*
X135631Y139817D01*
X135635Y139837D01*
X135633Y139849D01*
X135635Y139877D01*
X135635Y145619D01*
X135618Y145757D01*
X135605Y145895D01*
X135598Y145914D01*
X135595Y145934D01*
X135544Y146063D01*
X135497Y146194D01*
X135486Y146211D01*
X135478Y146230D01*
X135397Y146342D01*
X135319Y146457D01*
X135303Y146471D01*
X135292Y146487D01*
X135184Y146576D01*
X135080Y146668D01*
X135062Y146677D01*
X135047Y146690D01*
X134921Y146749D01*
X134797Y146813D01*
X134777Y146817D01*
X134759Y146826D01*
X134623Y146852D01*
X134487Y146882D01*
X134466Y146882D01*
X134447Y146885D01*
X134308Y146877D01*
X134169Y146872D01*
X134149Y146867D01*
X134129Y146866D01*
X133997Y146823D01*
X133863Y146784D01*
X133846Y146774D01*
X133827Y146768D01*
X133709Y146693D01*
X133589Y146622D01*
X133568Y146604D01*
X133558Y146597D01*
X133544Y146582D01*
X133515Y146557D01*
X129970Y146557D01*
X129927Y146578D01*
X129907Y146581D01*
X129889Y146589D01*
X129751Y146611D01*
X129614Y146637D01*
X129594Y146636D01*
X129574Y146639D01*
X129436Y146626D01*
X129297Y146618D01*
X129278Y146611D01*
X129258Y146609D01*
X129127Y146562D01*
X128995Y146520D01*
X128978Y146509D01*
X128959Y146502D01*
X128844Y146424D01*
X128726Y146349D01*
X128712Y146335D01*
X128695Y146323D01*
X128603Y146219D01*
X128508Y146118D01*
X128498Y146100D01*
X128485Y146085D01*
X128422Y145961D01*
X128354Y145839D01*
X128349Y145820D01*
X128340Y145802D01*
X128340Y145799D01*
X125884Y143343D01*
X122516Y143343D01*
X120135Y145724D01*
X120135Y149092D01*
X122516Y151473D01*
X126056Y151473D01*
X126099Y151452D01*
X126119Y151449D01*
X126137Y151441D01*
X126275Y151419D01*
X126412Y151393D01*
X126432Y151394D01*
X126452Y151391D01*
X126590Y151404D01*
X126729Y151412D01*
X126748Y151419D01*
X126768Y151421D01*
X126899Y151468D01*
X127031Y151510D01*
X127048Y151521D01*
X127067Y151528D01*
X127182Y151606D01*
X127300Y151681D01*
X127314Y151695D01*
X127331Y151707D01*
X127423Y151811D01*
X127518Y151912D01*
X127528Y151930D01*
X127541Y151945D01*
X127604Y152069D01*
X127672Y152191D01*
X127677Y152210D01*
X127686Y152228D01*
X127686Y152231D01*
X130142Y154687D01*
X133522Y154687D01*
X133578Y154643D01*
X133685Y154554D01*
X133704Y154545D01*
X133720Y154533D01*
X133848Y154478D01*
X133973Y154418D01*
X133993Y154415D01*
X134012Y154407D01*
X134149Y154385D01*
X134286Y154359D01*
X134306Y154360D01*
X134326Y154357D01*
X134464Y154370D01*
X134603Y154378D01*
X134622Y154385D01*
X134642Y154387D01*
X134773Y154434D01*
X134905Y154476D01*
X134923Y154487D01*
X134942Y154494D01*
X135057Y154572D01*
X135174Y154647D01*
X135188Y154661D01*
X135205Y154673D01*
X135296Y154776D01*
X135392Y154878D01*
X135402Y154896D01*
X135415Y154911D01*
X135479Y155035D01*
X135546Y155157D01*
X135551Y155176D01*
X135560Y155194D01*
X135590Y155331D01*
X135625Y155465D01*
X135627Y155493D01*
X135630Y155505D01*
X135629Y155525D01*
X135635Y155625D01*
X135635Y195657D01*
X135623Y195755D01*
X135620Y195854D01*
X135603Y195912D01*
X135595Y195972D01*
X135559Y196064D01*
X135531Y196159D01*
X135501Y196211D01*
X135478Y196268D01*
X135420Y196348D01*
X135370Y196433D01*
X135304Y196509D01*
X135292Y196525D01*
X135282Y196533D01*
X135264Y196554D01*
X133349Y198468D01*
X133349Y200737D01*
X133332Y200874D01*
X133319Y201013D01*
X133312Y201032D01*
X133309Y201052D01*
X133258Y201181D01*
X133211Y201312D01*
X133200Y201329D01*
X133192Y201348D01*
X133111Y201460D01*
X133037Y201568D01*
X133111Y201611D01*
X133132Y201630D01*
X133142Y201637D01*
X133156Y201652D01*
X133231Y201718D01*
X135730Y204217D01*
X139098Y204217D01*
X141479Y201836D01*
X141479Y198468D01*
X140580Y197570D01*
X140520Y197492D01*
X140452Y197420D01*
X140423Y197367D01*
X140386Y197319D01*
X140346Y197228D01*
X140298Y197141D01*
X140283Y197083D01*
X140259Y197027D01*
X140244Y196929D01*
X140219Y196833D01*
X140213Y196733D01*
X140209Y196713D01*
X140211Y196701D01*
X140209Y196673D01*
X140209Y139877D01*
X140221Y139779D01*
X140224Y139680D01*
X140241Y139622D01*
X140249Y139562D01*
X140285Y139470D01*
X140313Y139375D01*
X140343Y139323D01*
X140366Y139266D01*
X140424Y139186D01*
X140474Y139101D01*
X140540Y139025D01*
X140552Y139009D01*
X140562Y139001D01*
X140580Y138980D01*
X141987Y137574D01*
X141987Y134206D01*
X139606Y131825D01*
X136238Y131825D01*
G37*
%LPD*%
%LPC*%
G36*
X148478Y301704D02*
X148478Y301704D01*
X146097Y304085D01*
X146097Y307452D01*
X146778Y308133D01*
X146799Y308160D01*
X146825Y308182D01*
X146896Y308285D01*
X146973Y308384D01*
X146986Y308416D01*
X147006Y308444D01*
X147050Y308561D01*
X147099Y308676D01*
X147105Y308710D01*
X147117Y308742D01*
X147129Y308866D01*
X147149Y308990D01*
X147146Y309024D01*
X147149Y309058D01*
X147131Y309182D01*
X147119Y309307D01*
X147108Y309339D01*
X147103Y309373D01*
X147054Y309488D01*
X147012Y309606D01*
X146993Y309634D01*
X146979Y309666D01*
X146903Y309766D01*
X146833Y309869D01*
X146807Y309892D01*
X146787Y309919D01*
X146688Y309997D01*
X146595Y310080D01*
X146564Y310095D01*
X146537Y310116D01*
X146423Y310167D01*
X146311Y310224D01*
X146278Y310232D01*
X146247Y310246D01*
X146123Y310266D01*
X146001Y310294D01*
X145967Y310293D01*
X145933Y310299D01*
X145808Y310288D01*
X145683Y310284D01*
X145650Y310275D01*
X145616Y310272D01*
X145461Y310228D01*
X145269Y310161D01*
X144922Y310200D01*
X144860Y310199D01*
X144799Y310208D01*
X144638Y310200D01*
X144291Y310161D01*
X143962Y310276D01*
X143901Y310289D01*
X143843Y310312D01*
X143685Y310340D01*
X143338Y310379D01*
X143042Y310564D01*
X142986Y310590D01*
X142935Y310625D01*
X142786Y310688D01*
X142457Y310803D01*
X142210Y311050D01*
X142161Y311088D01*
X142119Y311133D01*
X141988Y311227D01*
X141693Y311413D01*
X141507Y311708D01*
X141468Y311756D01*
X141436Y311809D01*
X141330Y311930D01*
X141083Y312177D01*
X140968Y312506D01*
X140940Y312562D01*
X140921Y312621D01*
X140844Y312762D01*
X140659Y313058D01*
X140620Y313405D01*
X140605Y313465D01*
X140600Y313527D01*
X140556Y313682D01*
X140524Y313774D01*
X140504Y313814D01*
X140491Y313858D01*
X140474Y313887D01*
X140466Y313915D01*
X140464Y313931D01*
X140459Y313945D01*
X140480Y314008D01*
X140483Y314053D01*
X140494Y314096D01*
X140504Y314257D01*
X140504Y314357D01*
X140503Y314370D01*
X140496Y314499D01*
X140457Y314848D01*
X140446Y314895D01*
X140443Y314943D01*
X140408Y315049D01*
X140382Y315157D01*
X140359Y315200D01*
X140345Y315245D01*
X140285Y315340D01*
X140233Y315438D01*
X140200Y315473D01*
X140174Y315514D01*
X140093Y315591D01*
X140018Y315673D01*
X139978Y315699D01*
X139943Y315732D01*
X139845Y315786D01*
X139752Y315847D01*
X139706Y315862D01*
X139664Y315886D01*
X139556Y315913D01*
X139451Y315949D01*
X139403Y315953D01*
X139356Y315965D01*
X139196Y315975D01*
X135476Y315975D01*
X133095Y318356D01*
X133095Y321724D01*
X135476Y324105D01*
X138844Y324105D01*
X139590Y323358D01*
X139671Y323296D01*
X139746Y323226D01*
X139796Y323198D01*
X139841Y323163D01*
X139935Y323123D01*
X140025Y323074D01*
X140080Y323060D01*
X140133Y323037D01*
X140234Y323021D01*
X140333Y322996D01*
X140391Y322996D01*
X140447Y322987D01*
X140549Y322997D01*
X140651Y322997D01*
X140707Y323011D01*
X140764Y323017D01*
X140860Y323051D01*
X140959Y323077D01*
X141009Y323105D01*
X141063Y323124D01*
X141148Y323182D01*
X141237Y323231D01*
X141279Y323271D01*
X141326Y323303D01*
X141394Y323380D01*
X141468Y323450D01*
X141523Y323526D01*
X141537Y323541D01*
X141543Y323554D01*
X141562Y323580D01*
X141693Y323787D01*
X141988Y323973D01*
X142036Y324012D01*
X142089Y324044D01*
X142210Y324150D01*
X142457Y324397D01*
X142786Y324512D01*
X142842Y324540D01*
X142901Y324559D01*
X143042Y324636D01*
X143338Y324821D01*
X143685Y324860D01*
X143745Y324875D01*
X143806Y324880D01*
X143961Y324923D01*
X144002Y324938D01*
X144097Y324985D01*
X144195Y325024D01*
X144239Y325055D01*
X144287Y325079D01*
X144367Y325148D01*
X144452Y325210D01*
X144487Y325252D01*
X144528Y325287D01*
X144588Y325374D01*
X144655Y325455D01*
X144678Y325504D01*
X144709Y325549D01*
X144746Y325648D01*
X144780Y325721D01*
X144786Y325696D01*
X144811Y325648D01*
X144827Y325597D01*
X144884Y325508D01*
X144933Y325414D01*
X144969Y325373D01*
X144998Y325328D01*
X145074Y325256D01*
X145145Y325177D01*
X145190Y325147D01*
X145229Y325110D01*
X145322Y325059D01*
X145409Y325000D01*
X145489Y324967D01*
X145508Y324956D01*
X145523Y324953D01*
X145558Y324938D01*
X145599Y324923D01*
X145659Y324911D01*
X145717Y324889D01*
X145875Y324860D01*
X146222Y324821D01*
X146518Y324636D01*
X146574Y324610D01*
X146625Y324575D01*
X146774Y324512D01*
X147103Y324397D01*
X147350Y324150D01*
X147399Y324112D01*
X147441Y324067D01*
X147572Y323973D01*
X147867Y323787D01*
X148053Y323492D01*
X148092Y323444D01*
X148124Y323391D01*
X148230Y323270D01*
X148477Y323023D01*
X148592Y322694D01*
X148620Y322638D01*
X148639Y322579D01*
X148716Y322438D01*
X148901Y322142D01*
X148940Y321795D01*
X148955Y321735D01*
X148960Y321673D01*
X149004Y321518D01*
X149036Y321426D01*
X149056Y321386D01*
X149068Y321343D01*
X149086Y321314D01*
X149094Y321285D01*
X149096Y321269D01*
X149101Y321255D01*
X149080Y321192D01*
X149077Y321147D01*
X149066Y321104D01*
X149056Y320943D01*
X149056Y320843D01*
X149057Y320830D01*
X149064Y320701D01*
X149122Y320186D01*
X149113Y320151D01*
X149074Y320025D01*
X149073Y319997D01*
X149066Y319970D01*
X149056Y319809D01*
X149056Y315391D01*
X149059Y315363D01*
X149057Y315335D01*
X149079Y315205D01*
X149096Y315075D01*
X149106Y315049D01*
X149111Y315021D01*
X149120Y315000D01*
X149064Y314499D01*
X149064Y314485D01*
X149056Y314357D01*
X149056Y314257D01*
X149061Y314213D01*
X149059Y314167D01*
X149081Y314055D01*
X149096Y313942D01*
X149102Y313927D01*
X149099Y313922D01*
X149036Y313774D01*
X149004Y313682D01*
X148991Y313621D01*
X148969Y313563D01*
X148940Y313405D01*
X148901Y313058D01*
X148716Y312762D01*
X148690Y312706D01*
X148655Y312655D01*
X148592Y312506D01*
X148477Y312177D01*
X148300Y312000D01*
X148215Y311890D01*
X148126Y311783D01*
X148117Y311765D01*
X148105Y311748D01*
X148049Y311620D01*
X147990Y311495D01*
X147987Y311475D01*
X147979Y311457D01*
X147957Y311319D01*
X147931Y311183D01*
X147932Y311163D01*
X147929Y311143D01*
X147942Y311004D01*
X147950Y310865D01*
X147957Y310846D01*
X147959Y310826D01*
X148006Y310695D01*
X148048Y310563D01*
X148059Y310546D01*
X148066Y310527D01*
X148144Y310412D01*
X148219Y310294D01*
X148233Y310280D01*
X148245Y310264D01*
X148349Y310172D01*
X148450Y310076D01*
X148468Y310066D01*
X148483Y310053D01*
X148607Y309990D01*
X148729Y309923D01*
X148748Y309918D01*
X148766Y309908D01*
X148902Y309878D01*
X149037Y309843D01*
X149065Y309841D01*
X149077Y309839D01*
X149097Y309839D01*
X149197Y309833D01*
X151845Y309833D01*
X154226Y307452D01*
X154226Y304085D01*
X151845Y301704D01*
X148478Y301704D01*
G37*
%LPD*%
%LPC*%
G36*
X88232Y139953D02*
X88232Y139953D01*
X85851Y142334D01*
X85851Y145702D01*
X86953Y146804D01*
X87026Y146898D01*
X87105Y146987D01*
X87123Y147023D01*
X87148Y147055D01*
X87195Y147164D01*
X87249Y147270D01*
X87258Y147309D01*
X87274Y147347D01*
X87293Y147464D01*
X87319Y147580D01*
X87318Y147621D01*
X87324Y147661D01*
X87313Y147779D01*
X87309Y147898D01*
X87298Y147937D01*
X87294Y147977D01*
X87254Y148089D01*
X87221Y148204D01*
X87201Y148239D01*
X87187Y148277D01*
X87120Y148375D01*
X87059Y148478D01*
X87020Y148523D01*
X87008Y148540D01*
X86993Y148553D01*
X86953Y148599D01*
X86105Y149446D01*
X86105Y152814D01*
X88486Y155195D01*
X91854Y155195D01*
X92066Y154982D01*
X92161Y154909D01*
X92250Y154830D01*
X92286Y154812D01*
X92318Y154787D01*
X92427Y154740D01*
X92533Y154686D01*
X92572Y154677D01*
X92610Y154661D01*
X92727Y154642D01*
X92843Y154616D01*
X92884Y154617D01*
X92924Y154611D01*
X93042Y154622D01*
X93161Y154626D01*
X93200Y154637D01*
X93240Y154641D01*
X93352Y154681D01*
X93467Y154714D01*
X93502Y154734D01*
X93540Y154748D01*
X93638Y154815D01*
X93741Y154875D01*
X93786Y154915D01*
X93803Y154927D01*
X93816Y154942D01*
X93861Y154982D01*
X95598Y156719D01*
X98966Y156719D01*
X100703Y154982D01*
X100797Y154909D01*
X100886Y154830D01*
X100922Y154812D01*
X100954Y154787D01*
X101063Y154740D01*
X101169Y154686D01*
X101208Y154677D01*
X101246Y154661D01*
X101363Y154642D01*
X101479Y154616D01*
X101520Y154617D01*
X101560Y154611D01*
X101678Y154622D01*
X101797Y154626D01*
X101836Y154637D01*
X101876Y154641D01*
X101988Y154681D01*
X102103Y154714D01*
X102138Y154734D01*
X102176Y154748D01*
X102274Y154815D01*
X102377Y154876D01*
X102422Y154915D01*
X102439Y154927D01*
X102452Y154942D01*
X102498Y154982D01*
X104234Y156719D01*
X107602Y156719D01*
X109983Y154338D01*
X109983Y150970D01*
X107557Y148545D01*
X107425Y148579D01*
X107397Y148581D01*
X107385Y148584D01*
X107365Y148583D01*
X107265Y148589D01*
X104234Y148589D01*
X102498Y150326D01*
X102403Y150399D01*
X102314Y150478D01*
X102278Y150496D01*
X102246Y150521D01*
X102137Y150568D01*
X102031Y150622D01*
X101992Y150631D01*
X101954Y150647D01*
X101837Y150666D01*
X101721Y150692D01*
X101680Y150691D01*
X101640Y150697D01*
X101522Y150686D01*
X101403Y150682D01*
X101364Y150671D01*
X101324Y150667D01*
X101211Y150627D01*
X101097Y150594D01*
X101063Y150574D01*
X101024Y150560D01*
X100926Y150493D01*
X100823Y150433D01*
X100778Y150393D01*
X100761Y150381D01*
X100748Y150366D01*
X100703Y150326D01*
X98966Y148589D01*
X95598Y148589D01*
X95385Y148802D01*
X95291Y148875D01*
X95202Y148954D01*
X95166Y148972D01*
X95134Y148997D01*
X95025Y149044D01*
X94919Y149098D01*
X94880Y149107D01*
X94842Y149123D01*
X94725Y149142D01*
X94609Y149168D01*
X94568Y149167D01*
X94528Y149173D01*
X94410Y149162D01*
X94291Y149158D01*
X94252Y149147D01*
X94212Y149143D01*
X94099Y149103D01*
X93985Y149070D01*
X93950Y149050D01*
X93912Y149036D01*
X93814Y148969D01*
X93711Y148909D01*
X93666Y148869D01*
X93649Y148857D01*
X93636Y148842D01*
X93590Y148802D01*
X93133Y148345D01*
X93060Y148250D01*
X92981Y148161D01*
X92963Y148125D01*
X92938Y148093D01*
X92891Y147984D01*
X92837Y147878D01*
X92828Y147839D01*
X92812Y147801D01*
X92793Y147684D01*
X92767Y147568D01*
X92768Y147527D01*
X92762Y147487D01*
X92773Y147369D01*
X92777Y147250D01*
X92788Y147211D01*
X92792Y147171D01*
X92832Y147058D01*
X92865Y146944D01*
X92885Y146910D01*
X92899Y146871D01*
X92966Y146773D01*
X93026Y146670D01*
X93066Y146625D01*
X93078Y146608D01*
X93093Y146595D01*
X93133Y146550D01*
X93981Y145702D01*
X93981Y142334D01*
X91600Y139953D01*
X88232Y139953D01*
G37*
%LPD*%
%LPC*%
G36*
X58562Y266050D02*
X58562Y266050D01*
X58500Y266049D01*
X58439Y266058D01*
X58278Y266050D01*
X57931Y266011D01*
X57602Y266126D01*
X57541Y266139D01*
X57483Y266162D01*
X57325Y266190D01*
X56978Y266229D01*
X56682Y266414D01*
X56626Y266440D01*
X56575Y266475D01*
X56426Y266538D01*
X56097Y266653D01*
X55850Y266900D01*
X55801Y266938D01*
X55759Y266983D01*
X55628Y267077D01*
X55333Y267263D01*
X55147Y267558D01*
X55108Y267606D01*
X55076Y267659D01*
X54970Y267780D01*
X54723Y268027D01*
X54608Y268356D01*
X54580Y268412D01*
X54561Y268471D01*
X54484Y268612D01*
X54299Y268908D01*
X54260Y269255D01*
X54248Y269304D01*
X54245Y269351D01*
X54241Y269363D01*
X54240Y269377D01*
X54196Y269532D01*
X54164Y269624D01*
X54144Y269664D01*
X54132Y269707D01*
X54114Y269736D01*
X54106Y269765D01*
X54104Y269781D01*
X54099Y269795D01*
X54120Y269858D01*
X54123Y269903D01*
X54134Y269946D01*
X54144Y270107D01*
X54144Y270207D01*
X54143Y270220D01*
X54136Y270349D01*
X54078Y270864D01*
X54087Y270899D01*
X54126Y271025D01*
X54127Y271053D01*
X54134Y271080D01*
X54144Y271241D01*
X54144Y279012D01*
X54127Y279150D01*
X54114Y279288D01*
X54107Y279307D01*
X54104Y279327D01*
X54053Y279456D01*
X54006Y279587D01*
X53995Y279604D01*
X53987Y279623D01*
X53906Y279735D01*
X53828Y279850D01*
X53812Y279864D01*
X53801Y279880D01*
X53693Y279969D01*
X53589Y280061D01*
X53571Y280070D01*
X53556Y280083D01*
X53430Y280142D01*
X53306Y280205D01*
X53286Y280210D01*
X53268Y280219D01*
X53131Y280245D01*
X52996Y280275D01*
X52975Y280275D01*
X52956Y280278D01*
X52817Y280270D01*
X52678Y280265D01*
X52658Y280260D01*
X52638Y280259D01*
X52506Y280216D01*
X52372Y280177D01*
X52355Y280167D01*
X52336Y280161D01*
X52218Y280086D01*
X52098Y280016D01*
X52077Y279997D01*
X52067Y279990D01*
X52053Y279975D01*
X51978Y279909D01*
X50960Y278891D01*
X47592Y278891D01*
X45211Y281272D01*
X45211Y284640D01*
X47592Y287021D01*
X50960Y287021D01*
X53517Y284464D01*
X53597Y284401D01*
X53672Y284332D01*
X53722Y284304D01*
X53768Y284269D01*
X53862Y284228D01*
X53951Y284179D01*
X54007Y284165D01*
X54060Y284143D01*
X54161Y284127D01*
X54260Y284102D01*
X54317Y284102D01*
X54374Y284093D01*
X54476Y284102D01*
X54578Y284103D01*
X54633Y284117D01*
X54690Y284123D01*
X54787Y284157D01*
X54886Y284183D01*
X54936Y284211D01*
X54990Y284230D01*
X55074Y284288D01*
X55164Y284337D01*
X55183Y284355D01*
X55212Y284371D01*
X55226Y284376D01*
X55244Y284389D01*
X55321Y284430D01*
X55628Y284623D01*
X55676Y284662D01*
X55729Y284694D01*
X55850Y284800D01*
X56097Y285047D01*
X56426Y285162D01*
X56482Y285190D01*
X56541Y285209D01*
X56682Y285286D01*
X56978Y285471D01*
X57325Y285510D01*
X57385Y285525D01*
X57447Y285530D01*
X57602Y285574D01*
X57931Y285689D01*
X58278Y285650D01*
X58340Y285651D01*
X58401Y285642D01*
X58562Y285650D01*
X58909Y285689D01*
X59238Y285574D01*
X59299Y285561D01*
X59357Y285539D01*
X59515Y285510D01*
X59862Y285471D01*
X60158Y285286D01*
X60214Y285260D01*
X60265Y285225D01*
X60414Y285162D01*
X60743Y285047D01*
X60990Y284800D01*
X61039Y284762D01*
X61081Y284717D01*
X61212Y284623D01*
X61507Y284437D01*
X61693Y284142D01*
X61732Y284094D01*
X61764Y284041D01*
X61870Y283920D01*
X62117Y283673D01*
X62232Y283344D01*
X62260Y283288D01*
X62279Y283229D01*
X62356Y283088D01*
X62541Y282792D01*
X62580Y282445D01*
X62595Y282385D01*
X62600Y282323D01*
X62644Y282168D01*
X62676Y282076D01*
X62696Y282036D01*
X62708Y281993D01*
X62726Y281964D01*
X62734Y281935D01*
X62736Y281919D01*
X62741Y281905D01*
X62720Y281842D01*
X62717Y281797D01*
X62706Y281754D01*
X62696Y281593D01*
X62696Y281493D01*
X62697Y281480D01*
X62704Y281351D01*
X62762Y280836D01*
X62753Y280801D01*
X62714Y280675D01*
X62713Y280647D01*
X62706Y280620D01*
X62696Y280459D01*
X62696Y271241D01*
X62699Y271213D01*
X62697Y271185D01*
X62719Y271055D01*
X62736Y270925D01*
X62746Y270899D01*
X62751Y270871D01*
X62760Y270850D01*
X62704Y270349D01*
X62704Y270335D01*
X62696Y270207D01*
X62696Y270107D01*
X62701Y270063D01*
X62699Y270017D01*
X62721Y269905D01*
X62736Y269792D01*
X62742Y269777D01*
X62739Y269772D01*
X62676Y269624D01*
X62644Y269532D01*
X62641Y269519D01*
X62635Y269507D01*
X62626Y269459D01*
X62609Y269413D01*
X62580Y269255D01*
X62541Y268908D01*
X62356Y268612D01*
X62329Y268556D01*
X62295Y268505D01*
X62232Y268356D01*
X62117Y268027D01*
X61870Y267780D01*
X61832Y267731D01*
X61787Y267689D01*
X61693Y267558D01*
X61507Y267263D01*
X61212Y267077D01*
X61164Y267038D01*
X61111Y267006D01*
X60990Y266900D01*
X60743Y266653D01*
X60414Y266538D01*
X60358Y266510D01*
X60299Y266491D01*
X60158Y266414D01*
X59862Y266229D01*
X59515Y266190D01*
X59455Y266175D01*
X59393Y266170D01*
X59238Y266126D01*
X58909Y266011D01*
X58562Y266050D01*
G37*
%LPD*%
%LPC*%
G36*
X58562Y310200D02*
X58562Y310200D01*
X58500Y310199D01*
X58439Y310208D01*
X58278Y310200D01*
X57931Y310161D01*
X57602Y310276D01*
X57541Y310289D01*
X57483Y310312D01*
X57325Y310340D01*
X56978Y310379D01*
X56682Y310564D01*
X56626Y310590D01*
X56575Y310625D01*
X56426Y310688D01*
X56097Y310803D01*
X55850Y311050D01*
X55801Y311088D01*
X55759Y311133D01*
X55628Y311227D01*
X55333Y311413D01*
X55147Y311708D01*
X55108Y311756D01*
X55076Y311809D01*
X54970Y311930D01*
X54723Y312177D01*
X54608Y312506D01*
X54580Y312562D01*
X54561Y312621D01*
X54484Y312762D01*
X54299Y313058D01*
X54260Y313405D01*
X54245Y313465D01*
X54240Y313527D01*
X54196Y313682D01*
X54164Y313774D01*
X54144Y313814D01*
X54131Y313858D01*
X54114Y313887D01*
X54106Y313915D01*
X54104Y313931D01*
X54099Y313945D01*
X54120Y314008D01*
X54123Y314053D01*
X54134Y314096D01*
X54144Y314257D01*
X54144Y314357D01*
X54143Y314370D01*
X54136Y314499D01*
X54078Y315014D01*
X54087Y315049D01*
X54126Y315175D01*
X54127Y315203D01*
X54134Y315230D01*
X54144Y315391D01*
X54144Y319809D01*
X54141Y319837D01*
X54143Y319865D01*
X54121Y319995D01*
X54104Y320125D01*
X54094Y320151D01*
X54089Y320179D01*
X54080Y320200D01*
X54136Y320701D01*
X54136Y320715D01*
X54144Y320843D01*
X54144Y320943D01*
X54139Y320987D01*
X54141Y321033D01*
X54119Y321145D01*
X54104Y321258D01*
X54099Y321273D01*
X54101Y321278D01*
X54164Y321426D01*
X54196Y321518D01*
X54209Y321579D01*
X54232Y321637D01*
X54260Y321795D01*
X54299Y322142D01*
X54484Y322438D01*
X54510Y322494D01*
X54545Y322545D01*
X54608Y322694D01*
X54723Y323023D01*
X54970Y323270D01*
X55008Y323319D01*
X55053Y323361D01*
X55147Y323492D01*
X55333Y323787D01*
X55628Y323973D01*
X55676Y324012D01*
X55729Y324044D01*
X55850Y324150D01*
X56097Y324397D01*
X56426Y324512D01*
X56482Y324540D01*
X56541Y324559D01*
X56682Y324636D01*
X56978Y324821D01*
X57325Y324860D01*
X57385Y324875D01*
X57446Y324880D01*
X57601Y324923D01*
X57642Y324938D01*
X57737Y324985D01*
X57835Y325024D01*
X57879Y325055D01*
X57927Y325079D01*
X58007Y325148D01*
X58092Y325210D01*
X58127Y325252D01*
X58168Y325287D01*
X58228Y325374D01*
X58295Y325455D01*
X58318Y325504D01*
X58349Y325549D01*
X58386Y325648D01*
X58420Y325721D01*
X58426Y325696D01*
X58451Y325648D01*
X58467Y325597D01*
X58524Y325508D01*
X58573Y325414D01*
X58609Y325373D01*
X58638Y325328D01*
X58714Y325256D01*
X58785Y325177D01*
X58830Y325147D01*
X58869Y325110D01*
X58962Y325059D01*
X59049Y325000D01*
X59129Y324967D01*
X59148Y324956D01*
X59163Y324953D01*
X59198Y324938D01*
X59239Y324923D01*
X59299Y324911D01*
X59357Y324889D01*
X59515Y324860D01*
X59862Y324821D01*
X60158Y324636D01*
X60214Y324610D01*
X60265Y324575D01*
X60414Y324512D01*
X60743Y324397D01*
X60990Y324150D01*
X61039Y324112D01*
X61081Y324067D01*
X61212Y323973D01*
X61507Y323787D01*
X61638Y323580D01*
X61702Y323501D01*
X61760Y323417D01*
X61803Y323379D01*
X61839Y323334D01*
X61922Y323274D01*
X61998Y323206D01*
X62049Y323180D01*
X62096Y323146D01*
X62190Y323108D01*
X62281Y323062D01*
X62337Y323049D01*
X62391Y323028D01*
X62492Y323014D01*
X62592Y322992D01*
X62649Y322994D01*
X62706Y322986D01*
X62808Y322999D01*
X62910Y323002D01*
X62965Y323018D01*
X63022Y323025D01*
X63117Y323062D01*
X63215Y323090D01*
X63265Y323119D01*
X63318Y323140D01*
X63401Y323200D01*
X63489Y323252D01*
X63559Y323314D01*
X63576Y323326D01*
X63585Y323337D01*
X63610Y323358D01*
X64356Y324105D01*
X67724Y324105D01*
X70105Y321724D01*
X70105Y318356D01*
X67724Y315975D01*
X64004Y315975D01*
X63957Y315969D01*
X63908Y315972D01*
X63799Y315949D01*
X63689Y315935D01*
X63644Y315918D01*
X63597Y315908D01*
X63497Y315859D01*
X63393Y315818D01*
X63354Y315790D01*
X63311Y315769D01*
X63226Y315697D01*
X63136Y315632D01*
X63105Y315594D01*
X63068Y315563D01*
X63004Y315472D01*
X62933Y315387D01*
X62912Y315343D01*
X62885Y315304D01*
X62845Y315199D01*
X62797Y315099D01*
X62788Y315052D01*
X62771Y315007D01*
X62743Y314848D01*
X62704Y314499D01*
X62704Y314485D01*
X62696Y314357D01*
X62696Y314257D01*
X62701Y314213D01*
X62699Y314167D01*
X62721Y314055D01*
X62736Y313942D01*
X62742Y313927D01*
X62739Y313922D01*
X62676Y313774D01*
X62644Y313682D01*
X62631Y313621D01*
X62609Y313563D01*
X62580Y313405D01*
X62541Y313058D01*
X62356Y312762D01*
X62330Y312706D01*
X62295Y312655D01*
X62232Y312506D01*
X62117Y312177D01*
X61870Y311930D01*
X61832Y311881D01*
X61787Y311839D01*
X61693Y311708D01*
X61507Y311412D01*
X61212Y311227D01*
X61164Y311188D01*
X61111Y311156D01*
X60990Y311050D01*
X60743Y310803D01*
X60414Y310688D01*
X60358Y310660D01*
X60299Y310641D01*
X60158Y310564D01*
X59862Y310379D01*
X59515Y310340D01*
X59455Y310325D01*
X59393Y310320D01*
X59238Y310276D01*
X58909Y310161D01*
X58562Y310200D01*
G37*
%LPD*%
%LPC*%
G36*
X144922Y266050D02*
X144922Y266050D01*
X144860Y266049D01*
X144799Y266058D01*
X144638Y266050D01*
X144291Y266011D01*
X143962Y266126D01*
X143901Y266139D01*
X143843Y266162D01*
X143685Y266190D01*
X143338Y266229D01*
X143042Y266414D01*
X142986Y266440D01*
X142935Y266475D01*
X142786Y266538D01*
X142457Y266653D01*
X142210Y266900D01*
X142161Y266938D01*
X142119Y266983D01*
X141988Y267077D01*
X141693Y267263D01*
X141507Y267558D01*
X141468Y267606D01*
X141436Y267659D01*
X141330Y267780D01*
X141083Y268027D01*
X140968Y268356D01*
X140940Y268412D01*
X140921Y268471D01*
X140844Y268612D01*
X140659Y268908D01*
X140620Y269255D01*
X140608Y269304D01*
X140605Y269351D01*
X140601Y269363D01*
X140600Y269377D01*
X140556Y269532D01*
X140524Y269624D01*
X140504Y269664D01*
X140492Y269707D01*
X140474Y269736D01*
X140466Y269765D01*
X140464Y269781D01*
X140459Y269795D01*
X140480Y269858D01*
X140483Y269903D01*
X140494Y269946D01*
X140504Y270107D01*
X140504Y270207D01*
X140503Y270220D01*
X140496Y270349D01*
X140438Y270864D01*
X140447Y270899D01*
X140486Y271025D01*
X140487Y271053D01*
X140494Y271080D01*
X140504Y271241D01*
X140504Y280459D01*
X140501Y280487D01*
X140503Y280515D01*
X140481Y280645D01*
X140464Y280775D01*
X140454Y280801D01*
X140449Y280829D01*
X140440Y280850D01*
X140496Y281351D01*
X140496Y281365D01*
X140504Y281493D01*
X140504Y281593D01*
X140499Y281637D01*
X140501Y281683D01*
X140479Y281795D01*
X140464Y281908D01*
X140459Y281923D01*
X140461Y281928D01*
X140524Y282076D01*
X140556Y282168D01*
X140569Y282229D01*
X140592Y282287D01*
X140620Y282445D01*
X140659Y282792D01*
X140844Y283088D01*
X140870Y283144D01*
X140905Y283195D01*
X140968Y283344D01*
X141083Y283673D01*
X141330Y283920D01*
X141368Y283969D01*
X141413Y284011D01*
X141507Y284142D01*
X141693Y284437D01*
X141988Y284623D01*
X142036Y284662D01*
X142089Y284694D01*
X142210Y284800D01*
X142457Y285047D01*
X142786Y285162D01*
X142842Y285190D01*
X142901Y285209D01*
X143042Y285286D01*
X143338Y285471D01*
X143685Y285510D01*
X143745Y285525D01*
X143807Y285530D01*
X143962Y285574D01*
X144291Y285689D01*
X144638Y285650D01*
X144700Y285651D01*
X144761Y285642D01*
X144922Y285650D01*
X145269Y285689D01*
X145598Y285574D01*
X145659Y285561D01*
X145717Y285539D01*
X145875Y285510D01*
X146222Y285471D01*
X146518Y285286D01*
X146574Y285260D01*
X146625Y285225D01*
X146774Y285162D01*
X147103Y285047D01*
X147350Y284800D01*
X147399Y284762D01*
X147441Y284717D01*
X147572Y284623D01*
X147867Y284437D01*
X148053Y284142D01*
X148092Y284094D01*
X148124Y284041D01*
X148230Y283920D01*
X148477Y283673D01*
X148592Y283344D01*
X148620Y283288D01*
X148639Y283229D01*
X148716Y283088D01*
X148901Y282792D01*
X148940Y282445D01*
X148955Y282385D01*
X148960Y282323D01*
X149004Y282168D01*
X149036Y282076D01*
X149056Y282036D01*
X149068Y281993D01*
X149086Y281964D01*
X149094Y281935D01*
X149096Y281919D01*
X149101Y281905D01*
X149080Y281842D01*
X149077Y281797D01*
X149066Y281754D01*
X149056Y281593D01*
X149056Y281493D01*
X149057Y281480D01*
X149064Y281351D01*
X149122Y280836D01*
X149113Y280801D01*
X149074Y280675D01*
X149073Y280647D01*
X149066Y280620D01*
X149056Y280459D01*
X149056Y271241D01*
X149059Y271213D01*
X149057Y271185D01*
X149079Y271055D01*
X149096Y270925D01*
X149106Y270899D01*
X149111Y270871D01*
X149120Y270850D01*
X149064Y270349D01*
X149064Y270335D01*
X149056Y270207D01*
X149056Y270107D01*
X149061Y270063D01*
X149059Y270017D01*
X149081Y269905D01*
X149096Y269792D01*
X149102Y269777D01*
X149099Y269772D01*
X149036Y269624D01*
X149004Y269532D01*
X149001Y269519D01*
X148995Y269507D01*
X148986Y269459D01*
X148969Y269413D01*
X148940Y269255D01*
X148901Y268908D01*
X148716Y268612D01*
X148690Y268556D01*
X148655Y268505D01*
X148592Y268356D01*
X148477Y268027D01*
X148230Y267780D01*
X148192Y267731D01*
X148147Y267689D01*
X148053Y267558D01*
X147867Y267262D01*
X147572Y267077D01*
X147524Y267038D01*
X147471Y267006D01*
X147350Y266900D01*
X147103Y266653D01*
X146774Y266538D01*
X146718Y266510D01*
X146659Y266491D01*
X146518Y266414D01*
X146222Y266229D01*
X145875Y266190D01*
X145815Y266175D01*
X145753Y266170D01*
X145598Y266126D01*
X145269Y266011D01*
X144922Y266050D01*
G37*
%LPD*%
%LPC*%
G36*
X79088Y275589D02*
X79088Y275589D01*
X77567Y277110D01*
X77473Y277183D01*
X77384Y277262D01*
X77348Y277281D01*
X77316Y277305D01*
X77207Y277353D01*
X77101Y277407D01*
X77061Y277416D01*
X77024Y277432D01*
X76906Y277450D01*
X76790Y277476D01*
X76750Y277475D01*
X76710Y277482D01*
X76591Y277470D01*
X76472Y277467D01*
X76434Y277456D01*
X76393Y277452D01*
X76281Y277412D01*
X76167Y277378D01*
X76132Y277358D01*
X76094Y277344D01*
X75996Y277277D01*
X75893Y277217D01*
X75848Y277177D01*
X75831Y277166D01*
X75817Y277150D01*
X75772Y277110D01*
X75548Y276887D01*
X73700Y276121D01*
X71700Y276121D01*
X69851Y276887D01*
X68437Y278301D01*
X67671Y280150D01*
X67671Y282150D01*
X68437Y283998D01*
X69851Y285413D01*
X71700Y286179D01*
X73700Y286179D01*
X75549Y285413D01*
X76973Y283989D01*
X76982Y283963D01*
X77044Y283872D01*
X77098Y283777D01*
X77133Y283741D01*
X77161Y283700D01*
X77243Y283627D01*
X77319Y283548D01*
X77362Y283522D01*
X77399Y283489D01*
X77497Y283439D01*
X77591Y283382D01*
X77638Y283367D01*
X77682Y283345D01*
X77790Y283321D01*
X77895Y283288D01*
X77944Y283286D01*
X77993Y283275D01*
X78103Y283278D01*
X78212Y283273D01*
X78261Y283283D01*
X78311Y283285D01*
X78416Y283315D01*
X78524Y283338D01*
X78568Y283359D01*
X78616Y283373D01*
X78711Y283429D01*
X78809Y283477D01*
X78847Y283510D01*
X78890Y283535D01*
X79011Y283641D01*
X79088Y283719D01*
X82456Y283719D01*
X84837Y281338D01*
X84837Y277970D01*
X82456Y275589D01*
X79088Y275589D01*
G37*
%LPD*%
%LPC*%
G36*
X120994Y275081D02*
X120994Y275081D01*
X118613Y277462D01*
X118613Y280830D01*
X120994Y283211D01*
X124470Y283211D01*
X124556Y283181D01*
X124657Y283137D01*
X124706Y283130D01*
X124753Y283114D01*
X124862Y283105D01*
X124971Y283088D01*
X125020Y283092D01*
X125070Y283088D01*
X125178Y283107D01*
X125287Y283117D01*
X125334Y283134D01*
X125383Y283143D01*
X125483Y283188D01*
X125587Y283225D01*
X125628Y283253D01*
X125673Y283273D01*
X125759Y283342D01*
X125850Y283403D01*
X125883Y283441D01*
X125922Y283472D01*
X125988Y283560D01*
X126060Y283642D01*
X126083Y283686D01*
X126113Y283726D01*
X126184Y283870D01*
X126237Y283999D01*
X127651Y285413D01*
X129500Y286179D01*
X131500Y286179D01*
X133349Y285413D01*
X134763Y283998D01*
X135529Y282150D01*
X135529Y280150D01*
X134763Y278301D01*
X133349Y276887D01*
X131500Y276121D01*
X129500Y276121D01*
X127543Y276932D01*
X127447Y276974D01*
X127340Y277028D01*
X127301Y277037D01*
X127265Y277053D01*
X127147Y277071D01*
X127030Y277097D01*
X126990Y277096D01*
X126950Y277103D01*
X126831Y277091D01*
X126712Y277088D01*
X126674Y277077D01*
X126634Y277073D01*
X126521Y277033D01*
X126407Y276999D01*
X126372Y276979D01*
X126334Y276966D01*
X126235Y276898D01*
X126133Y276838D01*
X126088Y276799D01*
X126071Y276787D01*
X126058Y276772D01*
X126012Y276731D01*
X124362Y275081D01*
X120994Y275081D01*
G37*
%LPD*%
%LPC*%
G36*
X172640Y57798D02*
X172640Y57798D01*
X171449Y58989D01*
X171449Y63994D01*
X172959Y66071D01*
X175401Y66865D01*
X177129Y66304D01*
X177130Y66303D01*
X177287Y66273D01*
X177441Y66244D01*
X177442Y66244D01*
X177604Y66254D01*
X177758Y66263D01*
X177759Y66264D01*
X177760Y66264D01*
X177761Y66264D01*
X177914Y66303D01*
X179719Y66890D01*
X182458Y66000D01*
X184151Y63670D01*
X184151Y58989D01*
X182960Y57798D01*
X181276Y57798D01*
X180137Y58938D01*
X180043Y59011D01*
X179954Y59089D01*
X179917Y59108D01*
X179886Y59132D01*
X179776Y59180D01*
X179670Y59234D01*
X179631Y59243D01*
X179594Y59259D01*
X179476Y59278D01*
X179360Y59304D01*
X179320Y59302D01*
X179280Y59309D01*
X179161Y59298D01*
X179042Y59294D01*
X179003Y59283D01*
X178963Y59279D01*
X178851Y59239D01*
X178737Y59206D01*
X178702Y59185D01*
X178664Y59171D01*
X178565Y59104D01*
X178463Y59044D01*
X178417Y59004D01*
X178401Y58993D01*
X178387Y58977D01*
X178342Y58938D01*
X178162Y58758D01*
X176295Y58758D01*
X176272Y58763D01*
X176236Y58779D01*
X176118Y58798D01*
X176002Y58824D01*
X175961Y58823D01*
X175921Y58829D01*
X175803Y58818D01*
X175684Y58814D01*
X175645Y58803D01*
X175605Y58799D01*
X175493Y58759D01*
X175378Y58726D01*
X175343Y58705D01*
X175306Y58692D01*
X175207Y58625D01*
X175104Y58564D01*
X175059Y58525D01*
X175042Y58513D01*
X175029Y58498D01*
X174983Y58458D01*
X174324Y57798D01*
X172640Y57798D01*
G37*
%LPD*%
G36*
X59088Y267421D02*
X59088Y267421D01*
X59088Y267422D01*
X59089Y267421D01*
X59723Y267643D01*
X59723Y267644D01*
X59724Y267644D01*
X60293Y268001D01*
X60293Y268002D01*
X60769Y268477D01*
X61127Y269046D01*
X61126Y269047D01*
X61127Y269047D01*
X61349Y269681D01*
X61349Y269682D01*
X61350Y269687D01*
X61350Y269691D01*
X61351Y269700D01*
X61351Y269704D01*
X61352Y269704D01*
X61351Y269704D01*
X61352Y269712D01*
X61352Y269713D01*
X61353Y269717D01*
X61354Y269725D01*
X61354Y269729D01*
X61354Y269730D01*
X61355Y269738D01*
X61356Y269742D01*
X61357Y269751D01*
X61357Y269755D01*
X61358Y269763D01*
X61358Y269764D01*
X61359Y269768D01*
X61360Y269776D01*
X61360Y269780D01*
X61360Y269781D01*
X61361Y269785D01*
X61361Y269789D01*
X61362Y269793D01*
X61362Y269797D01*
X61362Y269798D01*
X61363Y269802D01*
X61363Y269806D01*
X61363Y269810D01*
X61364Y269819D01*
X61365Y269823D01*
X61366Y269831D01*
X61366Y269832D01*
X61366Y269836D01*
X61367Y269844D01*
X61368Y269848D01*
X61368Y269849D01*
X61369Y269857D01*
X61369Y269861D01*
X61370Y269870D01*
X61371Y269874D01*
X61372Y269882D01*
X61372Y269883D01*
X61372Y269887D01*
X61373Y269895D01*
X61374Y269899D01*
X61374Y269900D01*
X61374Y269908D01*
X61375Y269908D01*
X61374Y269908D01*
X61375Y269912D01*
X61376Y269921D01*
X61376Y269925D01*
X61377Y269929D01*
X61377Y269933D01*
X61377Y269934D01*
X61378Y269938D01*
X61378Y269942D01*
X61379Y269946D01*
X61379Y269950D01*
X61379Y269951D01*
X61380Y269955D01*
X61381Y269963D01*
X61381Y269967D01*
X61381Y269968D01*
X61382Y269976D01*
X61383Y269980D01*
X61384Y269989D01*
X61384Y269993D01*
X61385Y270001D01*
X61385Y270002D01*
X61385Y270006D01*
X61386Y270006D01*
X61385Y270006D01*
X61386Y270014D01*
X61387Y270018D01*
X61387Y270019D01*
X61388Y270027D01*
X61388Y270031D01*
X61389Y270040D01*
X61390Y270044D01*
X61391Y270052D01*
X61391Y270053D01*
X61391Y270057D01*
X61392Y270065D01*
X61393Y270069D01*
X61393Y270070D01*
X61394Y270078D01*
X61394Y270082D01*
X61395Y270086D01*
X61395Y270087D01*
X61395Y270091D01*
X61396Y270095D01*
X61396Y270099D01*
X61397Y270103D01*
X61397Y270104D01*
X61397Y270108D01*
X61397Y270112D01*
X61398Y270120D01*
X61398Y270121D01*
X61399Y270125D01*
X61400Y270133D01*
X61400Y270137D01*
X61400Y270138D01*
X61401Y270146D01*
X61402Y270150D01*
X61403Y270159D01*
X61403Y270163D01*
X61404Y270171D01*
X61404Y270172D01*
X61405Y270176D01*
X61406Y270184D01*
X61406Y270188D01*
X61406Y270189D01*
X61407Y270197D01*
X61408Y270201D01*
X61408Y270210D01*
X61409Y270210D01*
X61408Y270210D01*
X61409Y270214D01*
X61410Y270222D01*
X61410Y270223D01*
X61410Y270227D01*
X61411Y270235D01*
X61412Y270239D01*
X61412Y270240D01*
X61412Y270244D01*
X61413Y270248D01*
X61413Y270252D01*
X61414Y270256D01*
X61414Y270257D01*
X61415Y270265D01*
X61415Y270269D01*
X61416Y270278D01*
X61417Y270282D01*
X61418Y270290D01*
X61418Y270291D01*
X61418Y270295D01*
X61419Y270303D01*
X61419Y270307D01*
X61420Y270307D01*
X61419Y270308D01*
X61420Y270316D01*
X61421Y270320D01*
X61422Y270329D01*
X61422Y270333D01*
X61423Y270341D01*
X61423Y270342D01*
X61424Y270346D01*
X61424Y270350D01*
X61424Y281350D01*
X61349Y282018D01*
X61349Y282019D01*
X61127Y282653D01*
X61126Y282653D01*
X61127Y282654D01*
X60769Y283223D01*
X60768Y283223D01*
X60769Y283223D01*
X60293Y283699D01*
X59724Y284057D01*
X59723Y284056D01*
X59723Y284057D01*
X59089Y284279D01*
X59088Y284279D01*
X58420Y284354D01*
X57752Y284279D01*
X57751Y284279D01*
X57117Y284057D01*
X57117Y284056D01*
X57116Y284057D01*
X56547Y283699D01*
X56547Y283698D01*
X56547Y283699D01*
X56072Y283223D01*
X56071Y283223D01*
X55714Y282654D01*
X55714Y282653D01*
X55713Y282653D01*
X55491Y282019D01*
X55491Y282018D01*
X55490Y282013D01*
X55490Y282009D01*
X55489Y282000D01*
X55489Y281996D01*
X55488Y281988D01*
X55487Y281983D01*
X55486Y281975D01*
X55486Y281971D01*
X55485Y281962D01*
X55484Y281958D01*
X55483Y281949D01*
X55483Y281945D01*
X55482Y281937D01*
X55481Y281932D01*
X55480Y281924D01*
X55480Y281920D01*
X55479Y281915D01*
X55479Y281911D01*
X55478Y281907D01*
X55478Y281903D01*
X55478Y281898D01*
X55477Y281898D01*
X55478Y281898D01*
X55477Y281894D01*
X55477Y281890D01*
X55476Y281881D01*
X55475Y281877D01*
X55474Y281869D01*
X55474Y281864D01*
X55473Y281856D01*
X55472Y281852D01*
X55471Y281843D01*
X55471Y281839D01*
X55470Y281830D01*
X55469Y281826D01*
X55468Y281818D01*
X55468Y281813D01*
X55467Y281805D01*
X55467Y281801D01*
X55466Y281801D01*
X55467Y281801D01*
X55466Y281792D01*
X55465Y281788D01*
X55464Y281779D01*
X55464Y281775D01*
X55463Y281771D01*
X55463Y281767D01*
X55462Y281762D01*
X55462Y281758D01*
X55461Y281754D01*
X55461Y281750D01*
X55460Y281745D01*
X55459Y281737D01*
X55459Y281733D01*
X55458Y281724D01*
X55457Y281720D01*
X55456Y281711D01*
X55456Y281707D01*
X55455Y281699D01*
X55455Y281694D01*
X55454Y281686D01*
X55453Y281682D01*
X55452Y281673D01*
X55452Y281669D01*
X55451Y281660D01*
X55450Y281656D01*
X55449Y281648D01*
X55449Y281643D01*
X55448Y281635D01*
X55447Y281631D01*
X55446Y281622D01*
X55446Y281618D01*
X55445Y281614D01*
X55445Y281609D01*
X55444Y281605D01*
X55444Y281601D01*
X55444Y281597D01*
X55443Y281597D01*
X55444Y281597D01*
X55443Y281592D01*
X55443Y281588D01*
X55442Y281580D01*
X55441Y281575D01*
X55440Y281567D01*
X55440Y281563D01*
X55439Y281554D01*
X55438Y281550D01*
X55437Y281541D01*
X55437Y281537D01*
X55436Y281529D01*
X55435Y281524D01*
X55434Y281516D01*
X55434Y281512D01*
X55433Y281503D01*
X55433Y281499D01*
X55432Y281499D01*
X55433Y281499D01*
X55432Y281490D01*
X55431Y281486D01*
X55430Y281478D01*
X55430Y281473D01*
X55429Y281465D01*
X55428Y281461D01*
X55428Y281456D01*
X55427Y281452D01*
X55427Y281448D01*
X55426Y281444D01*
X55425Y281435D01*
X55425Y281431D01*
X55424Y281422D01*
X55423Y281418D01*
X55422Y281410D01*
X55422Y281405D01*
X55421Y281397D01*
X55421Y281393D01*
X55420Y281384D01*
X55419Y281380D01*
X55418Y281371D01*
X55418Y281367D01*
X55417Y281359D01*
X55416Y281354D01*
X55416Y281350D01*
X55416Y270350D01*
X55491Y269682D01*
X55492Y269682D01*
X55491Y269681D01*
X55713Y269047D01*
X55714Y269047D01*
X55714Y269046D01*
X56071Y268477D01*
X56072Y268477D01*
X56547Y268002D01*
X56547Y268001D01*
X57116Y267644D01*
X57117Y267644D01*
X57117Y267643D01*
X57751Y267421D01*
X57752Y267421D01*
X58420Y267346D01*
X59088Y267421D01*
G37*
G36*
X145448Y267421D02*
X145448Y267421D01*
X145448Y267422D01*
X145449Y267421D01*
X146083Y267643D01*
X146083Y267644D01*
X146084Y267644D01*
X146653Y268001D01*
X146653Y268002D01*
X147129Y268477D01*
X147487Y269046D01*
X147486Y269047D01*
X147487Y269047D01*
X147709Y269681D01*
X147709Y269682D01*
X147710Y269687D01*
X147710Y269691D01*
X147711Y269700D01*
X147711Y269704D01*
X147712Y269704D01*
X147711Y269704D01*
X147712Y269712D01*
X147712Y269713D01*
X147713Y269717D01*
X147714Y269725D01*
X147714Y269729D01*
X147714Y269730D01*
X147715Y269738D01*
X147716Y269742D01*
X147717Y269751D01*
X147717Y269755D01*
X147718Y269763D01*
X147718Y269764D01*
X147719Y269768D01*
X147720Y269776D01*
X147720Y269780D01*
X147720Y269781D01*
X147721Y269785D01*
X147721Y269789D01*
X147722Y269793D01*
X147722Y269797D01*
X147722Y269798D01*
X147723Y269802D01*
X147723Y269806D01*
X147723Y269810D01*
X147724Y269819D01*
X147725Y269823D01*
X147726Y269831D01*
X147726Y269832D01*
X147726Y269836D01*
X147727Y269844D01*
X147728Y269848D01*
X147728Y269849D01*
X147729Y269857D01*
X147729Y269861D01*
X147730Y269870D01*
X147731Y269874D01*
X147732Y269882D01*
X147732Y269883D01*
X147732Y269887D01*
X147733Y269895D01*
X147734Y269899D01*
X147734Y269900D01*
X147734Y269908D01*
X147735Y269908D01*
X147734Y269908D01*
X147735Y269912D01*
X147736Y269921D01*
X147736Y269925D01*
X147737Y269929D01*
X147737Y269933D01*
X147737Y269934D01*
X147738Y269938D01*
X147738Y269942D01*
X147739Y269946D01*
X147739Y269950D01*
X147739Y269951D01*
X147740Y269955D01*
X147741Y269963D01*
X147741Y269967D01*
X147741Y269968D01*
X147742Y269976D01*
X147743Y269980D01*
X147744Y269989D01*
X147744Y269993D01*
X147745Y270001D01*
X147745Y270002D01*
X147745Y270006D01*
X147746Y270006D01*
X147745Y270006D01*
X147746Y270014D01*
X147747Y270018D01*
X147747Y270019D01*
X147748Y270027D01*
X147748Y270031D01*
X147749Y270040D01*
X147750Y270044D01*
X147751Y270052D01*
X147751Y270053D01*
X147751Y270057D01*
X147752Y270065D01*
X147753Y270069D01*
X147753Y270070D01*
X147754Y270078D01*
X147754Y270082D01*
X147755Y270086D01*
X147755Y270087D01*
X147755Y270091D01*
X147756Y270095D01*
X147756Y270099D01*
X147757Y270103D01*
X147757Y270104D01*
X147757Y270108D01*
X147757Y270112D01*
X147758Y270120D01*
X147758Y270121D01*
X147759Y270125D01*
X147760Y270133D01*
X147760Y270137D01*
X147760Y270138D01*
X147761Y270146D01*
X147762Y270150D01*
X147763Y270159D01*
X147763Y270163D01*
X147764Y270171D01*
X147764Y270172D01*
X147765Y270176D01*
X147766Y270184D01*
X147766Y270188D01*
X147766Y270189D01*
X147767Y270197D01*
X147768Y270201D01*
X147768Y270210D01*
X147769Y270210D01*
X147768Y270210D01*
X147769Y270214D01*
X147770Y270222D01*
X147770Y270223D01*
X147770Y270227D01*
X147771Y270235D01*
X147772Y270239D01*
X147772Y270240D01*
X147772Y270244D01*
X147773Y270248D01*
X147773Y270252D01*
X147774Y270256D01*
X147774Y270257D01*
X147775Y270265D01*
X147775Y270269D01*
X147776Y270278D01*
X147777Y270282D01*
X147778Y270290D01*
X147778Y270291D01*
X147778Y270295D01*
X147779Y270303D01*
X147779Y270307D01*
X147780Y270307D01*
X147779Y270308D01*
X147780Y270316D01*
X147781Y270320D01*
X147782Y270329D01*
X147782Y270333D01*
X147783Y270341D01*
X147783Y270342D01*
X147784Y270346D01*
X147784Y270350D01*
X147784Y281350D01*
X147709Y282018D01*
X147709Y282019D01*
X147487Y282653D01*
X147486Y282653D01*
X147487Y282654D01*
X147129Y283223D01*
X147128Y283223D01*
X147129Y283223D01*
X146653Y283699D01*
X146084Y284057D01*
X146083Y284056D01*
X146083Y284057D01*
X145449Y284279D01*
X145448Y284279D01*
X144780Y284354D01*
X144112Y284279D01*
X144111Y284279D01*
X143477Y284057D01*
X143477Y284056D01*
X143476Y284057D01*
X142907Y283699D01*
X142907Y283698D01*
X142907Y283699D01*
X142432Y283223D01*
X142431Y283223D01*
X142074Y282654D01*
X142074Y282653D01*
X142073Y282653D01*
X141851Y282019D01*
X141851Y282018D01*
X141850Y282013D01*
X141850Y282009D01*
X141849Y282000D01*
X141849Y281996D01*
X141848Y281988D01*
X141847Y281983D01*
X141846Y281975D01*
X141846Y281971D01*
X141845Y281962D01*
X141844Y281958D01*
X141843Y281949D01*
X141843Y281945D01*
X141842Y281937D01*
X141841Y281932D01*
X141840Y281924D01*
X141840Y281920D01*
X141839Y281915D01*
X141839Y281911D01*
X141838Y281907D01*
X141838Y281903D01*
X141838Y281898D01*
X141837Y281898D01*
X141838Y281898D01*
X141837Y281894D01*
X141837Y281890D01*
X141836Y281881D01*
X141835Y281877D01*
X141834Y281869D01*
X141834Y281864D01*
X141833Y281856D01*
X141832Y281852D01*
X141831Y281843D01*
X141831Y281839D01*
X141830Y281830D01*
X141829Y281826D01*
X141828Y281818D01*
X141828Y281813D01*
X141827Y281805D01*
X141827Y281801D01*
X141826Y281801D01*
X141827Y281801D01*
X141826Y281792D01*
X141825Y281788D01*
X141824Y281779D01*
X141824Y281775D01*
X141823Y281771D01*
X141823Y281767D01*
X141822Y281762D01*
X141822Y281758D01*
X141821Y281754D01*
X141821Y281750D01*
X141820Y281745D01*
X141819Y281737D01*
X141819Y281733D01*
X141818Y281724D01*
X141817Y281720D01*
X141816Y281711D01*
X141816Y281707D01*
X141815Y281699D01*
X141815Y281694D01*
X141814Y281686D01*
X141813Y281682D01*
X141812Y281673D01*
X141812Y281669D01*
X141811Y281660D01*
X141810Y281656D01*
X141809Y281648D01*
X141809Y281643D01*
X141808Y281635D01*
X141807Y281631D01*
X141806Y281622D01*
X141806Y281618D01*
X141805Y281614D01*
X141805Y281609D01*
X141804Y281605D01*
X141804Y281601D01*
X141804Y281597D01*
X141803Y281597D01*
X141804Y281597D01*
X141803Y281592D01*
X141803Y281588D01*
X141802Y281580D01*
X141801Y281575D01*
X141800Y281567D01*
X141800Y281563D01*
X141799Y281554D01*
X141798Y281550D01*
X141797Y281541D01*
X141797Y281537D01*
X141796Y281529D01*
X141795Y281524D01*
X141794Y281516D01*
X141794Y281512D01*
X141793Y281503D01*
X141793Y281499D01*
X141792Y281499D01*
X141793Y281499D01*
X141792Y281490D01*
X141791Y281486D01*
X141790Y281478D01*
X141790Y281473D01*
X141789Y281465D01*
X141788Y281461D01*
X141788Y281456D01*
X141787Y281452D01*
X141787Y281448D01*
X141786Y281444D01*
X141785Y281435D01*
X141785Y281431D01*
X141784Y281422D01*
X141783Y281418D01*
X141782Y281410D01*
X141782Y281405D01*
X141781Y281397D01*
X141781Y281393D01*
X141780Y281384D01*
X141779Y281380D01*
X141778Y281371D01*
X141778Y281367D01*
X141777Y281359D01*
X141776Y281354D01*
X141776Y281350D01*
X141776Y270350D01*
X141851Y269682D01*
X141852Y269682D01*
X141851Y269681D01*
X142073Y269047D01*
X142074Y269047D01*
X142074Y269046D01*
X142431Y268477D01*
X142432Y268477D01*
X142907Y268002D01*
X142907Y268001D01*
X143476Y267644D01*
X143477Y267644D01*
X143477Y267643D01*
X144111Y267421D01*
X144112Y267421D01*
X144780Y267346D01*
X145448Y267421D01*
G37*
G36*
X145448Y311571D02*
X145448Y311571D01*
X145448Y311572D01*
X145449Y311571D01*
X146083Y311793D01*
X146083Y311794D01*
X146084Y311794D01*
X146653Y312151D01*
X146653Y312152D01*
X147129Y312627D01*
X147487Y313196D01*
X147486Y313197D01*
X147487Y313197D01*
X147709Y313831D01*
X147709Y313832D01*
X147710Y313837D01*
X147710Y313841D01*
X147711Y313850D01*
X147711Y313854D01*
X147712Y313854D01*
X147711Y313854D01*
X147712Y313862D01*
X147712Y313863D01*
X147713Y313867D01*
X147714Y313875D01*
X147714Y313879D01*
X147714Y313880D01*
X147715Y313888D01*
X147716Y313892D01*
X147717Y313901D01*
X147717Y313905D01*
X147718Y313913D01*
X147718Y313914D01*
X147719Y313918D01*
X147720Y313926D01*
X147720Y313930D01*
X147720Y313931D01*
X147721Y313935D01*
X147721Y313939D01*
X147722Y313943D01*
X147722Y313947D01*
X147722Y313948D01*
X147723Y313952D01*
X147723Y313956D01*
X147723Y313960D01*
X147724Y313969D01*
X147725Y313973D01*
X147726Y313981D01*
X147726Y313982D01*
X147726Y313986D01*
X147727Y313994D01*
X147728Y313998D01*
X147728Y313999D01*
X147729Y314007D01*
X147729Y314011D01*
X147730Y314020D01*
X147731Y314024D01*
X147732Y314032D01*
X147732Y314033D01*
X147732Y314037D01*
X147733Y314045D01*
X147734Y314049D01*
X147734Y314050D01*
X147734Y314058D01*
X147735Y314058D01*
X147734Y314058D01*
X147735Y314062D01*
X147736Y314071D01*
X147736Y314075D01*
X147737Y314079D01*
X147737Y314083D01*
X147737Y314084D01*
X147738Y314088D01*
X147738Y314092D01*
X147739Y314096D01*
X147739Y314100D01*
X147739Y314101D01*
X147740Y314105D01*
X147741Y314113D01*
X147741Y314117D01*
X147741Y314118D01*
X147742Y314126D01*
X147743Y314130D01*
X147744Y314139D01*
X147744Y314143D01*
X147745Y314151D01*
X147745Y314152D01*
X147745Y314156D01*
X147746Y314156D01*
X147745Y314156D01*
X147746Y314164D01*
X147747Y314168D01*
X147747Y314169D01*
X147748Y314177D01*
X147748Y314181D01*
X147749Y314190D01*
X147750Y314194D01*
X147751Y314202D01*
X147751Y314203D01*
X147751Y314207D01*
X147752Y314215D01*
X147753Y314219D01*
X147753Y314220D01*
X147754Y314228D01*
X147754Y314232D01*
X147755Y314236D01*
X147755Y314237D01*
X147755Y314241D01*
X147756Y314245D01*
X147756Y314249D01*
X147757Y314253D01*
X147757Y314254D01*
X147757Y314258D01*
X147757Y314262D01*
X147758Y314270D01*
X147758Y314271D01*
X147759Y314275D01*
X147760Y314283D01*
X147760Y314287D01*
X147760Y314288D01*
X147761Y314296D01*
X147762Y314300D01*
X147763Y314309D01*
X147763Y314313D01*
X147764Y314321D01*
X147764Y314322D01*
X147765Y314326D01*
X147766Y314334D01*
X147766Y314338D01*
X147766Y314339D01*
X147767Y314347D01*
X147768Y314351D01*
X147768Y314360D01*
X147769Y314360D01*
X147768Y314360D01*
X147769Y314364D01*
X147770Y314372D01*
X147770Y314373D01*
X147770Y314377D01*
X147771Y314385D01*
X147772Y314389D01*
X147772Y314390D01*
X147772Y314394D01*
X147773Y314398D01*
X147773Y314402D01*
X147774Y314406D01*
X147774Y314407D01*
X147775Y314415D01*
X147775Y314419D01*
X147776Y314428D01*
X147777Y314432D01*
X147778Y314440D01*
X147778Y314441D01*
X147778Y314445D01*
X147779Y314453D01*
X147779Y314457D01*
X147780Y314457D01*
X147779Y314458D01*
X147780Y314466D01*
X147781Y314470D01*
X147782Y314479D01*
X147782Y314483D01*
X147783Y314491D01*
X147783Y314492D01*
X147784Y314496D01*
X147784Y314500D01*
X147784Y320700D01*
X147709Y321368D01*
X147709Y321369D01*
X147487Y322003D01*
X147486Y322003D01*
X147487Y322004D01*
X147129Y322573D01*
X147128Y322573D01*
X147129Y322573D01*
X146653Y323049D01*
X146084Y323407D01*
X146083Y323406D01*
X146083Y323407D01*
X145449Y323629D01*
X145448Y323629D01*
X144780Y323704D01*
X144112Y323629D01*
X144111Y323629D01*
X143477Y323407D01*
X143477Y323406D01*
X143476Y323407D01*
X142907Y323049D01*
X142907Y323048D01*
X142907Y323049D01*
X142432Y322573D01*
X142431Y322573D01*
X142074Y322004D01*
X142074Y322003D01*
X142073Y322003D01*
X141851Y321369D01*
X141851Y321368D01*
X141850Y321361D01*
X141850Y321356D01*
X141849Y321348D01*
X141848Y321344D01*
X141847Y321335D01*
X141847Y321331D01*
X141846Y321322D01*
X141845Y321318D01*
X141844Y321310D01*
X141844Y321305D01*
X141843Y321297D01*
X141843Y321293D01*
X141842Y321293D01*
X141843Y321293D01*
X141842Y321284D01*
X141841Y321280D01*
X141840Y321271D01*
X141840Y321267D01*
X141839Y321263D01*
X141839Y321259D01*
X141838Y321254D01*
X141838Y321250D01*
X141837Y321246D01*
X141837Y321242D01*
X141836Y321237D01*
X141835Y321229D01*
X141835Y321225D01*
X141834Y321216D01*
X141833Y321212D01*
X141832Y321203D01*
X141832Y321199D01*
X141831Y321191D01*
X141831Y321186D01*
X141830Y321178D01*
X141829Y321174D01*
X141828Y321165D01*
X141828Y321161D01*
X141827Y321152D01*
X141826Y321148D01*
X141825Y321140D01*
X141825Y321135D01*
X141824Y321127D01*
X141823Y321123D01*
X141822Y321114D01*
X141822Y321110D01*
X141821Y321106D01*
X141821Y321101D01*
X141820Y321097D01*
X141820Y321093D01*
X141820Y321089D01*
X141819Y321089D01*
X141820Y321089D01*
X141819Y321084D01*
X141819Y321080D01*
X141818Y321072D01*
X141817Y321067D01*
X141816Y321059D01*
X141816Y321055D01*
X141815Y321046D01*
X141814Y321042D01*
X141813Y321033D01*
X141813Y321029D01*
X141812Y321021D01*
X141811Y321016D01*
X141810Y321008D01*
X141810Y321004D01*
X141809Y320995D01*
X141809Y320991D01*
X141808Y320991D01*
X141809Y320991D01*
X141808Y320982D01*
X141807Y320978D01*
X141806Y320970D01*
X141806Y320965D01*
X141805Y320957D01*
X141804Y320953D01*
X141804Y320948D01*
X141803Y320944D01*
X141803Y320940D01*
X141802Y320936D01*
X141801Y320927D01*
X141801Y320923D01*
X141800Y320914D01*
X141799Y320910D01*
X141798Y320902D01*
X141798Y320897D01*
X141797Y320889D01*
X141797Y320885D01*
X141796Y320876D01*
X141795Y320872D01*
X141794Y320863D01*
X141794Y320859D01*
X141793Y320851D01*
X141792Y320846D01*
X141791Y320838D01*
X141791Y320834D01*
X141790Y320825D01*
X141789Y320821D01*
X141788Y320812D01*
X141788Y320808D01*
X141787Y320804D01*
X141787Y320800D01*
X141786Y320795D01*
X141786Y320791D01*
X141786Y320787D01*
X141785Y320787D01*
X141786Y320787D01*
X141785Y320783D01*
X141785Y320778D01*
X141784Y320770D01*
X141783Y320766D01*
X141782Y320757D01*
X141782Y320753D01*
X141781Y320744D01*
X141780Y320740D01*
X141779Y320732D01*
X141779Y320727D01*
X141778Y320719D01*
X141777Y320715D01*
X141776Y320706D01*
X141776Y320702D01*
X141776Y320700D01*
X141776Y314500D01*
X141851Y313832D01*
X141852Y313832D01*
X141851Y313831D01*
X142073Y313197D01*
X142074Y313197D01*
X142074Y313196D01*
X142431Y312627D01*
X142432Y312627D01*
X142907Y312152D01*
X142907Y312151D01*
X143476Y311794D01*
X143477Y311794D01*
X143477Y311793D01*
X144111Y311571D01*
X144112Y311571D01*
X144780Y311496D01*
X145448Y311571D01*
G37*
G36*
X59088Y311571D02*
X59088Y311571D01*
X59088Y311572D01*
X59089Y311571D01*
X59723Y311793D01*
X59723Y311794D01*
X59724Y311794D01*
X60293Y312151D01*
X60293Y312152D01*
X60769Y312627D01*
X61127Y313196D01*
X61126Y313197D01*
X61127Y313197D01*
X61349Y313831D01*
X61349Y313832D01*
X61350Y313837D01*
X61350Y313841D01*
X61351Y313850D01*
X61351Y313854D01*
X61352Y313854D01*
X61351Y313854D01*
X61352Y313862D01*
X61352Y313863D01*
X61353Y313867D01*
X61354Y313875D01*
X61354Y313879D01*
X61354Y313880D01*
X61355Y313888D01*
X61356Y313892D01*
X61357Y313901D01*
X61357Y313905D01*
X61358Y313913D01*
X61358Y313914D01*
X61359Y313918D01*
X61360Y313926D01*
X61360Y313930D01*
X61360Y313931D01*
X61361Y313935D01*
X61361Y313939D01*
X61362Y313943D01*
X61362Y313947D01*
X61362Y313948D01*
X61363Y313952D01*
X61363Y313956D01*
X61363Y313960D01*
X61364Y313969D01*
X61365Y313973D01*
X61366Y313981D01*
X61366Y313982D01*
X61366Y313986D01*
X61367Y313994D01*
X61368Y313998D01*
X61368Y313999D01*
X61369Y314007D01*
X61369Y314011D01*
X61370Y314020D01*
X61371Y314024D01*
X61372Y314032D01*
X61372Y314033D01*
X61372Y314037D01*
X61373Y314045D01*
X61374Y314049D01*
X61374Y314050D01*
X61374Y314058D01*
X61375Y314058D01*
X61374Y314058D01*
X61375Y314062D01*
X61376Y314071D01*
X61376Y314075D01*
X61377Y314079D01*
X61377Y314083D01*
X61377Y314084D01*
X61378Y314088D01*
X61378Y314092D01*
X61379Y314096D01*
X61379Y314100D01*
X61379Y314101D01*
X61380Y314105D01*
X61381Y314113D01*
X61381Y314117D01*
X61381Y314118D01*
X61382Y314126D01*
X61383Y314130D01*
X61384Y314139D01*
X61384Y314143D01*
X61385Y314151D01*
X61385Y314152D01*
X61385Y314156D01*
X61386Y314156D01*
X61385Y314156D01*
X61386Y314164D01*
X61387Y314168D01*
X61387Y314169D01*
X61388Y314177D01*
X61388Y314181D01*
X61389Y314190D01*
X61390Y314194D01*
X61391Y314202D01*
X61391Y314203D01*
X61391Y314207D01*
X61392Y314215D01*
X61393Y314219D01*
X61393Y314220D01*
X61394Y314228D01*
X61394Y314232D01*
X61395Y314236D01*
X61395Y314237D01*
X61395Y314241D01*
X61396Y314245D01*
X61396Y314249D01*
X61397Y314253D01*
X61397Y314254D01*
X61397Y314258D01*
X61397Y314262D01*
X61398Y314270D01*
X61398Y314271D01*
X61399Y314275D01*
X61400Y314283D01*
X61400Y314287D01*
X61400Y314288D01*
X61401Y314296D01*
X61402Y314300D01*
X61403Y314309D01*
X61403Y314313D01*
X61404Y314321D01*
X61404Y314322D01*
X61405Y314326D01*
X61406Y314334D01*
X61406Y314338D01*
X61406Y314339D01*
X61407Y314347D01*
X61408Y314351D01*
X61408Y314360D01*
X61409Y314360D01*
X61408Y314360D01*
X61409Y314364D01*
X61410Y314372D01*
X61410Y314373D01*
X61410Y314377D01*
X61411Y314385D01*
X61412Y314389D01*
X61412Y314390D01*
X61412Y314394D01*
X61413Y314398D01*
X61413Y314402D01*
X61414Y314406D01*
X61414Y314407D01*
X61415Y314415D01*
X61415Y314419D01*
X61416Y314428D01*
X61417Y314432D01*
X61418Y314440D01*
X61418Y314441D01*
X61418Y314445D01*
X61419Y314453D01*
X61419Y314457D01*
X61420Y314457D01*
X61419Y314458D01*
X61420Y314466D01*
X61421Y314470D01*
X61422Y314479D01*
X61422Y314483D01*
X61423Y314491D01*
X61423Y314492D01*
X61424Y314496D01*
X61424Y314500D01*
X61424Y320700D01*
X61349Y321368D01*
X61349Y321369D01*
X61127Y322003D01*
X61126Y322003D01*
X61127Y322004D01*
X60769Y322573D01*
X60768Y322573D01*
X60769Y322573D01*
X60293Y323049D01*
X59724Y323407D01*
X59723Y323406D01*
X59723Y323407D01*
X59089Y323629D01*
X59088Y323629D01*
X58420Y323704D01*
X57752Y323629D01*
X57751Y323629D01*
X57117Y323407D01*
X57117Y323406D01*
X57116Y323407D01*
X56547Y323049D01*
X56547Y323048D01*
X56547Y323049D01*
X56072Y322573D01*
X56071Y322573D01*
X55714Y322004D01*
X55714Y322003D01*
X55713Y322003D01*
X55491Y321369D01*
X55491Y321368D01*
X55490Y321361D01*
X55490Y321356D01*
X55489Y321348D01*
X55488Y321344D01*
X55487Y321335D01*
X55487Y321331D01*
X55486Y321322D01*
X55485Y321318D01*
X55484Y321310D01*
X55484Y321305D01*
X55483Y321297D01*
X55483Y321293D01*
X55482Y321293D01*
X55483Y321293D01*
X55482Y321284D01*
X55481Y321280D01*
X55480Y321271D01*
X55480Y321267D01*
X55479Y321263D01*
X55479Y321259D01*
X55478Y321254D01*
X55478Y321250D01*
X55477Y321246D01*
X55477Y321242D01*
X55476Y321237D01*
X55475Y321229D01*
X55475Y321225D01*
X55474Y321216D01*
X55473Y321212D01*
X55472Y321203D01*
X55472Y321199D01*
X55471Y321191D01*
X55471Y321186D01*
X55470Y321178D01*
X55469Y321174D01*
X55468Y321165D01*
X55468Y321161D01*
X55467Y321152D01*
X55466Y321148D01*
X55465Y321140D01*
X55465Y321135D01*
X55464Y321127D01*
X55463Y321123D01*
X55462Y321114D01*
X55462Y321110D01*
X55461Y321106D01*
X55461Y321101D01*
X55460Y321097D01*
X55460Y321093D01*
X55460Y321089D01*
X55459Y321089D01*
X55460Y321089D01*
X55459Y321084D01*
X55459Y321080D01*
X55458Y321072D01*
X55457Y321067D01*
X55456Y321059D01*
X55456Y321055D01*
X55455Y321046D01*
X55454Y321042D01*
X55453Y321033D01*
X55453Y321029D01*
X55452Y321021D01*
X55451Y321016D01*
X55450Y321008D01*
X55450Y321004D01*
X55449Y320995D01*
X55449Y320991D01*
X55448Y320991D01*
X55449Y320991D01*
X55448Y320982D01*
X55447Y320978D01*
X55446Y320970D01*
X55446Y320965D01*
X55445Y320957D01*
X55444Y320953D01*
X55444Y320948D01*
X55443Y320944D01*
X55443Y320940D01*
X55442Y320936D01*
X55441Y320927D01*
X55441Y320923D01*
X55440Y320914D01*
X55439Y320910D01*
X55438Y320902D01*
X55438Y320897D01*
X55437Y320889D01*
X55437Y320885D01*
X55436Y320876D01*
X55435Y320872D01*
X55434Y320863D01*
X55434Y320859D01*
X55433Y320851D01*
X55432Y320846D01*
X55431Y320838D01*
X55431Y320834D01*
X55430Y320825D01*
X55429Y320821D01*
X55428Y320812D01*
X55428Y320808D01*
X55427Y320804D01*
X55427Y320800D01*
X55426Y320795D01*
X55426Y320791D01*
X55426Y320787D01*
X55425Y320787D01*
X55426Y320787D01*
X55425Y320783D01*
X55425Y320778D01*
X55424Y320770D01*
X55423Y320766D01*
X55422Y320757D01*
X55422Y320753D01*
X55421Y320744D01*
X55420Y320740D01*
X55419Y320732D01*
X55419Y320727D01*
X55418Y320719D01*
X55417Y320715D01*
X55416Y320706D01*
X55416Y320702D01*
X55416Y320700D01*
X55416Y314500D01*
X55491Y313832D01*
X55492Y313832D01*
X55491Y313831D01*
X55713Y313197D01*
X55714Y313197D01*
X55714Y313196D01*
X56071Y312627D01*
X56072Y312627D01*
X56547Y312152D01*
X56547Y312151D01*
X57116Y311794D01*
X57117Y311794D01*
X57117Y311793D01*
X57751Y311571D01*
X57752Y311571D01*
X58420Y311496D01*
X59088Y311571D01*
G37*
%LPC*%
G36*
X178656Y72135D02*
X178656Y72135D01*
X176275Y74516D01*
X176275Y77884D01*
X178754Y80363D01*
X178839Y80472D01*
X178928Y80579D01*
X178937Y80598D01*
X178949Y80614D01*
X179000Y80730D01*
X179002Y80726D01*
X179068Y80664D01*
X179126Y80596D01*
X179183Y80556D01*
X179234Y80508D01*
X179313Y80465D01*
X179386Y80413D01*
X179451Y80388D01*
X179512Y80354D01*
X179599Y80332D01*
X179683Y80300D01*
X179753Y80292D01*
X179820Y80275D01*
X179981Y80265D01*
X182024Y80265D01*
X184405Y77884D01*
X184405Y74516D01*
X182024Y72135D01*
X178656Y72135D01*
G37*
%LPD*%
%LPC*%
G36*
X125316Y199135D02*
X125316Y199135D01*
X122935Y201516D01*
X122935Y204884D01*
X125316Y207265D01*
X128684Y207265D01*
X131065Y204884D01*
X131065Y202615D01*
X131082Y202478D01*
X131095Y202339D01*
X131102Y202320D01*
X131105Y202300D01*
X131156Y202171D01*
X131203Y202040D01*
X131214Y202023D01*
X131222Y202004D01*
X131303Y201892D01*
X131377Y201784D01*
X131303Y201741D01*
X131282Y201722D01*
X131272Y201715D01*
X131258Y201700D01*
X131183Y201634D01*
X128684Y199135D01*
X125316Y199135D01*
G37*
%LPD*%
%LPC*%
G36*
X108044Y138175D02*
X108044Y138175D01*
X105663Y140556D01*
X105663Y143924D01*
X108089Y146349D01*
X108221Y146315D01*
X108249Y146313D01*
X108261Y146310D01*
X108281Y146311D01*
X108381Y146305D01*
X111412Y146305D01*
X113793Y143924D01*
X113793Y140556D01*
X111412Y138175D01*
X108044Y138175D01*
G37*
%LPD*%
%LPC*%
G36*
X117696Y300735D02*
X117696Y300735D01*
X115315Y303116D01*
X115315Y306484D01*
X117696Y308865D01*
X121064Y308865D01*
X123445Y306484D01*
X123445Y303116D01*
X121064Y300735D01*
X117696Y300735D01*
G37*
%LPD*%
%LPC*%
G36*
X37686Y299465D02*
X37686Y299465D01*
X35305Y301846D01*
X35305Y305214D01*
X37686Y307595D01*
X41054Y307595D01*
X43435Y305214D01*
X43435Y301846D01*
X41054Y299465D01*
X37686Y299465D01*
G37*
%LPD*%
%LPC*%
G36*
X99916Y299465D02*
X99916Y299465D01*
X97535Y301846D01*
X97535Y305214D01*
X99916Y307595D01*
X103284Y307595D01*
X105665Y305214D01*
X105665Y301846D01*
X103284Y299465D01*
X99916Y299465D01*
G37*
%LPD*%
%LPC*%
G36*
X98608Y285280D02*
X98608Y285280D01*
X96227Y287661D01*
X96227Y291028D01*
X98608Y293409D01*
X101975Y293409D01*
X104356Y291028D01*
X104356Y287661D01*
X101975Y285280D01*
X98608Y285280D01*
G37*
%LPD*%
%LPC*%
G36*
X64356Y256793D02*
X64356Y256793D01*
X61975Y259174D01*
X61975Y262542D01*
X64356Y264923D01*
X67724Y264923D01*
X70105Y262542D01*
X70105Y259174D01*
X67724Y256793D01*
X64356Y256793D01*
G37*
%LPD*%
%LPC*%
G36*
X135222Y256793D02*
X135222Y256793D01*
X132841Y259174D01*
X132841Y262542D01*
X135222Y264923D01*
X138590Y264923D01*
X140971Y262542D01*
X140971Y259174D01*
X138590Y256793D01*
X135222Y256793D01*
G37*
%LPD*%
%LPC*%
G36*
X150716Y224535D02*
X150716Y224535D01*
X148335Y226916D01*
X148335Y230284D01*
X150716Y232665D01*
X154084Y232665D01*
X156465Y230284D01*
X156465Y226916D01*
X154084Y224535D01*
X150716Y224535D01*
G37*
%LPD*%
%LPC*%
G36*
X137508Y224535D02*
X137508Y224535D01*
X135127Y226916D01*
X135127Y230284D01*
X137508Y232665D01*
X140876Y232665D01*
X143257Y230284D01*
X143257Y226916D01*
X140876Y224535D01*
X137508Y224535D01*
G37*
%LPD*%
%LPC*%
G36*
X62324Y224535D02*
X62324Y224535D01*
X59943Y226916D01*
X59943Y230284D01*
X62324Y232665D01*
X65692Y232665D01*
X68073Y230284D01*
X68073Y226916D01*
X65692Y224535D01*
X62324Y224535D01*
G37*
%LPD*%
%LPC*%
G36*
X168496Y199135D02*
X168496Y199135D01*
X166115Y201516D01*
X166115Y204884D01*
X168496Y207265D01*
X171864Y207265D01*
X174245Y204884D01*
X174245Y201516D01*
X171864Y199135D01*
X168496Y199135D01*
G37*
%LPD*%
%LPC*%
G36*
X109568Y251459D02*
X109568Y251459D01*
X107187Y253840D01*
X107187Y257208D01*
X109568Y259589D01*
X112936Y259589D01*
X115317Y257208D01*
X115317Y253840D01*
X112936Y251459D01*
X109568Y251459D01*
G37*
%LPD*%
%LPC*%
G36*
X69436Y195325D02*
X69436Y195325D01*
X67055Y197706D01*
X67055Y201074D01*
X69436Y203455D01*
X72804Y203455D01*
X75185Y201074D01*
X75185Y197706D01*
X72804Y195325D01*
X69436Y195325D01*
G37*
%LPD*%
%LPC*%
G36*
X112508Y184535D02*
X112508Y184535D01*
X110127Y186916D01*
X110127Y190284D01*
X112508Y192665D01*
X115876Y192665D01*
X118257Y190284D01*
X118257Y186916D01*
X115876Y184535D01*
X112508Y184535D01*
G37*
%LPD*%
%LPC*%
G36*
X115918Y167639D02*
X115918Y167639D01*
X113537Y170020D01*
X113537Y173388D01*
X115918Y175769D01*
X119286Y175769D01*
X121667Y173388D01*
X121667Y170020D01*
X119286Y167639D01*
X115918Y167639D01*
G37*
%LPD*%
%LPC*%
G36*
X90772Y253237D02*
X90772Y253237D01*
X88391Y255618D01*
X88391Y258986D01*
X90772Y261367D01*
X94140Y261367D01*
X96521Y258986D01*
X96521Y255618D01*
X94140Y253237D01*
X90772Y253237D01*
G37*
%LPD*%
%LPC*%
G36*
X112616Y75945D02*
X112616Y75945D01*
X110235Y78326D01*
X110235Y81694D01*
X112616Y84075D01*
X115984Y84075D01*
X118365Y81694D01*
X118365Y78326D01*
X115984Y75945D01*
X112616Y75945D01*
G37*
%LPD*%
%LPC*%
G36*
X49116Y72135D02*
X49116Y72135D01*
X46735Y74516D01*
X46735Y77884D01*
X49116Y80265D01*
X52484Y80265D01*
X54865Y77884D01*
X54865Y74516D01*
X52484Y72135D01*
X49116Y72135D01*
G37*
%LPD*%
%LPC*%
G36*
X28796Y67055D02*
X28796Y67055D01*
X26415Y69436D01*
X26415Y72804D01*
X28796Y75185D01*
X32164Y75185D01*
X34545Y72804D01*
X34545Y69436D01*
X32164Y67055D01*
X28796Y67055D01*
G37*
%LPD*%
%LPC*%
G36*
X91534Y230123D02*
X91534Y230123D01*
X89153Y232504D01*
X89153Y235872D01*
X91534Y238253D01*
X94902Y238253D01*
X97283Y235872D01*
X97283Y232504D01*
X94902Y230123D01*
X91534Y230123D01*
G37*
%LPD*%
%LPC*%
G36*
X170432Y218024D02*
X170432Y218024D01*
X170453Y218129D01*
X171029Y219519D01*
X171865Y220771D01*
X172929Y221835D01*
X174181Y222671D01*
X175571Y223247D01*
X175676Y223268D01*
X175676Y218024D01*
X170432Y218024D01*
G37*
%LPD*%
%LPC*%
G36*
X175571Y208553D02*
X175571Y208553D01*
X174181Y209129D01*
X172929Y209965D01*
X171865Y211029D01*
X171029Y212281D01*
X170453Y213671D01*
X170432Y213776D01*
X175676Y213776D01*
X175676Y208532D01*
X175571Y208553D01*
G37*
%LPD*%
D10*
X182118Y59831D02*
X182118Y62230D01*
X182116Y62327D01*
X182110Y62423D01*
X182101Y62519D01*
X182087Y62615D01*
X182070Y62710D01*
X182048Y62804D01*
X182023Y62897D01*
X181995Y62990D01*
X181962Y63081D01*
X181926Y63170D01*
X181886Y63258D01*
X181843Y63345D01*
X181797Y63430D01*
X181747Y63512D01*
X181693Y63593D01*
X181637Y63671D01*
X181577Y63747D01*
X181515Y63821D01*
X181449Y63892D01*
X181381Y63960D01*
X181310Y64026D01*
X181236Y64088D01*
X181160Y64148D01*
X181082Y64204D01*
X181001Y64258D01*
X180919Y64308D01*
X180834Y64354D01*
X180747Y64397D01*
X180659Y64437D01*
X180570Y64473D01*
X180479Y64506D01*
X180386Y64534D01*
X180293Y64559D01*
X180199Y64581D01*
X180104Y64598D01*
X180008Y64612D01*
X179912Y64621D01*
X179816Y64627D01*
X179719Y64629D01*
X179622Y64627D01*
X179526Y64621D01*
X179430Y64612D01*
X179334Y64598D01*
X179239Y64581D01*
X179145Y64559D01*
X179052Y64534D01*
X178959Y64506D01*
X178868Y64473D01*
X178779Y64437D01*
X178691Y64397D01*
X178604Y64354D01*
X178520Y64308D01*
X178437Y64258D01*
X178356Y64204D01*
X178278Y64148D01*
X178202Y64088D01*
X178128Y64026D01*
X178057Y63960D01*
X177989Y63892D01*
X177923Y63821D01*
X177861Y63747D01*
X177801Y63671D01*
X177745Y63593D01*
X177691Y63512D01*
X177641Y63430D01*
X177595Y63345D01*
X177552Y63258D01*
X177512Y63170D01*
X177476Y63081D01*
X177443Y62990D01*
X177415Y62897D01*
X177390Y62804D01*
X177368Y62710D01*
X177351Y62615D01*
X177337Y62519D01*
X177328Y62423D01*
X177322Y62327D01*
X177320Y62230D01*
X173482Y62710D02*
X173482Y59831D01*
X173482Y62710D02*
X173484Y62796D01*
X173490Y62882D01*
X173499Y62968D01*
X173513Y63053D01*
X173530Y63137D01*
X173551Y63221D01*
X173576Y63303D01*
X173604Y63384D01*
X173636Y63464D01*
X173672Y63543D01*
X173711Y63619D01*
X173754Y63694D01*
X173799Y63767D01*
X173848Y63838D01*
X173901Y63906D01*
X173956Y63973D01*
X174014Y64036D01*
X174075Y64097D01*
X174138Y64155D01*
X174205Y64210D01*
X174273Y64263D01*
X174344Y64312D01*
X174417Y64357D01*
X174492Y64400D01*
X174568Y64439D01*
X174647Y64475D01*
X174727Y64507D01*
X174808Y64535D01*
X174890Y64560D01*
X174974Y64581D01*
X175058Y64598D01*
X175143Y64612D01*
X175229Y64621D01*
X175315Y64627D01*
X175401Y64629D01*
X175487Y64627D01*
X175573Y64621D01*
X175659Y64612D01*
X175744Y64598D01*
X175828Y64581D01*
X175912Y64560D01*
X175994Y64535D01*
X176075Y64507D01*
X176155Y64475D01*
X176234Y64439D01*
X176310Y64400D01*
X176385Y64357D01*
X176458Y64312D01*
X176529Y64263D01*
X176597Y64210D01*
X176664Y64155D01*
X176727Y64097D01*
X176788Y64036D01*
X176846Y63973D01*
X176901Y63906D01*
X176954Y63838D01*
X177003Y63767D01*
X177048Y63694D01*
X177091Y63619D01*
X177130Y63543D01*
X177166Y63464D01*
X177198Y63384D01*
X177226Y63303D01*
X177251Y63221D01*
X177272Y63137D01*
X177289Y63053D01*
X177303Y62968D01*
X177312Y62882D01*
X177318Y62796D01*
X177320Y62710D01*
X177320Y60791D01*
D11*
X144780Y317650D03*
X58420Y317650D03*
X58420Y275850D03*
X144780Y275850D03*
D12*
X25400Y241300D03*
X25400Y266700D03*
X25400Y215900D03*
X25400Y292100D03*
X25400Y190500D03*
X25400Y139700D03*
X25400Y165100D03*
X25400Y114300D03*
X25400Y88900D03*
D13*
X9700Y292100D03*
X9700Y266700D03*
X9700Y241300D03*
X9700Y215900D03*
X9700Y190500D03*
X9700Y165100D03*
X9700Y139700D03*
X9700Y114300D03*
X9700Y88900D03*
D12*
X177800Y139700D03*
X177800Y114300D03*
X177800Y165100D03*
X177800Y88900D03*
X177800Y190500D03*
X177800Y241300D03*
X177800Y215900D03*
X177800Y266700D03*
X177800Y292100D03*
D13*
X193500Y88900D03*
X193500Y114300D03*
X193500Y139700D03*
X193500Y165100D03*
X193500Y190500D03*
X193500Y215900D03*
X193500Y241300D03*
X193500Y266700D03*
X193500Y292100D03*
D14*
X100292Y289344D03*
X50862Y143510D03*
X101600Y303530D03*
X50800Y135890D03*
X114808Y229870D03*
X165862Y195580D03*
X52070Y185674D03*
X151892Y87122D03*
X108204Y229870D03*
X80264Y193040D03*
X80010Y241300D03*
X93218Y234188D03*
X48260Y171196D03*
X50800Y228600D03*
X152400Y228600D03*
X50800Y76200D03*
X30480Y71120D03*
X49276Y282956D03*
X139192Y228600D03*
X150162Y305768D03*
X114192Y188600D03*
X66040Y260858D03*
X136906Y260858D03*
X42164Y274574D03*
X180340Y76200D03*
X131826Y150622D03*
X50800Y97790D03*
X63500Y88900D03*
X90170Y151130D03*
X148590Y95250D03*
X175768Y177800D03*
X54610Y151130D03*
X170180Y203200D03*
X71120Y199390D03*
X64008Y228600D03*
X119380Y304800D03*
X66040Y320040D03*
X137160Y320040D03*
X111252Y255524D03*
X92456Y257302D03*
X122678Y279146D03*
X80772Y279654D03*
X137414Y200152D03*
X137922Y135890D03*
D15*
X137922Y199644D02*
X137414Y200152D01*
X137922Y199644D02*
X137922Y135890D01*
D14*
X109728Y142240D03*
X61722Y150622D03*
D15*
X51308Y88900D02*
X25400Y88900D01*
X51308Y88900D02*
X61722Y99314D01*
X61722Y150622D01*
D14*
X39370Y303530D03*
X52070Y107950D03*
D15*
X52070Y120142D01*
X43180Y129032D02*
X43180Y265176D01*
D14*
X43180Y265176D03*
D15*
X43180Y129032D02*
X52070Y120142D01*
D14*
X34290Y101600D03*
D15*
X37084Y280416D02*
X25400Y292100D01*
X37084Y104394D02*
X34290Y101600D01*
X37084Y104394D02*
X37084Y280416D01*
D14*
X165354Y180848D03*
D15*
X154940Y180848D01*
D14*
X152146Y103632D03*
D15*
X152146Y178054D02*
X154940Y180848D01*
X152146Y178054D02*
X152146Y103632D01*
D14*
X147066Y122174D03*
D15*
X147066Y187706D01*
X149860Y190500D02*
X177800Y190500D01*
X149860Y190500D02*
X147066Y187706D01*
D14*
X182880Y308102D03*
X117602Y171704D03*
X89916Y144018D03*
X58800Y218440D03*
D15*
X58800Y172084D01*
X55626Y168910D01*
D14*
X55626Y168910D03*
X105918Y152654D03*
X97282Y152654D03*
X114300Y80010D03*
X66802Y130302D03*
X124200Y147408D03*
X151130Y197866D03*
X127000Y203200D03*
M02*
