G04 EAGLE Gerber RS-274X export*
G75*
%MOMM*%
%FSLAX34Y34*%
%LPD*%
%IN*%
%IPPOS*%
%AMOC8*
5,1,8,0,0,1.08239X$1,22.5*%
G01*
%ADD10C,0.203200*%
%ADD11C,0.000000*%
%ADD12C,0.600000*%


D10*
X12700Y330200D02*
X12700Y0D01*
X190500Y0D01*
X190500Y330200D01*
X12700Y330200D01*
X12700Y335280D02*
X190500Y335280D01*
X190500Y360680D02*
X12700Y360680D01*
X12700Y335280D01*
X190500Y335280D02*
X190500Y360680D01*
X205740Y332740D02*
X-3810Y332740D01*
X216916Y338328D02*
X219287Y331216D01*
X221657Y338328D01*
X226780Y335365D02*
X233892Y335365D01*
X240284Y335365D02*
X243247Y334179D01*
X240284Y335364D02*
X240213Y335395D01*
X240143Y335429D01*
X240075Y335466D01*
X240010Y335507D01*
X239946Y335552D01*
X239885Y335599D01*
X239826Y335650D01*
X239769Y335703D01*
X239716Y335759D01*
X239665Y335818D01*
X239618Y335879D01*
X239573Y335943D01*
X239532Y336008D01*
X239494Y336076D01*
X239460Y336146D01*
X239429Y336217D01*
X239402Y336289D01*
X239379Y336363D01*
X239359Y336438D01*
X239343Y336514D01*
X239331Y336591D01*
X239323Y336668D01*
X239319Y336745D01*
X239318Y336823D01*
X239322Y336900D01*
X239329Y336978D01*
X239341Y337054D01*
X239356Y337130D01*
X239375Y337206D01*
X239398Y337280D01*
X239424Y337353D01*
X239454Y337424D01*
X239488Y337494D01*
X239525Y337562D01*
X239566Y337628D01*
X239610Y337692D01*
X239657Y337754D01*
X239707Y337813D01*
X239760Y337869D01*
X239816Y337923D01*
X239874Y337974D01*
X239935Y338022D01*
X239998Y338067D01*
X240064Y338109D01*
X240131Y338147D01*
X240201Y338182D01*
X240272Y338213D01*
X240344Y338241D01*
X240418Y338264D01*
X240493Y338285D01*
X240568Y338301D01*
X240645Y338314D01*
X240722Y338322D01*
X240799Y338327D01*
X240877Y338328D01*
X240876Y338328D02*
X241038Y338324D01*
X241200Y338316D01*
X241361Y338304D01*
X241522Y338288D01*
X241683Y338268D01*
X241843Y338245D01*
X242002Y338217D01*
X242161Y338186D01*
X242319Y338151D01*
X242476Y338112D01*
X242632Y338069D01*
X242787Y338023D01*
X242941Y337973D01*
X243094Y337919D01*
X243245Y337861D01*
X243395Y337800D01*
X243543Y337736D01*
X243248Y334180D02*
X243319Y334149D01*
X243389Y334115D01*
X243457Y334078D01*
X243522Y334037D01*
X243586Y333992D01*
X243647Y333945D01*
X243706Y333894D01*
X243763Y333841D01*
X243816Y333785D01*
X243867Y333726D01*
X243914Y333665D01*
X243959Y333601D01*
X244000Y333536D01*
X244038Y333468D01*
X244072Y333398D01*
X244103Y333327D01*
X244130Y333255D01*
X244153Y333181D01*
X244173Y333106D01*
X244189Y333030D01*
X244201Y332953D01*
X244209Y332876D01*
X244213Y332799D01*
X244214Y332721D01*
X244210Y332644D01*
X244203Y332566D01*
X244191Y332490D01*
X244176Y332414D01*
X244157Y332338D01*
X244134Y332264D01*
X244108Y332191D01*
X244078Y332120D01*
X244044Y332050D01*
X244007Y331982D01*
X243966Y331916D01*
X243922Y331852D01*
X243875Y331790D01*
X243825Y331731D01*
X243772Y331675D01*
X243716Y331621D01*
X243658Y331570D01*
X243597Y331522D01*
X243534Y331477D01*
X243468Y331435D01*
X243401Y331397D01*
X243331Y331362D01*
X243261Y331331D01*
X243188Y331303D01*
X243114Y331280D01*
X243039Y331259D01*
X242964Y331243D01*
X242887Y331230D01*
X242810Y331222D01*
X242733Y331217D01*
X242655Y331216D01*
X242654Y331216D02*
X242417Y331222D01*
X242179Y331234D01*
X241942Y331251D01*
X241706Y331275D01*
X241470Y331303D01*
X241234Y331337D01*
X241000Y331377D01*
X240767Y331422D01*
X240534Y331473D01*
X240303Y331529D01*
X240074Y331591D01*
X239846Y331658D01*
X239619Y331731D01*
X239395Y331809D01*
X251099Y331216D02*
X253470Y331216D01*
X251099Y331216D02*
X251017Y331218D01*
X250935Y331224D01*
X250853Y331233D01*
X250772Y331246D01*
X250692Y331263D01*
X250612Y331284D01*
X250534Y331308D01*
X250457Y331336D01*
X250381Y331367D01*
X250306Y331402D01*
X250234Y331441D01*
X250163Y331482D01*
X250094Y331527D01*
X250028Y331575D01*
X249963Y331626D01*
X249901Y331680D01*
X249842Y331737D01*
X249785Y331796D01*
X249731Y331858D01*
X249680Y331923D01*
X249632Y331989D01*
X249587Y332058D01*
X249546Y332129D01*
X249507Y332201D01*
X249472Y332276D01*
X249441Y332352D01*
X249413Y332429D01*
X249389Y332507D01*
X249368Y332587D01*
X249351Y332667D01*
X249338Y332748D01*
X249329Y332830D01*
X249323Y332912D01*
X249321Y332994D01*
X249321Y336550D01*
X249323Y336632D01*
X249329Y336714D01*
X249338Y336796D01*
X249351Y336877D01*
X249368Y336957D01*
X249389Y337037D01*
X249413Y337115D01*
X249441Y337192D01*
X249472Y337268D01*
X249507Y337343D01*
X249546Y337415D01*
X249587Y337486D01*
X249632Y337555D01*
X249680Y337621D01*
X249731Y337686D01*
X249785Y337748D01*
X249842Y337807D01*
X249901Y337864D01*
X249963Y337918D01*
X250028Y337969D01*
X250094Y338017D01*
X250163Y338062D01*
X250234Y338103D01*
X250306Y338142D01*
X250381Y338177D01*
X250457Y338208D01*
X250534Y338236D01*
X250612Y338260D01*
X250692Y338281D01*
X250772Y338298D01*
X250853Y338311D01*
X250935Y338320D01*
X251017Y338326D01*
X251099Y338328D01*
X253470Y338328D01*
X258064Y335957D02*
X258064Y333587D01*
X258064Y335957D02*
X258066Y336054D01*
X258072Y336150D01*
X258082Y336246D01*
X258096Y336342D01*
X258113Y336437D01*
X258135Y336532D01*
X258160Y336625D01*
X258189Y336717D01*
X258222Y336808D01*
X258259Y336898D01*
X258299Y336986D01*
X258343Y337072D01*
X258390Y337156D01*
X258440Y337239D01*
X258494Y337319D01*
X258552Y337397D01*
X258612Y337473D01*
X258675Y337546D01*
X258741Y337616D01*
X258811Y337684D01*
X258882Y337749D01*
X258957Y337811D01*
X259034Y337869D01*
X259113Y337925D01*
X259194Y337977D01*
X259278Y338026D01*
X259363Y338072D01*
X259450Y338114D01*
X259539Y338152D01*
X259629Y338187D01*
X259721Y338218D01*
X259814Y338245D01*
X259907Y338269D01*
X260002Y338288D01*
X260098Y338304D01*
X260194Y338316D01*
X260290Y338324D01*
X260387Y338328D01*
X260483Y338328D01*
X260580Y338324D01*
X260676Y338316D01*
X260772Y338304D01*
X260868Y338288D01*
X260963Y338269D01*
X261056Y338245D01*
X261149Y338218D01*
X261241Y338187D01*
X261331Y338152D01*
X261420Y338114D01*
X261507Y338072D01*
X261592Y338026D01*
X261676Y337977D01*
X261757Y337925D01*
X261836Y337869D01*
X261913Y337811D01*
X261988Y337749D01*
X262059Y337684D01*
X262129Y337616D01*
X262195Y337546D01*
X262258Y337473D01*
X262318Y337397D01*
X262376Y337319D01*
X262430Y337239D01*
X262480Y337156D01*
X262527Y337072D01*
X262571Y336986D01*
X262611Y336898D01*
X262648Y336808D01*
X262681Y336717D01*
X262710Y336625D01*
X262735Y336532D01*
X262757Y336437D01*
X262774Y336342D01*
X262788Y336246D01*
X262798Y336150D01*
X262804Y336054D01*
X262806Y335957D01*
X262805Y335957D02*
X262805Y333587D01*
X262806Y333587D02*
X262804Y333490D01*
X262798Y333394D01*
X262788Y333298D01*
X262774Y333202D01*
X262757Y333107D01*
X262735Y333012D01*
X262710Y332919D01*
X262681Y332827D01*
X262648Y332736D01*
X262611Y332646D01*
X262571Y332558D01*
X262527Y332472D01*
X262480Y332388D01*
X262430Y332305D01*
X262376Y332225D01*
X262318Y332147D01*
X262258Y332071D01*
X262195Y331998D01*
X262129Y331928D01*
X262059Y331860D01*
X261988Y331795D01*
X261913Y331733D01*
X261836Y331675D01*
X261757Y331619D01*
X261676Y331567D01*
X261592Y331518D01*
X261507Y331472D01*
X261420Y331430D01*
X261331Y331392D01*
X261241Y331357D01*
X261149Y331326D01*
X261056Y331299D01*
X260963Y331275D01*
X260868Y331256D01*
X260772Y331240D01*
X260676Y331228D01*
X260580Y331220D01*
X260483Y331216D01*
X260387Y331216D01*
X260290Y331220D01*
X260194Y331228D01*
X260098Y331240D01*
X260002Y331256D01*
X259907Y331275D01*
X259814Y331299D01*
X259721Y331326D01*
X259629Y331357D01*
X259539Y331392D01*
X259450Y331430D01*
X259363Y331472D01*
X259278Y331518D01*
X259194Y331567D01*
X259113Y331619D01*
X259034Y331675D01*
X258957Y331733D01*
X258882Y331795D01*
X258811Y331860D01*
X258741Y331928D01*
X258675Y331998D01*
X258612Y332071D01*
X258552Y332147D01*
X258494Y332225D01*
X258440Y332305D01*
X258390Y332388D01*
X258343Y332472D01*
X258299Y332558D01*
X258259Y332646D01*
X258222Y332736D01*
X258189Y332827D01*
X258160Y332919D01*
X258135Y333012D01*
X258113Y333107D01*
X258096Y333202D01*
X258082Y333298D01*
X258072Y333394D01*
X258066Y333490D01*
X258064Y333587D01*
X268451Y331216D02*
X268451Y338328D01*
X272007Y338328D01*
X272007Y337143D01*
X277749Y331216D02*
X280712Y331216D01*
X277749Y331216D02*
X277667Y331218D01*
X277585Y331224D01*
X277503Y331233D01*
X277422Y331246D01*
X277342Y331263D01*
X277262Y331284D01*
X277184Y331308D01*
X277107Y331336D01*
X277031Y331367D01*
X276956Y331402D01*
X276884Y331441D01*
X276813Y331482D01*
X276744Y331527D01*
X276678Y331575D01*
X276613Y331626D01*
X276551Y331680D01*
X276492Y331737D01*
X276435Y331796D01*
X276381Y331858D01*
X276330Y331923D01*
X276282Y331989D01*
X276237Y332058D01*
X276196Y332129D01*
X276157Y332201D01*
X276122Y332276D01*
X276091Y332352D01*
X276063Y332429D01*
X276039Y332507D01*
X276018Y332587D01*
X276001Y332667D01*
X275988Y332748D01*
X275979Y332830D01*
X275973Y332912D01*
X275971Y332994D01*
X275971Y335957D01*
X275973Y336054D01*
X275979Y336150D01*
X275989Y336246D01*
X276003Y336342D01*
X276020Y336437D01*
X276042Y336532D01*
X276067Y336625D01*
X276096Y336717D01*
X276129Y336808D01*
X276166Y336898D01*
X276206Y336986D01*
X276250Y337072D01*
X276297Y337156D01*
X276347Y337239D01*
X276401Y337319D01*
X276459Y337397D01*
X276519Y337473D01*
X276582Y337546D01*
X276648Y337616D01*
X276718Y337684D01*
X276789Y337749D01*
X276864Y337811D01*
X276941Y337869D01*
X277020Y337925D01*
X277101Y337977D01*
X277185Y338026D01*
X277270Y338072D01*
X277357Y338114D01*
X277446Y338152D01*
X277536Y338187D01*
X277628Y338218D01*
X277721Y338245D01*
X277814Y338269D01*
X277909Y338288D01*
X278005Y338304D01*
X278101Y338316D01*
X278197Y338324D01*
X278294Y338328D01*
X278390Y338328D01*
X278487Y338324D01*
X278583Y338316D01*
X278679Y338304D01*
X278775Y338288D01*
X278870Y338269D01*
X278963Y338245D01*
X279056Y338218D01*
X279148Y338187D01*
X279238Y338152D01*
X279327Y338114D01*
X279414Y338072D01*
X279499Y338026D01*
X279583Y337977D01*
X279664Y337925D01*
X279743Y337869D01*
X279820Y337811D01*
X279895Y337749D01*
X279966Y337684D01*
X280036Y337616D01*
X280102Y337546D01*
X280165Y337473D01*
X280225Y337397D01*
X280283Y337319D01*
X280337Y337239D01*
X280387Y337156D01*
X280434Y337072D01*
X280478Y336986D01*
X280518Y336898D01*
X280555Y336808D01*
X280588Y336717D01*
X280617Y336625D01*
X280642Y336532D01*
X280664Y336437D01*
X280681Y336342D01*
X280695Y336246D01*
X280705Y336150D01*
X280711Y336054D01*
X280713Y335957D01*
X280712Y335957D02*
X280712Y334772D01*
X275971Y334772D01*
D11*
X127250Y281150D02*
X127252Y281263D01*
X127258Y281377D01*
X127268Y281490D01*
X127282Y281602D01*
X127299Y281714D01*
X127321Y281826D01*
X127347Y281936D01*
X127376Y282046D01*
X127409Y282154D01*
X127446Y282262D01*
X127487Y282367D01*
X127531Y282472D01*
X127579Y282575D01*
X127630Y282676D01*
X127685Y282775D01*
X127744Y282872D01*
X127806Y282967D01*
X127871Y283060D01*
X127939Y283151D01*
X128010Y283239D01*
X128085Y283325D01*
X128162Y283408D01*
X128242Y283488D01*
X128325Y283565D01*
X128411Y283640D01*
X128499Y283711D01*
X128590Y283779D01*
X128683Y283844D01*
X128778Y283906D01*
X128875Y283965D01*
X128974Y284020D01*
X129075Y284071D01*
X129178Y284119D01*
X129283Y284163D01*
X129388Y284204D01*
X129496Y284241D01*
X129604Y284274D01*
X129714Y284303D01*
X129824Y284329D01*
X129936Y284351D01*
X130048Y284368D01*
X130160Y284382D01*
X130273Y284392D01*
X130387Y284398D01*
X130500Y284400D01*
X130613Y284398D01*
X130727Y284392D01*
X130840Y284382D01*
X130952Y284368D01*
X131064Y284351D01*
X131176Y284329D01*
X131286Y284303D01*
X131396Y284274D01*
X131504Y284241D01*
X131612Y284204D01*
X131717Y284163D01*
X131822Y284119D01*
X131925Y284071D01*
X132026Y284020D01*
X132125Y283965D01*
X132222Y283906D01*
X132317Y283844D01*
X132410Y283779D01*
X132501Y283711D01*
X132589Y283640D01*
X132675Y283565D01*
X132758Y283488D01*
X132838Y283408D01*
X132915Y283325D01*
X132990Y283239D01*
X133061Y283151D01*
X133129Y283060D01*
X133194Y282967D01*
X133256Y282872D01*
X133315Y282775D01*
X133370Y282676D01*
X133421Y282575D01*
X133469Y282472D01*
X133513Y282367D01*
X133554Y282262D01*
X133591Y282154D01*
X133624Y282046D01*
X133653Y281936D01*
X133679Y281826D01*
X133701Y281714D01*
X133718Y281602D01*
X133732Y281490D01*
X133742Y281377D01*
X133748Y281263D01*
X133750Y281150D01*
X133748Y281037D01*
X133742Y280923D01*
X133732Y280810D01*
X133718Y280698D01*
X133701Y280586D01*
X133679Y280474D01*
X133653Y280364D01*
X133624Y280254D01*
X133591Y280146D01*
X133554Y280038D01*
X133513Y279933D01*
X133469Y279828D01*
X133421Y279725D01*
X133370Y279624D01*
X133315Y279525D01*
X133256Y279428D01*
X133194Y279333D01*
X133129Y279240D01*
X133061Y279149D01*
X132990Y279061D01*
X132915Y278975D01*
X132838Y278892D01*
X132758Y278812D01*
X132675Y278735D01*
X132589Y278660D01*
X132501Y278589D01*
X132410Y278521D01*
X132317Y278456D01*
X132222Y278394D01*
X132125Y278335D01*
X132026Y278280D01*
X131925Y278229D01*
X131822Y278181D01*
X131717Y278137D01*
X131612Y278096D01*
X131504Y278059D01*
X131396Y278026D01*
X131286Y277997D01*
X131176Y277971D01*
X131064Y277949D01*
X130952Y277932D01*
X130840Y277918D01*
X130727Y277908D01*
X130613Y277902D01*
X130500Y277900D01*
X130387Y277902D01*
X130273Y277908D01*
X130160Y277918D01*
X130048Y277932D01*
X129936Y277949D01*
X129824Y277971D01*
X129714Y277997D01*
X129604Y278026D01*
X129496Y278059D01*
X129388Y278096D01*
X129283Y278137D01*
X129178Y278181D01*
X129075Y278229D01*
X128974Y278280D01*
X128875Y278335D01*
X128778Y278394D01*
X128683Y278456D01*
X128590Y278521D01*
X128499Y278589D01*
X128411Y278660D01*
X128325Y278735D01*
X128242Y278812D01*
X128162Y278892D01*
X128085Y278975D01*
X128010Y279061D01*
X127939Y279149D01*
X127871Y279240D01*
X127806Y279333D01*
X127744Y279428D01*
X127685Y279525D01*
X127630Y279624D01*
X127579Y279725D01*
X127531Y279828D01*
X127487Y279933D01*
X127446Y280038D01*
X127409Y280146D01*
X127376Y280254D01*
X127347Y280364D01*
X127321Y280474D01*
X127299Y280586D01*
X127282Y280698D01*
X127268Y280810D01*
X127258Y280923D01*
X127252Y281037D01*
X127250Y281150D01*
X69450Y281150D02*
X69452Y281263D01*
X69458Y281377D01*
X69468Y281490D01*
X69482Y281602D01*
X69499Y281714D01*
X69521Y281826D01*
X69547Y281936D01*
X69576Y282046D01*
X69609Y282154D01*
X69646Y282262D01*
X69687Y282367D01*
X69731Y282472D01*
X69779Y282575D01*
X69830Y282676D01*
X69885Y282775D01*
X69944Y282872D01*
X70006Y282967D01*
X70071Y283060D01*
X70139Y283151D01*
X70210Y283239D01*
X70285Y283325D01*
X70362Y283408D01*
X70442Y283488D01*
X70525Y283565D01*
X70611Y283640D01*
X70699Y283711D01*
X70790Y283779D01*
X70883Y283844D01*
X70978Y283906D01*
X71075Y283965D01*
X71174Y284020D01*
X71275Y284071D01*
X71378Y284119D01*
X71483Y284163D01*
X71588Y284204D01*
X71696Y284241D01*
X71804Y284274D01*
X71914Y284303D01*
X72024Y284329D01*
X72136Y284351D01*
X72248Y284368D01*
X72360Y284382D01*
X72473Y284392D01*
X72587Y284398D01*
X72700Y284400D01*
X72813Y284398D01*
X72927Y284392D01*
X73040Y284382D01*
X73152Y284368D01*
X73264Y284351D01*
X73376Y284329D01*
X73486Y284303D01*
X73596Y284274D01*
X73704Y284241D01*
X73812Y284204D01*
X73917Y284163D01*
X74022Y284119D01*
X74125Y284071D01*
X74226Y284020D01*
X74325Y283965D01*
X74422Y283906D01*
X74517Y283844D01*
X74610Y283779D01*
X74701Y283711D01*
X74789Y283640D01*
X74875Y283565D01*
X74958Y283488D01*
X75038Y283408D01*
X75115Y283325D01*
X75190Y283239D01*
X75261Y283151D01*
X75329Y283060D01*
X75394Y282967D01*
X75456Y282872D01*
X75515Y282775D01*
X75570Y282676D01*
X75621Y282575D01*
X75669Y282472D01*
X75713Y282367D01*
X75754Y282262D01*
X75791Y282154D01*
X75824Y282046D01*
X75853Y281936D01*
X75879Y281826D01*
X75901Y281714D01*
X75918Y281602D01*
X75932Y281490D01*
X75942Y281377D01*
X75948Y281263D01*
X75950Y281150D01*
X75948Y281037D01*
X75942Y280923D01*
X75932Y280810D01*
X75918Y280698D01*
X75901Y280586D01*
X75879Y280474D01*
X75853Y280364D01*
X75824Y280254D01*
X75791Y280146D01*
X75754Y280038D01*
X75713Y279933D01*
X75669Y279828D01*
X75621Y279725D01*
X75570Y279624D01*
X75515Y279525D01*
X75456Y279428D01*
X75394Y279333D01*
X75329Y279240D01*
X75261Y279149D01*
X75190Y279061D01*
X75115Y278975D01*
X75038Y278892D01*
X74958Y278812D01*
X74875Y278735D01*
X74789Y278660D01*
X74701Y278589D01*
X74610Y278521D01*
X74517Y278456D01*
X74422Y278394D01*
X74325Y278335D01*
X74226Y278280D01*
X74125Y278229D01*
X74022Y278181D01*
X73917Y278137D01*
X73812Y278096D01*
X73704Y278059D01*
X73596Y278026D01*
X73486Y277997D01*
X73376Y277971D01*
X73264Y277949D01*
X73152Y277932D01*
X73040Y277918D01*
X72927Y277908D01*
X72813Y277902D01*
X72700Y277900D01*
X72587Y277902D01*
X72473Y277908D01*
X72360Y277918D01*
X72248Y277932D01*
X72136Y277949D01*
X72024Y277971D01*
X71914Y277997D01*
X71804Y278026D01*
X71696Y278059D01*
X71588Y278096D01*
X71483Y278137D01*
X71378Y278181D01*
X71275Y278229D01*
X71174Y278280D01*
X71075Y278335D01*
X70978Y278394D01*
X70883Y278456D01*
X70790Y278521D01*
X70699Y278589D01*
X70611Y278660D01*
X70525Y278735D01*
X70442Y278812D01*
X70362Y278892D01*
X70285Y278975D01*
X70210Y279061D01*
X70139Y279149D01*
X70071Y279240D01*
X70006Y279333D01*
X69944Y279428D01*
X69885Y279525D01*
X69830Y279624D01*
X69779Y279725D01*
X69731Y279828D01*
X69687Y279933D01*
X69646Y280038D01*
X69609Y280146D01*
X69576Y280254D01*
X69547Y280364D01*
X69521Y280474D01*
X69499Y280586D01*
X69482Y280698D01*
X69468Y280810D01*
X69458Y280923D01*
X69452Y281037D01*
X69450Y281150D01*
D12*
X144780Y281350D02*
X144780Y270350D01*
X58420Y270350D02*
X58420Y281350D01*
X144780Y314500D02*
X144780Y320700D01*
X58420Y320700D02*
X58420Y314500D01*
M02*
