M48
;GenerationSoftware,Autodesk,EAGLE,9.6.2*%
;CreationDate,2023-09-11T16:28:59Z*%
FMAT,2
ICI,OFF
METRIC,TZ,000.000
T5C0.305
T4C0.400
T3C0.650
T2C0.850
T1C1.700
%
G90
M71
T1
X970Y26670
X19350Y29210
X19350Y8890
X19350Y16510
X970Y8890
X970Y16510
X970Y11430
X970Y24130
X970Y21590
X970Y19050
X970Y13970
X970Y29210
X19350Y11430
X19350Y13970
X19350Y19050
X19350Y21590
X19350Y24130
X19350Y26670
T2
X2540Y16510
X2540Y11430
X2540Y8890
X17780Y26670
X17780Y13970
X17780Y11430
X17780Y16510
X17780Y8890
X17780Y24130
X17780Y21590
X17780Y29210
X2540Y29210
X2540Y24130
X2540Y26670
X2540Y21590
X2540Y19050
X2540Y13970
X17780Y19050
T3
X7270Y28115
X13050Y28115
T4
X14478Y31765
X5842Y27585
X14478Y27585
X5842Y31765
T5
X13741Y20015
X13792Y13589
X10973Y14224
X6172Y15062
X3937Y30353
X5207Y10795
X4318Y26518
X3429Y10160
X16535Y18085
X15215Y10363
X14707Y12217
X5080Y22860
X11760Y17170
X8992Y14402
X5880Y21844
X5563Y16891
X10592Y15265
X9728Y15265
X11430Y8001
X6680Y13030
X12420Y14741
X15113Y19787
X12700Y20320
X10029Y28934
X18288Y30810
X5086Y14351
X10160Y30353
X5080Y13589
X11481Y22987
X16586Y19558
X5207Y18567
X15189Y8712
X10820Y22987
X8026Y19304
X8001Y24130
X9322Y23419
X4826Y17120
X15240Y22860
X5080Y7620
X3048Y7112
X4928Y28296
X13919Y22860
X15016Y30577
X11419Y18860
X6604Y26086
X13691Y26086
X4216Y27457
X18034Y7620
X13183Y15062
X5080Y9779
X6350Y8890
X12268Y27915
X9017Y15113
X14859Y9525
X17577Y17780
X5461Y15113
X17018Y20320
X7112Y19939
X6401Y22860
X11938Y30480
X6604Y32004
X13716Y32004
X11125Y25552
X9246Y25730
X8077Y27965
M30