G04 EAGLE Gerber RS-274X export*
G75*
%MOMM*%
%FSLAX34Y34*%
%LPD*%
%INSolderpaste Top*%
%IPPOS*%
%AMOC8*
5,1,8,0,0,1.08239X$1,22.5*%
G01*
%ADD10C,0.102000*%
%ADD11C,0.099000*%
%ADD12C,0.300000*%
%ADD13C,0.096000*%
%ADD14R,0.700000X0.300000*%
%ADD15R,0.300000X0.700000*%
%ADD16R,0.600000X0.600000*%
%ADD17R,0.800000X0.800000*%

G36*
X58604Y265155D02*
X58604Y265155D01*
X58607Y265151D01*
X59715Y265321D01*
X59721Y265327D01*
X59726Y265324D01*
X60768Y265736D01*
X60772Y265743D01*
X60777Y265741D01*
X61702Y266375D01*
X61704Y266383D01*
X61710Y266382D01*
X62470Y267206D01*
X62471Y267214D01*
X62477Y267214D01*
X63034Y268186D01*
X63034Y268190D01*
X63035Y268191D01*
X63033Y268193D01*
X63033Y268194D01*
X63039Y268196D01*
X63366Y269268D01*
X63365Y269273D01*
X63367Y269274D01*
X63365Y269277D01*
X63368Y269279D01*
X63449Y270396D01*
X63448Y270399D01*
X63449Y270400D01*
X63449Y282400D01*
X63444Y282407D01*
X63448Y282411D01*
X63229Y283355D01*
X63223Y283361D01*
X63225Y283366D01*
X62802Y284238D01*
X62794Y284241D01*
X62796Y284247D01*
X62189Y285003D01*
X62181Y285005D01*
X62181Y285011D01*
X61421Y285612D01*
X61412Y285612D01*
X61411Y285618D01*
X60536Y286036D01*
X60528Y286034D01*
X60526Y286039D01*
X59580Y286252D01*
X59573Y286248D01*
X59569Y286253D01*
X58600Y286249D01*
X58599Y286249D01*
X57531Y286230D01*
X57530Y286230D01*
X57524Y286226D01*
X57520Y286229D01*
X56483Y285973D01*
X56478Y285966D01*
X56472Y285969D01*
X55518Y285488D01*
X55515Y285481D01*
X55509Y285482D01*
X54686Y284801D01*
X54684Y284793D01*
X54678Y284793D01*
X54027Y283946D01*
X54027Y283938D01*
X54021Y283937D01*
X53574Y282966D01*
X53576Y282958D01*
X53571Y282956D01*
X53352Y281910D01*
X53355Y281903D01*
X53351Y281900D01*
X53351Y269900D01*
X53354Y269895D01*
X53351Y269892D01*
X53531Y268797D01*
X53537Y268791D01*
X53534Y268786D01*
X53953Y267758D01*
X53960Y267754D01*
X53958Y267749D01*
X54596Y266840D01*
X54603Y266838D01*
X54603Y266832D01*
X55426Y266088D01*
X55434Y266087D01*
X55435Y266081D01*
X56403Y265539D01*
X56412Y265540D01*
X56414Y265534D01*
X57478Y265221D01*
X57486Y265224D01*
X57489Y265219D01*
X58597Y265151D01*
X58604Y265155D01*
G37*
G36*
X145102Y265154D02*
X145102Y265154D01*
X145106Y265151D01*
X146151Y265269D01*
X146157Y265275D01*
X146162Y265271D01*
X147156Y265619D01*
X147160Y265626D01*
X147165Y265624D01*
X148057Y266184D01*
X148060Y266191D01*
X148065Y266191D01*
X148809Y266935D01*
X148811Y266943D01*
X148816Y266943D01*
X149376Y267835D01*
X149376Y267842D01*
X149377Y267843D01*
X149381Y267844D01*
X149729Y268838D01*
X149726Y268846D01*
X149731Y268849D01*
X149849Y269895D01*
X149847Y269898D01*
X149849Y269900D01*
X149849Y281900D01*
X149846Y281905D01*
X149849Y281908D01*
X149691Y282904D01*
X149685Y282910D01*
X149688Y282915D01*
X149313Y283851D01*
X149306Y283855D01*
X149308Y283861D01*
X148734Y284690D01*
X148726Y284693D01*
X148727Y284698D01*
X147983Y285379D01*
X147974Y285380D01*
X147974Y285386D01*
X147097Y285884D01*
X147089Y285883D01*
X147086Y285888D01*
X146121Y286179D01*
X146113Y286176D01*
X146110Y286181D01*
X145103Y286249D01*
X145101Y286248D01*
X145100Y286249D01*
X144019Y286240D01*
X144012Y286235D01*
X144008Y286239D01*
X142956Y285990D01*
X142951Y285983D01*
X142946Y285986D01*
X141976Y285509D01*
X141973Y285501D01*
X141967Y285503D01*
X141128Y284822D01*
X141126Y284814D01*
X141120Y284814D01*
X140454Y283964D01*
X140453Y283955D01*
X140448Y283954D01*
X139987Y282977D01*
X139989Y282969D01*
X139984Y282966D01*
X139752Y281911D01*
X139755Y281903D01*
X139751Y281900D01*
X139751Y269900D01*
X139755Y269895D01*
X139751Y269892D01*
X139944Y268786D01*
X139950Y268781D01*
X139947Y268776D01*
X140380Y267741D01*
X140387Y267737D01*
X140385Y267732D01*
X141038Y266819D01*
X141046Y266817D01*
X141045Y266811D01*
X141884Y266067D01*
X141893Y266066D01*
X141893Y266061D01*
X142877Y265522D01*
X142885Y265523D01*
X142887Y265518D01*
X143966Y265211D01*
X143974Y265214D01*
X143977Y265209D01*
X145097Y265151D01*
X145102Y265154D01*
G37*
G36*
X58604Y309656D02*
X58604Y309656D01*
X58609Y309652D01*
X59746Y309859D01*
X59752Y309865D01*
X59757Y309862D01*
X60819Y310317D01*
X60823Y310324D01*
X60829Y310322D01*
X61764Y311002D01*
X61766Y311010D01*
X61772Y311009D01*
X62532Y311880D01*
X62532Y311888D01*
X62538Y311889D01*
X63085Y312908D01*
X63084Y312916D01*
X63089Y312918D01*
X63095Y312937D01*
X63108Y312986D01*
X63122Y313036D01*
X63135Y313085D01*
X63149Y313134D01*
X63162Y313183D01*
X63163Y313183D01*
X63162Y313183D01*
X63176Y313233D01*
X63190Y313282D01*
X63203Y313331D01*
X63217Y313380D01*
X63230Y313430D01*
X63244Y313479D01*
X63257Y313528D01*
X63271Y313577D01*
X63285Y313627D01*
X63298Y313676D01*
X63312Y313725D01*
X63396Y314032D01*
X63393Y314040D01*
X63398Y314043D01*
X63449Y315198D01*
X63448Y315199D01*
X63449Y315200D01*
X63449Y321200D01*
X63445Y321206D01*
X63448Y321209D01*
X63236Y322290D01*
X63230Y322295D01*
X63233Y322300D01*
X62786Y323306D01*
X62779Y323310D01*
X62781Y323316D01*
X62121Y324197D01*
X62113Y324200D01*
X62113Y324205D01*
X61274Y324918D01*
X61266Y324918D01*
X61265Y324924D01*
X60288Y325432D01*
X60280Y325431D01*
X60278Y325436D01*
X59213Y325714D01*
X59205Y325711D01*
X59202Y325715D01*
X58102Y325749D01*
X58096Y325746D01*
X58093Y325749D01*
X57018Y325594D01*
X57012Y325588D01*
X57007Y325591D01*
X55993Y325201D01*
X55989Y325194D01*
X55983Y325196D01*
X55081Y324589D01*
X55079Y324581D01*
X55073Y324582D01*
X54329Y323790D01*
X54328Y323782D01*
X54322Y323782D01*
X53773Y322844D01*
X53774Y322836D01*
X53768Y322834D01*
X53441Y321798D01*
X53444Y321790D01*
X53439Y321787D01*
X53351Y320704D01*
X53353Y320701D01*
X53351Y320700D01*
X53351Y314700D01*
X53354Y314696D01*
X53351Y314694D01*
X53501Y313561D01*
X53507Y313555D01*
X53504Y313550D01*
X53902Y312480D01*
X53909Y312476D01*
X53907Y312470D01*
X54534Y311515D01*
X54542Y311512D01*
X54541Y311507D01*
X55364Y310715D01*
X55372Y310714D01*
X55373Y310708D01*
X56352Y310119D01*
X56360Y310120D01*
X56362Y310115D01*
X57447Y309759D01*
X57455Y309762D01*
X57458Y309757D01*
X58595Y309651D01*
X58604Y309656D01*
G37*
G36*
X145742Y309757D02*
X145742Y309757D01*
X145748Y309762D01*
X145753Y309759D01*
X146838Y310115D01*
X146843Y310122D01*
X146848Y310119D01*
X147827Y310708D01*
X147830Y310716D01*
X147836Y310715D01*
X148659Y311507D01*
X148660Y311515D01*
X148666Y311515D01*
X149293Y312470D01*
X149292Y312478D01*
X149298Y312480D01*
X149696Y313550D01*
X149694Y313558D01*
X149699Y313561D01*
X149849Y314694D01*
X149846Y314698D01*
X149849Y314700D01*
X149849Y320700D01*
X149846Y320704D01*
X149849Y320706D01*
X149699Y321839D01*
X149693Y321845D01*
X149696Y321850D01*
X149298Y322920D01*
X149291Y322924D01*
X149293Y322930D01*
X148666Y323885D01*
X148658Y323888D01*
X148659Y323893D01*
X147836Y324685D01*
X147828Y324686D01*
X147827Y324692D01*
X146848Y325281D01*
X146840Y325280D01*
X146838Y325285D01*
X145753Y325641D01*
X145745Y325639D01*
X145742Y325643D01*
X144605Y325749D01*
X144598Y325745D01*
X144594Y325749D01*
X143506Y325604D01*
X143500Y325598D01*
X143495Y325601D01*
X142467Y325218D01*
X142462Y325211D01*
X142457Y325213D01*
X141540Y324610D01*
X141537Y324602D01*
X141531Y324603D01*
X140771Y323811D01*
X140770Y323803D01*
X140764Y323802D01*
X140200Y322861D01*
X140201Y322853D01*
X140195Y322851D01*
X139854Y321808D01*
X139856Y321800D01*
X139852Y321797D01*
X139751Y320705D01*
X139753Y320702D01*
X139751Y320700D01*
X139751Y314700D01*
X139753Y314697D01*
X139751Y314696D01*
X139852Y313603D01*
X139857Y313597D01*
X139854Y313592D01*
X140195Y312549D01*
X140202Y312544D01*
X140200Y312539D01*
X140764Y311598D01*
X140772Y311595D01*
X140771Y311589D01*
X141531Y310797D01*
X141539Y310796D01*
X141540Y310790D01*
X142457Y310188D01*
X142465Y310188D01*
X142467Y310183D01*
X143495Y309799D01*
X143503Y309801D01*
X143506Y309796D01*
X144594Y309651D01*
X144601Y309655D01*
X144605Y309651D01*
X145742Y309757D01*
G37*
D10*
X93110Y274590D02*
X95090Y274590D01*
X95090Y265610D01*
X93110Y265610D01*
X93110Y274590D01*
X93110Y266579D02*
X95090Y266579D01*
X95090Y267548D02*
X93110Y267548D01*
X93110Y268517D02*
X95090Y268517D01*
X95090Y269486D02*
X93110Y269486D01*
X93110Y270455D02*
X95090Y270455D01*
X95090Y271424D02*
X93110Y271424D01*
X93110Y272393D02*
X95090Y272393D01*
X95090Y273362D02*
X93110Y273362D01*
X93110Y274331D02*
X95090Y274331D01*
X98110Y274590D02*
X100090Y274590D01*
X100090Y265610D01*
X98110Y265610D01*
X98110Y274590D01*
X98110Y266579D02*
X100090Y266579D01*
X100090Y267548D02*
X98110Y267548D01*
X98110Y268517D02*
X100090Y268517D01*
X100090Y269486D02*
X98110Y269486D01*
X98110Y270455D02*
X100090Y270455D01*
X100090Y271424D02*
X98110Y271424D01*
X98110Y272393D02*
X100090Y272393D01*
X100090Y273362D02*
X98110Y273362D01*
X98110Y274331D02*
X100090Y274331D01*
X71840Y274590D02*
X66860Y274590D01*
X71840Y274590D02*
X71840Y265610D01*
X66860Y265610D01*
X66860Y274590D01*
X66860Y266579D02*
X71840Y266579D01*
X71840Y267548D02*
X66860Y267548D01*
X66860Y268517D02*
X71840Y268517D01*
X71840Y269486D02*
X66860Y269486D01*
X66860Y270455D02*
X71840Y270455D01*
X71840Y271424D02*
X66860Y271424D01*
X66860Y272393D02*
X71840Y272393D01*
X71840Y273362D02*
X66860Y273362D01*
X66860Y274331D02*
X71840Y274331D01*
X74610Y274590D02*
X79590Y274590D01*
X79590Y265610D01*
X74610Y265610D01*
X74610Y274590D01*
X74610Y266579D02*
X79590Y266579D01*
X79590Y267548D02*
X74610Y267548D01*
X74610Y268517D02*
X79590Y268517D01*
X79590Y269486D02*
X74610Y269486D01*
X74610Y270455D02*
X79590Y270455D01*
X79590Y271424D02*
X74610Y271424D01*
X74610Y272393D02*
X79590Y272393D01*
X79590Y273362D02*
X74610Y273362D01*
X74610Y274331D02*
X79590Y274331D01*
X83110Y274590D02*
X85090Y274590D01*
X85090Y265610D01*
X83110Y265610D01*
X83110Y274590D01*
X83110Y266579D02*
X85090Y266579D01*
X85090Y267548D02*
X83110Y267548D01*
X83110Y268517D02*
X85090Y268517D01*
X85090Y269486D02*
X83110Y269486D01*
X83110Y270455D02*
X85090Y270455D01*
X85090Y271424D02*
X83110Y271424D01*
X83110Y272393D02*
X85090Y272393D01*
X85090Y273362D02*
X83110Y273362D01*
X83110Y274331D02*
X85090Y274331D01*
X88110Y274590D02*
X90090Y274590D01*
X90090Y265610D01*
X88110Y265610D01*
X88110Y274590D01*
X88110Y266579D02*
X90090Y266579D01*
X90090Y267548D02*
X88110Y267548D01*
X88110Y268517D02*
X90090Y268517D01*
X90090Y269486D02*
X88110Y269486D01*
X88110Y270455D02*
X90090Y270455D01*
X90090Y271424D02*
X88110Y271424D01*
X88110Y272393D02*
X90090Y272393D01*
X90090Y273362D02*
X88110Y273362D01*
X88110Y274331D02*
X90090Y274331D01*
X108110Y265610D02*
X110090Y265610D01*
X108110Y265610D02*
X108110Y274590D01*
X110090Y274590D01*
X110090Y265610D01*
X110090Y266579D02*
X108110Y266579D01*
X108110Y267548D02*
X110090Y267548D01*
X110090Y268517D02*
X108110Y268517D01*
X108110Y269486D02*
X110090Y269486D01*
X110090Y270455D02*
X108110Y270455D01*
X108110Y271424D02*
X110090Y271424D01*
X110090Y272393D02*
X108110Y272393D01*
X108110Y273362D02*
X110090Y273362D01*
X110090Y274331D02*
X108110Y274331D01*
X105090Y265610D02*
X103110Y265610D01*
X103110Y274590D01*
X105090Y274590D01*
X105090Y265610D01*
X105090Y266579D02*
X103110Y266579D01*
X103110Y267548D02*
X105090Y267548D01*
X105090Y268517D02*
X103110Y268517D01*
X103110Y269486D02*
X105090Y269486D01*
X105090Y270455D02*
X103110Y270455D01*
X103110Y271424D02*
X105090Y271424D01*
X105090Y272393D02*
X103110Y272393D01*
X103110Y273362D02*
X105090Y273362D01*
X105090Y274331D02*
X103110Y274331D01*
X131360Y265610D02*
X136340Y265610D01*
X131360Y265610D02*
X131360Y274590D01*
X136340Y274590D01*
X136340Y265610D01*
X136340Y266579D02*
X131360Y266579D01*
X131360Y267548D02*
X136340Y267548D01*
X136340Y268517D02*
X131360Y268517D01*
X131360Y269486D02*
X136340Y269486D01*
X136340Y270455D02*
X131360Y270455D01*
X131360Y271424D02*
X136340Y271424D01*
X136340Y272393D02*
X131360Y272393D01*
X131360Y273362D02*
X136340Y273362D01*
X136340Y274331D02*
X131360Y274331D01*
X128590Y265610D02*
X123610Y265610D01*
X123610Y274590D01*
X128590Y274590D01*
X128590Y265610D01*
X128590Y266579D02*
X123610Y266579D01*
X123610Y267548D02*
X128590Y267548D01*
X128590Y268517D02*
X123610Y268517D01*
X123610Y269486D02*
X128590Y269486D01*
X128590Y270455D02*
X123610Y270455D01*
X123610Y271424D02*
X128590Y271424D01*
X128590Y272393D02*
X123610Y272393D01*
X123610Y273362D02*
X128590Y273362D01*
X128590Y274331D02*
X123610Y274331D01*
X120090Y265610D02*
X118110Y265610D01*
X118110Y274590D01*
X120090Y274590D01*
X120090Y265610D01*
X120090Y266579D02*
X118110Y266579D01*
X118110Y267548D02*
X120090Y267548D01*
X120090Y268517D02*
X118110Y268517D01*
X118110Y269486D02*
X120090Y269486D01*
X120090Y270455D02*
X118110Y270455D01*
X118110Y271424D02*
X120090Y271424D01*
X120090Y272393D02*
X118110Y272393D01*
X118110Y273362D02*
X120090Y273362D01*
X120090Y274331D02*
X118110Y274331D01*
X115090Y265610D02*
X113110Y265610D01*
X113110Y274590D01*
X115090Y274590D01*
X115090Y265610D01*
X115090Y266579D02*
X113110Y266579D01*
X113110Y267548D02*
X115090Y267548D01*
X115090Y268517D02*
X113110Y268517D01*
X113110Y269486D02*
X115090Y269486D01*
X115090Y270455D02*
X113110Y270455D01*
X113110Y271424D02*
X115090Y271424D01*
X115090Y272393D02*
X113110Y272393D01*
X113110Y273362D02*
X115090Y273362D01*
X115090Y274331D02*
X113110Y274331D01*
D11*
X113355Y250916D02*
X108845Y250916D01*
X113355Y250916D02*
X113355Y239906D01*
X108845Y239906D01*
X108845Y250916D01*
X108845Y240846D02*
X113355Y240846D01*
X113355Y241786D02*
X108845Y241786D01*
X108845Y242726D02*
X113355Y242726D01*
X113355Y243666D02*
X108845Y243666D01*
X108845Y244606D02*
X113355Y244606D01*
X113355Y245546D02*
X108845Y245546D01*
X108845Y246486D02*
X113355Y246486D01*
X113355Y247426D02*
X108845Y247426D01*
X108845Y248366D02*
X113355Y248366D01*
X113355Y249306D02*
X108845Y249306D01*
X108845Y250246D02*
X113355Y250246D01*
X103855Y250916D02*
X99345Y250916D01*
X103855Y250916D02*
X103855Y239906D01*
X99345Y239906D01*
X99345Y250916D01*
X99345Y240846D02*
X103855Y240846D01*
X103855Y241786D02*
X99345Y241786D01*
X99345Y242726D02*
X103855Y242726D01*
X103855Y243666D02*
X99345Y243666D01*
X99345Y244606D02*
X103855Y244606D01*
X103855Y245546D02*
X99345Y245546D01*
X99345Y246486D02*
X103855Y246486D01*
X103855Y247426D02*
X99345Y247426D01*
X99345Y248366D02*
X103855Y248366D01*
X103855Y249306D02*
X99345Y249306D01*
X99345Y250246D02*
X103855Y250246D01*
X94355Y250916D02*
X89845Y250916D01*
X94355Y250916D02*
X94355Y239906D01*
X89845Y239906D01*
X89845Y250916D01*
X89845Y240846D02*
X94355Y240846D01*
X94355Y241786D02*
X89845Y241786D01*
X89845Y242726D02*
X94355Y242726D01*
X94355Y243666D02*
X89845Y243666D01*
X89845Y244606D02*
X94355Y244606D01*
X94355Y245546D02*
X89845Y245546D01*
X89845Y246486D02*
X94355Y246486D01*
X94355Y247426D02*
X89845Y247426D01*
X89845Y248366D02*
X94355Y248366D01*
X94355Y249306D02*
X89845Y249306D01*
X89845Y250246D02*
X94355Y250246D01*
X94355Y224914D02*
X89845Y224914D01*
X94355Y224914D02*
X94355Y213904D01*
X89845Y213904D01*
X89845Y224914D01*
X89845Y214844D02*
X94355Y214844D01*
X94355Y215784D02*
X89845Y215784D01*
X89845Y216724D02*
X94355Y216724D01*
X94355Y217664D02*
X89845Y217664D01*
X89845Y218604D02*
X94355Y218604D01*
X94355Y219544D02*
X89845Y219544D01*
X89845Y220484D02*
X94355Y220484D01*
X94355Y221424D02*
X89845Y221424D01*
X89845Y222364D02*
X94355Y222364D01*
X94355Y223304D02*
X89845Y223304D01*
X89845Y224244D02*
X94355Y224244D01*
X108845Y224914D02*
X113355Y224914D01*
X113355Y213904D01*
X108845Y213904D01*
X108845Y224914D01*
X108845Y214844D02*
X113355Y214844D01*
X113355Y215784D02*
X108845Y215784D01*
X108845Y216724D02*
X113355Y216724D01*
X113355Y217664D02*
X108845Y217664D01*
X108845Y218604D02*
X113355Y218604D01*
X113355Y219544D02*
X108845Y219544D01*
X108845Y220484D02*
X113355Y220484D01*
X113355Y221424D02*
X108845Y221424D01*
X108845Y222364D02*
X113355Y222364D01*
X113355Y223304D02*
X108845Y223304D01*
X108845Y224244D02*
X113355Y224244D01*
D12*
X38290Y315270D02*
X38290Y322270D01*
X45290Y322270D01*
X45290Y315270D01*
X38290Y315270D01*
X38290Y318120D02*
X45290Y318120D01*
X45290Y320970D02*
X38290Y320970D01*
X20750Y322270D02*
X20750Y315270D01*
X20750Y322270D02*
X27750Y322270D01*
X27750Y315270D01*
X20750Y315270D01*
X20750Y318120D02*
X27750Y318120D01*
X27750Y320970D02*
X20750Y320970D01*
D10*
X49480Y298480D02*
X49480Y293500D01*
X44500Y293500D01*
X44500Y298480D01*
X49480Y298480D01*
X49480Y294469D02*
X44500Y294469D01*
X44500Y295438D02*
X49480Y295438D01*
X49480Y296407D02*
X44500Y296407D01*
X44500Y297376D02*
X49480Y297376D01*
X49480Y298345D02*
X44500Y298345D01*
X49480Y303500D02*
X49480Y308480D01*
X49480Y303500D02*
X44500Y303500D01*
X44500Y308480D01*
X49480Y308480D01*
X49480Y304469D02*
X44500Y304469D01*
X44500Y305438D02*
X49480Y305438D01*
X49480Y306407D02*
X44500Y306407D01*
X44500Y307376D02*
X49480Y307376D01*
X49480Y308345D02*
X44500Y308345D01*
X78710Y218390D02*
X83690Y218390D01*
X83690Y213410D01*
X78710Y213410D01*
X78710Y218390D01*
X78710Y214379D02*
X83690Y214379D01*
X83690Y215348D02*
X78710Y215348D01*
X78710Y216317D02*
X83690Y216317D01*
X83690Y217286D02*
X78710Y217286D01*
X78710Y218255D02*
X83690Y218255D01*
X73690Y218390D02*
X68710Y218390D01*
X73690Y218390D02*
X73690Y213410D01*
X68710Y213410D01*
X68710Y218390D01*
X68710Y214379D02*
X73690Y214379D01*
X73690Y215348D02*
X68710Y215348D01*
X68710Y216317D02*
X73690Y216317D01*
X73690Y217286D02*
X68710Y217286D01*
X68710Y218255D02*
X73690Y218255D01*
X73690Y226110D02*
X68710Y226110D01*
X68710Y231090D01*
X73690Y231090D01*
X73690Y226110D01*
X73690Y227079D02*
X68710Y227079D01*
X68710Y228048D02*
X73690Y228048D01*
X73690Y229017D02*
X68710Y229017D01*
X68710Y229986D02*
X73690Y229986D01*
X73690Y230955D02*
X68710Y230955D01*
X78710Y226110D02*
X83690Y226110D01*
X78710Y226110D02*
X78710Y231090D01*
X83690Y231090D01*
X83690Y226110D01*
X83690Y227079D02*
X78710Y227079D01*
X78710Y228048D02*
X83690Y228048D01*
X83690Y229017D02*
X78710Y229017D01*
X78710Y229986D02*
X83690Y229986D01*
X83690Y230955D02*
X78710Y230955D01*
X73690Y251510D02*
X68710Y251510D01*
X68710Y256490D01*
X73690Y256490D01*
X73690Y251510D01*
X73690Y252479D02*
X68710Y252479D01*
X68710Y253448D02*
X73690Y253448D01*
X73690Y254417D02*
X68710Y254417D01*
X68710Y255386D02*
X73690Y255386D01*
X73690Y256355D02*
X68710Y256355D01*
X78710Y251510D02*
X83690Y251510D01*
X78710Y251510D02*
X78710Y256490D01*
X83690Y256490D01*
X83690Y251510D01*
X83690Y252479D02*
X78710Y252479D01*
X78710Y253448D02*
X83690Y253448D01*
X83690Y254417D02*
X78710Y254417D01*
X78710Y255386D02*
X83690Y255386D01*
X83690Y256355D02*
X78710Y256355D01*
X129510Y256490D02*
X134490Y256490D01*
X134490Y251510D01*
X129510Y251510D01*
X129510Y256490D01*
X129510Y252479D02*
X134490Y252479D01*
X134490Y253448D02*
X129510Y253448D01*
X129510Y254417D02*
X134490Y254417D01*
X134490Y255386D02*
X129510Y255386D01*
X129510Y256355D02*
X134490Y256355D01*
X124490Y256490D02*
X119510Y256490D01*
X124490Y256490D02*
X124490Y251510D01*
X119510Y251510D01*
X119510Y256490D01*
X119510Y252479D02*
X124490Y252479D01*
X124490Y253448D02*
X119510Y253448D01*
X119510Y254417D02*
X124490Y254417D01*
X124490Y255386D02*
X119510Y255386D01*
X119510Y256355D02*
X124490Y256355D01*
X124490Y238810D02*
X119510Y238810D01*
X119510Y243790D01*
X124490Y243790D01*
X124490Y238810D01*
X124490Y239779D02*
X119510Y239779D01*
X119510Y240748D02*
X124490Y240748D01*
X124490Y241717D02*
X119510Y241717D01*
X119510Y242686D02*
X124490Y242686D01*
X124490Y243655D02*
X119510Y243655D01*
X129510Y238810D02*
X134490Y238810D01*
X129510Y238810D02*
X129510Y243790D01*
X134490Y243790D01*
X134490Y238810D01*
X134490Y239779D02*
X129510Y239779D01*
X129510Y240748D02*
X134490Y240748D01*
X134490Y241717D02*
X129510Y241717D01*
X129510Y242686D02*
X134490Y242686D01*
X134490Y243655D02*
X129510Y243655D01*
X124490Y226110D02*
X119510Y226110D01*
X119510Y231090D01*
X124490Y231090D01*
X124490Y226110D01*
X124490Y227079D02*
X119510Y227079D01*
X119510Y228048D02*
X124490Y228048D01*
X124490Y229017D02*
X119510Y229017D01*
X119510Y229986D02*
X124490Y229986D01*
X124490Y230955D02*
X119510Y230955D01*
X129510Y226110D02*
X134490Y226110D01*
X129510Y226110D02*
X129510Y231090D01*
X134490Y231090D01*
X134490Y226110D01*
X134490Y227079D02*
X129510Y227079D01*
X129510Y228048D02*
X134490Y228048D01*
X134490Y229017D02*
X129510Y229017D01*
X129510Y229986D02*
X134490Y229986D01*
X134490Y230955D02*
X129510Y230955D01*
D11*
X148905Y245095D02*
X148905Y253105D01*
X148905Y245095D02*
X139895Y245095D01*
X139895Y253105D01*
X148905Y253105D01*
X148905Y246035D02*
X139895Y246035D01*
X139895Y246975D02*
X148905Y246975D01*
X148905Y247915D02*
X139895Y247915D01*
X139895Y248855D02*
X148905Y248855D01*
X148905Y249795D02*
X139895Y249795D01*
X139895Y250735D02*
X148905Y250735D01*
X148905Y251675D02*
X139895Y251675D01*
X139895Y252615D02*
X148905Y252615D01*
X164905Y253105D02*
X164905Y245095D01*
X155895Y245095D01*
X155895Y253105D01*
X164905Y253105D01*
X164905Y246035D02*
X155895Y246035D01*
X155895Y246975D02*
X164905Y246975D01*
X164905Y247915D02*
X155895Y247915D01*
X155895Y248855D02*
X164905Y248855D01*
X164905Y249795D02*
X155895Y249795D01*
X155895Y250735D02*
X164905Y250735D01*
X164905Y251675D02*
X155895Y251675D01*
X155895Y252615D02*
X164905Y252615D01*
X164905Y212105D02*
X164905Y204095D01*
X155895Y204095D01*
X155895Y212105D01*
X164905Y212105D01*
X164905Y205035D02*
X155895Y205035D01*
X155895Y205975D02*
X164905Y205975D01*
X164905Y206915D02*
X155895Y206915D01*
X155895Y207855D02*
X164905Y207855D01*
X164905Y208795D02*
X155895Y208795D01*
X155895Y209735D02*
X164905Y209735D01*
X164905Y210675D02*
X155895Y210675D01*
X155895Y211615D02*
X164905Y211615D01*
X148905Y212105D02*
X148905Y204095D01*
X139895Y204095D01*
X139895Y212105D01*
X148905Y212105D01*
X148905Y205035D02*
X139895Y205035D01*
X139895Y205975D02*
X148905Y205975D01*
X148905Y206915D02*
X139895Y206915D01*
X139895Y207855D02*
X148905Y207855D01*
X148905Y208795D02*
X139895Y208795D01*
X139895Y209735D02*
X148905Y209735D01*
X148905Y210675D02*
X139895Y210675D01*
X139895Y211615D02*
X148905Y211615D01*
X54295Y212105D02*
X54295Y204095D01*
X54295Y212105D02*
X63305Y212105D01*
X63305Y204095D01*
X54295Y204095D01*
X54295Y205035D02*
X63305Y205035D01*
X63305Y205975D02*
X54295Y205975D01*
X54295Y206915D02*
X63305Y206915D01*
X63305Y207855D02*
X54295Y207855D01*
X54295Y208795D02*
X63305Y208795D01*
X63305Y209735D02*
X54295Y209735D01*
X54295Y210675D02*
X63305Y210675D01*
X63305Y211615D02*
X54295Y211615D01*
X38295Y212105D02*
X38295Y204095D01*
X38295Y212105D02*
X47305Y212105D01*
X47305Y204095D01*
X38295Y204095D01*
X38295Y205035D02*
X47305Y205035D01*
X47305Y205975D02*
X38295Y205975D01*
X38295Y206915D02*
X47305Y206915D01*
X47305Y207855D02*
X38295Y207855D01*
X38295Y208795D02*
X47305Y208795D01*
X47305Y209735D02*
X38295Y209735D01*
X38295Y210675D02*
X47305Y210675D01*
X47305Y211615D02*
X38295Y211615D01*
X38295Y245095D02*
X38295Y253105D01*
X47305Y253105D01*
X47305Y245095D01*
X38295Y245095D01*
X38295Y246035D02*
X47305Y246035D01*
X47305Y246975D02*
X38295Y246975D01*
X38295Y247915D02*
X47305Y247915D01*
X47305Y248855D02*
X38295Y248855D01*
X38295Y249795D02*
X47305Y249795D01*
X47305Y250735D02*
X38295Y250735D01*
X38295Y251675D02*
X47305Y251675D01*
X47305Y252615D02*
X38295Y252615D01*
X54295Y253105D02*
X54295Y245095D01*
X54295Y253105D02*
X63305Y253105D01*
X63305Y245095D01*
X54295Y245095D01*
X54295Y246035D02*
X63305Y246035D01*
X63305Y246975D02*
X54295Y246975D01*
X54295Y247915D02*
X63305Y247915D01*
X63305Y248855D02*
X54295Y248855D01*
X54295Y249795D02*
X63305Y249795D01*
X63305Y250735D02*
X54295Y250735D01*
X54295Y251675D02*
X63305Y251675D01*
X63305Y252615D02*
X54295Y252615D01*
D10*
X129510Y218390D02*
X134490Y218390D01*
X134490Y213410D01*
X129510Y213410D01*
X129510Y218390D01*
X129510Y214379D02*
X134490Y214379D01*
X134490Y215348D02*
X129510Y215348D01*
X129510Y216317D02*
X134490Y216317D01*
X134490Y217286D02*
X129510Y217286D01*
X129510Y218255D02*
X134490Y218255D01*
X124490Y218390D02*
X119510Y218390D01*
X124490Y218390D02*
X124490Y213410D01*
X119510Y213410D01*
X119510Y218390D01*
X119510Y214379D02*
X124490Y214379D01*
X124490Y215348D02*
X119510Y215348D01*
X119510Y216317D02*
X124490Y216317D01*
X124490Y217286D02*
X119510Y217286D01*
X119510Y218255D02*
X124490Y218255D01*
X161240Y268100D02*
X161240Y273080D01*
X161240Y268100D02*
X156260Y268100D01*
X156260Y273080D01*
X161240Y273080D01*
X161240Y269069D02*
X156260Y269069D01*
X156260Y270038D02*
X161240Y270038D01*
X161240Y271007D02*
X156260Y271007D01*
X156260Y271976D02*
X161240Y271976D01*
X161240Y272945D02*
X156260Y272945D01*
X161240Y278100D02*
X161240Y283080D01*
X161240Y278100D02*
X156260Y278100D01*
X156260Y283080D01*
X161240Y283080D01*
X161240Y279069D02*
X156260Y279069D01*
X156260Y280038D02*
X161240Y280038D01*
X161240Y281007D02*
X156260Y281007D01*
X156260Y281976D02*
X161240Y281976D01*
X161240Y282945D02*
X156260Y282945D01*
D12*
X168600Y314000D02*
X168600Y321000D01*
X168600Y314000D02*
X161600Y314000D01*
X161600Y321000D01*
X168600Y321000D01*
X168600Y316850D02*
X161600Y316850D01*
X161600Y319700D02*
X168600Y319700D01*
X186140Y321000D02*
X186140Y314000D01*
X179140Y314000D01*
X179140Y321000D01*
X186140Y321000D01*
X186140Y316850D02*
X179140Y316850D01*
X179140Y319700D02*
X186140Y319700D01*
D10*
X161240Y298480D02*
X161240Y293500D01*
X156260Y293500D01*
X156260Y298480D01*
X161240Y298480D01*
X161240Y294469D02*
X156260Y294469D01*
X156260Y295438D02*
X161240Y295438D01*
X161240Y296407D02*
X156260Y296407D01*
X156260Y297376D02*
X161240Y297376D01*
X161240Y298345D02*
X156260Y298345D01*
X161240Y303500D02*
X161240Y308480D01*
X161240Y303500D02*
X156260Y303500D01*
X156260Y308480D01*
X161240Y308480D01*
X161240Y304469D02*
X156260Y304469D01*
X156260Y305438D02*
X161240Y305438D01*
X161240Y306407D02*
X156260Y306407D01*
X156260Y307376D02*
X161240Y307376D01*
X161240Y308345D02*
X156260Y308345D01*
X64132Y181052D02*
X59152Y181052D01*
X64132Y181052D02*
X64132Y176072D01*
X59152Y176072D01*
X59152Y181052D01*
X59152Y177041D02*
X64132Y177041D01*
X64132Y178010D02*
X59152Y178010D01*
X59152Y178979D02*
X64132Y178979D01*
X64132Y179948D02*
X59152Y179948D01*
X59152Y180917D02*
X64132Y180917D01*
X54132Y181052D02*
X49152Y181052D01*
X54132Y181052D02*
X54132Y176072D01*
X49152Y176072D01*
X49152Y181052D01*
X49152Y177041D02*
X54132Y177041D01*
X54132Y178010D02*
X49152Y178010D01*
X49152Y178979D02*
X54132Y178979D01*
X54132Y179948D02*
X49152Y179948D01*
X49152Y180917D02*
X54132Y180917D01*
X161240Y183010D02*
X161240Y187990D01*
X161240Y183010D02*
X156260Y183010D01*
X156260Y187990D01*
X161240Y187990D01*
X161240Y183979D02*
X156260Y183979D01*
X156260Y184948D02*
X161240Y184948D01*
X161240Y185917D02*
X156260Y185917D01*
X156260Y186886D02*
X161240Y186886D01*
X161240Y187855D02*
X156260Y187855D01*
X161240Y193010D02*
X161240Y197990D01*
X161240Y193010D02*
X156260Y193010D01*
X156260Y197990D01*
X161240Y197990D01*
X161240Y193979D02*
X156260Y193979D01*
X156260Y194948D02*
X161240Y194948D01*
X161240Y195917D02*
X156260Y195917D01*
X156260Y196886D02*
X161240Y196886D01*
X161240Y197855D02*
X156260Y197855D01*
X119090Y210310D02*
X114110Y210310D01*
X119090Y210310D02*
X119090Y195830D01*
X114110Y195830D01*
X114110Y210310D01*
X114110Y196799D02*
X119090Y196799D01*
X119090Y197768D02*
X114110Y197768D01*
X114110Y198737D02*
X119090Y198737D01*
X119090Y199706D02*
X114110Y199706D01*
X114110Y200675D02*
X119090Y200675D01*
X119090Y201644D02*
X114110Y201644D01*
X114110Y202613D02*
X119090Y202613D01*
X119090Y203582D02*
X114110Y203582D01*
X114110Y204551D02*
X119090Y204551D01*
X119090Y205520D02*
X114110Y205520D01*
X114110Y206489D02*
X119090Y206489D01*
X119090Y207458D02*
X114110Y207458D01*
X114110Y208427D02*
X119090Y208427D01*
X119090Y209396D02*
X114110Y209396D01*
X109090Y210310D02*
X104110Y210310D01*
X109090Y210310D02*
X109090Y195830D01*
X104110Y195830D01*
X104110Y210310D01*
X104110Y196799D02*
X109090Y196799D01*
X109090Y197768D02*
X104110Y197768D01*
X104110Y198737D02*
X109090Y198737D01*
X109090Y199706D02*
X104110Y199706D01*
X104110Y200675D02*
X109090Y200675D01*
X109090Y201644D02*
X104110Y201644D01*
X104110Y202613D02*
X109090Y202613D01*
X109090Y203582D02*
X104110Y203582D01*
X104110Y204551D02*
X109090Y204551D01*
X109090Y205520D02*
X104110Y205520D01*
X104110Y206489D02*
X109090Y206489D01*
X109090Y207458D02*
X104110Y207458D01*
X104110Y208427D02*
X109090Y208427D01*
X109090Y209396D02*
X104110Y209396D01*
X99090Y210310D02*
X94110Y210310D01*
X99090Y210310D02*
X99090Y195830D01*
X94110Y195830D01*
X94110Y210310D01*
X94110Y196799D02*
X99090Y196799D01*
X99090Y197768D02*
X94110Y197768D01*
X94110Y198737D02*
X99090Y198737D01*
X99090Y199706D02*
X94110Y199706D01*
X94110Y200675D02*
X99090Y200675D01*
X99090Y201644D02*
X94110Y201644D01*
X94110Y202613D02*
X99090Y202613D01*
X99090Y203582D02*
X94110Y203582D01*
X94110Y204551D02*
X99090Y204551D01*
X99090Y205520D02*
X94110Y205520D01*
X94110Y206489D02*
X99090Y206489D01*
X99090Y207458D02*
X94110Y207458D01*
X94110Y208427D02*
X99090Y208427D01*
X99090Y209396D02*
X94110Y209396D01*
X89090Y210310D02*
X84110Y210310D01*
X89090Y210310D02*
X89090Y195830D01*
X84110Y195830D01*
X84110Y210310D01*
X84110Y196799D02*
X89090Y196799D01*
X89090Y197768D02*
X84110Y197768D01*
X84110Y198737D02*
X89090Y198737D01*
X89090Y199706D02*
X84110Y199706D01*
X84110Y200675D02*
X89090Y200675D01*
X89090Y201644D02*
X84110Y201644D01*
X84110Y202613D02*
X89090Y202613D01*
X89090Y203582D02*
X84110Y203582D01*
X84110Y204551D02*
X89090Y204551D01*
X89090Y205520D02*
X84110Y205520D01*
X84110Y206489D02*
X89090Y206489D01*
X89090Y207458D02*
X84110Y207458D01*
X84110Y208427D02*
X89090Y208427D01*
X89090Y209396D02*
X84110Y209396D01*
D13*
X124080Y188340D02*
X135120Y188340D01*
X135120Y169300D01*
X124080Y169300D01*
X124080Y188340D01*
X124080Y170212D02*
X135120Y170212D01*
X135120Y171124D02*
X124080Y171124D01*
X124080Y172036D02*
X135120Y172036D01*
X135120Y172948D02*
X124080Y172948D01*
X124080Y173860D02*
X135120Y173860D01*
X135120Y174772D02*
X124080Y174772D01*
X124080Y175684D02*
X135120Y175684D01*
X135120Y176596D02*
X124080Y176596D01*
X124080Y177508D02*
X135120Y177508D01*
X135120Y178420D02*
X124080Y178420D01*
X124080Y179332D02*
X135120Y179332D01*
X135120Y180244D02*
X124080Y180244D01*
X124080Y181156D02*
X135120Y181156D01*
X135120Y182068D02*
X124080Y182068D01*
X124080Y182980D02*
X135120Y182980D01*
X135120Y183892D02*
X124080Y183892D01*
X124080Y184804D02*
X135120Y184804D01*
X135120Y185716D02*
X124080Y185716D01*
X124080Y186628D02*
X135120Y186628D01*
X135120Y187540D02*
X124080Y187540D01*
X79120Y188340D02*
X68080Y188340D01*
X79120Y188340D02*
X79120Y169300D01*
X68080Y169300D01*
X68080Y188340D01*
X68080Y170212D02*
X79120Y170212D01*
X79120Y171124D02*
X68080Y171124D01*
X68080Y172036D02*
X79120Y172036D01*
X79120Y172948D02*
X68080Y172948D01*
X68080Y173860D02*
X79120Y173860D01*
X79120Y174772D02*
X68080Y174772D01*
X68080Y175684D02*
X79120Y175684D01*
X79120Y176596D02*
X68080Y176596D01*
X68080Y177508D02*
X79120Y177508D01*
X79120Y178420D02*
X68080Y178420D01*
X68080Y179332D02*
X79120Y179332D01*
X79120Y180244D02*
X68080Y180244D01*
X68080Y181156D02*
X79120Y181156D01*
X79120Y182068D02*
X68080Y182068D01*
X68080Y182980D02*
X79120Y182980D01*
X79120Y183892D02*
X68080Y183892D01*
X68080Y184804D02*
X79120Y184804D01*
X79120Y185716D02*
X68080Y185716D01*
X68080Y186628D02*
X79120Y186628D01*
X79120Y187540D02*
X68080Y187540D01*
D14*
X160600Y71252D03*
X160600Y79252D03*
X160600Y87252D03*
X160600Y95252D03*
X160600Y103252D03*
X160600Y111252D03*
X160600Y119252D03*
X160600Y127252D03*
X160600Y135252D03*
X160600Y143252D03*
X160600Y151252D03*
X42600Y151252D03*
X42600Y143252D03*
X42600Y135252D03*
X42600Y127252D03*
X42600Y119252D03*
X42600Y111252D03*
X42600Y103252D03*
X42600Y95252D03*
X42600Y87252D03*
X42600Y79252D03*
X42600Y71252D03*
D15*
X69600Y160252D03*
X77600Y160252D03*
X85600Y160252D03*
X93600Y160252D03*
X101600Y160252D03*
X109600Y160252D03*
X117600Y160252D03*
X125600Y160252D03*
X133600Y160252D03*
X141600Y160252D03*
X149600Y160252D03*
X61600Y160252D03*
X53600Y160252D03*
X133600Y62252D03*
X125600Y62252D03*
X117600Y62252D03*
X109600Y62252D03*
X101600Y62252D03*
X93600Y62252D03*
X85600Y62252D03*
X77600Y62252D03*
X69600Y62252D03*
X61600Y62252D03*
X53600Y62252D03*
X141600Y62252D03*
X149600Y62252D03*
D16*
X42100Y61752D03*
X161100Y61752D03*
X42100Y160752D03*
X161100Y160752D03*
D17*
X121600Y91252D03*
X121600Y111252D03*
X121600Y131252D03*
X101600Y131252D03*
X81600Y131252D03*
X81600Y111252D03*
X81600Y91252D03*
X101600Y91252D03*
X101600Y111252D03*
M02*
