M48
;GenerationSoftware,Autodesk,EAGLE,9.6.2*%
;CreationDate,2023-12-07T20:39:46Z*%
FMAT,2
ICI,OFF
METRIC,TZ,000.000
T5C0.305
T4C0.400
T3C0.650
T2C0.850
T1C1.700
%
G90
M71
T1
X40940Y24130
X18080Y87630
X-300Y87630
X-300Y90170
X-300Y92710
X-300Y95250
X-300Y97790
X-300Y100330
X-300Y102870
X-300Y105410
X-300Y107950
X178100Y68580
X178100Y66040
X178100Y63500
X178100Y60960
X178100Y58420
X178100Y55880
X178100Y53340
X178100Y50800
X178100Y48260
X159720Y48260
X159720Y50800
X159720Y53340
X159720Y55880
X159720Y58420
X159720Y60960
X159720Y63500
X159720Y66040
X159720Y68580
X155240Y68580
X155240Y66040
X155240Y63500
X155240Y60960
X155240Y58420
X155240Y55880
X155240Y53340
X155240Y50800
X155240Y48260
X136860Y50800
X136860Y53340
X136860Y55880
X136860Y58420
X136860Y60960
X136860Y63500
X136860Y66040
X136860Y68580
X132380Y68580
X132380Y66040
X132380Y63500
X132380Y60960
X132380Y58420
X132380Y55880
X132380Y53340
X63800Y55880
X63800Y58420
X63800Y60960
X136860Y29210
X136860Y26670
X136860Y24130
X136860Y21590
X136860Y19050
X136860Y16510
X-300Y29210
X-300Y26670
X-300Y24130
X-300Y21590
X-300Y19050
X-300Y16510
X-300Y13970
X-300Y11430
X-300Y8890
X136860Y13970
X136860Y11430
X136860Y8890
X45420Y68580
X45420Y66040
X45420Y63500
X45420Y60960
X45420Y58420
X45420Y55880
X18080Y8890
X18080Y11430
X18080Y13970
X18080Y16510
X18080Y19050
X18080Y21590
X18080Y24130
X18080Y26670
X18080Y29210
X132380Y50800
X132380Y48260
X114000Y48260
X114000Y50800
X22560Y68580
X22560Y66040
X22560Y63500
X155240Y8890
X155240Y11430
X155240Y13970
X155240Y16510
X155240Y19050
X155240Y21590
X22560Y29210
X22560Y26670
X22560Y24130
X22560Y21590
X22560Y19050
X22560Y16510
X22560Y13970
X22560Y11430
X22560Y8890
X155240Y24130
X155240Y26670
X155240Y29210
X91140Y58420
X91140Y60960
X91140Y63500
X91140Y66040
X22560Y60960
X22560Y58420
X40940Y8890
X40940Y11430
X40940Y13970
X40940Y16510
X40940Y19050
X40940Y21590
X136860Y48260
X40940Y26670
X40940Y29210
X114000Y53340
X114000Y55880
X114000Y58420
X114000Y60960
X22560Y55880
X178100Y107950
X22560Y53340
X22560Y50800
X22560Y48260
X45420Y53340
X45420Y50800
X159720Y29210
X159720Y26670
X45420Y29210
X45420Y26670
X45420Y24130
X45420Y21590
X45420Y19050
X45420Y16510
X45420Y13970
X45420Y11430
X45420Y8890
X159720Y24130
X159720Y21590
X159720Y19050
X159720Y16510
X159720Y13970
X159720Y11430
X159720Y8890
X45420Y48260
X63800Y63500
X63800Y8890
X63800Y11430
X63800Y13970
X63800Y16510
X63800Y19050
X63800Y21590
X63800Y24130
X63800Y26670
X63800Y29210
X114000Y63500
X114000Y66040
X114000Y68580
X109520Y68580
X63800Y66040
X63800Y68580
X68280Y53340
X68280Y55880
X68280Y58420
X40940Y48260
X40940Y50800
X178100Y8890
X178100Y11430
X68280Y29210
X68280Y26670
X68280Y24130
X68280Y21590
X68280Y19050
X68280Y16510
X68280Y13970
X68280Y11430
X68280Y8890
X178100Y13970
X178100Y16510
X178100Y19050
X178100Y21590
X178100Y24130
X178100Y26670
X178100Y29210
X91140Y68580
X86660Y68580
X86660Y8890
X86660Y11430
X86660Y13970
X86660Y16510
X86660Y19050
X86660Y21590
X86660Y24130
X86660Y26670
X86660Y29210
X109520Y66040
X109520Y63500
X109520Y60960
X109520Y58420
X86660Y66040
X86660Y63500
X40940Y53340
X40940Y55880
X40940Y58420
X40940Y60960
X40940Y63500
X68280Y63500
X40940Y66040
X91140Y29210
X91140Y26670
X91140Y24130
X91140Y21590
X91140Y19050
X91140Y16510
X91140Y13970
X91140Y11430
X91140Y8890
X40940Y68580
X86660Y50800
X-300Y68580
X-300Y66040
X-300Y63500
X-300Y60960
X-300Y58420
X-300Y55880
X-300Y53340
X109520Y8890
X109520Y11430
X109520Y13970
X109520Y16510
X109520Y19050
X109520Y21590
X109520Y24130
X109520Y26670
X109520Y29210
X109520Y55880
X109520Y53340
X109520Y50800
X109520Y48260
X-300Y50800
X-300Y48260
X86660Y48260
X68280Y48260
X68280Y50800
X68280Y60960
X68280Y66040
X68280Y68580
X63800Y48260
X114000Y29210
X114000Y26670
X114000Y24130
X114000Y21590
X114000Y19050
X114000Y16510
X114000Y13970
X114000Y11430
X114000Y8890
X63800Y50800
X63800Y53340
X18080Y48260
X18080Y50800
X18080Y53340
X18080Y55880
X18080Y58420
X18080Y60960
X18080Y63500
X132380Y8890
X132380Y11430
X132380Y13970
X132380Y16510
X132380Y19050
X132380Y21590
X132380Y24130
X132380Y26670
X132380Y29210
X91140Y48260
X91140Y50800
X91140Y53340
X91140Y55880
X18080Y66040
X18080Y68580
X86660Y60960
X86660Y58420
X86660Y55880
X86660Y53340
X18080Y90170
X18080Y92710
X18080Y95250
X18080Y97790
X18080Y100330
X18080Y102870
X18080Y105410
X18080Y107950
X22560Y107950
X22560Y105410
X22560Y102870
X22560Y100330
X22560Y97790
X22560Y95250
X22560Y92710
X22560Y90170
X22560Y87630
X109520Y92710
X40940Y87630
X40940Y90170
X40940Y92710
X40940Y95250
X40940Y97790
X40940Y100330
X40940Y102870
X40940Y105410
X40940Y107950
X45420Y107950
X45420Y105410
X45420Y102870
X45420Y100330
X45420Y97790
X45420Y95250
X45420Y92710
X45420Y90170
X45420Y87630
X63800Y87630
X63800Y90170
X63800Y92710
X63800Y95250
X63800Y97790
X63800Y100330
X63800Y102870
X63800Y105410
X63800Y107950
X68280Y107950
X68280Y105410
X68280Y102870
X68280Y100330
X68280Y97790
X68280Y95250
X68280Y92710
X68280Y90170
X68280Y87630
X86660Y87630
X86660Y90170
X86660Y92710
X86660Y95250
X86660Y97790
X86660Y100330
X86660Y102870
X86660Y105410
X86660Y107950
X91140Y107950
X91140Y105410
X91140Y102870
X91140Y100330
X91140Y97790
X91140Y95250
X91140Y92710
X91140Y90170
X91140Y87630
X109520Y87630
X109520Y90170
X109520Y95250
X109520Y97790
X109520Y100330
X109520Y102870
X109520Y105410
X109520Y107950
X114000Y107950
X114000Y105410
X114000Y102870
X114000Y100330
X114000Y97790
X114000Y95250
X114000Y92710
X114000Y90170
X114000Y87630
X132380Y87630
X132380Y90170
X132380Y92710
X132380Y95250
X132380Y97790
X132380Y100330
X132380Y102870
X132380Y105410
X132380Y107950
X136860Y107950
X136860Y105410
X136860Y102870
X136860Y100330
X136860Y97790
X136860Y95250
X136860Y92710
X136860Y90170
X136860Y87630
X155240Y87630
X155240Y90170
X155240Y92710
X155240Y95250
X155240Y97790
X155240Y100330
X155240Y102870
X155240Y105410
X155240Y107950
X159720Y107950
X159720Y105410
X159720Y102870
X159720Y100330
X159720Y97790
X159720Y95250
X159720Y92710
X159720Y90170
X159720Y87630
X178100Y87630
X178100Y90170
X178100Y92710
X178100Y95250
X178100Y97790
X178100Y100330
X178100Y102870
X178100Y105410
T2
X161290Y8890
X176530Y13970
X176530Y11430
X176530Y16510
X176530Y8890
X176530Y19050
X176530Y24130
X176530Y21590
X176530Y26670
X176530Y29210
X1270Y63500
X1270Y66040
X1270Y60960
X1270Y68580
X1270Y58420
X1270Y55880
X1270Y50800
X1270Y48260
X16510Y53340
X16510Y50800
X16510Y55880
X16510Y48260
X16510Y58420
X16510Y63500
X16510Y60960
X16510Y66040
X16510Y68580
X24130Y63500
X24130Y66040
X24130Y60960
X24130Y68580
X24130Y58420
X24130Y53340
X24130Y55880
X24130Y50800
X24130Y48260
X39370Y53340
X39370Y50800
X39370Y55880
X39370Y48260
X39370Y58420
X39370Y63500
X39370Y60960
X39370Y66040
X39370Y68580
X46990Y63500
X46990Y66040
X46990Y60960
X46990Y68580
X46990Y58420
X46990Y53340
X46990Y55880
X46990Y50800
X46990Y48260
X62230Y53340
X62230Y50800
X62230Y55880
X62230Y48260
X62230Y58420
X62230Y63500
X62230Y60960
X62230Y66040
X62230Y68580
X69850Y63500
X69850Y66040
X69850Y60960
X69850Y68580
X69850Y58420
X69850Y53340
X69850Y55880
X69850Y50800
X69850Y48260
X161290Y29210
X85090Y53340
X85090Y50800
X85090Y55880
X85090Y48260
X85090Y58420
X85090Y63500
X85090Y60960
X85090Y66040
X85090Y68580
X92710Y63500
X92710Y66040
X92710Y60960
X92710Y68580
X92710Y58420
X92710Y53340
X92710Y55880
X92710Y50800
X92710Y48260
X107950Y53340
X107950Y50800
X107950Y55880
X107950Y48260
X107950Y58420
X107950Y63500
X107950Y60960
X107950Y66040
X107950Y68580
X115570Y63500
X115570Y66040
X115570Y60960
X115570Y68580
X115570Y58420
X115570Y53340
X115570Y55880
X115570Y50800
X115570Y48260
X130810Y53340
X130810Y50800
X130810Y55880
X130810Y48260
X130810Y58420
X130810Y63500
X130810Y60960
X130810Y66040
X130810Y68580
X138430Y63500
X138430Y66040
X138430Y60960
X138430Y68580
X138430Y58420
X138430Y53340
X138430Y55880
X138430Y50800
X138430Y48260
X1270Y53340
X153670Y53340
X153670Y50800
X153670Y55880
X153670Y48260
X153670Y58420
X153670Y63500
X153670Y60960
X153670Y66040
X153670Y68580
X161290Y63500
X161290Y66040
X161290Y60960
X161290Y68580
X161290Y58420
X161290Y53340
X161290Y55880
X161290Y50800
X161290Y48260
X176530Y53340
X176530Y55880
X176530Y48260
X176530Y58420
X176530Y63500
X176530Y60960
X176530Y66040
X176530Y68580
X1270Y102870
X1270Y105410
X1270Y100330
X1270Y107950
X1270Y97790
X1270Y92710
X1270Y95250
X1270Y90170
X1270Y87630
X16510Y92710
X16510Y90170
X16510Y95250
X16510Y87630
X16510Y97790
X16510Y102870
X16510Y100330
X16510Y105410
X16510Y107950
X1270Y24130
X1270Y26670
X1270Y21590
X1270Y29210
X1270Y19050
X1270Y13970
X1270Y16510
X1270Y11430
X24130Y102870
X24130Y105410
X24130Y100330
X24130Y107950
X24130Y97790
X24130Y92710
X24130Y95250
X24130Y90170
X24130Y87630
X1270Y8890
X16510Y13970
X16510Y11430
X16510Y16510
X16510Y8890
X16510Y19050
X16510Y24130
X16510Y21590
X16510Y26670
X39370Y92710
X39370Y90170
X39370Y95250
X39370Y87630
X39370Y97790
X16510Y29210
X39370Y100330
X39370Y105410
X39370Y107950
X24130Y24130
X24130Y26670
X24130Y21590
X24130Y29210
X24130Y19050
X24130Y13970
X24130Y16510
X24130Y11430
X24130Y8890
X46990Y102870
X46990Y105410
X46990Y100330
X46990Y107950
X46990Y97790
X46990Y92710
X46990Y95250
X46990Y90170
X46990Y87630
X39370Y13970
X39370Y11430
X39370Y16510
X39370Y8890
X39370Y19050
X39370Y24130
X39370Y21590
X39370Y26670
X39370Y29210
X62230Y92710
X62230Y90170
X62230Y95250
X62230Y87630
X62230Y97790
X62230Y102870
X62230Y100330
X62230Y105410
X62230Y107950
X46990Y24130
X46990Y26670
X46990Y21590
X46990Y29210
X46990Y19050
X46990Y13970
X46990Y16510
X46990Y11430
X46990Y8890
X69850Y102870
X69850Y105410
X69850Y100330
X69850Y107950
X69850Y97790
X69850Y92710
X69850Y95250
X69850Y90170
X69850Y87630
X62230Y13970
X62230Y11430
X62230Y16510
X62230Y8890
X62230Y19050
X62230Y24130
X62230Y21590
X62230Y26670
X62230Y29210
X85090Y92710
X85090Y90170
X85090Y95250
X85090Y87630
X85090Y97790
X85090Y102870
X85090Y100330
X85090Y105410
X85090Y107950
X69850Y24130
X69850Y26670
X69850Y21590
X69850Y29210
X69850Y19050
X69850Y13970
X69850Y16510
X69850Y11430
X69850Y8890
X92710Y102870
X92710Y105410
X92710Y100330
X92710Y107950
X92710Y97790
X92710Y92710
X92710Y95250
X92710Y90170
X92710Y87630
X85090Y13970
X85090Y11430
X85090Y16510
X85090Y8890
X85090Y19050
X85090Y24130
X85090Y21590
X85090Y26670
X85090Y29210
X107950Y92710
X107950Y90170
X107950Y95250
X107950Y87630
X107950Y97790
X107950Y102870
X107950Y100330
X107950Y105410
X107950Y107950
X92710Y24130
X92710Y26670
X39370Y102870
X92710Y21590
X92710Y29210
X92710Y19050
X92710Y13970
X92710Y16510
X92710Y11430
X115570Y102870
X115570Y105410
X115570Y100330
X115570Y107950
X115570Y97790
X115570Y92710
X115570Y95250
X115570Y90170
X115570Y87630
X92710Y8890
X107950Y13970
X107950Y11430
X107950Y16510
X107950Y8890
X107950Y19050
X107950Y24130
X107950Y21590
X107950Y26670
X130810Y92710
X130810Y90170
X130810Y95250
X130810Y87630
X130810Y97790
X130810Y102870
X130810Y100330
X130810Y105410
X130810Y107950
X107950Y29210
X115570Y24130
X115570Y26670
X115570Y21590
X115570Y29210
X115570Y19050
X115570Y13970
X115570Y16510
X115570Y11430
X138430Y102870
X138430Y105410
X138430Y100330
X138430Y107950
X138430Y97790
X138430Y92710
X138430Y95250
X138430Y90170
X138430Y87630
X115570Y8890
X130810Y13970
X130810Y11430
X130810Y16510
X130810Y8890
X130810Y19050
X130810Y24130
X130810Y21590
X130810Y26670
X153670Y92710
X153670Y90170
X153670Y95250
X153670Y87630
X153670Y97790
X153670Y102870
X153670Y100330
X153670Y105410
X153670Y107950
X130810Y29210
X138430Y24130
X138430Y26670
X138430Y21590
X138430Y29210
X138430Y19050
X138430Y13970
X138430Y16510
X138430Y11430
X161290Y102870
X161290Y105410
X161290Y100330
X161290Y107950
X161290Y97790
X161290Y92710
X161290Y95250
X161290Y90170
X161290Y87630
X138430Y8890
X153670Y13970
X153670Y11430
X153670Y16510
X153670Y8890
X153670Y19050
X153670Y24130
X153670Y21590
X153670Y26670
X176530Y92710
X176530Y90170
X176530Y95250
X176530Y87630
X176530Y97790
X176530Y102870
X176530Y100330
X176530Y105410
X176530Y107950
X153670Y29210
X161290Y24130
X161290Y26670
X161290Y21590
X161290Y19050
X161290Y13970
X161290Y16510
X161290Y11430
X176530Y50800
T3
X11780Y106855
X28860Y67485
X51720Y67485
X57500Y67485
X120300Y67485
X126080Y67485
X57500Y106855
X28860Y106855
X34640Y106855
X6000Y106855
X148940Y106855
X120300Y106855
X126080Y106855
X97440Y106855
X103220Y106855
X74580Y106855
X80360Y106855
X51720Y106855
X97440Y67485
X166020Y67485
X171800Y67485
X143160Y67485
X103220Y67485
X74580Y67485
X80360Y67485
X120300Y28115
X148940Y67485
X34640Y67485
X6000Y67485
X11780Y67485
X166020Y28115
X171800Y28115
X143160Y28115
X148940Y28115
X126080Y28115
X97440Y28115
X103220Y28115
X74580Y28115
X80360Y28115
X51720Y28115
X57500Y28115
X28860Y28115
X34640Y28115
X6000Y28115
X11780Y28115
X166020Y106855
X171800Y106855
X143160Y106855
T4
X104648Y31765
X81788Y27585
X96012Y66955
X58928Y110505
X50292Y110505
X50292Y106325
X58928Y106325
X173228Y71135
X164592Y71135
X164592Y66955
X173228Y66955
X127508Y71135
X118872Y71135
X118872Y66955
X127508Y66955
X104648Y66955
X58928Y66955
X50292Y66955
X81788Y66955
X150368Y110505
X141732Y110505
X141732Y106325
X150368Y106325
X73152Y66955
X81788Y71135
X50292Y71135
X58928Y71135
X73152Y27585
X73152Y31765
X81788Y31765
X58928Y27585
X150368Y31765
X27432Y66955
X27432Y71135
X36068Y71135
X13208Y66955
X81788Y110505
X73152Y110505
X73152Y106325
X81788Y106325
X4572Y66955
X4572Y71135
X73152Y71135
X104648Y71135
X13208Y110505
X4572Y110505
X4572Y106325
X13208Y106325
X50292Y27585
X50292Y31765
X58928Y31765
X36068Y27585
X27432Y27585
X36068Y66955
X13208Y71135
X173228Y27585
X173228Y110505
X164592Y110505
X164592Y106325
X173228Y106325
X164592Y27585
X96012Y71135
X150368Y66955
X127508Y27585
X118872Y27585
X118872Y31765
X127508Y31765
X104648Y27585
X127508Y110505
X118872Y110505
X164592Y31765
X173228Y31765
X150368Y27585
X141732Y27585
X141732Y31765
X27432Y31765
X36068Y31765
X13208Y27585
X4572Y27585
X118872Y106325
X104648Y110505
X96012Y110505
X96012Y106325
X104648Y106325
X4572Y31765
X13208Y31765
X127508Y106325
X96012Y27585
X96012Y31765
X150368Y71135
X141732Y71135
X141732Y66955
X36068Y110505
X27432Y110505
X27432Y106325
X36068Y106325
T5
X144907Y54483
X153467Y57150
X141097Y54483
X152908Y59690
X152298Y65151
X147066Y46609
X149758Y51308
X144145Y53670
X142570Y51689
X146761Y57175
X143002Y59309
X142291Y62230
X147828Y69850
X142494Y71374
X149606Y71374
X146990Y64922
X145136Y65100
X148158Y67285
X143967Y67335
X149631Y59385
X149682Y52959
X146863Y53594
X142189Y54559
X139065Y69977
X141097Y50165
X140208Y65888
X139319Y49530
X152425Y57455
X151105Y49733
X150597Y51587
X154178Y70180
X147650Y56540
X144882Y53772
X151892Y67437
X141770Y61214
X141453Y56261
X146482Y54635
X145618Y54635
X147320Y47371
X142570Y52400
X148310Y54111
X148590Y59690
X168779Y68304
X163836Y53721
X168910Y69723
X163830Y52959
X170231Y62357
X175336Y58928
X163957Y57937
X173457Y47473
X169570Y62357
X166776Y58674
X162743Y69977
X168072Y62789
X163576Y56490
X163830Y62230
X173990Y62230
X163830Y46990
X161798Y46482
X163678Y67666
X172669Y62230
X169610Y58281
X166294Y65456
X172568Y65329
X162966Y66827
X176784Y46990
X171933Y54432
X163830Y49149
X165100Y48260
X167767Y54483
X173279Y49225
X176327Y57150
X163957Y54483
X175768Y59690
X175158Y65151
X169926Y46609
X172618Y51308
X167005Y53670
X165430Y51689
X169621Y57175
X165862Y59309
X165151Y62230
X170688Y69850
X165354Y71374
X172466Y71374
X169850Y64922
X167996Y65100
X171018Y67285
X166827Y67335
X172491Y59385
X172542Y52959
X169723Y53594
X165049Y54559
X161925Y69977
X163957Y50165
X163068Y65888
X162179Y49530
X175285Y57455
X173965Y49733
X173457Y51587
X177038Y70180
X170510Y56540
X167742Y53772
X174752Y67437
X164630Y61214
X164313Y56261
X169342Y54635
X168478Y54635
X170180Y47371
X165430Y52400
X171170Y54111
X171450Y59690
X8759Y107674
X3816Y93091
X8890Y109093
X3810Y92329
X10211Y101727
X15316Y98298
X3937Y97307
X13437Y86843
X9550Y101727
X6756Y98044
X2723Y109347
X8052Y102159
X3556Y95860
X3810Y101600
X13970Y101600
X3810Y86360
X1778Y85852
X3658Y107036
X12649Y101600
X9590Y97651
X6274Y104826
X12548Y104699
X2946Y106197
X16764Y86360
X11913Y93802
X3810Y88519
X5080Y87630
X7747Y93853
X13259Y88595
X16307Y96520
X3937Y93853
X15748Y99060
X15138Y104521
X9906Y85979
X12598Y90678
X6985Y93040
X5410Y91059
X9601Y96545
X5842Y98679
X5131Y101600
X10668Y109220
X5334Y110744
X12446Y110744
X9830Y104292
X7976Y104470
X10998Y106655
X6807Y106705
X12471Y98755
X12522Y92329
X9703Y92964
X5029Y93929
X1905Y109347
X3937Y89535
X3048Y105258
X2159Y88900
X15265Y96825
X13945Y89103
X13437Y90957
X17018Y109550
X10490Y95910
X7722Y93142
X14732Y106807
X4610Y100584
X4293Y95631
X9322Y94005
X8458Y94005
X10160Y86741
X5410Y91770
X11150Y93481
X11430Y99060
X31619Y107674
X26676Y93091
X31750Y109093
X26670Y92329
X33071Y101727
X38176Y98298
X26797Y97307
X36297Y86843
X32410Y101727
X29616Y98044
X25583Y109347
X30912Y102159
X26416Y95860
X26670Y101600
X36830Y101600
X26670Y86360
X24638Y85852
X26518Y107036
X35509Y101600
X32450Y97651
X29134Y104826
X35408Y104699
X25806Y106197
X39624Y86360
X34773Y93802
X26670Y88519
X27940Y87630
X30607Y93853
X36119Y88595
X39167Y96520
X26797Y93853
X38608Y99060
X37998Y104521
X32766Y85979
X35458Y90678
X29845Y93040
X28270Y91059
X32461Y96545
X28702Y98679
X27991Y101600
X33528Y109220
X28194Y110744
X35306Y110744
X32690Y104292
X30836Y104470
X33858Y106655
X29667Y106705
X35331Y98755
X35382Y92329
X32563Y92964
X27889Y93929
X24765Y109347
X26797Y89535
X25908Y105258
X25019Y88900
X38125Y96825
X36805Y89103
X36297Y90957
X39878Y109550
X33350Y95910
X30582Y93142
X37592Y106807
X27470Y100584
X27153Y95631
X32182Y94005
X31318Y94005
X33020Y86741
X28270Y91770
X34010Y93481
X34290Y99060
X54479Y107674
X49536Y93091
X54610Y109093
X49530Y92329
X55931Y101727
X61036Y98298
X49657Y97307
X59157Y86843
X55270Y101727
X52476Y98044
X48443Y109347
X53772Y102159
X49276Y95860
X49530Y101600
X59690Y101600
X49530Y86360
X47498Y85852
X49378Y107036
X58369Y101600
X55310Y97651
X51994Y104826
X58268Y104699
X48666Y106197
X62484Y86360
X57633Y93802
X49530Y88519
X50800Y87630
X53467Y93853
X58979Y88595
X62027Y96520
X49657Y93853
X61468Y99060
X60858Y104521
X55626Y85979
X58318Y90678
X52705Y93040
X51130Y91059
X55321Y96545
X51562Y98679
X50851Y101600
X56388Y109220
X51054Y110744
X58166Y110744
X55550Y104292
X53696Y104470
X56718Y106655
X52527Y106705
X58191Y98755
X58242Y92329
X55423Y92964
X50749Y93929
X47625Y109347
X49657Y89535
X48768Y105258
X47879Y88900
X60985Y96825
X59665Y89103
X59157Y90957
X62738Y109550
X56210Y95910
X53442Y93142
X60452Y106807
X50330Y100584
X50013Y95631
X55042Y94005
X54178Y94005
X55880Y86741
X51130Y91770
X56870Y93481
X57150Y99060
X77339Y107674
X72396Y93091
X77470Y109093
X72390Y92329
X78791Y101727
X83896Y98298
X72517Y97307
X82017Y86843
X78130Y101727
X75336Y98044
X71303Y109347
X76632Y102159
X72136Y95860
X72390Y101600
X105385Y10363
X72390Y86360
X70358Y85852
X72238Y107036
X81229Y101600
X78170Y97651
X74854Y104826
X81128Y104699
X71526Y106197
X85344Y86360
X80493Y93802
X72390Y88519
X73660Y87630
X76327Y93853
X81839Y88595
X84887Y96520
X72517Y93853
X84328Y99060
X83718Y104521
X78486Y85979
X81178Y90678
X75565Y93040
X73990Y91059
X78181Y96545
X74422Y98679
X73711Y101600
X79248Y109220
X73914Y110744
X81026Y110744
X78410Y104292
X76556Y104470
X79578Y106655
X75387Y106705
X81051Y98755
X81102Y92329
X78283Y92964
X73609Y93929
X70485Y109347
X72517Y89535
X71628Y105258
X70739Y88900
X83845Y96825
X82525Y89103
X82017Y90957
X85598Y109550
X79070Y95910
X76302Y93142
X83312Y106807
X73190Y100584
X72873Y95631
X77902Y94005
X77038Y94005
X78740Y86741
X73990Y91770
X79730Y93481
X80010Y99060
X100199Y107674
X95256Y93091
X100330Y109093
X95250Y92329
X101651Y101727
X106756Y98298
X95377Y97307
X104877Y86843
X100990Y101727
X98196Y98044
X94163Y109347
X99492Y102159
X94996Y95860
X95250Y101600
X105410Y101600
X95250Y86360
X93218Y85852
X95098Y107036
X104089Y101600
X101030Y97651
X97714Y104826
X103988Y104699
X94386Y106197
X108204Y86360
X103353Y93802
X95250Y88519
X96520Y87630
X99187Y93853
X104699Y88595
X107747Y96520
X95377Y93853
X107188Y99060
X106578Y104521
X101346Y85979
X104038Y90678
X98425Y93040
X96850Y91059
X101041Y96545
X97282Y98679
X96571Y101600
X102108Y109220
X96774Y110744
X103886Y110744
X101270Y104292
X99416Y104470
X102438Y106655
X98247Y106705
X103911Y98755
X103962Y92329
X101143Y92964
X96469Y93929
X93345Y109347
X95377Y89535
X94488Y105258
X93599Y88900
X106705Y96825
X105385Y89103
X104877Y90957
X108458Y109550
X101930Y95910
X99162Y93142
X106172Y106807
X96050Y100584
X95733Y95631
X100762Y94005
X99898Y94005
X101600Y86741
X96850Y91770
X102590Y93481
X102870Y99060
X123059Y107674
X118116Y93091
X123190Y109093
X118110Y92329
X124511Y101727
X129616Y98298
X118237Y97307
X127737Y86843
X123850Y101727
X121056Y98044
X117023Y109347
X122352Y102159
X117856Y95860
X118110Y101600
X128270Y101600
X118110Y86360
X116078Y85852
X117958Y107036
X126949Y101600
X123890Y97651
X120574Y104826
X126848Y104699
X117246Y106197
X131064Y86360
X126213Y93802
X118110Y88519
X119380Y87630
X122047Y93853
X127559Y88595
X130607Y96520
X118237Y93853
X130048Y99060
X129438Y104521
X124206Y85979
X126898Y90678
X121285Y93040
X119710Y91059
X123901Y96545
X120142Y98679
X119431Y101600
X124968Y109220
X119634Y110744
X126746Y110744
X124130Y104292
X122276Y104470
X125298Y106655
X121107Y106705
X126771Y98755
X126822Y92329
X124003Y92964
X119329Y93929
X116205Y109347
X118237Y89535
X117348Y105258
X116459Y88900
X129565Y96825
X128245Y89103
X127737Y90957
X131318Y109550
X124790Y95910
X122022Y93142
X129032Y106807
X118910Y100584
X118593Y95631
X123622Y94005
X122758Y94005
X124460Y86741
X119710Y91770
X125450Y93481
X125730Y99060
X145919Y107674
X140976Y93091
X146050Y109093
X140970Y92329
X147371Y101727
X152476Y98298
X141097Y97307
X150597Y86843
X146710Y101727
X143916Y98044
X139883Y109347
X145212Y102159
X140716Y95860
X140970Y101600
X151130Y101600
X140970Y86360
X138938Y85852
X140818Y107036
X149809Y101600
X146750Y97651
X143434Y104826
X149708Y104699
X140106Y106197
X153924Y86360
X149073Y93802
X140970Y88519
X142240Y87630
X144907Y93853
X150419Y88595
X153467Y96520
X141097Y93853
X152908Y99060
X152298Y104521
X147066Y85979
X149758Y90678
X144145Y93040
X142570Y91059
X146761Y96545
X143002Y98679
X142291Y101600
X147828Y109220
X142494Y110744
X149606Y110744
X146990Y104292
X145136Y104470
X148158Y106655
X143967Y106705
X149631Y98755
X149682Y92329
X146863Y92964
X142189Y93929
X139065Y109347
X141097Y89535
X140208Y105258
X139319Y88900
X152425Y96825
X151105Y89103
X150597Y90957
X154178Y109550
X147650Y95910
X144882Y93142
X151892Y106807
X141770Y100584
X141453Y95631
X146482Y94005
X145618Y94005
X147320Y86741
X142570Y91770
X148310Y93481
X148590Y99060
X168779Y107674
X163836Y93091
X168910Y109093
X163830Y92329
X170231Y101727
X175336Y98298
X163957Y97307
X173457Y86843
X169570Y101727
X166776Y98044
X162743Y109347
X168072Y102159
X163576Y95860
X163830Y101600
X173990Y101600
X163830Y86360
X161798Y85852
X163678Y107036
X172669Y101600
X169610Y97651
X166294Y104826
X172568Y104699
X162966Y106197
X176784Y86360
X171933Y93802
X163830Y88519
X165100Y87630
X167767Y93853
X173279Y88595
X176327Y96520
X163957Y93853
X175768Y99060
X175158Y104521
X169926Y85979
X172618Y90678
X167005Y93040
X165430Y91059
X169621Y96545
X165862Y98679
X165151Y101600
X170688Y109220
X165354Y110744
X172466Y110744
X169850Y104292
X167996Y104470
X171018Y106655
X166827Y106705
X172491Y98755
X172542Y92329
X169723Y92964
X165049Y93929
X161925Y109347
X163957Y89535
X163068Y105258
X162179Y88900
X175285Y96825
X173965Y89103
X173457Y90957
X177038Y109550
X170510Y95910
X167742Y93142
X174752Y106807
X164630Y100584
X164313Y95631
X169342Y94005
X168478Y94005
X170180Y86741
X165430Y91770
X171170Y93481
X171450Y99060
X82550Y101600
X8759Y28934
X3816Y14351
X8890Y30353
X3810Y13589
X10211Y22987
X15316Y19558
X3937Y18567
X13437Y8103
X9550Y22987
X6756Y19304
X2723Y30607
X8052Y23419
X3556Y17120
X3810Y22860
X13970Y22860
X3810Y7620
X1778Y7112
X3658Y28296
X12649Y22860
X9590Y18911
X6274Y26086
X12548Y25959
X2946Y27457
X16764Y7620
X11913Y15062
X3810Y9779
X5080Y8890
X7747Y15113
X13259Y9855
X16307Y17780
X3937Y15113
X15748Y20320
X15138Y25781
X9906Y7239
X12598Y11938
X6985Y14300
X5410Y12319
X9601Y17805
X5842Y19939
X5131Y22860
X10668Y30480
X5334Y32004
X12446Y32004
X9830Y25552
X7976Y25730
X10998Y27915
X6807Y27965
X12471Y20015
X12522Y13589
X9703Y14224
X5029Y15189
X1905Y30607
X3937Y10795
X3048Y26518
X2159Y10160
X15265Y18085
X13945Y10363
X13437Y12217
X17018Y30810
X10490Y17170
X7722Y14402
X14732Y28067
X4610Y21844
X4293Y16891
X9322Y15265
X8458Y15265
X10160Y8001
X5410Y13030
X11150Y14741
X11430Y20320
X31619Y28934
X26676Y14351
X31750Y30353
X26670Y13589
X33071Y22987
X38176Y19558
X26797Y18567
X36297Y8103
X32410Y22987
X29616Y19304
X25583Y30607
X30912Y23419
X26416Y17120
X26670Y22860
X36830Y22860
X26670Y7620
X24638Y7112
X26518Y28296
X35509Y22860
X32450Y18911
X29134Y26086
X35408Y25959
X25806Y27457
X39624Y7620
X34773Y15062
X26670Y9779
X27940Y8890
X30607Y15113
X36119Y9855
X39167Y17780
X26797Y15113
X38608Y20320
X37998Y25781
X32766Y7239
X35458Y11938
X29845Y14300
X28270Y12319
X32461Y17805
X28702Y19939
X27991Y22860
X33528Y30480
X28194Y32004
X35306Y32004
X32690Y25552
X30836Y25730
X33858Y27915
X29667Y27965
X35331Y20015
X35382Y13589
X32563Y14224
X27889Y15189
X24765Y30607
X26797Y10795
X25908Y26518
X25019Y10160
X38125Y18085
X36805Y10363
X36297Y12217
X39878Y30810
X33350Y17170
X30582Y14402
X37592Y28067
X27470Y21844
X27153Y16891
X32182Y15265
X31318Y15265
X33020Y8001
X28270Y13030
X34010Y14741
X34290Y20320
X54479Y28934
X49536Y14351
X54610Y30353
X49530Y13589
X55931Y22987
X61036Y19558
X49657Y18567
X59157Y8103
X55270Y22987
X52476Y19304
X48443Y30607
X53772Y23419
X49276Y17120
X49530Y22860
X59690Y22860
X49530Y7620
X47498Y7112
X49378Y28296
X58369Y22860
X55310Y18911
X51994Y26086
X58268Y25959
X48666Y27457
X62484Y7620
X57633Y15062
X49530Y9779
X50800Y8890
X53467Y15113
X58979Y9855
X62027Y17780
X49657Y15113
X61468Y20320
X60858Y25781
X55626Y7239
X58318Y11938
X52705Y14300
X51130Y12319
X55321Y17805
X51562Y19939
X50851Y22860
X56388Y30480
X51054Y32004
X58166Y32004
X55550Y25552
X53696Y25730
X56718Y27915
X52527Y27965
X58191Y20015
X58242Y13589
X55423Y14224
X50749Y15189
X47625Y30607
X49657Y10795
X48768Y26518
X47879Y10160
X60985Y18085
X59665Y10363
X59157Y12217
X62738Y30810
X56210Y17170
X53442Y14402
X60452Y28067
X50330Y21844
X50013Y16891
X55042Y15265
X54178Y15265
X55880Y8001
X51130Y13030
X56870Y14741
X57150Y20320
X77339Y28934
X72396Y14351
X77470Y30353
X72390Y13589
X78791Y22987
X83896Y19558
X72517Y18567
X82017Y8103
X78130Y22987
X75336Y19304
X71303Y30607
X76632Y23419
X72136Y17120
X72390Y22860
X82550Y22860
X72390Y7620
X70358Y7112
X72238Y28296
X81229Y22860
X78170Y18911
X74854Y26086
X81128Y25959
X71526Y27457
X85344Y7620
X80493Y15062
X72390Y9779
X73660Y8890
X76327Y15113
X81839Y9855
X84887Y17780
X72517Y15113
X84328Y20320
X83718Y25781
X78486Y7239
X81178Y11938
X75565Y14300
X73990Y12319
X78181Y17805
X74422Y19939
X73711Y22860
X79248Y30480
X73914Y32004
X81026Y32004
X78410Y25552
X76556Y25730
X79578Y27915
X75387Y27965
X81051Y20015
X81102Y13589
X78283Y14224
X73609Y15189
X70485Y30607
X72517Y10795
X71628Y26518
X70739Y10160
X83845Y18085
X82525Y10363
X82017Y12217
X85598Y30810
X79070Y17170
X76302Y14402
X83312Y28067
X73190Y21844
X72873Y16891
X77902Y15265
X77038Y15265
X78740Y8001
X73990Y13030
X79730Y14741
X80010Y20320
X100199Y28934
X95256Y14351
X100330Y30353
X95250Y13589
X101651Y22987
X106756Y19558
X95377Y18567
X104877Y8103
X100990Y22987
X98196Y19304
X94163Y30607
X99492Y23419
X94996Y17120
X95250Y22860
X105410Y22860
X95250Y7620
X93218Y7112
X95098Y28296
X104089Y22860
X101030Y18911
X97714Y26086
X103988Y25959
X94386Y27457
X108204Y7620
X103353Y15062
X95250Y9779
X96520Y8890
X99187Y15113
X104699Y9855
X107747Y17780
X95377Y15113
X107188Y20320
X106578Y25781
X101346Y7239
X104038Y11938
X98425Y14300
X96850Y12319
X101041Y17805
X97282Y19939
X96571Y22860
X102108Y30480
X96774Y32004
X103886Y32004
X101270Y25552
X99416Y25730
X102438Y27915
X98247Y27965
X103911Y20015
X103962Y13589
X101143Y14224
X96469Y15189
X93345Y30607
X95377Y10795
X94488Y26518
X93599Y10160
X106705Y18085
X104877Y12217
X108458Y30810
X101930Y17170
X99162Y14402
X106172Y28067
X96050Y21844
X95733Y16891
X100762Y15265
X99898Y15265
X101600Y8001
X96850Y13030
X102590Y14741
X102870Y20320
X123059Y28934
X118116Y14351
X123190Y30353
X118110Y13589
X124511Y22987
X129616Y19558
X118237Y18567
X127737Y8103
X123850Y22987
X121056Y19304
X117023Y30607
X122352Y23419
X117856Y17120
X118110Y22860
X128270Y22860
X118110Y7620
X116078Y7112
X117958Y28296
X126949Y22860
X123890Y18911
X120574Y26086
X126848Y25959
X117246Y27457
X131064Y7620
X126213Y15062
X118110Y9779
X119380Y8890
X122047Y15113
X127559Y9855
X130607Y17780
X118237Y15113
X130048Y20320
X129438Y25781
X124206Y7239
X126898Y11938
X121285Y14300
X119710Y12319
X123901Y17805
X120142Y19939
X119431Y22860
X124968Y30480
X119634Y32004
X126746Y32004
X124130Y25552
X122276Y25730
X125298Y27915
X121107Y27965
X126771Y20015
X126822Y13589
X124003Y14224
X119329Y15189
X116205Y30607
X118237Y10795
X117348Y26518
X116459Y10160
X129565Y18085
X128245Y10363
X127737Y12217
X131318Y30810
X124790Y17170
X122022Y14402
X129032Y28067
X118910Y21844
X118593Y16891
X123622Y15265
X122758Y15265
X124460Y8001
X119710Y13030
X125450Y14741
X125730Y20320
X145919Y28934
X140976Y14351
X146050Y30353
X140970Y13589
X147371Y22987
X152476Y19558
X141097Y18567
X150597Y8103
X146710Y22987
X143916Y19304
X139883Y30607
X145212Y23419
X140716Y17120
X140970Y22860
X151130Y22860
X140970Y7620
X138938Y7112
X140818Y28296
X149809Y22860
X146750Y18911
X143434Y26086
X149708Y25959
X140106Y27457
X153924Y7620
X149073Y15062
X140970Y9779
X142240Y8890
X144907Y15113
X150419Y9855
X153467Y17780
X141097Y15113
X152908Y20320
X152298Y25781
X147066Y7239
X149758Y11938
X144145Y14300
X142570Y12319
X146761Y17805
X143002Y19939
X142291Y22860
X147828Y30480
X142494Y32004
X149606Y32004
X146990Y25552
X145136Y25730
X148158Y27915
X143967Y27965
X149631Y20015
X149682Y13589
X146863Y14224
X142189Y15189
X139065Y30607
X141097Y10795
X140208Y26518
X139319Y10160
X152425Y18085
X151105Y10363
X150597Y12217
X154178Y30810
X147650Y17170
X144882Y14402
X151892Y28067
X141770Y21844
X141453Y16891
X146482Y15265
X145618Y15265
X147320Y8001
X142570Y13030
X148310Y14741
X148590Y20320
X168779Y28934
X163836Y14351
X168910Y30353
X163830Y13589
X170231Y22987
X175336Y19558
X163957Y18567
X173457Y8103
X169570Y22987
X166776Y19304
X162743Y30607
X168072Y23419
X163576Y17120
X163830Y22860
X173990Y22860
X163830Y7620
X161798Y7112
X163678Y28296
X172669Y22860
X169610Y18911
X166294Y26086
X172568Y25959
X162966Y27457
X176784Y7620
X171933Y15062
X163830Y9779
X165100Y8890
X167767Y15113
X173279Y9855
X176327Y17780
X163957Y15113
X175768Y20320
X175158Y25781
X169926Y7239
X172618Y11938
X167005Y14300
X165430Y12319
X169621Y17805
X165862Y19939
X165151Y22860
X170688Y30480
X165354Y32004
X172466Y32004
X169850Y25552
X167996Y25730
X171018Y27915
X166827Y27965
X172491Y20015
X172542Y13589
X169723Y14224
X165049Y15189
X161925Y30607
X163957Y10795
X163068Y26518
X162179Y10160
X175285Y18085
X173965Y10363
X173457Y12217
X177038Y30810
X170510Y17170
X167742Y14402
X174752Y28067
X164630Y21844
X164313Y16891
X169342Y15265
X168478Y15265
X170180Y8001
X165430Y13030
X171170Y14741
X171450Y20320
X8759Y68304
X3816Y53721
X8890Y69723
X3810Y52959
X10211Y62357
X15316Y58928
X3937Y57937
X13437Y47473
X9550Y62357
X6756Y58674
X2723Y69977
X8052Y62789
X3556Y56490
X3810Y62230
X13970Y62230
X3810Y46990
X1778Y46482
X3658Y67666
X12649Y62230
X9590Y58281
X6274Y65456
X12548Y65329
X2946Y66827
X16764Y46990
X11913Y54432
X3810Y49149
X5080Y48260
X7747Y54483
X13259Y49225
X16307Y57150
X3937Y54483
X15748Y59690
X15138Y65151
X9906Y46609
X12598Y51308
X6985Y53670
X5410Y51689
X9601Y57175
X5842Y59309
X5131Y62230
X10668Y69850
X5334Y71374
X12446Y71374
X9830Y64922
X7976Y65100
X10998Y67285
X6807Y67335
X12471Y59385
X12522Y52959
X9703Y53594
X5029Y54559
X1905Y69977
X3937Y50165
X3048Y65888
X2159Y49530
X15265Y57455
X13945Y49733
X13437Y51587
X17018Y70180
X10490Y56540
X7722Y53772
X14732Y67437
X4610Y61214
X4293Y56261
X9322Y54635
X8458Y54635
X10160Y47371
X5410Y52400
X11150Y54111
X11430Y59690
X31619Y68304
X26676Y53721
X31750Y69723
X26670Y52959
X33071Y62357
X38176Y58928
X26797Y57937
X36297Y47473
X32410Y62357
X29616Y58674
X25583Y69977
X30912Y62789
X26416Y56490
X26670Y62230
X36830Y62230
X26670Y46990
X24638Y46482
X26518Y67666
X35509Y62230
X32450Y58281
X29134Y65456
X35408Y65329
X25806Y66827
X39624Y46990
X34773Y54432
X26670Y49149
X27940Y48260
X30607Y54483
X36119Y49225
X39167Y57150
X26797Y54483
X38608Y59690
X37998Y65151
X32766Y46609
X35458Y51308
X29845Y53670
X28270Y51689
X32461Y57175
X28702Y59309
X27991Y62230
X33528Y69850
X150419Y49225
X28194Y71374
X35306Y71374
X32690Y64922
X30836Y65100
X33858Y67285
X29667Y67335
X35331Y59385
X35382Y52959
X32563Y53594
X27889Y54559
X24765Y69977
X26797Y50165
X25908Y65888
X25019Y49530
X38125Y57455
X36805Y49733
X36297Y51587
X39878Y70180
X33350Y56540
X30582Y53772
X37592Y67437
X27470Y61214
X27153Y56261
X32182Y54635
X31318Y54635
X33020Y47371
X28270Y52400
X34010Y54111
X34290Y59690
X54479Y68304
X49536Y53721
X54610Y69723
X49530Y52959
X55931Y62357
X61036Y58928
X49657Y57937
X59157Y47473
X55270Y62357
X52476Y58674
X48443Y69977
X53772Y62789
X49276Y56490
X49530Y62230
X59690Y62230
X49530Y46990
X47498Y46482
X49378Y67666
X58369Y62230
X55310Y58281
X51994Y65456
X58268Y65329
X48666Y66827
X62484Y46990
X57633Y54432
X49530Y49149
X50800Y48260
X53467Y54483
X58979Y49225
X62027Y57150
X49657Y54483
X61468Y59690
X60858Y65151
X55626Y46609
X58318Y51308
X52705Y53670
X51130Y51689
X55321Y57175
X51562Y59309
X50851Y62230
X56388Y69850
X51054Y71374
X58166Y71374
X55550Y64922
X53696Y65100
X56718Y67285
X52527Y67335
X58191Y59385
X58242Y52959
X55423Y53594
X50749Y54559
X47625Y69977
X49657Y50165
X48768Y65888
X47879Y49530
X60985Y57455
X59665Y49733
X59157Y51587
X62738Y70180
X56210Y56540
X53442Y53772
X60452Y67437
X50330Y61214
X50013Y56261
X55042Y54635
X54178Y54635
X55880Y47371
X51130Y52400
X56870Y54111
X57150Y59690
X77339Y68304
X72396Y53721
X77470Y69723
X72390Y52959
X78791Y62357
X83896Y58928
X72517Y57937
X82017Y47473
X78130Y62357
X75336Y58674
X71303Y69977
X76632Y62789
X72136Y56490
X72390Y62230
X82550Y62230
X72390Y46990
X70358Y46482
X72238Y67666
X81229Y62230
X78170Y58281
X74854Y65456
X81128Y65329
X71526Y66827
X85344Y46990
X80493Y54432
X72390Y49149
X73660Y48260
X76327Y54483
X81839Y49225
X84887Y57150
X72517Y54483
X84328Y59690
X83718Y65151
X78486Y46609
X81178Y51308
X75565Y53670
X73990Y51689
X78181Y57175
X74422Y59309
X73711Y62230
X79248Y69850
X73914Y71374
X81026Y71374
X78410Y64922
X76556Y65100
X79578Y67285
X75387Y67335
X81051Y59385
X81102Y52959
X78283Y53594
X73609Y54559
X70485Y69977
X72517Y50165
X71628Y65888
X70739Y49530
X83845Y57455
X82525Y49733
X82017Y51587
X85598Y70180
X79070Y56540
X76302Y53772
X83312Y67437
X73190Y61214
X72873Y56261
X77902Y54635
X77038Y54635
X78740Y47371
X73990Y52400
X79730Y54111
X80010Y59690
X100199Y68304
X95256Y53721
X100330Y69723
X95250Y52959
X101651Y62357
X106756Y58928
X95377Y57937
X104877Y47473
X100990Y62357
X98196Y58674
X94163Y69977
X99492Y62789
X94996Y56490
X95250Y62230
X105410Y62230
X95250Y46990
X93218Y46482
X95098Y67666
X104089Y62230
X101030Y58281
X97714Y65456
X103988Y65329
X94386Y66827
X108204Y46990
X103353Y54432
X95250Y49149
X96520Y48260
X99187Y54483
X104699Y49225
X107747Y57150
X95377Y54483
X107188Y59690
X106578Y65151
X101346Y46609
X104038Y51308
X98425Y53670
X96850Y51689
X101041Y57175
X97282Y59309
X96571Y62230
X102108Y69850
X96774Y71374
X103886Y71374
X101270Y64922
X99416Y65100
X102438Y67285
X98247Y67335
X103911Y59385
X103962Y52959
X101143Y53594
X96469Y54559
X93345Y69977
X95377Y50165
X94488Y65888
X93599Y49530
X106705Y57455
X105385Y49733
X104877Y51587
X108458Y70180
X101930Y56540
X99162Y53772
X106172Y67437
X96050Y61214
X95733Y56261
X100762Y54635
X99898Y54635
X101600Y47371
X96850Y52400
X102590Y54111
X102870Y59690
X123059Y68304
X118116Y53721
X123190Y69723
X118110Y52959
X124511Y62357
X129616Y58928
X118237Y57937
X127737Y47473
X123850Y62357
X121056Y58674
X117023Y69977
X122352Y62789
X117856Y56490
X118110Y62230
X128270Y62230
X118110Y46990
X116078Y46482
X117958Y67666
X126949Y62230
X123890Y58281
X120574Y65456
X126848Y65329
X117246Y66827
X131064Y46990
X126213Y54432
X118110Y49149
X119380Y48260
X122047Y54483
X127559Y49225
X130607Y57150
X118237Y54483
X130048Y59690
X129438Y65151
X124206Y46609
X126898Y51308
X121285Y53670
X119710Y51689
X123901Y57175
X120142Y59309
X119431Y62230
X124968Y69850
X119634Y71374
X126746Y71374
X124130Y64922
X122276Y65100
X125298Y67285
X121107Y67335
X126771Y59385
X126822Y52959
X124003Y53594
X119329Y54559
X116205Y69977
X118237Y50165
X117348Y65888
X116459Y49530
X129565Y57455
X128245Y49733
X127737Y51587
X131318Y70180
X124790Y56540
X122022Y53772
X129032Y67437
X118910Y61214
X118593Y56261
X123622Y54635
X122758Y54635
X124460Y47371
X119710Y52400
X125450Y54111
X125730Y59690
X145919Y68304
X140976Y53721
X146050Y69723
X140970Y52959
X147371Y62357
X152476Y58928
X141097Y57937
X150597Y47473
X146710Y62357
X143916Y58674
X139883Y69977
X145212Y62789
X140716Y56490
X140970Y62230
X151130Y62230
X140970Y46990
X138938Y46482
X140818Y67666
X149809Y62230
X146750Y58281
X143434Y65456
X149708Y65329
X140106Y66827
X153924Y46990
X149073Y54432
X140970Y49149
X142240Y48260
M30